<svg width="45" height="30" viewBox="0 0 45 30" fill="none" xmlns="http://www.w3.org/2000/svg">
<path d="M43.4737 2.69142C42.9982 1.75786 42.2533 1.01299 41.3196 0.537296C40.2649 -2.10416e-07 39.0934 0 36.7593 0H7.25139C4.91722 0 3.7459 -1.2625e-07 2.69161 0.53712C1.75804 1.01281 1.013 1.75769 0.537481 2.69125C7.74332e-06 3.74572 0 4.91722 0 7.25139V21.9584C0 24.2925 -9.63707e-06 25.464 0.537287 26.5183C1.01316 27.4524 1.75822 28.1973 2.69143 28.6725C3.7459 29.2098 4.91722 29.2098 7.25139 29.2098H36.7593C39.0934 29.2098 40.2649 29.2098 41.3194 28.6725C42.2531 28.1969 42.998 27.4519 43.4735 26.5183C44.0108 25.4639 44.0108 24.2924 44.0108 21.9584V7.25139C44.0108 4.91739 44.0108 3.74572 43.4737 2.69142ZM41.8927 21.9584C41.8927 23.891 41.8927 24.9553 41.5863 25.5569C41.3152 26.0892 40.8905 26.5139 40.3578 26.7852C39.7566 27.0916 38.6919 27.0916 36.7593 27.0916H7.25139C5.31896 27.0916 4.25441 27.0916 3.65287 26.785C3.12051 26.5141 2.69583 26.0894 2.42453 25.5567C2.11811 24.9553 2.11812 23.8908 2.11812 21.9584V7.25139C2.11812 5.31895 2.11811 4.25442 2.42471 3.65287C2.69583 3.12034 3.12052 2.69566 3.65323 2.42437C4.25425 2.11794 5.31896 2.11794 7.25139 2.11794H36.7593C38.6919 2.11794 39.7564 2.11794 40.3578 2.42437C40.8905 2.69584 41.3152 3.12052 41.5865 3.65287C41.8927 4.25424 41.8927 5.31878 41.8927 7.25139V21.9584Z" fill="#EDAA57"/>
<path d="M36.2149 7.41447H24.2999C23.7152 7.41447 23.2409 7.88876 23.2409 8.47353C23.2409 9.05831 23.7152 9.53259 24.2999 9.53259H36.2149C36.7997 9.53259 37.274 9.05831 37.274 8.47353C37.274 7.88876 36.7997 7.41447 36.2149 7.41447Z" fill="#EDAA57"/>
<path d="M29.1545 13.4005H24.2999C23.7152 13.4005 23.2409 13.8747 23.2409 14.4595C23.2409 15.0443 23.7152 15.5186 24.2999 15.5186H29.1545C29.7393 15.5186 30.2136 15.0443 30.2136 14.4595C30.2136 13.8747 29.7393 13.4005 29.1545 13.4005Z" fill="#EDAA57"/>
<path d="M29.1545 19.124H24.2999C23.7152 19.124 23.2409 19.5983 23.2409 20.183C23.2409 20.7678 23.7152 21.2421 24.2999 21.2421H29.1545C29.7393 21.2421 30.2136 20.7678 30.2136 20.183C30.2136 19.5983 29.7393 19.124 29.1545 19.124Z" fill="#EDAA57"/>
<path d="M10.233 13.4541C10.9413 13.9852 11.8183 14.2777 12.7029 14.2777C12.7035 14.2777 12.7064 14.2777 12.7068 14.2777C13.589 14.2761 14.4638 13.9835 15.1702 13.4538C15.3281 13.3353 15.477 13.2063 15.6136 13.0699C16.3782 12.3033 16.8161 11.243 16.8154 10.1613C16.8154 9.06219 16.387 8.02908 15.6099 7.25314C14.8338 6.4765 13.8006 6.04881 12.7013 6.04881C11.6017 6.04881 10.5675 6.47756 9.78838 7.25702C9.02303 8.02502 8.58529 9.08708 8.58741 10.1703C8.58918 11.2693 9.01845 12.3013 9.79615 13.0764C9.92995 13.2102 10.077 13.3371 10.233 13.4541ZM11.0377 8.50389C11.4825 8.05891 12.0733 7.81391 12.7013 7.81391C13.329 7.81391 13.9185 8.05785 14.3619 8.5016C14.8059 8.94481 15.0501 9.53418 15.0501 10.162C15.0507 10.78 14.8006 11.3854 14.3646 11.8225C14.2874 11.8996 14.202 11.9734 14.1108 12.0419C13.7071 12.3446 13.2074 12.5119 12.7043 12.5128L12.7026 13.3953V12.5128C12.1974 12.5128 11.6963 12.3456 11.2917 12.0422C11.2017 11.9748 11.118 11.9024 11.0423 11.8269C10.5982 11.3844 10.3534 10.7952 10.3523 10.1673C10.3515 9.5483 10.6016 8.94181 11.0377 8.50389Z" fill="#EDAA57"/>
<path d="M18.0701 16.3416C17.357 15.6285 16.5219 15.0725 15.5881 14.6888C15.3001 14.5707 14.9719 14.6127 14.7234 14.7989C14.1443 15.2332 13.4273 15.473 12.7029 15.4744C11.9787 15.4744 11.2603 15.2349 10.6798 14.7996C10.4312 14.6132 10.1024 14.5712 9.81502 14.6895C8.87775 15.0746 8.04022 15.6328 7.32518 16.3487C6.12809 17.5495 5.35939 19.1402 5.16082 20.828C5.13134 21.0783 5.21024 21.3293 5.37775 21.5176C5.54526 21.7059 5.7853 21.8136 6.03718 21.8136H19.3662C19.6182 21.8136 19.8581 21.706 20.0254 21.5178C20.1929 21.3296 20.2718 21.0788 20.2425 20.8285C20.0447 19.1365 19.273 17.5428 18.0701 16.3416ZM7.11742 20.0485C7.39296 19.127 7.89336 18.2787 8.57452 17.5954C9.01491 17.1543 9.51637 16.7912 10.0696 16.5121C10.8624 16.984 11.7803 17.2395 12.7082 17.2395C13.6287 17.2378 14.5432 16.982 15.3334 16.5116C15.8838 16.7894 16.3831 17.1509 16.8225 17.5901C17.5077 18.2744 18.0104 19.1245 18.2863 20.0485H7.11742Z" fill="#EDAA57"/>
</svg>
