<svg xmlns="http://www.w3.org/2000/svg" width="117" height="117" viewBox="0 0 117 117" fill="none">
  <path fill-rule="evenodd" clip-rule="evenodd" d="M54.278 0.191986C63.6925 -0.643383 72.8102 1.35971 79.4601 4.025C86.5289 6.8571 92.3637 10.6876 97.2524 15.2477C104.664 22.1586 110.721 30.7301 113.951 42.0725C115.036 45.8839 115.66 50.09 116.049 54.4821C116.9 64.0557 114.798 72.5915 112.126 79.3916C106.685 93.2401 97.2371 103.187 84.4799 109.776C77.1743 113.548 68.3494 116.209 58.2931 116.254C50.3686 116.289 42.9407 114.485 37.0332 112.147C30.0396 109.381 24.099 105.771 19.1492 101.016C14.1624 96.2251 9.67106 91.0562 6.46712 84.6827C3.19058 78.1678 0.892045 70.7437 0.171284 61.9635C-0.606781 52.4917 1.36958 44.0985 4.00303 37.1456C6.80585 29.7495 10.6631 24.2878 15.0437 19.1699C19.6153 13.8291 25.2489 9.70449 31.4671 6.57949C36.3672 4.11541 41.4189 2.05757 47.618 0.922941C49.6809 0.544733 51.8839 0.405922 54.278 0.191986ZM19.1479 17.7118C22.1494 20.847 25.417 23.9809 28.5471 27.1097C29.0692 27.6318 31.0519 30.1545 31.8313 30.1201C32.3496 30.0972 33.3734 28.8301 34.0216 28.2953C39.8437 23.4817 47.5568 20.4217 57.1063 19.7175C57.2578 13.9998 57.2578 7.64408 57.1063 1.92511C40.0627 2.43194 28.267 8.97609 19.1479 17.7118ZM59.1132 2.10722C58.9617 7.76506 58.9617 14.0609 59.1132 19.7175C68.6868 20.3414 76.6865 23.6982 82.2896 28.387C82.9263 28.9192 84.0087 30.25 84.5703 30.2118C84.839 30.1927 85.7521 29.2109 86.213 28.7524C89.9544 25.0124 93.6766 21.3818 97.0703 17.6214C87.9615 8.90733 76.4344 2.61023 59.387 1.83598C59.2558 1.88565 59.1654 1.97733 59.1132 2.10722ZM17.4148 19.3533C13.1564 23.8918 9.47623 29.1434 6.73964 35.2304C3.99794 41.3288 2.01267 48.4931 2.08525 57.0378C7.77366 57.1894 14.0988 57.1894 19.7872 57.0378C20.4175 45.7145 24.7255 38.0688 30.2802 31.6724C26.1059 27.4816 22.0144 23.2105 17.6873 19.1712C17.5816 19.2157 17.4823 19.2692 17.4148 19.3533ZM85.9393 31.7628C91.5984 38.0255 95.7905 45.7553 96.4323 57.0378C101.94 57.3409 108.716 57.3409 114.225 57.0378C113.862 39.9421 107.225 28.3322 98.6226 19.1712C98.5615 19.1712 98.5004 19.1712 98.4405 19.1712C94.1745 23.269 89.9009 27.3606 85.9393 31.7628ZM30.9195 33.9531C25.3724 39.8682 21.1154 49.5259 21.8871 60.9613C22.5989 71.5218 27.6149 79.8182 33.9312 85.2328C40.5071 90.869 48.7768 95.0662 60.8476 94.3569C71.1216 93.7521 79.4435 88.7462 85.2096 82.4045C88.0697 79.2592 90.4141 75.6006 92.1447 71.1818C93.8256 66.8878 95.071 61.0224 94.4254 55.3964C93.7938 49.8952 92.6973 45.6152 90.4103 41.2537C86.2513 33.3202 79.9554 27.5108 71.249 24.1006C67.0135 22.4426 60.961 21.2125 55.2815 21.8186C43.7977 23.0449 36.9734 27.4981 30.9195 33.9531ZM1.99484 59.3173C2.04451 60.2265 1.92735 61.2058 1.99484 62.0551C2.91171 73.5517 6.84151 82.8732 11.9403 90.1584C13.7027 92.676 15.6307 95.0815 17.8707 97.0018C21.0657 94.1073 24.1678 90.7964 27.2698 87.6956C27.7881 87.1773 30.3337 85.1691 30.2802 84.4102C30.2522 84.0052 28.8629 82.7331 28.3637 82.1295C23.5782 76.3316 20.4163 68.8807 19.8776 59.1364C14.1892 58.9238 8.10856 59.1059 2.26734 59.0448C2.13745 59.0944 2.04578 59.1874 1.99484 59.3173ZM96.3406 59.3173C95.8083 70.5858 91.5551 78.1347 85.9393 84.3185C88.8834 87.6294 92.0364 90.6895 95.2467 93.8985C95.6963 94.348 97.8929 96.9853 98.6226 96.9089C98.8824 96.8821 99.691 95.8838 100.174 95.3578C108.124 86.6985 113.92 74.4927 114.226 59.1352C108.539 58.9225 102.456 59.1046 96.6157 59.0435C96.4833 59.0944 96.3916 59.1874 96.3406 59.3173ZM34.2037 87.9694C33.4218 87.334 32.0668 85.597 31.3754 86.1433C29.0819 87.9605 27.3272 90.1916 25.2617 92.257C23.2089 94.3111 21.0173 96.2187 19.2396 98.4625C23.1541 102.511 28.0428 105.934 33.5657 108.591C40.12 111.744 47.8485 114.247 57.1063 114.157C57.2578 108.438 57.2578 102.083 57.1063 96.3651C47.3136 95.759 39.9265 92.6034 34.2037 87.9694ZM59.1132 96.4543C58.9617 102.143 58.9617 108.468 59.1132 114.156C60.4732 114.342 62.3235 114.212 63.9497 114.065C76.0727 112.964 86.4384 107.704 93.8765 101.473C94.3987 101.035 96.9913 99.0839 96.9799 98.4612C96.9748 98.2014 95.9726 97.2731 95.5205 96.8185C92.7547 94.0526 90.2727 91.5694 87.6737 88.9716C86.7593 88.0573 85.1879 86.3471 84.2978 85.96C78.1319 91.6878 70.2468 95.6953 59.1132 96.4543Z" fill="#D5B76E"/>
  <path fill-rule="evenodd" clip-rule="evenodd" d="M42.6898 19.4449C41.4406 21.3933 40.4906 18.798 39.7698 17.5284C38.9549 16.0933 38.3551 14.2073 36.394 14.1526C34.7156 14.1067 33.4435 15.5266 33.567 17.2559C33.6268 18.118 34.4316 18.8579 33.6574 19.5366C31.7702 19.8906 31.546 17.7678 31.6492 16.6179C31.9141 13.6878 34.7946 11.7063 38.038 12.6041C38.5779 12.0578 38.4684 11.4682 38.8581 10.8709C40.2588 8.72012 43.9543 8.14198 45.9752 10.0496C46.449 10.3539 47.5034 12.548 45.9752 12.6041C44.9832 12.6397 44.428 10.5386 42.5077 10.6876C40.7759 10.8226 39.4782 12.6767 40.2283 14.6123C40.851 16.2244 42.2072 17.4164 42.6898 19.4449Z" fill="#D5B76E"/>
  <path fill-rule="evenodd" clip-rule="evenodd" d="M73.8939 12.7849C76.726 11.5955 79.1977 13.3516 80.0076 15.3394C82.6092 14.215 85.5636 15.8513 86.0297 18.2581C86.2869 19.585 85.9673 21.5193 84.7524 21.3614C83.5834 21.2086 84.3449 19.9899 84.2953 19.0794C84.2278 17.8035 82.422 16.1047 80.6456 17.1629C80.1783 17.4405 78.7915 19.8944 77.9994 18.351C77.6913 17.75 78.2197 17.0738 78.1828 16.4345C78.0822 14.7141 75.9199 13.5158 74.351 14.7014C73.8633 15.0694 73.5182 16.134 72.8 16.1607C71.2362 16.2168 72.1964 14.8058 72.1607 13.8788C72.0894 12.045 69.6814 10.8964 68.1456 12.1456C67.4058 12.748 67.3918 14.0812 65.9553 13.3312C65.3504 9.72356 70.8313 8.7965 72.8917 11.1409C73.3501 11.663 73.3934 12.2029 73.8939 12.7849Z" fill="#D5B76E"/>
  <path fill-rule="evenodd" clip-rule="evenodd" d="M102.454 37.8766C104.578 38.9539 106.995 40.3088 106.196 43.8986C105.996 44.7938 104.648 46.9803 103.367 46.8173C102.892 46.7574 102.551 46.2341 102.546 45.9042C102.536 45.1007 104.268 44.3558 104.463 43.2581C104.796 41.3734 103.277 39.6135 101.177 39.9739C99.6592 40.2349 98.1119 41.9286 96.4323 42.438C95.383 42.7551 95.0481 42.4049 94.9729 41.8904C94.8087 40.7812 96.7035 40.2769 97.437 39.8835C98.8722 39.113 100.995 38.2458 100.995 36.2338C100.995 34.7108 99.8272 33.6831 98.7143 33.496C97.2957 33.2591 95.5765 34.6293 95.4288 33.1318C95.3129 31.9462 97.4077 31.4674 98.8964 31.6724C101.358 32.0073 103.443 34.4268 102.454 37.8766Z" fill="#D5B76E"/>
  <path fill-rule="evenodd" clip-rule="evenodd" d="M12.5796 33.4056C13.1666 34.0104 12.5668 34.437 12.7629 35.0483C13.0138 35.834 14.752 36.3128 16.0484 36.9635C17.0353 37.4602 18.5723 38.7221 19.4242 38.6967C20.0635 38.6776 20.5576 37.762 21.0657 37.7849C21.4146 37.8002 21.7966 38.0421 21.8883 38.4241C22.1494 39.532 19.8839 41.0016 19.3326 41.8904C18.8206 42.7169 18.4017 43.7458 18.2387 44.4462C18.063 45.2001 18.4462 47.1662 17.2352 47.2745C16.2712 47.3598 16.1363 46.3474 16.2305 45.1759C15.3111 44.4105 14.1523 43.989 12.945 43.351C12.1071 42.9079 10.4389 41.6637 9.56919 41.7096C8.78603 41.7478 8.1544 43.1919 7.28719 42.2559C6.76509 41.0423 7.98631 40.5839 8.56445 39.9739C9.48768 39.0023 10.5523 37.4105 10.8464 35.8684C10.9954 35.0878 10.7738 33.9926 11.3023 33.4043C11.501 33.0923 12.3567 33.1942 12.5796 33.4056ZM12.4879 37.329C11.8231 38.0943 11.4704 39.1704 10.9368 40.0656C12.7489 41.1429 14.6081 42.1731 16.6851 42.9856C17.2416 42.1426 17.714 41.2168 18.1457 40.2477C16.3846 39.15 14.4642 38.2115 12.4879 37.329Z" fill="#D5B76E"/>
  <path fill-rule="evenodd" clip-rule="evenodd" d="M61.3952 37.1469C63.0099 36.6566 64.757 36.1829 66.5042 36.9635C69.9844 38.5209 69.3452 43.8923 69.4241 49.0993C69.4967 53.8301 69.7871 59.069 70.611 63.242C71.0503 65.4679 71.4884 67.5118 72.3441 69.0819C73.2686 68.4465 73.7334 67.2291 74.2606 66.162C75.7276 63.1898 77.2455 59.0779 77.5448 55.1213C77.7154 52.8826 77.2328 50.2505 75.6296 49.9206C74.4949 49.6876 73.6366 50.3167 73.1655 50.5586C72.8369 50.7293 71.5864 51.5927 71.1585 50.5586C70.6861 49.4202 73.0521 48.4104 74.0785 48.1875C77.6645 47.4044 79.1722 50.6019 79.3709 53.3869C79.6218 56.8876 78.4706 60.7919 77.4544 63.5158C76.8036 65.2604 75.6155 67.6646 74.444 69.5378C74.0645 70.1452 73.3578 70.9933 73.3488 71.453C73.3272 72.5495 75.5226 74.685 76.2688 75.1944C76.6508 75.4554 77.2506 75.7763 78.002 76.0158C79.1735 76.3876 80.8455 76.1902 80.9219 77.1109C81.0569 78.7473 77.9039 77.9335 76.9081 77.5668C74.5484 76.7009 73.3348 74.8378 71.9799 73.1887C68.4602 76.5977 64.7914 79.5775 59.3882 80.2142C53.5228 80.9044 47.9274 79.4744 44.1517 76.017C40.8102 72.9582 38.6072 68.3637 37.9463 62.604C37.6139 59.7108 37.7642 56.3451 37.7642 52.9323C37.7642 49.7016 37.3796 46.2519 37.7642 43.1689C38.1233 40.277 41.8901 38.2229 44.8814 40.0656C45.5957 37.93 47.1952 35.755 50.082 36.0517C50.934 36.1396 51.4051 36.5751 52.2723 36.7827C52.9371 36.0415 53.0326 35.2138 53.6413 34.5911C56.0379 32.1372 60.9826 33.4094 61.3952 37.1469ZM43.9683 73.1875C46.3025 76.0094 49.8859 78.1678 54.6435 78.4798C61.5212 78.9306 65.6039 76.7836 68.9695 73.5517C69.6202 72.9264 70.9293 71.7638 70.9765 71.0876C71.0287 70.3566 70.2722 69.0718 69.9717 68.0772C68.3914 62.8218 67.7789 56.3706 67.6006 49.9194C67.5216 47.1242 67.8999 44.315 67.6006 41.7083C67.3421 39.4658 65.0932 37.2067 62.6737 38.6967C60.6986 39.9128 61.4448 44.7225 61.3048 47.822C61.2475 49.0802 61.2016 51.1559 61.1227 52.8394C61.0335 54.6909 61.5174 57.248 60.2109 57.2187C59.4405 57.2021 59.401 56.5183 59.3882 55.3938C59.336 50.4186 59.5716 46.7613 59.5716 42.0725C59.5716 38.4165 60.1039 34.7159 56.56 35.047C53.5929 35.3246 54.1876 38.689 54.1876 42.3463C54.1876 46.8606 54.1876 49.5195 54.1876 54.1166C54.1876 56.014 54.6766 59.1938 53.1841 59.0435C52.5678 58.9811 52.4672 58.4654 52.4544 57.2187C52.4277 54.6272 52.4544 51.6194 52.4544 49.4635C52.4544 45.3249 53.6145 37.7148 49.5357 37.7849C46.4044 37.8384 46.7979 41.1926 46.7979 44.8104C46.7979 49.6634 46.7979 54.0338 46.7979 59.0448C46.7979 60.2469 46.8373 61.1421 45.9765 61.1434C44.6712 61.1447 45.0647 58.3813 45.0647 57.0378C45.0647 55.0564 45.0647 53.5932 45.0647 52.0193C45.0647 48.9503 45.5626 44.1253 44.6088 42.4393C44.2344 41.7771 43.1979 40.9659 41.7806 41.162C39.3483 41.4969 39.4998 43.9075 39.4998 46.9103C39.4998 52.8279 39.0643 59.67 40.0474 64.5205C40.2932 65.7315 40.5339 67.0572 41.233 67.806C49.7879 68.1625 55.9946 65.403 60.4859 61.2363C60.8833 60.8683 61.9695 59.5159 62.7679 60.3246C63.5269 61.0912 62.3923 62.0157 61.7645 62.604C57.049 67.0266 50.785 69.725 42.0556 69.8129C42.3511 71.1309 43.1686 72.2235 43.9683 73.1875Z" fill="#D5B76E"/>
  <path fill-rule="evenodd" clip-rule="evenodd" d="M63.7663 66.4344C64.4055 66.3937 64.8945 66.6204 64.8614 67.3462C64.8143 68.3828 63.1639 68.6286 62.489 68.9902C60.5279 70.0408 59.527 70.9424 58.1097 72.5482C57.5685 73.1607 57.1011 74.5003 56.1028 74.4647C54.1544 74.3959 56.0035 71.9904 56.6491 71.2709C58.3351 69.3926 60.9978 67.1768 63.5855 66.4344C63.6377 66.4204 63.7115 66.4395 63.7663 66.4344Z" fill="#D5B76E"/>
  <path fill-rule="evenodd" clip-rule="evenodd" d="M16.4113 74.6468C18.6818 75.309 20.9332 77.4891 20.1526 80.5784C19.8088 81.9359 18.7264 83.017 17.3243 83.4984C15.1672 82.6949 17.8579 81.3043 18.2374 80.395C19.1428 78.22 17.2263 76.1787 15.0436 76.5633C14.2643 76.6996 12.9565 77.6661 12.3058 78.0227C11.6665 78.3754 9.08653 80.1875 8.93117 78.3894C8.80892 76.9874 12.6878 75.854 13.5843 75.1944C15.3365 73.9057 15.2054 70.4827 12.5808 70.0854C11.3379 69.8982 9.60354 71.1067 9.38706 69.8116C9.12219 68.2198 12.3809 67.9957 13.8581 68.5343C15.9796 69.3073 17.2492 72.0516 16.4113 74.6468Z" fill="#D5B76E"/>
  <path fill-rule="evenodd" clip-rule="evenodd" d="M99.9903 70.2675C101.93 71.765 104.539 72.5915 106.652 73.9171C107.358 73.7108 107.551 72.9901 108.385 72.9124C110.313 73.8254 108.049 75.118 107.29 76.0157C106.384 77.0879 105.556 78.7893 105.373 80.1225C105.219 81.2508 105.47 82.3765 104.371 82.4045C104.185 82.4083 103.473 82.0187 103.366 81.5831C103.258 81.1438 103.541 80.6637 103.458 80.3963C103.232 79.6832 101.358 79.0503 100.264 78.4811C99.3243 77.9908 97.6026 76.804 96.7965 76.8383C96.1012 76.8676 95.8147 77.6724 95.2455 77.6597C94.3757 77.6406 94.3541 77.0536 94.3337 76.8383C94.2369 75.8553 95.369 75.5484 95.793 75.1052C96.6832 74.1731 97.9451 72.1649 98.1654 70.4521C98.3284 69.185 97.9108 68.23 99.5344 68.3535C100.059 68.775 100.107 69.3722 99.9903 70.2675ZM99.8082 72.4578C99.053 73.162 98.6035 74.1705 98.2571 75.286C100.076 76.2959 101.807 77.3936 103.914 78.1156C104.376 77.2089 104.973 76.4372 105.283 75.3777C103.63 74.2329 101.636 73.4281 99.8082 72.4578Z" fill="#D5B76E"/>
  <path fill-rule="evenodd" clip-rule="evenodd" d="M79.0958 106.036C77.6314 106.737 77.1182 105.055 76.5401 104.027C75.7505 102.621 75.2717 100.711 73.6214 100.378C72.0194 100.056 70.788 100.983 70.2455 102.203C69.8838 103.677 71.403 105.642 69.7896 105.762C68.7123 105.842 68.2589 104.262 68.2386 103.207C68.1775 99.9294 71.2248 97.7137 74.6248 98.735C75.6334 96.6733 76.6789 94.4703 80.2827 94.9936C81.4262 95.1604 83.8674 96.6911 83.4764 98.097C82.9696 99.918 81.2823 97.4475 80.8302 97.1852C78.831 96.0187 76.0804 97.6755 76.7234 100.287C76.9234 101.1 77.6836 102.064 78.1828 102.935C78.6221 103.698 79.6077 105.252 79.0958 106.036Z" fill="#D5B76E"/>
  <path fill-rule="evenodd" clip-rule="evenodd" d="M37.1236 99.2838C38.9102 98.5593 40.8802 98.9769 41.9588 100.105C42.5026 100.673 42.5548 101.421 43.1456 101.84C46.1293 100.448 49.0569 102.894 49.2594 105.307C49.3473 106.353 49.076 108.372 47.7084 107.955C46.7113 107.648 47.4702 106.581 47.4346 105.673C47.3734 104.132 45.7014 102.94 44.0587 103.575C43.2463 103.889 42.7687 105.406 41.9601 105.4C40.558 105.391 41.3654 103.943 41.3221 103.029C41.2623 101.763 39.9646 100.385 38.22 100.839C36.93 101.172 36.194 103.957 34.9346 102.116C35.6197 100.118 34.7499 98.1161 32.836 98.1008C31.2276 98.0881 30.7539 100.024 29.916 100.108C28.0492 100.295 29.2042 97.976 30.0077 97.2795C31.5116 95.9755 34.3857 96.0022 35.8464 97.4616C36.4385 98.0499 36.3557 98.6446 37.1236 99.2838Z" fill="#D5B76E"/>
</svg>