<svg width="21" height="21" viewBox="0 0 21 21" fill="none" xmlns="http://www.w3.org/2000/svg">
<path d="M17.547 2.99307C16.602 2.04007 15.475 1.28507 14.234 0.77107C12.994 0.25707 11.664 -0.00492976 10.321 7.0237e-05C8.527 0.00107024 6.764 0.47407 5.209 1.37207C3.655 2.26907 2.364 3.55907 1.465 5.11307C0.566 6.66607 0.091 8.42907 0.087 10.2241C0.083 12.0191 0.552 13.7841 1.444 15.3401L0 20.6441L5.419 19.2241C6.916 20.0561 8.597 20.5001 10.309 20.5141C13.031 20.5141 15.642 19.4391 17.576 17.5231C19.51 15.6071 20.607 13.0041 20.631 10.2831C20.622 8.92507 20.345 7.58107 19.817 6.33107C19.286 5.07907 18.516 3.94507 17.547 2.99307ZM16.371 16.2571C14.762 17.8521 12.588 18.7471 10.322 18.7461C8.797 18.7471 7.299 18.3371 5.987 17.5591L5.678 17.3661L2.465 18.2181L3.316 15.0821L3.11 14.7601C2.012 12.9881 1.603 10.8751 1.959 8.82107C2.315 6.76707 3.412 4.91507 5.042 3.61607C6.672 2.31707 8.722 1.66007 10.803 1.77107C12.884 1.88207 14.853 2.75207 16.335 4.21807C17.956 5.80207 18.884 7.96407 18.916 10.2311C18.895 12.4961 17.98 14.6621 16.371 16.2571Z" fill="#B7BDC6"/>
<path d="M5.81202 11.687C6.65204 11.687 7.33302 11.006 7.33302 10.166C7.33302 9.32599 6.65204 8.64502 5.81202 8.64502C4.97199 8.64502 4.29102 9.32599 4.29102 10.166C4.29102 11.006 4.97199 11.687 5.81202 11.687Z" fill="#B7BDC6"/>
<path d="M10.5 11.687C11.34 11.687 12.021 11.006 12.021 10.166C12.021 9.32599 11.34 8.64502 10.5 8.64502C9.65998 8.64502 8.979 9.32599 8.979 10.166C8.979 11.006 9.65998 11.687 10.5 11.687Z" fill="#B7BDC6"/>
<path d="M15.188 11.687C16.028 11.687 16.709 11.006 16.709 10.166C16.709 9.32599 16.028 8.64502 15.188 8.64502C14.348 8.64502 13.667 9.32599 13.667 10.166C13.667 11.006 14.348 11.687 15.188 11.687Z" fill="#B7BDC6"/>
</svg>
