<svg width="28" height="28" viewBox="0 0 28 28" fill="none" xmlns="http://www.w3.org/2000/svg">
<path d="M27.7462 26.6339L20.4371 19.334C22.4292 17.0577 23.4584 14.0963 23.3072 11.0755C23.1561 8.05467 21.8365 5.2108 19.6272 3.1445C17.4178 1.0782 14.4917 -0.0487623 11.4667 0.00161931C8.44168 0.0520009 5.55469 1.27578 3.4154 3.41451C1.27612 5.55323 0.0520145 8.43947 0.00161973 11.4637C-0.0487751 14.4879 1.07848 17.4133 3.14532 19.622C5.21216 21.8308 8.05677 23.1501 11.0784 23.3011C14.1 23.4522 17.0621 22.4233 19.3391 20.4318L26.6409 27.739C26.7113 27.8182 26.7972 27.8822 26.8932 27.927C26.9892 27.9718 27.0934 27.9965 27.1994 27.9997C27.3053 28.0028 27.4108 27.9842 27.5093 27.9451C27.6078 27.906 27.6973 27.8472 27.7722 27.7723C27.8472 27.6973 27.906 27.6079 27.9451 27.5094C27.9842 27.4109 28.0028 27.3055 27.9997 27.1996C27.9965 27.0936 27.9718 26.9895 27.927 26.8935C27.8821 26.7975 27.8181 26.7116 27.7389 26.6412L27.7462 26.6339ZM1.64462 11.7012C1.64497 9.37325 2.45267 7.11745 3.93011 5.31812C5.40755 3.51879 7.46333 2.28726 9.74718 1.83335C12.031 1.37943 14.4017 1.73122 16.4552 2.82878C18.5087 3.92634 20.118 5.70175 21.0089 7.85254C21.8999 10.0033 22.0174 12.3964 21.3413 14.6241C20.6653 16.8518 19.2376 18.7762 17.3015 20.0695C15.3653 21.3628 13.0405 21.9449 10.7232 21.7167C8.40586 21.4886 6.23935 20.4642 4.59279 18.8181C3.65793 17.8835 2.91639 16.774 2.41053 15.5529C1.90468 14.3317 1.64442 13.0229 1.64462 11.7012Z" fill="#C6A148"/>
</svg>
