<svg width="32" height="28" viewBox="0 0 32 28" fill="none" xmlns="http://www.w3.org/2000/svg">
<path d="M29.2122 11.2506H28.5534L28.6663 10.9166C28.7541 10.6573 28.7541 10.4253 28.7541 10.1307V5.50195C28.7541 4.11071 27.6222 2.93637 26.2824 2.93637H22.5475L21.3913 0.525144C21.2248 0.189187 20.7779 0.0247391 20.4631 0.184142L14.5279 2.93435H2.56558C1.19855 2.93435 0 4.1329 0 5.49994V25.5303C0 26.8922 1.15113 28 2.56558 28H26.2834C27.6686 28 28.7541 26.9155 28.7541 25.5303V20.9005C28.7541 20.6261 28.7541 20.3416 28.6795 20.1126L28.5715 19.7827H29.2142C30.5802 19.7827 31.7798 18.5831 31.7798 17.2151V13.7213C31.7777 12.3815 30.6024 11.2506 29.2122 11.2506ZM26.2844 4.3821C26.8927 4.3821 27.4052 4.89461 27.4052 5.50095V5.95898H24.0638L23.2174 4.3821H26.2844ZM20.3673 1.80642L22.4436 5.95999H11.5658L20.3673 1.80642ZM27.4052 25.5343C27.4052 26.1406 26.8917 26.6511 26.2844 26.6511H2.5676C1.96026 26.6511 1.44774 26.1396 1.44774 25.5343L1.44875 5.50195C1.44875 4.89461 1.96227 4.38311 2.56962 4.38311H11.6193L8.19716 5.95999H3.89125C3.46652 5.95999 3.12047 6.30603 3.12047 6.73077C3.12047 7.08489 3.4877 7.40571 3.89125 7.40571H27.4052V10.1317C27.4052 10.6402 27.0077 11.0488 26.6244 11.1487L24.4058 11.2516C22.0511 11.2516 20.5983 11.6652 20.5983 13.7223V17.2201C20.5983 18.6588 21.6849 19.7857 23.0711 19.7857H26.2854C26.8937 19.7857 27.4063 20.2992 27.4063 20.9055V25.5343H27.4052ZM30.331 17.2191C30.331 17.8254 29.8185 18.3359 29.2122 18.3359H23.0701C22.4859 18.3359 22.0451 17.8547 22.0451 17.2191V13.7213C22.0451 13.119 22.4668 12.6973 23.0701 12.6973H29.2122C29.7549 12.6973 30.331 13.0554 30.331 13.7213V17.2191Z" fill="#C6A148"/>
<path d="M24.9612 16.7459C25.6399 16.7459 26.1901 16.1957 26.1901 15.5171C26.1901 14.8384 25.6399 14.2883 24.9612 14.2883C24.2826 14.2883 23.7324 14.8384 23.7324 15.5171C23.7324 16.1957 24.2826 16.7459 24.9612 16.7459Z" fill="#C6A148"/>
</svg>
