<svg xmlns="http://www.w3.org/2000/svg" width="58" height="63" viewBox="0 0 58 63" fill="none">
  <path d="M32.6119 30.2318C32.6119 30.6555 32.9229 31 33.3059 31C33.6885 31 34 30.6555 34 30.2318C34 29.5282 33.7116 28.8685 33.1859 28.3635V23.6173C33.7116 23.1076 34 22.4546 34 21.7687C34 21.345 33.6885 21 33.3059 21C32.9234 21 32.6119 21.345 32.6119 21.7687C32.6119 22.3998 31.8585 22.9533 30.9998 22.9533C30.1405 22.9533 29.3872 22.3993 29.3872 21.7687C29.3872 21.345 29.0762 21 28.6936 21C28.311 21 28 21.345 28 21.7687C28 22.4473 28.2725 23.0904 28.7684 23.5896V28.4109C28.272 28.9102 28 29.5533 28 30.2318C28 30.6555 28.311 31 28.6936 31C29.0762 31 29.3872 30.6555 29.3872 30.2318C29.3872 29.6007 30.1405 29.0472 30.9998 29.0472C31.8585 29.0467 32.6119 29.6007 32.6119 30.2318ZM31.7983 24.387V27.6093C31.2581 27.4733 30.6887 27.4785 30.1565 27.6203V24.3797C30.6878 24.5215 31.2553 24.5277 31.7983 24.387Z" fill="#222F42"/>
  <path d="M18.5422 11.9366C18.9487 12.0697 19.3996 11.8178 19.5384 11.4057C19.7206 10.9577 20.0806 10.6649 20.549 10.5808C21.0634 10.4967 21.5543 10.6975 21.8753 11.1044L22.2402 11.5707V16.2251C22.2402 16.6525 22.5932 17 23.0275 17C23.4618 17 23.8154 16.6525 23.8154 16.2251V11.5055L24.1343 11.0971C24.4232 10.6912 24.9392 10.4904 25.4515 10.5808C25.9365 10.6681 26.3157 10.964 26.4493 11.3589L26.4653 11.4572C26.5892 11.7621 26.9017 11.975 27.2254 11.975C27.3055 11.975 27.3846 11.9624 27.4732 11.933C27.8113 11.8 28.0902 11.4057 27.9727 10.9898L27.9614 10.902C27.6265 9.91362 26.7724 9.19915 25.7319 9.03722C24.709 8.87845 23.6455 9.25908 23.0029 10.0072C22.3481 9.23805 21.3545 8.8774 20.2729 9.03722C19.2324 9.19915 18.3777 9.91362 18.0434 10.902L18.0316 10.9893C17.9766 11.1801 17.9937 11.3778 18.0807 11.5497C18.1726 11.7316 18.3371 11.8699 18.5422 11.9366Z" fill="#222F42"/>
  <path d="M41.2724 9H37.5253C37.1239 9 36.7972 9.32628 36.7972 9.72759C36.7972 10.1289 37.1235 10.4552 37.5253 10.4552H39.4948L36.8372 13.1128L35.2348 11.5115C34.9253 11.2647 34.4717 11.2548 34.1859 11.5436C33.9322 11.861 33.9391 12.3146 34.2012 12.5767L35.7872 14.1627L34.6129 15.338C34.3591 15.6554 34.3661 16.1095 34.6282 16.3711C34.8853 16.6288 35.4209 16.6288 35.6786 16.3711L36.8372 15.2121L38.4232 16.7976C38.5515 16.9265 38.743 17 38.9479 17C39.093 17 39.2727 16.9358 39.441 16.8233L39.4879 16.7808C39.7421 16.4634 39.7347 16.0098 39.4731 15.7477L37.8876 14.1622L40.5448 11.5046V13.4741C40.5448 13.8754 40.8716 14.2022 41.2724 14.2022C41.6737 14.2022 42 13.8754 42 13.4741V9.72709C42 9.32628 41.6737 9 41.2724 9Z" fill="#222F42"/>
  <path d="M15.3184 26.2081C15.3423 26.2563 15.3706 26.2917 15.388 26.3101C18.5243 31.6702 24.3148 35 30.4998 35C36.7081 35 42.51 31.6513 45.6219 26.2882C45.6344 26.2743 45.6468 26.2603 45.6732 26.2225L45.704 26.1499C47.2065 23.5186 48 20.5281 48 17.4998C48 7.85063 40.1494 0 30.4998 0C20.8501 0 13 7.85063 13 17.4998C13 20.5385 13.7985 23.538 15.2905 26.129L15.3184 26.2081ZM31.3793 16.955V1.78604C39.7021 2.24325 46.1841 9.07151 46.1841 17.4425C46.1841 19.8972 45.6 22.34 44.4926 24.524L31.3793 16.955ZM17.388 26.0444L30.5142 18.4838L43.5697 26.1041C40.6494 30.5065 35.7833 33.1264 30.4998 33.1264C25.1874 33.1264 20.3054 30.4841 17.388 26.0444ZM29.6207 1.78604V16.9719L16.5064 24.526C15.3995 22.3435 14.8159 19.9002 14.8159 17.4425C14.8159 9.07102 21.2974 2.24325 29.6207 1.78604Z" fill="#222F42"/>
  <path d="M57.9923 46.8451L55.9718 22.5886C55.8519 21.1539 54.6831 20.0725 53.2546 20.0725C53.2156 20.0725 53.1766 20.073 53.1474 20.0745C52.6923 20.0745 52.2738 20.105 51.8981 20.1657L51.7028 17.8655C51.6302 17.5031 51.3315 17.113 50.8725 17.113H50.8706C50.2976 17.0558 49.7242 17.0558 49.2184 17.0558C48.7434 17.0558 48.357 17.44 48.357 17.9131C48.357 18.3861 48.7434 18.7708 49.2184 18.7708H50.0048L52.153 44.2762C40.9064 44.3829 34.0732 47.8848 31.3331 49.6537V36.3574C31.3331 35.8844 30.9467 35.4996 30.4717 35.4996C29.9966 35.4996 29.6107 35.8844 29.6107 36.3574V49.6222C26.8974 47.8542 20.128 44.3582 8.90291 44.2209L11.0516 18.715H11.8374C12.3125 18.715 12.6988 18.3308 12.6988 17.8578C12.6988 17.3847 12.3125 17 11.8374 17C11.283 17 10.7592 17 10.2096 17.0558C9.71901 17.0558 9.34872 17.4003 9.34969 17.8369L9.1548 20.1404C8.80157 20.0856 8.37574 20.0454 7.8627 20.0182C6.37278 19.9507 5.15132 21.0584 5.02805 22.5318L3.00755 46.7908C2.94616 47.6471 3.26139 48.4524 3.87334 49.0007C4.51744 49.5785 5.35205 49.8458 6.08727 49.7323C7.14989 49.6003 8.27391 49.5329 9.42716 49.5329C14.0353 49.5329 18.8636 50.56 23.7797 52.5855C23.7831 52.5938 23.7865 52.6015 23.7899 52.6098C23.8357 52.7146 23.8922 52.8446 23.9668 52.9513C25.1912 55.4485 27.7052 57 30.5282 57C33.3628 57 35.8564 55.4693 37.017 53.0358C37.1076 52.9009 37.1641 52.7704 37.2099 52.6656C37.2138 52.6573 37.2172 52.6496 37.2206 52.6413C43.3421 50.1195 48.4145 49.5887 51.5975 49.5887C52.7537 49.5887 53.8689 49.6561 54.9062 49.7871C55.6838 49.9074 56.4809 49.6358 57.1367 49.0482C57.7418 48.4447 58.0542 47.6422 57.9923 46.8451ZM30.5277 55.2854C28.3513 55.2854 26.436 54.0968 25.5259 52.178C25.3734 51.8748 25.3203 51.67 25.3144 51.6506C25.2228 51.3775 25.044 51.1791 24.8404 51.1121C18.2858 48.3928 12.8182 47.8222 9.38526 47.8222C8.18329 47.8222 7.01591 47.8892 5.90943 48.0221C5.59615 48.0667 5.33256 47.9814 5.10601 47.7553C4.84778 47.4981 4.74157 47.2366 4.78395 46.9402L6.74794 22.6288C6.79081 22.1155 7.19764 21.7289 7.69363 21.7289C7.72092 21.7289 7.74771 21.7298 7.78425 21.7327C8.36258 21.7599 8.75285 21.8142 9.00864 21.8662L7.04758 45.0757C7.04758 45.3654 7.12846 45.5919 7.25708 45.7132C7.40033 45.9267 7.63175 46.0451 7.9085 46.0451H8.41374C21.4951 46.0451 28.4463 50.8419 29.7803 51.866C29.8743 51.9936 29.9976 52.0975 30.1384 52.1673C30.3021 52.2488 30.402 52.2488 30.5282 52.2488C30.5944 52.2488 30.6622 52.2382 30.7055 52.2231C30.8186 52.1998 30.9248 52.1634 31.03 52.1115L31.086 52.0727C31.1533 52.013 38.1985 46.1009 52.6421 46.1009H53.1474C53.4412 46.1009 53.6799 45.8947 53.7993 45.769C53.9381 45.5614 54.0088 45.3469 54.0078 45.1112L52.0467 21.9113C52.2986 21.8637 52.6757 21.8138 53.2243 21.7876C53.7593 21.7468 54.2076 22.1437 54.2519 22.6841L56.2719 46.9203C56.2719 47.2711 56.1696 47.5365 55.9503 47.7548C55.7238 47.9804 55.4865 48.0682 55.1411 48.0211C54.04 47.8887 52.8755 47.8217 51.6799 47.8217C46.7146 47.8217 41.5121 48.9284 36.2325 51.1058C36.0118 51.1791 35.833 51.378 35.7366 51.6676C35.7361 51.67 35.6825 51.8748 35.5275 52.1828C34.6198 54.0968 32.7046 55.2854 30.5277 55.2854Z" fill="#222F42"/>
  <path d="M15.8899 37.3127H16.6805C16.8762 37.3127 17.0397 37.1539 17.0397 36.9535C17.0397 36.754 16.8808 36.5943 16.6805 36.5943H15.8899L16.9491 35.5359C17.0903 35.3947 17.0903 35.1721 16.9491 35.0316C16.8079 34.8912 16.5853 34.8904 16.4449 35.0316L15.3864 36.0908V33.3592C15.3864 33.1635 15.2276 33 15.0272 33C14.8269 33 14.668 33.1589 14.668 33.3592V36.0908L13.6096 35.0363C13.4684 34.895 13.2458 34.895 13.1053 35.0363C12.9649 35.1775 12.9649 35.4001 13.1053 35.5405L14.1645 36.5997H13.374C13.1783 36.5997 13.0148 36.7586 13.0148 36.9581C13.0148 37.1585 13.1744 37.3181 13.374 37.3181H14.1645L13.1053 38.3765C12.9649 38.5178 12.9649 38.7403 13.1053 38.8808C13.1737 38.9491 13.265 38.9852 13.3602 38.9852C13.4561 38.9852 13.5421 38.9491 13.6142 38.8808L14.6734 37.8224V40.5532C14.6734 40.749 14.8323 40.9124 15.0318 40.9124C15.2322 40.9124 15.391 40.7528 15.391 40.5532V37.8224L16.4495 38.8808C16.5178 38.9491 16.6091 38.9852 16.7043 38.9852C16.7995 38.9852 16.8854 38.9491 16.9583 38.8808C17.0996 38.7396 17.0996 38.517 16.9583 38.3765L15.8899 37.3127Z" fill="#222F42"/>
  <path d="M53.3169 56.6858C53.2869 56.6719 50.2513 55.3349 50.1592 52.3761C50.1592 52.1642 49.9873 52 49.7747 52C49.5667 52 49.3986 52.1712 49.3909 52.3776C49.3909 52.3822 49.3909 52.3876 49.3902 52.393C49.2981 55.3357 46.2625 56.6727 46.2326 56.6865C46.0913 56.7472 45.9992 56.8861 46 57.0404C46 57.1931 46.0913 57.3328 46.2326 57.3927C46.264 57.4065 49.2981 58.7312 49.3902 61.7C49.3902 61.9119 49.5621 62.0769 49.7747 62.0769C49.9819 62.0769 50.1508 61.9057 50.1585 61.7008C50.1585 61.6946 50.1585 61.69 50.1592 61.6847C50.2513 58.7435 53.2869 57.4065 53.3169 57.3927C53.4581 57.332 53.5494 57.1931 53.5494 57.0396C53.5494 56.8861 53.4581 56.7464 53.3169 56.6858ZM49.7762 59.8818C49.163 58.4158 47.958 57.497 47.2012 57.0381C47.9549 56.5791 49.1561 55.6603 49.7709 54.1867C50.3826 55.6573 51.5907 56.5791 52.349 57.0388C51.5922 57.497 50.3895 58.4158 49.7762 59.8818Z" fill="#222F42"/>
  <path d="M7.31685 9.68729C7.28615 9.67348 4.25057 8.33568 4.15847 5.37686C4.15847 5.16502 3.98654 5 3.77471 5C3.56671 5 3.39862 5.17193 3.39171 5.37762C3.39171 5.38223 3.39094 5.3876 3.39094 5.39298C3.29884 8.33491 0.263263 9.67348 0.232562 9.68653C0.0913369 9.74716 0 9.88608 0 10.0396C0 10.1931 0.092104 10.332 0.233329 10.3919C0.26403 10.4049 3.29884 11.7312 3.39094 14.6993C3.39094 14.9111 3.56287 15.0761 3.77471 15.0761C3.98194 15.0761 4.15003 14.9057 4.1577 14.7C4.1577 14.6946 4.15847 14.6893 4.15847 14.6839C4.25057 11.742 7.28615 10.4049 7.31685 10.3919C7.45807 10.3313 7.54941 10.1923 7.54941 10.0388C7.54941 9.88532 7.4573 9.74793 7.31685 9.68729ZM3.77471 12.8833C3.16222 11.4165 1.95643 10.4978 1.19965 10.0396C1.95413 9.58061 3.15531 8.66111 3.76933 7.18822C4.38105 8.65957 5.58914 9.58061 6.34746 10.0404C5.59144 10.4986 4.38873 11.4165 3.77471 12.8833Z" fill="#222F42"/>
</svg>