<svg xmlns="http://www.w3.org/2000/svg" width="30" height="37" viewBox="0 0 30 37" fill="none">
  <path d="M29.2591 34.9184V18.4339C29.2591 18.2801 29.2062 18.1292 29.1099 18.0089C28.98 17.8463 28.7858 17.7531 28.5772 17.7531C28.4216 17.7531 28.2748 17.8047 28.1527 17.9023L21.9991 22.825H17.1657C16.7901 22.825 16.4846 23.1306 16.4846 23.5061V29.8462C16.4846 30.2217 16.7901 30.5273 17.1657 30.5273H21.9991L28.1528 35.4501C28.2732 35.5465 28.4239 35.5994 28.5776 35.5994V36.1864L28.5778 35.5994C28.9536 35.5994 29.2591 35.2939 29.2591 34.9184ZM27.897 33.5013L22.663 29.3145C22.5427 29.2182 22.3917 29.1652 22.2377 29.1651H17.8467V24.1872H22.2378C22.3915 24.1871 22.5426 24.134 22.6628 24.0377L27.897 19.8511V33.5013Z" fill="#222F42"/>
  <path d="M12.6804 9.5577C12.6835 10.6286 13.5586 11.5037 14.6312 11.5068H22.8246V15.3109H24.1868L24.187 9.54169C24.1915 9.37593 24.1235 9.21712 24.0002 9.10607L23.9783 9.08517L15.0913 0.198157L15.0811 0.186841C14.9741 0.0680873 14.821 0 14.6612 0L14.6294 0.000422736H1.94908C0.878233 0.00352188 0.00309914 0.878654 0 1.95124V32.3823C0.00305218 33.4532 0.878232 34.3284 1.95082 34.3315H11.5064V32.9693H1.36212V1.36254H12.6803L12.6804 9.5577ZM14.0425 1.03967L23.1474 10.1447H14.0425V1.03967Z" fill="#222F42"/>
</svg>