<svg xmlns="http://www.w3.org/2000/svg" width="41" height="41" viewBox="0 0 41 41" fill="none">
  <rect x="0.5" y="0.5" width="40" height="40" rx="7.5" fill="#FCF2DA" stroke="#D5B76E"/>
  <path d="M16.0011 20.4531C16.0112 20.1469 16.1335 19.855 16.3448 19.633L22.3435 13.3842C22.5735 13.145 22.8891 13.0069 23.2208 13.0003C23.5526 12.9937 23.8734 13.1192 24.1127 13.3491C24.352 13.5791 24.4901 13.8946 24.4967 14.2264C24.5033 14.5582 24.3778 14.879 24.1479 15.1183L18.9848 20.5L24.1479 25.8817C24.3778 26.121 24.5033 26.4418 24.4967 26.7736C24.4901 27.1054 24.352 27.421 24.1127 27.6509C23.8734 27.8809 23.5526 28.0063 23.2208 27.9998C22.8891 27.9932 22.5735 27.855 22.3435 27.6158L16.3448 21.367C16.2291 21.2456 16.139 21.102 16.08 20.945C16.0209 20.788 15.9941 20.6207 16.0011 20.4531Z" fill="#D5B76E"/>
</svg>