<svg xmlns="http://www.w3.org/2000/svg" width="57" height="74" viewBox="0 0 57 74" fill="none">
  <circle cx="10.9609" cy="18.5664" r="10.9609" fill="#404D5F"/>
  <mask id="mask0_672_926" style="mask-type:luminance" maskUnits="userSpaceOnUse" x="1" y="0" width="56" height="74">
    <path d="M56.2756 0H1.78955V74H56.2756V0Z" fill="white"/>
  </mask>
  <g mask="url(#mask0_672_926)">
    <path d="M40.5606 60.115C40.6626 60.1306 40.7642 60.1468 40.8657 60.162C42.2186 60.3642 43.4234 60.9252 44.5267 61.7095C46.509 63.1183 47.9246 64.97 48.7804 67.2458C49.0135 67.8668 49.1687 68.5092 49.2381 69.1696C49.2569 69.3476 49.2372 69.5302 49.2349 69.7123C48.9178 69.8966 48.6278 70.0751 48.3285 70.2379C46.943 70.9909 45.4921 71.5917 43.9974 72.0892C41.697 72.8547 39.337 73.3499 36.9337 73.6524C34.3791 73.9736 31.8147 74.072 29.244 73.949C24.4378 73.7195 19.7573 72.8533 15.2619 71.0978C14.5059 70.8025 13.7726 70.45 13.0313 70.118C12.902 70.0599 12.7866 69.9717 12.6461 69.8867C12.6564 69.6725 12.6546 69.4675 12.6774 69.2667C12.8371 67.8516 13.3471 66.5582 14.0759 65.3476C15.1438 63.5742 16.5571 62.1479 18.3753 61.1404C19.2535 60.6541 20.1841 60.3145 21.1867 60.1937C21.2278 60.1884 21.2672 60.1709 21.3629 60.1427C21.2305 60.0881 21.1504 60.0519 21.0685 60.0215C20.2185 59.7088 19.3944 59.3397 18.6173 58.8713C18.0295 58.5165 17.4796 58.112 17.0009 57.6172C16.4296 57.0262 16.0131 56.3444 15.8444 55.5333C15.7071 54.8721 15.7751 54.2466 16.2252 53.704C16.2381 53.6879 16.2426 53.6642 16.2551 53.6333C11.1259 49.988 7.6855 45.1518 6.06731 39.0611C4.89069 34.6315 4.94035 30.1926 6.17155 25.7783C7.4023 21.3644 9.65533 17.5392 12.9441 14.3463C23.0661 4.51678 39.0928 4.71274 48.9764 14.761C54.2591 20.1318 56.8821 27.5503 56.1573 34.9147C55.3927 42.6813 51.739 48.8315 45.4809 53.4843C45.5091 53.5188 45.5396 53.5586 45.574 53.5953C45.8442 53.8834 45.9869 54.2288 46.033 54.6166C46.0925 55.111 45.9999 55.5839 45.8192 56.0433C45.553 56.7225 45.132 57.2906 44.6005 57.7837C43.8744 58.4565 43.0414 58.9683 42.1502 59.388C41.7041 59.5983 41.2424 59.7754 40.7879 59.9678C40.7118 60 40.6358 60.0313 40.5597 60.0631C40.5602 60.0801 40.5606 60.0975 40.5606 60.115ZM55.8303 32.5521C55.7918 18.715 44.5871 7.5147 30.7115 7.54378C16.7392 7.57331 5.65661 18.9333 5.68927 32.6671C5.72238 46.5275 16.9799 57.6964 30.771 57.6817C44.6108 57.6669 55.8567 46.4832 55.8303 32.5521ZM48.9415 69.4863C48.9254 69.3723 48.916 69.2823 48.8981 69.1933C48.8475 68.9401 48.8028 68.6846 48.7388 68.4354C48.1997 66.3502 47.1215 64.5803 45.5758 63.0928C44.4596 62.0191 43.1868 61.1968 41.6867 60.757C40.8143 60.5011 39.9294 60.4053 39.0297 60.5798C38.6279 60.6577 38.2306 60.7592 37.8298 60.8465C37.6898 60.8769 37.547 60.9082 37.4048 60.9154C37.2522 60.923 37.2191 60.88 37.1654 60.6688C37.2826 60.621 37.4012 60.557 37.5283 60.5226C38.0043 60.3919 38.4848 60.2769 38.9599 60.1436C40.2063 59.7938 41.4178 59.3522 42.5591 58.7344C43.2843 58.3411 43.9612 57.8812 44.5401 57.288C45.06 56.7556 45.4331 56.1382 45.6049 55.4081C45.6975 55.0148 45.6961 54.6238 45.5436 54.2435C45.4586 54.0297 45.3427 53.8373 45.1208 53.704C40.8223 56.6088 36.0716 58.1076 30.8904 58.1367C25.7084 58.1653 20.9455 56.705 16.5849 53.8471C16.4963 53.9791 16.4041 54.0896 16.3401 54.2153C16.1728 54.5442 16.1384 54.8976 16.1925 55.2591C16.2851 55.8832 16.5535 56.4308 16.9311 56.9292C17.2788 57.3873 17.7078 57.7613 18.1704 58.0977C18.8688 58.6055 19.6284 59.0032 20.423 59.3352C22.6925 60.2805 25.0722 60.7892 27.501 61.0849C28.3828 61.1923 29.2718 61.2411 30.1572 61.3189C30.2739 61.3292 30.3889 61.3565 30.4833 61.3721C30.5365 61.5032 30.4949 61.5632 30.4108 61.586C30.3169 61.611 30.218 61.6325 30.1218 61.6325C29.7876 61.6325 29.453 61.6307 29.1188 61.6142C27.1776 61.5153 25.2681 61.2057 23.3851 60.7297C22.374 60.4738 21.3701 60.489 20.367 60.7641C18.9681 61.1471 17.7543 61.8669 16.6828 62.8288C14.8369 64.4864 13.5981 66.5072 13.0836 68.9499C13.0277 69.2152 12.9933 69.4845 12.9472 69.7597C13.0792 69.825 13.1852 69.8823 13.2948 69.931C14.7689 70.5829 16.2726 71.1551 17.8143 71.6262C23.1627 73.2591 28.6316 73.8586 34.2073 73.532C36.5105 73.3974 38.7872 73.0739 41.034 72.5464C43.7402 71.9112 46.3332 70.9775 48.758 69.6031C48.8144 69.5695 48.8703 69.5315 48.9415 69.4863Z" fill="#D5B76E"/>
  </g>
  <mask id="mask1_672_926" style="mask-type:luminance" maskUnits="userSpaceOnUse" x="1" y="0" width="56" height="74">
    <path d="M56.2756 0H1.78955V74H56.2756V0Z" fill="white"/>
  </mask>
  <g mask="url(#mask1_672_926)">
    <path d="M10.4719 22.8005C10.5561 22.9535 10.484 23.0573 10.4496 23.1584C10.2317 23.7977 9.99056 24.4298 9.78835 25.0736C8.93787 27.7785 8.6162 30.551 8.80455 33.3771C9.13338 38.3023 10.8106 42.7202 13.8833 46.5883C16.0826 49.3567 18.7924 51.4791 22.0561 52.8705C23.2336 53.3725 24.4496 53.7518 25.7085 53.9894C25.7532 53.9979 25.7984 54.0068 25.8405 54.0234C25.9452 54.0663 25.9944 54.1451 25.9716 54.2583C25.9496 54.3656 25.8669 54.4059 25.7694 54.4073C25.7022 54.4081 25.6347 54.3889 25.568 54.375C21.4812 53.4991 18.0023 51.5198 15.089 48.5452C12.0673 45.4596 10.0908 41.787 9.05822 37.6017C8.52001 35.4198 8.29319 33.2026 8.39877 30.9563C8.51867 28.416 9.01974 25.9563 10.0246 23.6102C10.1172 23.3942 10.2245 23.1843 10.3319 22.9754C10.3628 22.9159 10.4169 22.868 10.4719 22.8005Z" fill="#D5B76E"/>
  </g>
  <mask id="mask2_672_926" style="mask-type:luminance" maskUnits="userSpaceOnUse" x="1" y="0" width="56" height="74">
    <path d="M56.2756 0H1.78955V74H56.2756V0Z" fill="white"/>
  </mask>
  <g mask="url(#mask2_672_926)">
    <path d="M16.1265 44.3943C16.326 44.402 16.3725 44.5201 16.4401 44.6037C16.8213 45.0771 17.1796 45.5696 17.5805 46.026C19.438 48.1381 21.7103 49.6614 24.3114 50.7047C26.9751 51.7735 29.7457 52.2231 32.6099 52.0813C33.9042 52.0178 35.1779 51.8138 36.4252 51.4559C36.4328 51.4541 36.4399 51.4518 36.4471 51.4496C36.6404 51.3959 36.7558 51.4326 36.7893 51.5574C36.8211 51.6787 36.7428 51.7628 36.5393 51.8182C34.9255 52.2629 33.281 52.4804 31.6073 52.4808C28.1056 52.4817 24.8245 51.6321 21.7792 49.9016C19.7928 48.7733 18.0811 47.3229 16.7295 45.469C16.5421 45.2117 16.3783 44.9366 16.2124 44.6646C16.1694 44.5948 16.16 44.504 16.1265 44.3943Z" fill="#D5B76E"/>
  </g>
  <mask id="mask3_672_926" style="mask-type:luminance" maskUnits="userSpaceOnUse" x="1" y="0" width="56" height="74">
    <path d="M56.2756 0H1.78955V74H56.2756V0Z" fill="white"/>
  </mask>
  <g mask="url(#mask3_672_926)">
    <path d="M31.6615 10.6124C31.7912 10.6088 31.9255 10.5967 32.0592 10.6021C32.9419 10.6374 33.8139 10.7636 34.6778 10.9426C39.0706 11.8543 42.8278 13.9494 46.0243 17.0717C48.1387 19.1364 49.8137 21.5169 51.0695 24.1918C51.1173 24.2947 51.1652 24.399 51.2055 24.505C51.2502 24.6227 51.2202 24.7135 51.0932 24.7573C50.9366 24.7524 50.9026 24.6245 50.8476 24.5193C50.4776 23.8133 50.1367 23.0904 49.7336 22.4036C47.3557 18.3602 44.1055 15.2276 39.9113 13.1012C37.6135 11.9362 35.1793 11.2101 32.6194 10.9081C32.3554 10.8768 32.0901 10.8504 31.8275 10.811C31.742 10.798 31.6136 10.7989 31.6615 10.6124Z" fill="#D5B76E"/>
  </g>
  <mask id="mask4_672_926" style="mask-type:luminance" maskUnits="userSpaceOnUse" x="1" y="0" width="56" height="74">
    <path d="M56.2756 0H1.78955V74H56.2756V0Z" fill="white"/>
  </mask>
  <g mask="url(#mask4_672_926)">
    <path d="M23.0725 43.5399C23.162 43.5663 23.2551 43.5837 23.3396 43.6204C23.7843 43.8159 24.2219 44.028 24.6715 44.211C26.1671 44.8203 27.7289 45.1554 29.3319 45.3097C30.4682 45.4193 31.6064 45.4328 32.745 45.3487C33.8379 45.2681 34.9166 45.0963 35.976 44.8118C36.0713 44.7863 36.167 44.7604 36.2645 44.7492C36.354 44.7393 36.4328 44.7774 36.4618 44.87C36.4932 44.9715 36.452 45.0534 36.3585 45.0959C36.2695 45.1366 36.1742 45.1648 36.0793 45.1912C34.9913 45.4882 33.8827 45.6623 32.7593 45.7473C31.0002 45.8824 29.2531 45.7853 27.5213 45.448C26.3469 45.2189 25.2039 44.8874 24.1306 44.3497C23.8264 44.1975 23.5409 44.0061 23.2524 43.824C23.1683 43.7712 23.1034 43.6871 23.03 43.6168C23.0439 43.5918 23.0582 43.5658 23.0725 43.5399Z" fill="#D5B76E"/>
  </g>
  <mask id="mask5_672_926" style="mask-type:luminance" maskUnits="userSpaceOnUse" x="1" y="0" width="56" height="74">
    <path d="M56.2756 0H1.78955V74H56.2756V0Z" fill="white"/>
  </mask>
  <g mask="url(#mask5_672_926)">
    <path d="M37.3474 44.4986C37.4007 44.4516 37.4508 44.3827 37.5192 44.3501C37.8319 44.1971 38.1482 44.0535 38.4645 43.9099C38.6207 43.8392 38.7424 43.8593 38.7875 43.9546C38.8341 44.0535 38.7871 44.1631 38.6417 44.2499C38.3357 44.4337 38.0131 44.5814 37.6628 44.6619C37.4789 44.7044 37.4499 44.6878 37.3474 44.4986Z" fill="#D5B76E"/>
  </g>
  <mask id="mask6_672_926" style="mask-type:luminance" maskUnits="userSpaceOnUse" x="1" y="0" width="56" height="74">
    <path d="M56.2756 0H1.78955V74H56.2756V0Z" fill="white"/>
  </mask>
  <g mask="url(#mask6_672_926)">
    <path d="M20.9183 70.599C20.925 70.9533 20.5855 71.3081 20.2325 71.3157C19.8835 71.3224 19.5932 71.0567 19.5847 70.7234C19.5753 70.3301 19.8885 69.9861 20.2598 69.9816C20.6114 69.9776 20.9116 70.259 20.9183 70.599Z" fill="#D5B76E"/>
  </g>
  <mask id="mask7_672_926" style="mask-type:luminance" maskUnits="userSpaceOnUse" x="1" y="0" width="56" height="74">
    <path d="M56.2756 0H1.78955V74H56.2756V0Z" fill="white"/>
  </mask>
  <g mask="url(#mask7_672_926)">
    <path d="M16.9611 68.7795C16.6358 68.7781 16.3848 68.5227 16.388 68.197C16.3911 67.8722 16.6483 67.6252 16.9763 67.6301C17.2944 67.636 17.536 67.8816 17.5369 68.1997C17.5377 68.528 17.2859 68.7804 16.9611 68.7795Z" fill="#D5B76E"/>
  </g>
  <mask id="mask8_672_926" style="mask-type:luminance" maskUnits="userSpaceOnUse" x="1" y="0" width="56" height="74">
    <path d="M56.2756 0H1.78955V74H56.2756V0Z" fill="white"/>
  </mask>
  <g mask="url(#mask8_672_926)">
    <path d="M35.116 63.0458C35.1111 62.7272 35.3679 62.444 35.6686 62.4373C35.954 62.4297 36.1875 62.6561 36.1974 62.9496C36.2072 63.2618 35.9437 63.5549 35.6448 63.5616C35.3679 63.5679 35.1201 63.3267 35.116 63.0458Z" fill="#D5B76E"/>
  </g>
  <mask id="mask9_672_926" style="mask-type:luminance" maskUnits="userSpaceOnUse" x="1" y="0" width="56" height="74">
    <path d="M56.2756 0H1.78955V74H56.2756V0Z" fill="white"/>
  </mask>
  <g mask="url(#mask9_672_926)">
    <path d="M22.8308 62.449C22.8313 62.1542 23.059 61.9225 23.3444 61.926C23.6513 61.9301 23.922 62.1904 23.9238 62.4839C23.926 62.768 23.6902 63.0033 23.4026 63.0051C23.0912 63.0078 22.8304 62.7537 22.8308 62.449Z" fill="#D5B76E"/>
  </g>
  <mask id="mask10_672_926" style="mask-type:luminance" maskUnits="userSpaceOnUse" x="1" y="0" width="56" height="74">
    <path d="M56.2756 0H1.78955V74H56.2756V0Z" fill="white"/>
  </mask>
  <g mask="url(#mask10_672_926)">
    <path d="M27.9853 63.686C28.2815 63.6824 28.5208 63.9097 28.5177 64.1911C28.5146 64.4743 28.2761 64.7181 27.9978 64.7226C27.7039 64.7284 27.4247 64.4658 27.4265 64.1853C27.4288 63.886 27.648 63.6896 27.9853 63.686Z" fill="#D5B76E"/>
  </g>
  <mask id="mask11_672_926" style="mask-type:luminance" maskUnits="userSpaceOnUse" x="1" y="0" width="56" height="74">
    <path d="M56.2756 0H1.78955V74H56.2756V0Z" fill="white"/>
  </mask>
  <g mask="url(#mask11_672_926)">
    <path d="M38.3788 69.464C38.6597 69.4676 38.9103 69.7481 38.9013 70.0492C38.8933 70.3266 38.6736 70.5364 38.398 70.5306C38.0866 70.5234 37.828 70.2841 37.8392 70.0139C37.8517 69.7244 38.1108 69.4609 38.3788 69.464Z" fill="#D5B76E"/>
  </g>
  <mask id="mask12_672_926" style="mask-type:luminance" maskUnits="userSpaceOnUse" x="1" y="0" width="56" height="74">
    <path d="M56.2756 0H1.78955V74H56.2756V0Z" fill="white"/>
  </mask>
  <g mask="url(#mask12_672_926)">
    <path d="M28.2099 71.7278C28.4904 71.7269 28.7306 71.9653 28.7342 72.2499C28.7378 72.5304 28.528 72.7657 28.2707 72.7697C27.9768 72.7742 27.707 72.5335 27.7039 72.2642C27.7008 71.9752 27.9329 71.7286 28.2099 71.7278Z" fill="#D5B76E"/>
  </g>
  <mask id="mask13_672_926" style="mask-type:luminance" maskUnits="userSpaceOnUse" x="1" y="0" width="56" height="74">
    <path d="M56.2756 0H1.78955V74H56.2756V0Z" fill="white"/>
  </mask>
  <g mask="url(#mask13_672_926)">
    <path d="M40.9307 70.4183C40.9401 70.1409 41.1646 69.9078 41.4183 69.9132C41.6823 69.9185 41.9131 70.157 41.9077 70.4174C41.9015 70.6921 41.6724 70.927 41.4179 70.9193C41.1445 70.9113 40.9222 70.6822 40.9307 70.4183Z" fill="#D5B76E"/>
  </g>
  <mask id="mask14_672_926" style="mask-type:luminance" maskUnits="userSpaceOnUse" x="1" y="0" width="56" height="74">
    <path d="M56.2756 0H1.78955V74H56.2756V0Z" fill="white"/>
  </mask>
  <g mask="url(#mask14_672_926)">
    <path d="M44.8828 64.4264C45.1656 64.4318 45.3955 64.6783 45.3848 64.9633C45.3754 65.2138 45.1709 65.408 44.9258 65.4026C44.6439 65.3959 44.3804 65.1257 44.3925 64.8541C44.4032 64.6 44.6072 64.421 44.8828 64.4264Z" fill="#D5B76E"/>
  </g>
  <mask id="mask15_672_926" style="mask-type:luminance" maskUnits="userSpaceOnUse" x="1" y="0" width="56" height="74">
    <path d="M56.2756 0H1.78955V74H56.2756V0Z" fill="white"/>
  </mask>
  <g mask="url(#mask15_672_926)">
    <path d="M35.3279 71.7376C35.3274 72.0043 35.1521 72.1863 34.8935 72.1895C34.5982 72.1931 34.3714 71.9636 34.3799 71.6696C34.3875 71.4083 34.5982 71.1972 34.8443 71.2048C35.1122 71.2128 35.3283 71.4504 35.3279 71.7376Z" fill="#D5B76E"/>
  </g>
  <mask id="mask16_672_926" style="mask-type:luminance" maskUnits="userSpaceOnUse" x="1" y="0" width="56" height="74">
    <path d="M56.2756 0H1.78955V74H56.2756V0Z" fill="white"/>
  </mask>
  <g mask="url(#mask16_672_926)">
    <path d="M34.0347 66.407C34.0391 66.6785 33.8535 66.8951 33.6083 66.9053C33.3497 66.9156 33.1238 66.6714 33.1211 66.3779C33.1193 66.1336 33.322 65.9251 33.5663 65.9211C33.8235 65.9162 34.0306 66.1309 34.0347 66.407Z" fill="#D5B76E"/>
  </g>
  <mask id="mask17_672_926" style="mask-type:luminance" maskUnits="userSpaceOnUse" x="1" y="0" width="56" height="74">
    <path d="M56.2756 0H1.78955V74H56.2756V0Z" fill="white"/>
  </mask>
  <g mask="url(#mask17_672_926)">
    <path d="M24.6948 67.117C24.6988 67.3796 24.5042 67.5831 24.2456 67.5876C23.9651 67.5925 23.7342 67.3827 23.7324 67.121C23.7302 66.8606 23.9418 66.6539 24.2125 66.6517C24.4845 66.6499 24.6907 66.8485 24.6948 67.117Z" fill="#D5B76E"/>
  </g>
  <mask id="mask18_672_926" style="mask-type:luminance" maskUnits="userSpaceOnUse" x="1" y="0" width="56" height="74">
    <path d="M56.2756 0H1.78955V74H56.2756V0Z" fill="white"/>
  </mask>
  <g mask="url(#mask18_672_926)">
    <path d="M18.6062 63.5916C18.608 63.3397 18.7932 63.1522 19.0344 63.1585C19.2885 63.1648 19.5122 63.3988 19.505 63.6502C19.4983 63.894 19.3153 64.0774 19.0876 64.0698C18.8205 64.0604 18.6044 63.8466 18.6062 63.5916Z" fill="#D5B76E"/>
  </g>
  <mask id="mask19_672_926" style="mask-type:luminance" maskUnits="userSpaceOnUse" x="1" y="0" width="56" height="74">
    <path d="M56.2756 0H1.78955V74H56.2756V0Z" fill="white"/>
  </mask>
  <g mask="url(#mask19_672_926)">
    <path d="M27.3726 70.2665C27.373 70.5072 27.1793 70.6956 26.9324 70.6947C26.6796 70.6933 26.4787 70.4965 26.4783 70.2491C26.4778 69.9927 26.655 69.7945 26.8881 69.7923C27.1462 69.7883 27.3717 70.0093 27.3726 70.2665Z" fill="#D5B76E"/>
  </g>
  <mask id="mask20_672_926" style="mask-type:luminance" maskUnits="userSpaceOnUse" x="1" y="0" width="56" height="74">
    <path d="M56.2756 0H1.78955V74H56.2756V0Z" fill="white"/>
  </mask>
  <g mask="url(#mask20_672_926)">
    <path d="M46.2777 68.7437C46.0299 68.7352 45.8308 68.5263 45.8447 68.2878C45.8572 68.0646 46.0657 67.8753 46.2849 67.8896C46.5068 67.9044 46.7032 68.1281 46.6929 68.3549C46.6831 68.5826 46.5023 68.7513 46.2777 68.7437Z" fill="#D5B76E"/>
  </g>
  <mask id="mask21_672_926" style="mask-type:luminance" maskUnits="userSpaceOnUse" x="1" y="0" width="56" height="74">
    <path d="M56.2756 0H1.78955V74H56.2756V0Z" fill="white"/>
  </mask>
  <g mask="url(#mask21_672_926)">
    <path d="M45.3442 69.5629C45.5607 69.5669 45.7625 69.7718 45.7638 69.9901C45.7652 70.2066 45.5925 70.382 45.3782 70.3811C45.1541 70.3798 44.9603 70.1829 44.9617 69.957C44.963 69.7347 45.133 69.5593 45.3442 69.5629Z" fill="#D5B76E"/>
  </g>
  <mask id="mask22_672_926" style="mask-type:luminance" maskUnits="userSpaceOnUse" x="1" y="0" width="56" height="74">
    <path d="M56.2756 0H1.78955V74H56.2756V0Z" fill="white"/>
  </mask>
  <g mask="url(#mask22_672_926)">
    <path d="M38.9508 67.6283C38.9553 67.8444 38.7826 68.0305 38.5759 68.0323C38.3809 68.0341 38.2395 67.8869 38.2395 67.6829C38.2399 67.452 38.3818 67.2829 38.5818 67.2767C38.7804 67.2695 38.9473 67.4292 38.9508 67.6283Z" fill="#D5B76E"/>
  </g>
  <mask id="mask23_672_926" style="mask-type:luminance" maskUnits="userSpaceOnUse" x="1" y="0" width="56" height="74">
    <path d="M56.2756 0H1.78955V74H56.2756V0Z" fill="white"/>
  </mask>
  <g mask="url(#mask23_672_926)">
    <path d="M39.7655 63.006C39.5772 63.0024 39.4358 62.8552 39.4434 62.6709C39.4519 62.4772 39.6304 62.3072 39.8152 62.3157C39.9937 62.3251 40.1216 62.4607 40.123 62.6441C40.1243 62.8472 39.9642 63.0096 39.7655 63.006Z" fill="#D5B76E"/>
  </g>
  <mask id="mask24_672_926" style="mask-type:luminance" maskUnits="userSpaceOnUse" x="1" y="0" width="56" height="74">
    <path d="M56.2756 0H1.78955V74H56.2756V0Z" fill="white"/>
  </mask>
  <g mask="url(#mask24_672_926)">
    <path d="M32.4578 64.052C32.6542 64.0573 32.7996 64.2121 32.7893 64.4072C32.7799 64.5924 32.6336 64.7262 32.4439 64.7221C32.2475 64.7181 32.1021 64.5642 32.1115 64.3696C32.1196 64.1893 32.2753 64.0466 32.4578 64.052Z" fill="#D5B76E"/>
  </g>
  <mask id="mask25_672_926" style="mask-type:luminance" maskUnits="userSpaceOnUse" x="1" y="0" width="56" height="74">
    <path d="M56.2756 0H1.78955V74H56.2756V0Z" fill="white"/>
  </mask>
  <g mask="url(#mask25_672_926)">
    <path d="M28.0948 67.053C28.0975 67.2386 27.9534 67.3791 27.7606 67.3782C27.5647 67.3773 27.4233 67.2458 27.4179 67.0592C27.4121 66.8664 27.5365 66.7479 27.7512 66.7407C27.9499 66.7344 28.0921 66.8637 28.0948 67.053Z" fill="#D5B76E"/>
  </g>
  <mask id="mask26_672_926" style="mask-type:luminance" maskUnits="userSpaceOnUse" x="1" y="0" width="56" height="74">
    <path d="M56.2756 0H1.78955V74H56.2756V0Z" fill="white"/>
  </mask>
  <g mask="url(#mask26_672_926)">
    <path d="M37.9091 64.8667C37.906 65.0438 37.7664 65.1892 37.5942 65.1924C37.4058 65.1955 37.2586 65.0331 37.2667 64.8309C37.2747 64.6412 37.404 64.5181 37.5892 64.5235C37.7758 64.5293 37.9127 64.6761 37.9091 64.8667Z" fill="#D5B76E"/>
  </g>
  <mask id="mask27_672_926" style="mask-type:luminance" maskUnits="userSpaceOnUse" x="1" y="0" width="56" height="74">
    <path d="M56.2756 0H1.78955V74H56.2756V0Z" fill="white"/>
  </mask>
  <g mask="url(#mask27_672_926)">
    <path d="M19.951 66.9215C19.7712 66.9153 19.6244 66.7555 19.6316 66.5744C19.6392 66.3856 19.7886 66.2482 19.9756 66.259C20.1568 66.2688 20.2969 66.4299 20.2839 66.6128C20.2714 66.7855 20.1188 66.9273 19.951 66.9215Z" fill="#D5B76E"/>
  </g>
  <mask id="mask28_672_926" style="mask-type:luminance" maskUnits="userSpaceOnUse" x="1" y="0" width="56" height="74">
    <path d="M56.2756 0H1.78955V74H56.2756V0Z" fill="white"/>
  </mask>
  <g mask="url(#mask28_672_926)">
    <path d="M42.6119 66.662C42.7922 66.657 42.9385 66.7957 42.9372 66.9684C42.9354 67.1308 42.794 67.2722 42.6307 67.2735C42.4643 67.2753 42.3283 67.1425 42.3234 66.9733C42.3189 66.7953 42.4379 66.6669 42.6119 66.662Z" fill="#D5B76E"/>
  </g>
  <mask id="mask29_672_926" style="mask-type:luminance" maskUnits="userSpaceOnUse" x="1" y="0" width="56" height="74">
    <path d="M56.2756 0H1.78955V74H56.2756V0Z" fill="white"/>
  </mask>
  <g mask="url(#mask29_672_926)">
    <path d="M31.9489 66.879C31.9436 67.044 31.8026 67.1814 31.6411 67.1792C31.4738 67.1769 31.34 67.0355 31.3485 66.8709C31.3566 66.7031 31.4886 66.5873 31.6689 66.5922C31.8393 66.5962 31.9543 66.7139 31.9489 66.879Z" fill="#D5B76E"/>
  </g>
  <mask id="mask30_672_926" style="mask-type:luminance" maskUnits="userSpaceOnUse" x="1" y="0" width="56" height="74">
    <path d="M56.2756 0H1.78955V74H56.2756V0Z" fill="white"/>
  </mask>
  <g mask="url(#mask30_672_926)">
    <path d="M23.8639 70.8433C24.0335 70.8415 24.1632 70.9726 24.1614 71.1435C24.1596 71.3153 24.0312 71.4446 23.8626 71.4441C23.6926 71.4437 23.5637 71.3139 23.5637 71.1439C23.5637 70.9762 23.6953 70.8451 23.8639 70.8433Z" fill="#D5B76E"/>
  </g>
  <mask id="mask31_672_926" style="mask-type:luminance" maskUnits="userSpaceOnUse" x="1" y="0" width="56" height="74">
    <path d="M56.2756 0H1.78955V74H56.2756V0Z" fill="white"/>
  </mask>
  <g mask="url(#mask31_672_926)">
    <path d="M41.3052 64.9203C41.3008 65.0809 41.1728 65.2013 41.0086 65.1991C40.8332 65.1968 40.7156 65.0671 40.7254 64.8877C40.7344 64.723 40.8632 64.6085 41.0274 64.6179C41.1867 64.6278 41.3097 64.762 41.3052 64.9203Z" fill="#D5B76E"/>
  </g>
  <mask id="mask32_672_926" style="mask-type:luminance" maskUnits="userSpaceOnUse" x="1" y="0" width="56" height="74">
    <path d="M56.2756 0H1.78955V74H56.2756V0Z" fill="white"/>
  </mask>
  <g mask="url(#mask32_672_926)">
    <path d="M35.3219 70.5767C35.3263 70.4183 35.461 70.2917 35.6185 70.2975C35.7773 70.3038 35.9035 70.4371 35.8994 70.5946C35.8954 70.7547 35.7666 70.8737 35.6019 70.8688C35.4395 70.8643 35.3178 70.7373 35.3219 70.5767Z" fill="#D5B76E"/>
  </g>
  <mask id="mask33_672_926" style="mask-type:luminance" maskUnits="userSpaceOnUse" x="1" y="0" width="56" height="74">
    <path d="M56.2756 0H1.78955V74H56.2756V0Z" fill="white"/>
  </mask>
  <g mask="url(#mask33_672_926)">
    <path d="M30.4318 70.3033C30.4305 70.4625 30.3173 70.5838 30.1679 70.5874C30.0162 70.5905 29.8963 70.4715 29.8936 70.3162C29.8905 70.1489 30.0104 70.0232 30.171 70.0237C30.3253 70.0241 30.4341 70.1404 30.4318 70.3033Z" fill="#D5B76E"/>
  </g>
  <mask id="mask34_672_926" style="mask-type:luminance" maskUnits="userSpaceOnUse" x="1" y="0" width="56" height="74">
    <path d="M56.2756 0H1.78955V74H56.2756V0Z" fill="white"/>
  </mask>
  <g mask="url(#mask34_672_926)">
    <path d="M22.7194 68.9911C22.5646 68.9937 22.4581 68.8935 22.4563 68.7432C22.4545 68.5897 22.557 68.4658 22.6908 68.4573C22.8362 68.4488 22.9798 68.5732 22.9865 68.7132C22.9936 68.8635 22.8742 68.9884 22.7194 68.9911Z" fill="#D5B76E"/>
  </g>
  <mask id="mask35_672_926" style="mask-type:luminance" maskUnits="userSpaceOnUse" x="1" y="0" width="56" height="74">
    <path d="M56.2756 0H1.78955V74H56.2756V0Z" fill="white"/>
  </mask>
  <g mask="url(#mask35_672_926)">
    <path d="M35.585 68.4421C35.5845 68.2905 35.6883 68.1844 35.8368 68.1844C35.9885 68.1844 36.1142 68.3097 36.1093 68.4556C36.1044 68.5947 35.9791 68.7101 35.8391 68.7061C35.6959 68.7016 35.5854 68.5875 35.585 68.4421Z" fill="#D5B76E"/>
  </g>
  <mask id="mask36_672_926" style="mask-type:luminance" maskUnits="userSpaceOnUse" x="1" y="0" width="56" height="74">
    <path d="M56.2756 0H1.78955V74H56.2756V0Z" fill="white"/>
  </mask>
  <g mask="url(#mask36_672_926)">
    <path d="M44.1947 68.834C44.1965 68.9767 44.0802 69.0984 43.9397 69.1002C43.8032 69.102 43.7003 68.996 43.699 68.8528C43.6976 68.7056 43.8099 68.5857 43.9504 68.5862C44.0828 68.5871 44.1929 68.6989 44.1947 68.834Z" fill="#D5B76E"/>
  </g>
  <mask id="mask37_672_926" style="mask-type:luminance" maskUnits="userSpaceOnUse" x="1" y="0" width="56" height="74">
    <path d="M56.2756 0H1.78955V74H56.2756V0Z" fill="white"/>
  </mask>
  <g mask="url(#mask37_672_926)">
    <path d="M24.0871 64.1611C24.2338 64.1553 24.3461 64.2618 24.3484 64.4085C24.351 64.5539 24.2419 64.6653 24.0956 64.6667C23.9542 64.668 23.8544 64.5727 23.8482 64.4309C23.8419 64.2806 23.9421 64.1669 24.0871 64.1611Z" fill="#D5B76E"/>
  </g>
  <mask id="mask38_672_926" style="mask-type:luminance" maskUnits="userSpaceOnUse" x="1" y="0" width="56" height="74">
    <path d="M56.2756 0H1.78955V74H56.2756V0Z" fill="white"/>
  </mask>
  <g mask="url(#mask38_672_926)">
    <path d="M21.5018 64.3423C21.3622 64.341 21.2611 64.2394 21.2593 64.0981C21.2571 63.9553 21.3577 63.8471 21.4933 63.8462C21.6186 63.8457 21.7429 63.9844 21.7407 64.1209C21.7376 64.2466 21.6329 64.3437 21.5018 64.3423Z" fill="#D5B76E"/>
  </g>
  <mask id="mask39_672_926" style="mask-type:luminance" maskUnits="userSpaceOnUse" x="1" y="0" width="56" height="74">
    <path d="M56.2756 0H1.78955V74H56.2756V0Z" fill="white"/>
  </mask>
  <g mask="url(#mask39_672_926)">
    <path d="M31.9434 72.3872C31.9451 72.5272 31.8405 72.6386 31.7058 72.6395C31.5819 72.6408 31.4705 72.5348 31.4664 72.4113C31.462 72.2789 31.5734 72.1662 31.7103 72.1639C31.8481 72.1626 31.9416 72.2516 31.9434 72.3872Z" fill="#D5B76E"/>
  </g>
  <mask id="mask40_672_926" style="mask-type:luminance" maskUnits="userSpaceOnUse" x="1" y="0" width="56" height="74">
    <path d="M56.2756 0H1.78955V74H56.2756V0Z" fill="white"/>
  </mask>
  <g mask="url(#mask40_672_926)">
    <path d="M41.6918 63.8699C41.5563 63.8641 41.452 63.746 41.4632 63.6113C41.4744 63.4869 41.5867 63.3872 41.7106 63.3925C41.8439 63.3984 41.9509 63.5209 41.9397 63.6534C41.929 63.7786 41.8189 63.8744 41.6918 63.8699Z" fill="#D5B76E"/>
  </g>
  <mask id="mask41_672_926" style="mask-type:luminance" maskUnits="userSpaceOnUse" x="1" y="0" width="56" height="74">
    <path d="M56.2756 0H1.78955V74H56.2756V0Z" fill="white"/>
  </mask>
  <g mask="url(#mask41_672_926)">
    <path d="M41.0279 68.2596C40.8982 68.2551 40.798 68.1567 40.7967 68.031C40.7949 67.8954 40.9031 67.793 41.0436 67.7961C41.1818 67.7997 41.2798 67.908 41.2718 68.0475C41.2637 68.1746 41.1608 68.2636 41.0279 68.2596Z" fill="#D5B76E"/>
  </g>
  <mask id="mask42_672_926" style="mask-type:luminance" maskUnits="userSpaceOnUse" x="1" y="0" width="56" height="74">
    <path d="M56.2756 0H1.78955V74H56.2756V0Z" fill="white"/>
  </mask>
  <g mask="url(#mask42_672_926)">
    <path d="M32.7248 69.0524C32.5915 69.051 32.4944 68.9562 32.4917 68.826C32.4899 68.686 32.5969 68.5835 32.7387 68.5907C32.8693 68.5974 32.9637 68.6981 32.9601 68.8287C32.957 68.958 32.8559 69.0542 32.7248 69.0524Z" fill="#D5B76E"/>
  </g>
  <mask id="mask43_672_926" style="mask-type:luminance" maskUnits="userSpaceOnUse" x="1" y="0" width="56" height="74">
    <path d="M56.2756 0H1.78955V74H56.2756V0Z" fill="white"/>
  </mask>
  <g mask="url(#mask43_672_926)">
    <path d="M32.7507 70.7148C32.8576 70.7216 32.9404 70.8164 32.9377 70.9291C32.935 71.0526 32.8393 71.1497 32.7252 71.1448C32.6107 71.1394 32.5293 71.0352 32.5409 70.9072C32.5507 70.7945 32.6442 70.709 32.7507 70.7148Z" fill="#D5B76E"/>
  </g>
  <mask id="mask44_672_926" style="mask-type:luminance" maskUnits="userSpaceOnUse" x="1" y="0" width="56" height="74">
    <path d="M56.2756 0H1.78955V74H56.2756V0Z" fill="white"/>
  </mask>
  <g mask="url(#mask44_672_926)">
    <path d="M29.5515 68.3924C29.7215 68.4922 29.7676 68.5638 29.734 68.6743C29.7036 68.7727 29.6302 68.8255 29.5295 68.8174C29.4316 68.8089 29.3627 68.7526 29.3448 68.6488C29.3237 68.5262 29.3658 68.4721 29.5515 68.3924Z" fill="#D5B76E"/>
  </g>
  <mask id="mask45_672_926" style="mask-type:luminance" maskUnits="userSpaceOnUse" x="1" y="0" width="56" height="74">
    <path d="M56.2756 0H1.78955V74H56.2756V0Z" fill="white"/>
  </mask>
  <g mask="url(#mask45_672_926)">
    <path d="M27.9986 28.4371C27.8661 27.9311 27.7324 27.4336 27.6062 26.9339C27.0385 24.6884 26.4725 22.4426 25.9066 20.1967C25.8806 20.0934 25.8538 19.9896 25.8413 19.8849C25.8319 19.8008 25.844 19.714 25.8466 19.6173C25.9956 19.6352 26.0144 19.735 26.0399 19.8142C26.1401 20.1251 26.2403 20.4361 26.3253 20.751C26.9888 23.2067 27.6487 25.6637 28.3095 28.1203C28.3328 28.2062 28.3583 28.2917 28.377 28.3583C29.2678 28.2711 30.1339 28.1865 31.0327 28.0984C31.0323 27.9901 31.0345 27.864 31.0314 27.7378C30.9571 24.8213 30.8811 21.9044 30.8095 18.9874C30.7978 18.5092 30.8037 18.0305 30.8072 17.5518C30.8081 17.4493 30.8341 17.3478 30.8457 17.2654C30.979 17.1992 31.0412 17.2399 31.0658 17.3379C31.086 17.4185 31.0962 17.5026 31.1007 17.5853C31.1325 18.2761 31.1719 18.9664 31.1911 19.6576C31.2555 21.9513 31.3123 24.2455 31.3714 26.5393C31.3839 27.0028 31.3947 27.4658 31.4072 27.9293C31.409 27.9892 31.4179 28.0487 31.426 28.1378C32.4388 28.1794 33.4401 28.2859 34.4489 28.5198C34.4794 28.4236 34.5102 28.3409 34.5326 28.2563C35.1299 25.9867 35.724 23.7172 36.3235 21.448C36.4322 21.0373 36.5601 20.632 36.6818 20.2244C36.7096 20.1341 36.7306 20.0334 36.846 19.9914C36.9409 20.1104 36.9011 20.2307 36.8747 20.3443C36.6975 21.1138 36.527 21.8851 36.3365 22.6511C35.8618 24.56 35.3782 26.4668 34.8986 28.3744C34.882 28.4402 34.869 28.5069 34.8485 28.5986C35.256 28.7283 35.6605 28.8464 36.0582 28.9865C36.4514 29.1247 36.8366 29.2858 37.2514 29.4464C37.2952 29.3757 37.3444 29.3023 37.3874 29.2258C38.4526 27.3414 39.5165 25.4561 40.583 23.5722C40.7061 23.3543 40.8407 23.1423 40.9776 22.9325C41.0192 22.8694 41.085 22.8228 41.1508 22.7584C41.2349 22.9016 41.1686 22.9964 41.1239 23.0859C40.9342 23.4662 40.7454 23.8478 40.5432 24.2218C39.61 25.9451 38.6722 27.6658 37.7372 29.3873C37.6978 29.4598 37.6612 29.5332 37.6303 29.5927C38.4083 30.0678 39.1711 30.5335 39.9629 31.0167C39.9974 30.9769 40.0565 30.9124 40.1101 30.844C41.8169 28.6581 43.5219 26.4708 45.2309 24.2867C45.5253 23.91 45.8344 23.544 46.1427 23.1776C46.2098 23.0975 46.2733 22.9835 46.4245 23.0269C46.4509 23.1512 46.3749 23.2349 46.3171 23.3168C46.0577 23.6818 45.8 24.0491 45.528 24.4052C43.8355 26.6211 42.139 28.8343 40.4439 31.048C40.3848 31.1254 40.3271 31.2037 40.2748 31.2739C40.8394 31.8081 41.3892 32.3289 41.9529 32.8621C42.0267 32.8062 42.1113 32.7445 42.1941 32.6801C43.6928 31.5133 45.1906 30.3452 46.6907 29.1797C46.8527 29.0545 47.0231 28.939 47.1927 28.8245C47.296 28.7538 47.2996 28.7583 47.445 28.7798C47.4647 28.8997 47.3698 28.956 47.3005 29.0164C46.9846 29.2898 46.6697 29.5645 46.3422 29.8249C45.0233 30.8758 43.6999 31.9213 42.3784 32.9691C42.3131 33.0205 42.25 33.0733 42.1659 33.1409C42.2272 33.2218 42.2782 33.2939 42.3332 33.3623C43.0508 34.2562 43.6512 35.219 44.0972 36.2779C44.1867 36.4913 44.171 36.6555 44.0297 36.8425C43.2459 37.876 42.3081 38.7448 41.2465 39.4825C39.5276 40.6775 37.6312 41.4689 35.6023 41.9552C33.6982 42.4116 31.7664 42.5865 29.8123 42.4782C26.7955 42.3104 23.9372 41.5696 21.2829 40.099C20.1604 39.4772 19.1404 38.7171 18.1924 37.8527C17.9199 37.6044 17.8519 37.3709 17.9821 37.0139C18.5297 35.5116 19.3153 34.1533 20.3563 32.9413C20.415 32.8733 20.4718 32.804 20.5425 32.7199C20.4601 32.6528 20.3912 32.5951 20.321 32.5396C18.9346 31.4506 17.5477 30.3631 16.1635 29.2719C15.9246 29.084 15.6959 28.8836 15.4678 28.6827C15.4056 28.6272 15.364 28.5489 15.3103 28.4778C15.4463 28.3874 15.5282 28.4617 15.6056 28.5154C15.8856 28.7113 16.1675 28.905 16.4386 29.1131C17.8179 30.1734 19.1945 31.2377 20.572 32.3002C20.6369 32.3503 20.7035 32.3987 20.7617 32.442C21.3486 31.9244 21.9213 31.4193 22.5109 30.8995C22.4559 30.827 22.3978 30.75 22.3383 30.6731C20.5483 28.3597 18.7578 26.0467 16.9696 23.7315C16.7795 23.4854 16.6001 23.2304 16.4225 22.9745C16.3702 22.8989 16.3411 22.8067 16.2981 22.7159C16.4386 22.6573 16.5008 22.7338 16.5594 22.7982C16.6918 22.9445 16.8238 23.0922 16.9468 23.2465C18.6487 25.3877 20.3496 27.5298 22.0497 29.6727C22.2716 29.9524 22.4886 30.2356 22.7091 30.517C22.7507 30.5697 22.7959 30.6194 22.8295 30.6583C23.6276 30.2127 24.4128 29.7743 25.2185 29.3242C25.1796 29.2526 25.134 29.1676 25.0879 29.0831C24.0101 27.1186 22.9315 25.1546 21.8551 23.1897C21.7638 23.0233 21.6806 22.8524 21.6028 22.6797C21.5714 22.6094 21.5652 22.528 21.5473 22.4515C21.5638 22.4403 21.5808 22.4287 21.5978 22.4166C21.6448 22.4538 21.7034 22.4828 21.737 22.5298C21.8332 22.6658 21.9258 22.8058 22.009 22.9504C23.1556 24.9461 24.3 26.9424 25.4453 28.9386C25.4937 29.0231 25.5447 29.1064 25.5872 29.1779C26.3956 28.9296 27.1834 28.6876 27.9986 28.4371ZM43.5783 36.1424C43.5926 36.1312 43.6064 36.1195 43.6203 36.1084C43.5769 36.0225 43.5362 35.9357 43.491 35.8511C41.9994 33.029 39.7679 31.0059 36.8523 29.7331C34.6283 28.7628 32.2988 28.4049 29.8829 28.6075C27.5999 28.7986 25.482 29.4933 23.5489 30.7254C21.2945 32.1629 19.6191 34.0992 18.586 36.5763C18.5467 36.6707 18.514 36.7678 18.4644 36.9016C18.5382 36.8707 18.5673 36.8635 18.5905 36.8479C18.7927 36.7137 18.9914 36.5727 19.1972 36.4435C20.4937 35.6301 21.8958 35.0539 23.357 34.6154C25.6337 33.9327 27.9672 33.5985 30.3384 33.5104C32.9936 33.4115 35.6224 33.6303 38.2164 34.2128C40.0466 34.6239 41.8214 35.1966 43.4763 36.0985C43.5085 36.1164 43.5443 36.1276 43.5783 36.1424ZM37.5677 34.4647C37.6258 35.652 37.4111 36.7499 36.8805 37.778C36.3521 38.8003 35.6054 39.6252 34.6328 40.2391C33.6539 40.8569 32.5842 41.1956 31.4264 41.2255C29.9371 41.2649 28.5855 40.835 27.4107 39.9219C25.6918 38.5864 24.8946 36.7947 24.908 34.6195C24.8181 34.6347 24.7506 34.6418 24.6857 34.6579C23.4952 34.9483 22.3315 35.3192 21.2091 35.814C20.2888 36.2198 19.411 36.7011 18.6066 37.3087C18.5431 37.357 18.4849 37.4116 18.425 37.463C18.4527 37.5051 18.4626 37.5266 18.4778 37.5422C18.5592 37.6223 18.6397 37.7024 18.7243 37.7789C19.4468 38.4348 20.2297 39.0096 21.0695 39.5062C23.726 41.077 26.6144 41.8756 29.6812 42.0639C31.188 42.1565 32.6889 42.0823 34.1787 41.8313C36.1575 41.4989 38.0428 40.89 39.8014 39.9147C41.2371 39.1179 42.5077 38.1162 43.5541 36.843C43.61 36.7754 43.6601 36.7025 43.7263 36.6157C41.7766 35.5809 39.7393 34.8951 37.5677 34.4647ZM25.3738 34.5045C25.1903 36.1808 25.941 38.6473 28.2809 40.0064C30.4247 41.2519 33.1309 41.0233 35.0381 39.4347C35.9687 38.6598 36.6031 37.6863 36.9333 36.5195C37.1301 35.822 37.2209 35.1134 37.1346 34.3788C36.3373 34.2298 35.5598 34.1139 34.7518 34.0397C34.7612 34.1264 34.7612 34.1846 34.7751 34.2401C34.8892 34.713 34.886 35.1885 34.8055 35.6655C34.546 37.2147 33.1752 38.4773 31.6089 38.5775C29.1108 38.7376 27.3915 36.498 27.8652 34.3296C27.8805 34.2598 27.884 34.1873 27.8961 34.0893C27.0304 34.1877 26.2019 34.3229 25.3738 34.5045ZM28.3744 34.0356C28.0075 34.8463 28.1077 36.4743 29.3608 37.476C30.5084 38.394 32.1865 38.394 33.3233 37.4666C34.4387 36.5557 34.7183 35.0499 34.2731 33.99C32.3104 33.8289 30.3366 33.8289 28.3744 34.0356Z" fill="#D5B76E"/>
  </g>
  <mask id="mask46_672_926" style="mask-type:luminance" maskUnits="userSpaceOnUse" x="1" y="0" width="56" height="74">
    <path d="M56.2756 0H1.78955V74H56.2756V0Z" fill="white"/>
  </mask>
  <g mask="url(#mask46_672_926)">
    <path d="M43.5783 36.1424C43.5921 36.1312 43.6064 36.1196 43.6203 36.1084C43.5769 36.0225 43.5362 35.9357 43.4915 35.8512C41.9999 33.0291 39.7674 31.006 36.8523 29.7332C34.6283 28.7628 32.2988 28.4049 29.8834 28.6076C27.6004 28.7986 25.4816 29.4934 23.5489 30.7255C21.2945 32.1629 19.6191 34.0992 18.586 36.5764C18.5467 36.6708 18.5145 36.7679 18.4644 36.9016C18.5382 36.8707 18.5673 36.8636 18.5905 36.8479C18.7932 36.7137 18.9914 36.5728 19.1972 36.4435C20.4941 35.6302 21.8958 35.0539 23.3569 34.6155C25.6341 33.9328 27.9677 33.5986 30.3384 33.5104C32.994 33.4116 35.6233 33.6303 38.2173 34.2128C40.0471 34.624 41.8214 35.1966 43.4763 36.0986C43.5089 36.1165 43.5447 36.1276 43.5783 36.1424Z" fill="#D5B76E"/>
  </g>
  <mask id="mask47_672_926" style="mask-type:luminance" maskUnits="userSpaceOnUse" x="1" y="0" width="56" height="74">
    <path d="M56.2756 0H1.78955V74H56.2756V0Z" fill="white"/>
  </mask>
  <g mask="url(#mask47_672_926)">
    <path d="M51.1499 35.2911C51.642 35.3474 52.1136 35.2656 52.5856 35.3591C52.5793 35.4378 52.5753 35.487 52.5699 35.5559C52.106 35.632 51.6434 35.5447 51.1651 35.5971C51.1656 35.7626 51.1615 35.9196 51.1669 36.0758C51.2031 37.0851 51.2421 38.0944 51.2788 39.1032C51.2823 39.2003 51.2801 39.2978 51.2801 39.4177C51.1915 39.432 51.1244 39.4428 51.0237 39.4593C51.0072 39.3305 50.9857 39.2294 50.9821 39.1274C50.945 38.0196 50.911 36.9115 50.8752 35.8038C50.873 35.7371 50.8654 35.6704 50.8578 35.5832C50.7517 35.5778 50.6555 35.5707 50.5594 35.568C50.1876 35.5595 49.8154 35.5537 49.4436 35.5429C49.3568 35.5407 49.2534 35.5501 49.2297 35.4235C49.2736 35.3004 49.3823 35.3148 49.4776 35.3134C49.8418 35.3089 50.2064 35.3089 50.5705 35.3072C50.6529 35.3067 50.7352 35.3067 50.8435 35.3063C50.8479 35.1993 50.8551 35.1121 50.8537 35.0249C50.8363 34.0912 50.8171 33.1575 50.8009 32.2238C50.7996 32.1388 50.8171 32.0533 50.8256 31.9737C50.9566 31.9576 50.971 32.0247 50.9777 32.0954C50.9915 32.2542 51.0094 32.413 51.017 32.5719C51.0555 33.3986 51.0904 34.2254 51.1275 35.0521C51.1311 35.126 51.141 35.1998 51.1499 35.2911Z" fill="#D5B76E"/>
  </g>
  <mask id="mask48_672_926" style="mask-type:luminance" maskUnits="userSpaceOnUse" x="1" y="0" width="56" height="74">
    <path d="M56.2756 0H1.78955V74H56.2756V0Z" fill="white"/>
  </mask>
  <g mask="url(#mask48_672_926)">
    <path d="M8.68775 57.3211C9.17987 57.3775 9.65142 57.2951 10.123 57.3882C10.1171 57.4674 10.1131 57.5166 10.1073 57.5855C9.64381 57.6616 9.18121 57.5743 8.70296 57.6267C8.70341 57.7922 8.69938 57.9492 8.70475 58.1054C8.74099 59.1147 8.77991 60.1235 8.8166 61.1328C8.82018 61.2299 8.81749 61.327 8.81794 61.4473C8.72936 61.4616 8.6618 61.4724 8.56159 61.4889C8.54503 61.3601 8.52311 61.259 8.51998 61.157C8.48285 60.0492 8.4484 58.9411 8.41306 57.8333C8.41082 57.7667 8.40277 57.7 8.39561 57.6128C8.28913 57.6074 8.19339 57.6003 8.09676 57.5976C7.72498 57.5886 7.3532 57.5837 6.98143 57.5725C6.89419 57.5698 6.79129 57.5797 6.76758 57.4531C6.81142 57.3296 6.92014 57.3444 7.01498 57.343C7.3796 57.3381 7.74422 57.3381 8.10839 57.3363C8.19071 57.3359 8.27303 57.3359 8.38129 57.3354C8.38577 57.2289 8.39337 57.1412 8.39158 57.054C8.37458 56.1203 8.35534 55.1866 8.33924 54.2529C8.3379 54.1679 8.35534 54.0825 8.3634 54.0028C8.49448 53.9863 8.5088 54.0534 8.51551 54.1241C8.52982 54.2829 8.54772 54.4417 8.55488 54.6005C8.59335 55.4273 8.62825 56.2536 8.66538 57.0804C8.66896 57.156 8.6788 57.2298 8.68775 57.3211Z" fill="#D5B76E"/>
  </g>
  <mask id="mask49_672_926" style="mask-type:luminance" maskUnits="userSpaceOnUse" x="1" y="0" width="56" height="74">
    <path d="M56.2756 0H1.78955V74H56.2756V0Z" fill="white"/>
  </mask>
  <g mask="url(#mask49_672_926)">
    <path d="M44.5667 2.87263C45.0588 2.929 45.5303 2.84668 46.0023 2.94018C45.996 3.01937 45.992 3.06858 45.9867 3.13748C45.5227 3.21354 45.0601 3.12585 44.5819 3.17864C44.5823 3.34417 44.5783 3.50076 44.5841 3.65734C44.6203 4.66664 44.6588 5.67549 44.6955 6.68479C44.6991 6.78187 44.6968 6.87895 44.6968 6.99885C44.6083 7.01317 44.5412 7.02435 44.4405 7.04046C44.4239 6.91206 44.4025 6.8105 44.3989 6.70895C44.3618 5.60078 44.3278 4.49305 44.292 3.38533C44.2897 3.31822 44.2821 3.25201 44.275 3.16477C44.1689 3.1594 44.0723 3.1518 43.9761 3.14956C43.6043 3.14061 43.2321 3.13524 42.8603 3.12451C42.7731 3.12182 42.6706 3.13167 42.6465 3.00506C42.6908 2.88158 42.799 2.89634 42.8943 2.895C43.2585 2.89053 43.6231 2.89053 43.9873 2.88874C44.0696 2.88829 44.1519 2.88829 44.2602 2.88784C44.2647 2.78047 44.2718 2.69323 44.2705 2.60599C44.253 1.6723 44.2351 1.18599 44.219 0.252749C44.2177 0.167746 44.2351 0.0818486 44.2436 0.00266162C44.3747 -0.0138916 44.389 0.053216 44.3958 0.12435C44.4105 0.282724 44.428 0.441545 44.4351 0.600814C44.4736 1.42758 44.5072 1.80696 44.5443 2.63328C44.5479 2.70755 44.5582 2.78136 44.5667 2.87263Z" fill="#D5B76E"/>
  </g>
  <mask id="mask50_672_926" style="mask-type:luminance" maskUnits="userSpaceOnUse" x="1" y="0" width="56" height="74">
    <path d="M56.2756 0H1.78955V74H56.2756V0Z" fill="white"/>
  </mask>
  <g mask="url(#mask50_672_926)">
    <path d="M20.8856 15.7511C20.9138 14.9297 20.8064 14.1566 20.8888 13.3831C21.0574 13.3669 21.0427 13.4851 21.0512 13.5625C21.0744 13.7812 21.0878 14.0013 21.099 14.2214C21.121 14.646 21.138 15.071 21.1585 15.4965C21.1617 15.5632 21.1724 15.6294 21.1818 15.7166C21.265 15.7229 21.3379 15.7332 21.4109 15.7323C21.7227 15.7287 22.0336 15.7188 22.3454 15.7175C22.4309 15.7175 22.5168 15.739 22.6 15.7506C22.5861 15.9515 22.5808 15.9613 22.4215 15.9636C22.1021 15.968 21.7831 15.9667 21.4641 15.9703C21.3822 15.9707 21.3004 15.9788 21.1916 15.985C21.1921 16.0839 21.1903 16.1649 21.193 16.2459C21.2118 16.8306 21.2341 17.4153 21.2498 18.0001C21.2525 18.0922 21.2274 18.1853 21.2176 18.2622C21.0632 18.3132 21.0015 18.2595 20.9876 18.1508C20.9715 18.0309 20.9653 17.9088 20.9608 17.7875C20.9424 17.2484 20.9263 16.7094 20.9084 16.1703C20.9067 16.1179 20.8982 16.0656 20.8901 15.9886C20.806 15.9841 20.7255 15.977 20.6445 15.9761C20.3027 15.9725 19.9609 15.9712 19.6186 15.9676C19.5229 15.9662 19.424 15.9685 19.3247 15.8548C19.5887 15.743 19.8428 15.76 20.092 15.7542C20.3479 15.7488 20.6051 15.7519 20.8856 15.7511Z" fill="#D5B76E"/>
  </g>
  <mask id="mask51_672_926" style="mask-type:luminance" maskUnits="userSpaceOnUse" x="1" y="0" width="56" height="74">
    <path d="M56.2756 0H1.78955V74H56.2756V0Z" fill="white"/>
  </mask>
  <g mask="url(#mask51_672_926)">
    <path d="M3.35047 52.7018C3.37866 51.8804 3.27129 51.1078 3.35361 50.3338C3.52227 50.3177 3.50795 50.4358 3.51601 50.5132C3.53927 50.7315 3.55269 50.9517 3.56388 51.1722C3.5858 51.5968 3.6028 52.0218 3.62338 52.4473C3.62651 52.5139 3.63725 52.5806 3.64664 52.6674C3.72986 52.6741 3.80278 52.6839 3.8757 52.683C4.18753 52.6795 4.49891 52.6696 4.81029 52.6683C4.89619 52.6683 4.98164 52.6897 5.0653 52.7014C5.05098 52.9023 5.04561 52.9121 4.88634 52.9143C4.56736 52.9193 4.24793 52.9179 3.92894 52.9215C3.84707 52.9219 3.76565 52.93 3.65693 52.9363C3.65693 53.0351 3.65514 53.1157 3.65783 53.1971C3.67706 53.7818 3.69899 54.3661 3.71464 54.9513C3.71733 55.0434 3.69272 55.1365 3.68243 55.2134C3.52808 55.264 3.46679 55.2108 3.45248 55.102C3.43682 54.9817 3.43011 54.86 3.42608 54.7383C3.40729 54.1992 3.39119 53.6601 3.37329 53.1215C3.3715 53.0691 3.363 53.0168 3.35495 52.9398C3.27084 52.9354 3.19031 52.9282 3.10933 52.9273C2.76753 52.9237 2.42573 52.9224 2.08393 52.9188C1.98774 52.9175 1.88887 52.9197 1.78955 52.8061C2.05351 52.6942 2.30762 52.7112 2.55681 52.705C2.81317 52.6996 3.06996 52.7023 3.35047 52.7018Z" fill="#D5B76E"/>
  </g>
  <mask id="mask52_672_926" style="mask-type:luminance" maskUnits="userSpaceOnUse" x="1" y="0" width="56" height="74">
    <path d="M56.2756 0H1.78955V74H56.2756V0Z" fill="white"/>
  </mask>
  <g mask="url(#mask52_672_926)">
    <path d="M46.3843 46.0242C46.2483 46.0443 46.2085 45.9683 46.1991 45.8672C46.1879 45.7459 46.1812 45.6247 46.1772 45.5034C46.1588 44.9719 46.1427 44.44 46.1248 43.909C46.123 43.8566 46.1141 43.8047 46.106 43.7304C46.0206 43.726 45.9391 43.7193 45.8582 43.7184C45.5159 43.7143 45.1741 43.7152 44.8323 43.7081C44.746 43.7063 44.6596 43.679 44.5764 43.6638C44.5769 43.5354 44.656 43.539 44.7209 43.5354C45.0846 43.5179 45.4488 43.5027 45.8125 43.4866C45.902 43.4826 45.9915 43.4777 46.11 43.4723C46.1096 43.3681 46.1109 43.2799 46.1092 43.1918C46.0975 42.6603 46.0814 42.1284 46.0752 41.5969C46.0729 41.4398 46.0962 41.2828 46.1074 41.1222C46.2733 41.1141 46.2595 41.2296 46.2675 41.3079C46.2903 41.5195 46.3038 41.7315 46.3141 41.944C46.3364 42.3767 46.3534 42.8097 46.3749 43.2419C46.378 43.3081 46.3892 43.3743 46.3995 43.4598C46.4836 43.466 46.557 43.475 46.6304 43.4741C46.9417 43.4705 47.2536 43.4607 47.5645 43.4598C47.6499 43.4593 47.7354 43.483 47.815 43.4938C47.8463 43.6785 47.7578 43.7072 47.6347 43.7072C47.3157 43.7076 46.9968 43.7094 46.6778 43.7125C46.5959 43.7134 46.5149 43.7219 46.408 43.7278C46.4085 43.8284 46.4062 43.9098 46.4093 43.9913C46.4281 44.5684 46.4492 45.1455 46.4671 45.7226C46.4706 45.826 46.4939 45.9378 46.3843 46.0242Z" fill="#D5B76E"/>
  </g>
</svg>