<svg width="19" height="19" viewBox="0 0 19 19" fill="none" xmlns="http://www.w3.org/2000/svg">
<path d="M18.7046 14.9215H18.7276L15.2115 11.4093C15.073 11.271 14.9037 11.1611 14.7268 11.0874C14.5421 11.0128 14.3497 10.9752 14.1497 10.9768C13.7496 10.976 13.3649 11.1312 13.0725 11.4093L12.0722 12.412C11.9953 12.4912 11.903 12.5542 11.803 12.5964C11.7029 12.6395 11.5876 12.6617 11.4799 12.6617C11.3721 12.6617 11.2644 12.6395 11.1567 12.5964C11.0567 12.5542 10.9643 12.4912 10.8874 12.412L6.54792 8.07546C6.47098 8.00016 6.40943 7.91027 6.36327 7.81038C6.3171 7.71126 6.29405 7.60369 6.29405 7.49535C6.29405 7.38778 6.3171 7.28097 6.36327 7.18185C6.40174 7.0835 6.46328 6.99438 6.54792 6.92062L7.5558 5.91333C7.83278 5.6275 7.98671 5.24639 7.98671 4.84916C7.98671 4.45192 7.83278 4.07004 7.5558 3.78498L4.23969 0.45035C3.9627 0.167597 3.58569 0.0062447 3.1856 9.78972e-05C2.98555 -0.00220715 2.7932 0.0362002 2.60854 0.114572C2.43158 0.192175 2.26231 0.306679 2.13151 0.451897L2.0853 0.496449C1.42361 1.15339 0.900403 1.93481 0.538781 2.79613C0.184852 3.65668 0.000231062 4.58022 0.000231062 5.513C-0.00746304 6.44577 0.17715 7.3701 0.531079 8.23219C0.892702 9.09351 1.41592 9.87493 2.0853 10.5288L8.47915 16.9169C9.81792 18.2446 11.6261 18.9922 13.5034 18.9998C14.4421 19.006 15.3653 18.8247 16.2271 18.4674C17.0888 18.1093 17.8736 17.5822 18.5276 16.9169L18.5738 16.87C18.8277 16.6134 18.9738 16.276 18.9969 15.9188C19.02 15.5615 18.9124 15.2081 18.7046 14.9215ZM2.86241 1.29938L2.90862 1.25174C2.9394 1.21716 2.97789 1.19026 3.02405 1.17105C3.06252 1.15261 3.10864 1.14263 3.1625 1.14263C3.20866 1.14263 3.25487 1.15261 3.30103 1.17105C3.3395 1.19026 3.3779 1.21716 3.41637 1.25174L6.74797 4.5856C6.78644 4.61787 6.81721 4.65707 6.8326 4.70087C6.84799 4.7439 6.8634 4.79076 6.8634 4.83839C6.8634 4.88603 6.84799 4.93291 6.8326 4.97594C6.81721 5.01974 6.78644 5.05892 6.74797 5.09119L5.7477 6.09388C5.56304 6.27828 5.41691 6.49727 5.32458 6.73777C5.22456 6.97903 5.17835 7.23642 5.17835 7.49535C5.18604 8.01783 5.38608 8.51955 5.7477 8.89758L10.0872 13.2349C10.4642 13.6014 10.9644 13.8073 11.4799 13.8073C12.0031 13.8073 12.5031 13.6014 12.8724 13.2349L13.8804 12.2315C13.9112 12.1977 13.9496 12.17 13.9958 12.1516C14.0419 12.1323 14.0881 12.1231 14.1343 12.1231C14.1805 12.1231 14.2267 12.1323 14.2728 12.1516C14.3113 12.17 14.3497 12.1977 14.3882 12.2315L17.7275 15.5661L17.7352 15.5745C17.7736 15.6007 17.7967 15.6345 17.8198 15.6737C17.8429 15.7121 17.8582 15.7551 17.8582 15.7997C17.8582 15.8496 17.8506 15.9003 17.8352 15.9464C17.8198 15.9933 17.789 16.0355 17.7505 16.0709L17.7044 16.1185C17.1504 16.6725 16.4964 17.112 15.7731 17.4109C15.0499 17.7098 14.2728 17.8627 13.4957 17.8596C12.7032 17.8619 11.9261 17.709 11.2029 17.4101C10.4719 17.1112 9.81023 16.6725 9.25626 16.1185L2.86241 9.72971C1.73908 8.61099 1.11584 7.09427 1.11584 5.51377C1.11584 3.93328 1.73908 2.4181 2.86241 1.29938Z" fill="#D5B76E"/>
</svg>
