<svg xmlns="http://www.w3.org/2000/svg" width="21" height="21" viewBox="0 0 21 21" fill="none">
  <path d="M17.5473 3.06851C16.6013 2.11549 15.4753 1.36018 14.235 0.8462C12.9947 0.332431 11.6643 0.0701489 10.3219 0.0750177C8.52703 0.0767112 6.76388 0.550047 5.20966 1.4474C3.65502 2.34496 2.36393 3.63499 1.46489 5.18857C0.565847 6.74215 0.0910314 8.50488 0.0874327 10.2996C0.0840457 12.0945 0.552088 13.8589 1.44499 15.4159L0 20.7189L5.41902 19.2995C6.91544 20.1319 8.59668 20.5758 10.309 20.5898C13.0311 20.5898 15.6429 19.5146 17.5759 17.5984C19.5092 15.6822 20.607 13.0799 20.6312 10.358C20.6221 8.9996 20.3448 7.65665 19.8158 6.40578C19.2863 5.15512 18.5156 4.02089 17.5473 3.06851ZM16.3707 16.3329C14.7613 17.9276 12.5874 18.8224 10.3219 18.8222C8.79651 18.8232 7.29881 18.4132 5.98655 17.6352L5.67707 17.4417L2.46427 18.2934L3.31568 15.1578L3.10929 14.8354C2.01168 13.0634 1.60185 10.9505 1.95791 8.89672C2.31397 6.84292 3.41073 4.99106 5.04073 3.69193C6.67073 2.3928 8.72052 1.73656 10.8018 1.84749C12.8834 1.95841 14.8521 2.82909 16.3345 4.29418C17.955 5.87889 18.8828 8.04044 18.915 10.3068C18.8945 12.5723 17.98 14.7381 16.3707 16.3329Z" fill="#B7BDC6"/>
  <path d="M14.9797 12.4486C14.7216 12.3195 13.4699 11.7001 13.2377 11.6228C13.0055 11.5454 12.8247 11.4937 12.657 11.7518C12.4049 12.0979 12.1331 12.4294 11.8441 12.7454C11.7021 12.926 11.5476 12.9389 11.2893 12.7454C9.81828 12.1639 8.5926 11.0932 7.81866 9.7132C7.5477 9.26167 8.07671 9.2875 8.5672 8.31966C8.6034 8.2498 8.62224 8.17232 8.62224 8.094C8.62224 8.01525 8.6034 7.93798 8.5672 7.86834C8.5672 7.73921 7.98654 6.47479 7.77993 5.97161C7.57353 5.46842 7.36713 5.54569 7.19926 5.53278H6.6963C6.5659 5.53489 6.4374 5.56453 6.31949 5.6202C6.20158 5.67588 6.097 5.75611 6.01233 5.85539C5.72274 6.13693 5.49687 6.47733 5.35017 6.85329C5.20325 7.22925 5.13869 7.63273 5.1607 8.03578C5.24157 9.00108 5.60525 9.92108 6.20602 10.6808C7.30553 12.3269 8.81254 13.6603 10.5799 14.5516C11.5069 15.0928 12.5844 15.3189 13.6509 15.1966C14.0059 15.1261 14.3421 14.9817 14.6378 14.7728C14.9333 14.5638 15.1818 14.295 15.3666 13.9836C15.5381 13.6038 15.5919 13.1815 15.5214 12.7708C15.4054 12.6421 15.2375 12.5776 14.9797 12.4486Z" fill="#B7BDC6"/>
</svg>