<svg xmlns="http://www.w3.org/2000/svg" width="25" height="21" viewBox="0 0 25 21" fill="none">
  <path d="M22.6617 0.112831C22.388 0.0380064 22.1053 0 21.8226 0H3.17707C1.42642 0 0.000593845 1.42464 0 3.17588C0 3.46093 0.0380064 3.74419 0.112831 4.01736L3.08859 14.8449C3.45618 16.2215 4.70741 17.1835 6.15224 17.1835H6.92899L6.96937 19.8427C6.9759 20.3671 7.40822 20.7941 7.93318 20.7941H7.94624C8.14934 20.7917 8.34353 20.7264 8.50743 20.6052L13.1388 17.1847H18.8718C20.2958 17.1847 21.5465 16.2233 21.9117 14.8485L24.8869 4.01677C25.3495 2.32728 24.3512 0.57603 22.6617 0.112831ZM4.9497 14.3336L1.97454 3.49656C1.86408 3.12719 1.94247 2.72753 2.18298 2.42645L2.2477 2.34213V2.34094C2.4698 2.08083 2.79998 1.92822 3.1741 1.92822C3.1741 1.92822 3.1747 1.92822 3.17529 1.92822H21.8238C22.5097 1.92822 23.0685 2.48643 23.0697 3.17292C23.0697 3.28456 23.0549 3.39561 23.0252 3.50309L20.05 14.3354C19.9063 14.8734 19.417 15.2494 18.8486 15.2494H12.8211C12.6156 15.2494 12.4126 15.3165 12.2481 15.4382L8.87086 17.9323L8.84473 16.2001C8.83701 15.6757 8.40469 15.2494 7.88033 15.2494H6.15164H6.12789C5.57383 15.2499 5.08985 14.8746 4.9497 14.3336Z" fill="#B7BDC6"/>
  <path d="M7.06611 7.49848H12.501C13.0319 7.49848 13.4642 7.06556 13.4654 6.53467C13.4654 6.27634 13.3656 6.03406 13.1833 5.85175C13.001 5.66943 12.7593 5.56848 12.501 5.56848H7.06729C6.53521 5.56848 6.10229 6.00139 6.10229 6.53764C6.10348 7.06735 6.5364 7.49848 7.06611 7.49848Z" fill="#B7BDC6"/>
  <path d="M7.06681 11.2902H17.9354C18.1937 11.2902 18.4354 11.1892 18.6177 11.0069C18.8 10.824 18.8998 10.5817 18.8998 10.3246C18.8998 10.0668 18.7994 9.82456 18.6171 9.64284C18.4348 9.46053 18.1925 9.36017 17.9342 9.36017H7.0674C6.53531 9.36017 6.10181 9.79308 6.10181 10.3287C6.10359 10.8584 6.5365 11.2902 7.06681 11.2902Z" fill="#B7BDC6"/>
</svg>