<svg xmlns="http://www.w3.org/2000/svg" width="13" height="13" viewBox="0 0 13 13" fill="none">
  <circle cx="6.5" cy="6.5" r="6" fill="#FCF2DA" stroke="#D5B76E"/>
  <path d="M4.71126 4.12205C4.54853 3.95932 4.28471 3.95932 4.12205 4.12205C3.95932 4.28472 3.95932 4.54853 4.12205 4.71126L5.91079 6.5L4.12205 8.28874C3.95932 8.45147 3.95932 8.71529 4.12205 8.87795C4.28472 9.04068 4.54853 9.04068 4.71126 8.87795L6.5 7.08921L8.28874 8.87795C8.45147 9.04068 8.71529 9.04068 8.87795 8.87795C9.04068 8.71528 9.04068 8.45147 8.87795 8.28874L7.08921 6.5L8.87795 4.71126C9.04068 4.54853 9.04068 4.28471 8.87795 4.12205C8.71528 3.95932 8.45147 3.95932 8.28874 4.12205L6.5 5.91079L4.71126 4.12205Z" fill="#D5B76E"/>
</svg>