<svg xmlns="http://www.w3.org/2000/svg" width="21" height="23" viewBox="0 0 21 23" fill="none">
  <path d="M16.992 1.33598H16.3658V0.626243C16.3658 0.292247 16.0736 0 15.7396 0C15.4056 0 15.1133 0.292247 15.1133 0.626243V1.33598H5.84493V0.626243C5.84493 0.292247 5.55269 0 5.21869 0C4.88469 0 4.59245 0.292247 4.59245 0.626243V1.33598H3.9662C1.79523 1.33598 0 3.13121 0 5.30219V18.3698C0 20.5408 1.79523 22.336 3.9662 22.336H17.0338C19.2048 22.336 21 20.5408 21 18.3698V5.30219C20.9583 3.13121 19.2048 1.33598 16.992 1.33598ZM19.7058 18.3698C19.7058 19.8728 18.495 21.0835 16.992 21.0835H3.9662C2.46322 21.0835 1.25249 19.8728 1.25249 18.3698V9.05964H19.7475V18.3698H19.7058ZM19.7058 7.80716H1.25249V5.30219C1.25249 3.79921 2.46322 2.58847 3.9662 2.58847H4.59245V3.29821C4.59245 3.63221 4.88469 3.92445 5.21869 3.92445C5.55269 3.92445 5.84493 3.63221 5.84493 3.29821V2.58847H15.1133V3.29821C15.1133 3.63221 15.4056 3.92445 15.7396 3.92445C16.0736 3.92445 16.3658 3.63221 16.3658 3.29821V2.58847H16.992C18.495 2.58847 19.7058 3.79921 19.7058 5.30219V7.80716Z" fill="#D5B76E"/>
  <path d="M6.42943 11.8569C6.42943 12.1909 6.13718 12.4831 5.80319 12.4831H3.96621C3.63221 12.4831 3.33997 12.1909 3.33997 11.8569C3.33997 11.5229 3.63221 11.2306 3.96621 11.2306H5.80319C6.13718 11.2306 6.42943 11.5229 6.42943 11.8569Z" fill="#D5B76E"/>
  <path d="M12.0238 11.8569C12.0238 12.1909 11.7315 12.4831 11.3975 12.4831H9.56057C9.22657 12.4831 8.93433 12.1909 8.93433 11.8569C8.93433 11.5229 9.22657 11.2306 9.56057 11.2306H11.3975C11.7315 11.2306 12.0238 11.5229 12.0238 11.8569Z" fill="#D5B76E"/>
  <path d="M17.6184 11.8569C17.6184 12.1909 17.3261 12.4831 16.9922 12.4831H15.1552C14.8212 12.4831 14.5289 12.1909 14.5289 11.8569C14.5289 11.5229 14.8212 11.2306 15.1552 11.2306H16.9922C17.3679 11.2306 17.6184 11.5229 17.6184 11.8569Z" fill="#D5B76E"/>
  <path d="M6.42943 14.9463C6.42943 15.2803 6.13718 15.5726 5.80319 15.5726H3.96621C3.63221 15.5726 3.33997 15.2803 3.33997 14.9463C3.33997 14.6123 3.63221 14.3201 3.96621 14.3201H5.80319C6.13718 14.3201 6.42943 14.6123 6.42943 14.9463Z" fill="#D5B76E"/>
  <path d="M12.0238 14.9463C12.0238 15.2803 11.7315 15.5726 11.3975 15.5726H9.56057C9.22657 15.5726 8.93433 15.2803 8.93433 14.9463C8.93433 14.6123 9.22657 14.3201 9.56057 14.3201H11.3975C11.7315 14.3201 12.0238 14.6123 12.0238 14.9463Z" fill="#D5B76E"/>
  <path d="M17.6184 14.9463C17.6184 15.2803 17.3261 15.5726 16.9922 15.5726H15.1552C14.8212 15.5726 14.5289 15.2803 14.5289 14.9463C14.5289 14.6123 14.8212 14.3201 15.1552 14.3201H16.9922C17.3679 14.3201 17.6184 14.6123 17.6184 14.9463Z" fill="#D5B76E"/>
  <path d="M6.42943 18.0358C6.42943 18.3698 6.13718 18.662 5.80319 18.662H3.96621C3.63221 18.662 3.33997 18.3698 3.33997 18.0358C3.33997 17.7018 3.63221 17.4095 3.96621 17.4095H5.80319C6.13718 17.4095 6.42943 17.7018 6.42943 18.0358Z" fill="#D5B76E"/>
  <path d="M12.0238 18.0358C12.0238 18.3698 11.7315 18.662 11.3975 18.662H9.56057C9.22657 18.662 8.93433 18.3698 8.93433 18.0358C8.93433 17.7018 9.22657 17.4095 9.56057 17.4095H11.3975C11.7315 17.4095 12.0238 17.7018 12.0238 18.0358Z" fill="#D5B76E"/>
  <path d="M17.6184 18.0358C17.6184 18.3698 17.3261 18.662 16.9922 18.662H15.1552C14.8212 18.662 14.5289 18.3698 14.5289 18.0358C14.5289 17.7018 14.8212 17.4095 15.1552 17.4095H16.9922C17.3679 17.4095 17.6184 17.7018 17.6184 18.0358Z" fill="#D5B76E"/>
</svg>