<svg width="13" height="13" viewBox="0 0 13 13" fill="none" xmlns="http://www.w3.org/2000/svg">
<path d="M12.1298 0.870601C11.5698 0.313032 10.8118 0 10.0216 0C9.23135 0 8.47331 0.313032 7.91331 0.870601L0.787446 7.99468C0.572812 8.20737 0.433192 8.48413 0.389664 8.78315L0.0141579 11.4087C-0.0141882 11.6061 0.000137824 11.8072 0.056168 11.9985C0.112198 12.1898 0.208628 12.3668 0.338943 12.5177C0.469259 12.6685 0.630425 12.7896 0.811557 12.8728C0.992688 12.956 1.18957 12.9994 1.38889 13C1.45597 13 1.52297 12.9952 1.58937 12.9857L4.21474 12.6101C4.51264 12.567 4.78878 12.4292 5.00234 12.2171L11.0017 6.21645L12.1298 5.08745C12.6871 4.5273 13 3.76924 13 2.97902C13 2.18881 12.6871 1.43075 12.1298 0.870601ZM4.16223 11.3729C4.1316 11.4038 4.09159 11.4237 4.04846 11.4294L1.4231 11.805C1.39252 11.8099 1.36118 11.8074 1.33179 11.7976C1.30241 11.7877 1.27586 11.7709 1.25444 11.7485C1.23229 11.7269 1.21555 11.7003 1.20559 11.671C1.19564 11.6417 1.19275 11.6104 1.19716 11.5798L1.57267 8.95422C1.5791 8.912 1.5989 8.87296 1.62915 8.84283L7.20844 3.25749L9.74311 5.79238L4.16223 11.3729ZM11.2873 4.24726L10.584 4.9506L8.05174 2.41651L8.75502 1.71317C9.09071 1.37734 9.54606 1.18864 10.0209 1.18856C10.4957 1.18849 10.9511 1.37705 11.2869 1.71278C11.6227 2.0485 11.8114 2.50388 11.8115 2.97874C11.8115 3.4536 11.623 3.90904 11.2873 4.24487V4.24726Z" fill="#DBCEAE"/>
</svg>
