<svg width="17" height="17" viewBox="0 0 17 17" fill="none" xmlns="http://www.w3.org/2000/svg">
<path d="M16.1552 1.289C15.6117 0.747964 14.8761 0.444214 14.1093 0.444214C13.3424 0.444214 12.6068 0.747964 12.0634 1.289L5.1482 8.20185C4.93991 8.40823 4.80442 8.67677 4.76218 8.96694L4.39777 11.5147C4.37026 11.7061 4.38417 11.9013 4.43854 12.0869C4.49291 12.2725 4.58649 12.4443 4.71295 12.5907C4.83942 12.7371 4.99582 12.8546 5.17159 12.9354C5.34737 13.0161 5.53842 13.0582 5.73186 13.0587C5.79695 13.0587 5.86197 13.0541 5.92641 13.0449L8.47414 12.6804C8.76324 12.6386 9.03121 12.5049 9.23846 12.2991L15.0604 6.47634L16.1552 5.38081C16.696 4.83727 16.9996 4.10169 16.9996 3.33491C16.9996 2.56813 16.696 1.83254 16.1552 1.289ZM8.42319 11.4799C8.39347 11.5099 8.35464 11.5292 8.31279 11.5347L5.76506 11.8991C5.73537 11.904 5.70496 11.9015 5.67645 11.892C5.64793 11.8824 5.62217 11.8661 5.60138 11.8443C5.57988 11.8234 5.56364 11.7976 5.55398 11.7692C5.54432 11.7407 5.54152 11.7104 5.5458 11.6807L5.9102 9.13293C5.91644 9.09196 5.93566 9.05408 5.96501 9.02484L11.3793 3.60512L13.839 6.06484L8.42319 11.4799ZM15.3376 4.56554L14.6551 5.24802L12.1977 2.78907L12.8802 2.10659C13.2059 1.78072 13.6478 1.59761 14.1086 1.59753C14.5694 1.59746 15.0113 1.78043 15.3372 2.1062C15.6631 2.43197 15.8462 2.87385 15.8462 3.33463C15.8463 3.79541 15.6633 4.23735 15.3376 4.56322V4.56554Z" fill="white"/>
<path d="M2.56732 17H13.3759C13.9388 16.9996 14.4786 16.7758 14.8767 16.3777C15.2748 15.9796 15.4986 15.4398 15.499 14.8769V10.2446C15.499 10.0911 15.438 9.9438 15.3294 9.83521C15.2208 9.72662 15.0735 9.66562 14.92 9.66562C14.7664 9.66562 14.6191 9.72662 14.5105 9.83521C14.4019 9.9438 14.3409 10.0911 14.3409 10.2446V14.8769C14.3405 15.1327 14.2387 15.3779 14.0578 15.5588C13.8769 15.7397 13.6317 15.8415 13.3759 15.8419H2.56732C2.3115 15.8415 2.06627 15.7397 1.88538 15.5588C1.70449 15.3779 1.60268 15.1327 1.60227 14.8769V4.06833C1.60268 3.81251 1.70449 3.56728 1.88538 3.38639C2.06627 3.20549 2.3115 3.10369 2.56732 3.10328H7.19956C7.35313 3.10328 7.50041 3.04228 7.609 2.93369C7.71759 2.8251 7.77859 2.67782 7.77859 2.52425C7.77859 2.37068 7.71759 2.2234 7.609 2.11481C7.50041 2.00623 7.35313 1.94522 7.19956 1.94522H2.56732C2.00437 1.94563 1.46458 2.16945 1.06651 2.56752C0.668438 2.96559 0.444623 3.50537 0.444214 4.06833V14.8769C0.444623 15.4398 0.668438 15.9796 1.06651 16.3777C1.46458 16.7758 2.00437 16.9996 2.56732 17Z" fill="white"/>
</svg>
