<svg xmlns="http://www.w3.org/2000/svg" width="21" height="19" viewBox="0 0 21 19" fill="none">
  <path d="M20.9981 2.34644C20.9812 1.71817 20.7232 1.12134 20.279 0.683093C19.8348 0.244848 19.2395 -0.000232354 18.6198 1.653e-07H2.37892C1.76313 -5.36191e-05 1.17137 0.242143 0.728057 0.675596C0.284742 1.10905 0.0244516 1.69985 0.00200092 2.32395C-0.000666972 2.35413 -0.000666972 2.38458 0.00200092 2.41476V16.5881C0.00200092 17.2278 0.252551 17.8412 0.698571 18.2936C1.14459 18.7459 1.74958 19 2.38035 19H18.6211C19.2519 19 19.8568 18.7459 20.3028 18.2936C20.7489 17.8412 20.9994 17.2278 20.9994 16.5881V2.41476C21.0005 2.39196 21.0001 2.36918 20.9981 2.34644ZM19.7112 2.11471L10.5007 8.11669L1.33155 2.11471C1.39549 1.88108 1.53272 1.67477 1.72242 1.5272C1.91213 1.37964 2.14405 1.29874 2.38312 1.29667H18.6239C18.8695 1.2901 19.1103 1.36705 19.3078 1.51528C19.5053 1.6635 19.6483 1.87456 19.714 2.11471H19.7112ZM1.28341 3.62777L10.1566 9.44829C10.2594 9.51492 10.3788 9.55035 10.5007 9.55035C10.6227 9.55035 10.7421 9.51492 10.8448 9.44829L19.7181 3.62777V16.5866C19.7181 16.8828 19.6021 17.1668 19.3956 17.3762C19.1891 17.5856 18.909 17.7033 18.617 17.7033H2.37624C2.08421 17.7033 1.80408 17.5856 1.59759 17.3762C1.3911 17.1668 1.2751 16.8828 1.2751 16.5866L1.28341 3.62777Z" fill="#D5B76E"/>
</svg>