<svg width="150" height="135" viewBox="0 0 150 135" fill="none" xmlns="http://www.w3.org/2000/svg">
<path d="M58.3881 130.877H57.1382C56.0015 130.877 55.0767 131.802 55.0767 132.938C55.0767 134.075 56.0015 135 57.1382 135H58.3881C59.5249 135 60.4497 134.075 60.4497 132.938C60.4497 131.802 59.5247 130.877 58.3881 130.877Z" fill="#D5B76E"/>
<path d="M111.556 104.919C110.908 104.865 110.025 104.769 109.063 104.65V121.74C109.063 124.169 108.114 126.46 106.39 128.192C104.654 129.92 102.363 130.869 99.9345 130.869H68.1221C66.9852 130.869 66.0605 131.794 66.0605 132.93C66.0605 134.067 66.9852 134.992 68.1221 134.992H99.9345C103.455 134.992 106.78 133.606 109.297 131.089C111.805 128.581 113.186 125.263 113.186 121.747V104.874C112.556 104.933 111.993 104.955 111.556 104.919Z" fill="#D5B76E"/>
<path d="M103.79 53.6512H105.039C106.176 53.6512 107.101 52.7264 107.101 51.5897C107.101 50.4529 106.176 49.5281 105.039 49.5281H103.79C102.653 49.5281 101.728 50.4529 101.728 51.5897C101.728 52.7264 102.653 53.6512 103.79 53.6512Z" fill="#D5B76E"/>
<path d="M123.933 55.6755C121.754 52.8837 118.682 50.8727 115.282 50.0124C115.124 49.973 114.956 49.9524 114.789 49.9524C113.841 49.9524 113.02 50.5923 112.792 51.5087C112.518 52.6106 113.189 53.7302 114.287 54.0037C116.816 54.6397 119.095 56.13 120.705 58.2007C122.32 60.2669 123.174 62.7604 123.174 65.4087V83.6014C123.174 86.7403 121.948 89.6958 119.72 91.9233C117.492 94.1434 114.544 95.365 111.417 95.365H100.765H93.4873H88.4198C87.7718 95.365 87.1707 95.6679 86.7705 96.1961L86.7384 96.2365L84.0334 99.4818L76.7248 108.328V99.4818V97.5639C76.7248 96.4271 75.8002 95.5023 74.6633 95.5023H74.4571C73.8549 95.5023 73.2608 95.4537 72.6768 95.3648C72.6477 95.3605 72.6184 95.3572 72.5891 95.3525V95.3648H31.8803C31.2507 95.3648 30.629 95.3129 30.0183 95.2156V95.215C27.5857 94.827 25.3467 93.6847 23.5791 91.8992C21.3559 89.676 20.1291 86.7249 20.1291 83.5946V65.4019C20.1291 62.2596 21.3565 59.3061 23.5853 57.0847C23.8533 56.8176 24.1324 56.5656 24.4204 56.3279C24.448 56.3053 24.4761 56.2828 24.5039 56.2601C24.6053 56.1779 24.7084 56.0983 24.8123 56.0195C24.8717 55.9748 24.9308 55.9299 24.991 55.8864C25.055 55.8398 25.1197 55.7954 25.1844 55.7503C26.3422 54.9463 27.6391 54.3482 29.0113 54.0031C29.0323 53.998 29.0519 53.9904 29.0725 53.9846C29.9833 53.7607 30.9262 53.6444 31.8865 53.6444H94.0548C95.1916 53.6444 96.1164 52.7196 96.1164 51.5829C96.1164 50.4461 95.1916 49.5213 94.0548 49.5213H90.7702H79.0055H74.8766H72.0096H31.8737C27.6657 49.5213 23.6906 51.1753 20.681 54.1788L20.662 54.1977C19.4234 55.4413 18.4182 56.8501 17.6593 58.3689C17.6371 58.4132 17.614 58.4571 17.5923 58.5016C17.5278 58.6336 17.4666 58.7665 17.406 58.9001C17.3631 58.9946 17.3206 59.089 17.2796 59.184C17.2332 59.2918 17.1879 59.4003 17.1438 59.5091C17.0908 59.6398 17.0403 59.7716 16.9908 59.9037C16.9597 59.9872 16.9279 60.0703 16.8982 60.1542C16.8323 60.3405 16.7702 60.5281 16.7115 60.7168C16.7005 60.752 16.6881 60.7869 16.6774 60.8223C16.5333 61.2957 16.4127 61.7762 16.3144 62.2625C16.3053 62.3081 16.2973 62.3539 16.2886 62.3994C16.2515 62.5913 16.2177 62.7841 16.1878 62.9777C16.1775 63.0439 16.1682 63.1104 16.1587 63.1768C16.134 63.3521 16.1124 63.5279 16.0934 63.7046C16.0853 63.7786 16.0773 63.8526 16.0703 63.927C16.0538 64.1039 16.0412 64.2816 16.0309 64.4595C16.0268 64.5288 16.0214 64.5976 16.0181 64.6671C16.007 64.9112 16 65.1561 16 65.4019V83.5946C16 87.7505 17.6025 91.6625 20.5113 94.6406C20.5624 94.6932 20.6107 94.7476 20.6626 94.7996C20.6686 94.8053 20.6748 94.8109 20.6808 94.8169C20.8517 94.9878 21.0269 95.1533 21.2042 95.3156C21.237 95.3457 21.2701 95.3747 21.3031 95.4044C21.465 95.5502 21.6293 95.6922 21.7961 95.8307C21.8202 95.8507 21.8441 95.8709 21.8684 95.8907C22.2632 96.2148 22.6714 96.5189 23.0919 96.8015C23.0975 96.8054 23.1031 96.8087 23.1086 96.8127C23.3051 96.9442 23.5043 97.0706 23.7059 97.193C23.7372 97.2122 23.7685 97.2312 23.7999 97.2497C23.993 97.3652 24.1879 97.4769 24.3854 97.5837C24.4045 97.5942 24.4235 97.6051 24.4427 97.6152C24.6573 97.7303 24.8742 97.8406 25.0935 97.9453C25.1339 97.9649 25.1751 97.9826 25.2157 98.0013C25.3825 98.0793 25.5503 98.1543 25.7196 98.2265C25.7996 98.2605 25.8802 98.2935 25.9608 98.326C26.0942 98.3803 26.2286 98.4322 26.3634 98.4827C26.4537 98.5165 26.5434 98.5508 26.6341 98.5827C26.7829 98.6353 26.933 98.6843 27.0837 98.7326C27.2266 98.7783 27.3703 98.8214 27.5144 98.8631C27.6432 98.9002 27.7721 98.9371 27.9022 98.9711C28.0096 98.9991 28.1174 99.0247 28.2254 99.0505C28.3481 99.0797 28.4712 99.1076 28.5948 99.134C28.6948 99.1552 28.7948 99.1762 28.8952 99.1956C28.9329 99.2028 28.97 99.2117 29.0076 99.2187L30.0181 99.3677L72.5891 99.4782V99.9705L72.5957 114.043C72.5957 114.66 72.8666 115.238 73.3393 115.629C73.7121 115.937 74.1648 116.1 74.648 116.1C75.2648 116.1 75.8439 115.828 76.2371 115.354L89.2401 99.6193L89.3774 99.4818H92.6249H95.4917H96.72H102.838V99.4815H103.143L103.144 99.4818H104.874L104.874 99.4815H111.417C115.631 99.4815 119.615 97.8189 122.635 94.7996C125.641 91.7926 127.297 87.8134 127.297 83.5946V65.4019C127.298 61.8578 126.134 58.4944 123.933 55.6755Z" fill="#D5B76E"/>
<path d="M71.4088 99.4819H71.3784L71.4086 99.4822L71.4088 99.4819Z" fill="#D5B76E"/>
<path d="M71.3783 99.482L30.0181 99.3682C30.6322 99.4407 31.2531 99.482 31.8801 99.482H71.3783Z" fill="#D5B76E"/>
<path d="M109.289 3.88953C106.781 1.38124 103.461 0 99.9399 0H43.3512C39.8346 0 36.512 1.38598 33.9955 3.90251C31.4874 6.4108 30.106 9.72887 30.106 13.2455V45.4052H34.2227V13.2389C34.2227 10.8102 35.172 8.51874 36.8959 6.78724C38.6315 5.05966 40.9227 4.11032 43.3512 4.11032H55.2674L55.4183 5.17346C55.9108 8.64264 57.5547 11.9263 60.0483 14.4195C63.1462 17.5178 67.2629 19.224 71.6396 19.224C76.0202 19.224 80.134 17.516 83.2228 14.4148C85.7544 11.8832 87.3556 8.69026 87.8545 5.17964L88.0054 4.11671H99.9342C102.363 4.11671 104.654 5.06605 106.386 6.78971C108.114 8.52533 109.063 10.8165 109.063 13.2453V43.7308L113.192 43.9935V13.2453C113.192 9.72866 111.806 6.40606 109.289 3.88953ZM83.5904 5.65504C83.0666 7.891 81.9331 9.92162 80.3125 11.5278C78.0054 13.8425 74.9234 15.1202 71.6402 15.1202C68.364 15.1202 65.2828 13.8431 62.9638 11.5239C61.3467 9.90678 60.217 7.87739 59.6964 5.65504L59.3406 4.13609H83.9462L83.5904 5.65504Z" fill="#D5B76E"/>
<path d="M30.106 121.741C30.106 125.257 31.4919 128.58 34.0085 131.096C36.5168 133.605 39.8348 134.986 43.3512 134.986H47.4034C48.5403 134.986 49.4649 134.061 49.4649 132.924C49.4649 131.788 48.5403 130.863 47.4034 130.863H43.3512C40.9223 130.863 38.6311 129.914 36.8998 128.19C35.172 126.454 34.2227 124.163 34.2227 121.734V96.2602H30.106V121.741Z" fill="#D5B76E"/>
<path d="M34.978 74.2832C35.2942 74.0876 35.5758 73.8225 35.8174 73.4918C36.1227 73.0739 36.2776 72.5466 36.2776 71.9242C36.2776 71.5395 36.1858 71.1631 36.0044 70.8054C35.8251 70.4522 35.5744 70.1399 35.2592 69.8773C34.9466 69.6171 34.5708 69.4066 34.1422 69.2516C33.7134 69.0966 33.2454 69.018 32.7517 69.018H28.252V79.9947H32.8696C33.3988 79.9947 33.8981 79.9249 34.3533 79.7867C34.8133 79.6472 35.2183 79.4418 35.5569 79.1763C35.8989 78.9079 36.171 78.5768 36.366 78.1925C36.5619 77.806 36.6614 77.365 36.6614 76.882C36.6614 76.2198 36.486 75.6517 36.1401 75.1936C35.8471 74.806 35.4569 74.5007 34.978 74.2832ZM33.3584 72.9752C33.171 73.1298 32.8925 73.2083 32.5305 73.2083H30.966V71.4665H32.5894C32.9119 71.4665 33.1706 71.5451 33.3582 71.6995C33.5361 71.8467 33.6227 72.0555 33.6227 72.3373C33.6227 72.6196 33.5363 72.8282 33.3584 72.9752ZM30.966 75.5682H32.663C33.8142 75.5682 33.9472 76.1242 33.9472 76.5425C33.9472 76.9608 33.8202 77.5168 32.7222 77.5168H30.9658L30.966 75.5682Z" fill="#222F42"/>
<path d="M47.4532 70.4432C46.9397 69.9299 46.3241 69.5202 45.6242 69.226C44.9231 68.9314 44.1514 68.782 43.3311 68.782C42.5108 68.782 41.7392 68.9314 41.0379 69.226C40.3378 69.5206 39.7222 69.9301 39.2089 70.4434C38.6955 70.9567 38.2884 71.5671 37.9989 72.258C37.7093 72.9494 37.5625 73.7058 37.5625 74.5065C37.5625 75.3074 37.7093 76.064 37.9989 76.755C38.2884 77.4459 38.6955 78.0565 39.2089 78.5696C39.722 79.0829 40.3376 79.4926 41.0379 79.7867C41.739 80.0813 42.5106 80.2308 43.3311 80.2308C44.1516 80.2308 44.9233 80.0813 45.6242 79.7867C46.3243 79.4926 46.9397 79.0829 47.4532 78.5696C47.9667 78.0559 48.3739 77.4454 48.6631 76.755C48.9528 76.0638 49.0998 75.3074 49.0998 74.5063C49.0998 73.7056 48.9528 72.949 48.6631 72.2576C48.3739 71.5673 47.9667 70.9569 47.4532 70.4432ZM43.3311 77.6347C42.897 77.6347 42.4908 77.5603 42.1241 77.4133C41.759 77.2673 41.4345 77.0544 41.1603 76.7802C40.8859 76.5056 40.6678 76.1735 40.5118 75.7927C40.3555 75.4115 40.2763 74.9788 40.2763 74.5061C40.2763 74.0336 40.3555 73.6006 40.5118 73.2195C40.668 72.8385 40.8859 72.5064 41.1603 72.2322C41.4343 71.9582 41.7584 71.7453 42.1241 71.5991C42.4913 71.4523 42.8976 71.3777 43.3311 71.3777C43.7552 71.3777 44.159 71.4523 44.5316 71.5993C44.9018 71.7455 45.2282 71.9584 45.5017 72.232C45.7757 72.506 45.9938 72.8381 46.1503 73.2193C46.3066 73.6011 46.3859 74.034 46.3859 74.5059C46.3859 74.9782 46.3066 75.4111 46.1503 75.7925C45.994 76.1735 45.7761 76.5056 45.5017 76.78C45.2278 77.054 44.9014 77.2667 44.5316 77.4127C44.1593 77.5603 43.7554 77.6347 43.3311 77.6347Z" fill="#222F42"/>
<path d="M60.1126 70.4432C59.5989 69.9299 58.9835 69.5202 58.2834 69.226C57.5822 68.9314 56.8106 68.782 55.9903 68.782C55.17 68.782 54.3984 68.9314 53.6972 69.226C52.9969 69.5206 52.3816 69.9301 51.8682 70.4434C51.3549 70.9567 50.9478 71.5671 50.6583 72.258C50.3687 72.9494 50.2217 73.7058 50.2217 74.5065C50.2217 75.3074 50.3687 76.064 50.6583 76.755C50.9476 77.4459 51.3547 78.0565 51.8682 78.5696C52.3814 79.0829 52.9969 79.4926 53.6972 79.7867C54.3982 80.0813 55.1698 80.2308 55.9903 80.2308C56.8108 80.2308 57.5825 80.0813 58.2834 79.7867C58.9835 79.4926 59.5991 79.0829 60.1126 78.5696C60.6261 78.0559 61.0333 77.4454 61.3225 76.755C61.6122 76.0638 61.7589 75.3074 61.7589 74.5063C61.7589 73.7056 61.6122 72.949 61.3225 72.2576C61.0331 71.5673 60.6259 70.9569 60.1126 70.4432ZM55.9903 77.6347C55.5564 77.6347 55.1502 77.5603 54.7833 77.4133C54.4182 77.2673 54.0939 77.0544 53.8197 76.7802C53.5453 76.5056 53.327 76.1735 53.1711 75.7927C53.0149 75.4115 52.9355 74.9788 52.9355 74.5061C52.9355 74.0336 53.0149 73.6006 53.1711 73.2195C53.3272 72.8385 53.5453 72.5064 53.8197 72.2322C54.0935 71.9582 54.4178 71.7453 54.7833 71.5991C55.1506 71.4523 55.5568 71.3777 55.9903 71.3777C56.4144 71.3777 56.8184 71.4523 57.1908 71.5993C57.561 71.7455 57.8876 71.9584 58.1611 72.232C58.4349 72.506 58.6532 72.8381 58.8097 73.2193C58.966 73.6011 59.0451 74.034 59.0451 74.5059C59.0451 74.9782 58.966 75.4111 58.8097 75.7925C58.6534 76.1735 58.4353 76.5056 58.1611 76.78C57.8871 77.054 57.5608 77.2667 57.1908 77.4127C56.8187 77.5603 56.4148 77.6347 55.9903 77.6347Z" fill="#222F42"/>
<path d="M72.6184 69.4491V69.0178H69.5875L66.259 72.9106V69.0178H63.5449V79.9948H66.259V76.7371L67.0397 75.8302L69.959 79.9948H73.0759V79.5754L68.912 73.679L72.6184 69.4491Z" fill="#222F42"/>
<path d="M84.6443 73.7245L84.7486 75.1631L81.1615 69.0178H78.1812V79.9948H80.8657L80.8651 74.9046L80.7608 73.4642L84.5841 79.9948H87.3285V69.0178H84.6437L84.6443 73.7245Z" fill="#222F42"/>
<path d="M98.5626 70.4432C98.0488 69.9299 97.4335 69.5202 96.7336 69.226C96.0324 68.9314 95.2608 68.782 94.4405 68.782C93.6202 68.782 92.8486 68.9314 92.1472 69.226C91.4469 69.5206 90.8315 69.9301 90.3182 70.4434C89.8051 70.9565 89.398 71.5669 89.1083 72.258C88.8187 72.9494 88.6719 73.7058 88.6719 74.5065C88.6719 75.3076 88.8187 76.0642 89.1083 76.7552C89.3978 77.4463 89.8049 78.0567 90.3182 78.5698C90.8313 79.0831 91.4469 79.4928 92.1472 79.787C92.8484 80.0815 93.62 80.231 94.4405 80.231C95.261 80.231 96.0326 80.0815 96.7336 79.787C97.4337 79.4928 98.0491 79.0831 98.5626 78.5698C99.0759 78.0563 99.4833 77.4459 99.7725 76.7552C100.062 76.0642 100.209 75.3078 100.209 74.5067C100.209 73.706 100.062 72.9494 99.7725 72.258C99.483 71.5671 99.0759 70.9567 98.5626 70.4432ZM94.4405 77.6347C94.0064 77.6347 93.6002 77.5603 93.2333 77.4133C92.8682 77.2673 92.5439 77.0544 92.2697 76.7802C91.9953 76.5058 91.7772 76.1737 91.6211 75.7927C91.4649 75.4121 91.3857 74.9792 91.3857 74.5061C91.3857 74.0332 91.4649 73.6002 91.6213 73.2195C91.7774 72.8385 91.9953 72.5064 92.2697 72.2322C92.5435 71.9584 92.8675 71.7455 93.2333 71.5991C93.6006 71.4523 94.007 71.3777 94.4405 71.3777C94.8646 71.3777 95.2684 71.4523 95.641 71.5993C96.011 71.7455 96.3375 71.9584 96.6111 72.232C96.8849 72.5058 97.1032 72.8379 97.2595 73.2195C97.4159 73.6006 97.4951 74.0336 97.4951 74.5061C97.4951 74.9788 97.4159 75.4117 97.2595 75.7927C97.1034 76.1739 96.8853 76.506 96.6111 76.7802C96.3371 77.0542 96.0108 77.2669 95.641 77.4129C95.2686 77.5603 94.8648 77.6347 94.4405 77.6347Z" fill="#222F42"/>
<path d="M112.162 69.0178L110.748 74.7209L110.638 75.3402L110.484 74.6951L109.14 70.4345H106.683L105.35 74.7083L105.181 75.4045L105.042 74.7044L103.541 69.0178H100.662L103.682 79.9948H106.173L107.728 75.2045L107.912 74.4531L108.099 75.2194L109.65 79.9948H112.143L115.04 69.0178H112.162Z" fill="#222F42"/>
<path d="M117 114.779L127.431 115.242C127.431 115.242 132.591 115.683 133.054 121.233L133.277 131L133.851 120.448C133.851 120.448 134.346 115.902 139.905 115.338L150 115.15L138.843 114.405C138.843 114.405 134.83 113.847 134.011 109.546L133.647 99L133.093 109.163C133.093 109.163 132.866 113.713 127.141 114.548L117 114.779Z" fill="#222F42"/>
<path d="M20.7487 14.8659C22.0936 14.8659 23.1839 13.7766 23.1839 12.4329C23.1839 11.0893 22.0936 10 20.7487 10C19.4038 10 18.3135 11.0893 18.3135 12.4329C18.3135 13.7766 19.4038 14.8659 20.7487 14.8659Z" fill="#D4B66E"/>
<path d="M0 24.8578L6.58943 25.1603C6.58943 25.1603 9.85009 25.448 10.1421 29.0688L10.2844 35.4412L10.6465 28.5567C10.6465 28.5567 10.9588 25.5901 14.4717 25.2223L20.85 25.0996L13.8013 24.6145C13.8013 24.6145 11.2649 24.25 10.749 21.4445L10.5184 14.5634L10.167 21.1939C10.167 21.1939 10.0241 24.1624 6.40667 24.7075L0 24.8578Z" fill="#222F42"/>
</svg>
