<svg xmlns="http://www.w3.org/2000/svg" width="25" height="21" viewBox="0 0 25 21" fill="none">
  <path d="M23.8368 8.45373L22.8696 8.31562C22.6783 8.28849 22.4797 8.27167 22.2796 8.26561L22.1144 8.26062L22.108 8.09553C21.9309 3.556 18.2319 0 13.687 0C9.0396 0 5.25866 3.78094 5.25866 8.4283C5.25866 8.71178 5.27349 9.00082 5.30278 9.28732L5.31964 9.45231L5.1561 9.47993C4.02972 9.67013 3.0038 10.2015 2.18927 11.0164L0.228166 12.977C0.0810248 13.1241 0 13.3197 0 13.5278C0 13.7358 0.0810248 13.9314 0.228166 14.0786C0.375307 14.2257 0.570929 14.3068 0.778981 14.3068C0.987032 14.3068 1.18262 14.2257 1.32976 14.0786L3.29083 12.118C4.0368 11.3715 5.02932 10.9603 6.08555 10.9603H7.51695C8.02211 10.9603 8.51602 11.0555 8.98496 11.2431L10.5291 11.8607C10.6211 11.8978 10.7184 11.9165 10.8185 11.9165H12.7308C13.6193 11.9165 14.3421 12.6393 14.3421 13.5277V13.7048H10.3404C9.91083 13.7048 9.56134 14.0543 9.56134 14.4839C9.56134 14.9135 9.91083 15.263 10.3404 15.263H15.1212C15.3392 15.263 15.5486 15.1709 15.6959 15.0105L19.3311 11.045C20.0105 10.3035 20.9377 9.86997 21.942 9.82414L22.3169 9.80704L17.08 16.7893C16.508 17.5521 15.597 18.0075 14.6431 18.0075H9.56832C8.99392 18.0075 8.42997 18.1638 7.93741 18.4594L6.11502 19.5533C5.74665 19.7743 5.62674 20.2538 5.84775 20.6223C5.9899 20.8587 6.24002 21 6.51681 21C6.65737 21 6.79551 20.9615 6.91634 20.8887L8.73909 19.7946C8.99084 19.6448 9.2774 19.5657 9.56835 19.5657H14.6431C16.0844 19.5657 17.4612 18.8773 18.3261 17.7243L24.3498 9.69258C24.5141 9.47366 24.5511 9.18009 24.4464 8.92646C24.3415 8.67379 24.1078 8.49251 23.8368 8.45373ZM20.435 8.53461C19.5737 8.82022 18.7948 9.32418 18.1823 9.99211L15.7778 12.6156L15.673 12.3545C15.1863 11.1419 14.0315 10.3583 12.7308 10.3583H10.9684L9.56375 9.79631C8.91052 9.53478 8.22188 9.40216 7.51695 9.40216H6.88436L6.8657 9.24613C6.83326 8.97522 6.81687 8.70006 6.81687 8.4283C6.81687 4.6401 9.89879 1.55817 13.687 1.55817C15.5082 1.55817 17.2252 2.26619 18.5216 3.55175C19.8172 4.8365 20.5398 6.54582 20.5564 8.36491L20.5575 8.49396L20.435 8.53461Z" fill="#B7BDC6"/>
  <path d="M14.9913 4.89341L16.0621 4.89965L16.4193 3.64758L11.0349 3.64765L10.6732 4.96495H12.3364C12.8471 4.96495 13.2228 5.08064 13.4533 5.30881C13.5286 5.38332 13.592 5.46742 13.6429 5.56035H11.0243L10.6715 6.80366H13.6942C13.6765 6.84382 13.6566 6.88217 13.6345 6.9184C13.5245 7.09717 13.367 7.23046 13.1531 7.3259C12.9343 7.42332 12.6595 7.47272 12.3363 7.47272H10.8133L10.823 8.42402L13.6807 11.8924L15.3079 11.8924V11.6345L12.9004 8.68551C13.4146 8.63144 13.8444 8.50487 14.1802 8.30851C14.5708 8.0803 14.8603 7.77894 15.0407 7.41277C15.1344 7.22235 15.2041 7.01795 15.2486 6.80366H16.0624L16.4151 5.56035H15.241C15.1886 5.32205 15.1049 5.09828 14.9913 4.89341Z" fill="#B7BDC6"/>
</svg>