<svg xmlns="http://www.w3.org/2000/svg" width="35" height="35" viewBox="0 0 35 35" fill="none">
  <path d="M34.852 17.426C34.852 7.8021 27.0499 0 17.426 0C7.8021 0 0 7.8021 0 17.426C0 27.0499 7.8021 34.852 17.426 34.852C27.0499 34.852 34.852 27.0499 34.852 17.426ZM1.58418 17.426C1.58418 8.67657 8.67657 1.58418 17.426 1.58418C26.1755 1.58418 33.2678 8.67657 33.2678 17.426C33.2678 26.1755 26.1755 33.2678 17.426 33.2678C8.67657 33.2678 1.58418 26.1755 1.58418 17.426Z" fill="#707B8E"/>
  <path d="M17.9775 25.8341V17.4366H20.7531L21.1916 14.6538H17.9775V13.2584C17.9775 12.5322 18.216 11.8392 19.26 11.8392H21.3466V9.06158H18.3843C15.8936 9.06158 15.2139 10.699 15.2139 12.9687V14.6524H13.5049V17.4366H15.2139V25.8341H17.9775Z" fill="#707B8E"/>
</svg>