<svg xmlns="http://www.w3.org/2000/svg" width="21" height="23" viewBox="0 0 21 23" fill="none">
  <path d="M17.1655 9.23252L20.8428 4.63876C20.9264 4.53746 20.9792 4.41438 20.995 4.28405C21.0108 4.15373 20.989 4.02148 20.9321 3.90314C20.8752 3.78481 20.7856 3.68538 20.6739 3.61629C20.5622 3.54719 20.4331 3.51128 20.3017 3.51317H12.4473V1.69293C12.4414 1.51234 12.3671 1.3407 12.2392 1.21293C12.1114 1.08517 11.9396 1.01086 11.7589 1.00501H1.38642V0.692623C1.38642 0.508898 1.3134 0.332796 1.1834 0.202883C1.0534 0.0729696 0.877101 0 0.693253 0C0.509406 0 0.333102 0.0729696 0.203102 0.202883C0.0731023 0.332796 0 0.508898 0 0.692623V22.3074C0 22.4911 0.0731023 22.6672 0.203102 22.7971C0.333102 22.927 0.509406 23 0.693253 23C0.877101 23 1.0534 22.927 1.1834 22.7971C1.3134 22.6672 1.38642 22.4911 1.38642 22.3074V11.9415H7.04076V14.2639C7.04661 14.4445 7.12106 14.6162 7.24891 14.7439C7.37676 14.8717 7.54843 14.946 7.72914 14.9519H20.2948C20.4262 14.9538 20.5554 14.9182 20.6671 14.8491C20.7788 14.78 20.8683 14.6802 20.9252 14.5619C20.9821 14.4436 21.0039 14.3116 20.9881 14.1813C20.9723 14.051 20.9195 13.9279 20.8359 13.8266L17.1655 9.23252ZM12.4432 4.90009H18.8588L15.735 8.80055C15.6389 8.92434 15.5867 9.0765 15.5867 9.23319C15.5867 9.38987 15.6389 9.54237 15.735 9.66616L18.8588 13.5666H8.41895V11.9362H11.7493C11.9301 11.9303 12.1017 11.856 12.2296 11.7282C12.3574 11.6005 12.4319 11.4288 12.4377 11.2482L12.4432 4.90009ZM11.0568 2.38656V10.5506H1.37819V2.38656H11.0568Z" fill="#D5B76E"/>
</svg>