<svg xmlns="http://www.w3.org/2000/svg" width="8" height="15" viewBox="0 0 8 15" fill="none">
  <path d="M7.99898 7.10547C7.98943 7.39383 7.87428 7.66863 7.6754 7.87766L2.02748 13.7609C1.81098 13.9862 1.51386 14.1163 1.20148 14.1225C0.889095 14.1287 0.587041 14.0105 0.361766 13.794C0.13649 13.5775 0.00644657 13.2804 0.00024146 12.968C-0.00596317 12.6556 0.112179 12.3536 0.32868 12.1283L5.18972 7.06134L0.328679 1.9944C0.112178 1.76912 -0.00596415 1.46706 0.000240427 1.15468C0.00644548 0.842298 0.136489 0.545168 0.361764 0.328668C0.58704 0.112168 0.889094 -0.00597184 1.20148 0.000233237C1.51386 0.00643832 1.81098 0.136485 2.02748 0.361761L7.6754 6.24502C7.78432 6.35939 7.8691 6.49452 7.92469 6.64235C7.98028 6.79017 8.00555 6.94767 7.99898 7.10547Z" fill="#D3D5D9"/>
</svg>