<?xml version="1.0" encoding="UTF-8"?>
<svg version="1.1" xmlns="http://www.w3.org/2000/svg" width="512" height="512">
<path d="M0 0 C1.46438947 -0.00533278 2.92877345 -0.01240266 4.39314711 -0.02104706 C8.39506384 -0.03960473 12.39660877 -0.03339333 16.3985405 -0.02289402 C20.72313876 -0.01588234 25.04766215 -0.0319149 29.37223816 -0.04489136 C37.83591571 -0.06650417 46.29945866 -0.06641136 54.76315473 -0.05826581 C61.64450104 -0.05195889 68.52580818 -0.0531092 75.40715408 -0.05953789 C76.87780458 -0.06089037 76.87780458 -0.06089037 78.37816519 -0.06227018 C80.37009609 -0.06412143 82.36202697 -0.06598399 84.35395785 -0.06785773 C103.02236901 -0.08442694 121.69070454 -0.0757247 140.35911115 -0.05887216 C157.42529798 -0.04417825 174.49130871 -0.05880082 191.55747287 -0.08764232 C209.09565906 -0.11706 226.63376405 -0.12800154 244.17197382 -0.11846012 C246.15707499 -0.1174376 248.14217618 -0.11644299 250.12727737 -0.11547661 C251.59220846 -0.11476202 251.59220846 -0.11476202 253.08673411 -0.114033 C259.95564443 -0.11187189 266.8244776 -0.12165693 273.69337082 -0.13624763 C282.07046587 -0.15379427 290.4473365 -0.15362027 298.82442282 -0.13089598 C303.09537836 -0.11977456 307.36593887 -0.11654331 311.63687706 -0.13519669 C315.55286231 -0.15207917 319.46811037 -0.14554665 323.38404854 -0.1209799 C324.79444861 -0.11612148 326.20490903 -0.11954394 327.61525826 -0.13246734 C340.44230397 -0.24144709 350.41388017 2.96436112 360.21353149 11.3506012 C369.79298619 20.82741888 373.40989261 32.74375128 373.51455688 45.90895081 C373.51439946 48.45330851 373.50880355 50.99766984 373.49868774 53.54200745 C373.4968199 54.89963733 373.49539773 56.25726788 373.49440002 57.61489868 C373.49060371 61.16748454 373.48079845 64.72002873 373.46969604 68.27259827 C373.45941951 71.90601539 373.4548891 75.53943932 373.44985962 79.17286682 C373.43917327 86.28681603 373.42213198 93.40073713 373.40103149 100.5146637 C374.16133667 100.50419006 374.92164185 100.49371643 375.70498657 100.48292542 C379.20780015 100.44090548 382.71056041 100.4151929 386.21353149 100.3896637 C387.40913696 100.37290588 388.60474243 100.35614807 389.83657837 100.33888245 C405.6129375 100.25290774 417.48277032 102.96568877 429.13931274 114.07325745 C439.62699987 125.39416324 440.85686759 139.16299701 440.79544067 154.02124023 C440.80034159 155.4388704 440.8065369 156.85649657 440.81389856 158.2741161 C440.83016701 162.13256037 440.8280073 165.99079858 440.82252359 169.84926498 C440.81983735 174.02440269 440.83441423 178.19948743 440.84661865 182.37460327 C440.86760191 190.5370452 440.87221783 198.699416 440.87043077 206.86188173 C440.86912053 213.49482426 440.87294055 220.12774469 440.88035583 226.76068306 C440.88245509 228.67480963 440.88455269 230.58893621 440.88664865 232.50306278 C440.88821395 233.93226429 440.88821395 233.93226429 440.88981086 235.39033855 C440.90868161 253.37899358 440.90767161 271.36760776 440.90084153 289.35626859 C440.89525781 305.81522893 440.9161324 322.27403403 440.949202 338.73295807 C440.98291835 355.64517759 440.99811062 372.55732265 440.99348497 389.46957642 C440.99123958 398.95998384 440.99649506 408.45024745 441.02137756 417.94062614 C441.0423631 426.01295388 441.04600916 434.08505879 441.02707797 442.15739559 C441.01790643 446.27574547 441.01682061 450.3936795 441.03743362 454.51199722 C441.05609204 458.28136636 441.05169905 462.04997754 441.02888781 465.81931735 C441.02269942 467.82942214 441.04113429 469.83955608 441.06042433 471.84957784 C440.96409289 481.6028085 440.96409289 481.6028085 438.11219025 485.36576939 C435.40103149 487.5146637 435.40103149 487.5146637 431.40103149 487.5146637 C431.40103149 495.7646637 431.40103149 504.0146637 431.40103149 512.5146637 C423.52717585 505.76564457 423.52717585 505.76564457 420.39961243 502.60658264 C419.68923828 501.89180252 418.97886414 501.1770224 418.2469635 500.44058228 C417.49302811 499.67676743 416.73909271 498.91295258 415.96231079 498.12599182 C415.14829803 497.30569992 414.33428528 496.48540802 413.49560547 495.64025879 C411.73767631 493.86853846 409.98081625 492.09575685 408.22492027 490.32202148 C405.4400841 487.51040943 402.65093863 484.70311949 399.85997009 481.89759827 C398.90020721 480.9326928 397.94045136 479.96778033 396.9807024 479.00286102 C396.50038457 478.51995763 396.02006673 478.03705423 395.52519381 477.5395174 C389.039065 471.01749149 382.55777144 464.49071685 376.08682251 457.95362854 C371.70708896 453.52922094 367.3201229 449.112121 362.92502528 444.70297384 C360.60651838 442.37644462 358.29296956 440.04531194 355.98602867 437.70730591 C353.40924788 435.09659762 350.82011205 432.49874604 348.22793579 429.90333557 C347.48007309 429.13952072 346.73221039 428.37570587 345.96168518 427.58874512 C337.25528122 418.9314365 328.26430099 413.32400537 315.79429752 413.23965216 C314.79595848 413.24295113 313.79761944 413.2462501 312.76902771 413.24964905 C311.69768811 413.24526778 310.62634852 413.24088651 309.52254409 413.23637247 C305.93227412 413.22404993 302.34215024 413.2258608 298.75186157 413.22755432 C296.177722 413.22153017 293.6035844 413.21460593 291.02944946 413.20684814 C285.48507816 413.19140503 279.94073226 413.182986 274.39634132 413.17913818 C266.36814694 413.17338247 258.3400207 413.15478167 250.31185647 413.13269764 C237.27022219 413.09698705 224.22858404 413.06867216 211.18692017 413.04640198 C210.01654027 413.04439949 210.01654027 413.04439949 208.82251634 413.04235655 C203.28618838 413.03293201 197.74985999 413.02377012 192.21353149 413.0146637 C185.8980201 413.00427129 179.58250895 412.99375211 173.26699829 412.98292542 C172.48921423 412.98159467 171.71143017 412.98026393 170.91007689 412.97889286 C157.92258173 412.95643105 144.93511553 412.92621938 131.94765013 412.89053297 C123.94439115 412.86891709 115.94117728 412.85426109 107.93789073 412.84869421 C101.79824279 412.84392886 95.65865664 412.82911918 89.51903534 412.81069374 C87.00645446 412.80482908 84.493863 412.80234316 81.98127556 412.80353355 C78.54341034 412.80469771 75.10578589 412.79363583 71.66795349 412.77967834 C70.68076806 412.78297732 69.69358264 412.78627629 68.6764825 412.78967524 C55.40961914 412.70118406 46.40165896 410.24441253 36.58853149 401.1396637 C30.69338786 394.97096351 28.41278067 388.2849954 28.21206665 379.88136292 C28.02807163 373.5004157 27.62197553 368.80340513 23.67446899 363.61231995 C19.70489209 357.07347701 19.41987331 348.23524551 18.86489868 340.76148987 C18.77730286 339.59147934 18.68970703 338.42146881 18.59945679 337.21600342 C18.53397644 336.32456131 18.46849609 335.4331192 18.40103149 334.5146637 C17.76654083 335.15137497 17.13205017 335.78808624 16.47833252 336.4440918 C10.50669346 342.43574435 4.53266893 348.42500582 -1.444067 354.41157436 C-4.51688666 357.48961893 -7.58876657 360.56858943 -10.65853882 363.64967346 C-13.61948873 366.6214661 -16.58285455 369.59082953 -19.54793167 372.5585041 C-20.68034389 373.69276806 -21.81187369 374.82791368 -22.94251633 375.96394157 C-24.52279618 377.55145018 -26.10614705 379.13583239 -27.6902771 380.71949768 C-28.5918454 381.62328659 -29.4934137 382.5270755 -30.42230225 383.45825195 C-33.7435706 386.59602983 -36.04788419 386.84917898 -40.62631226 386.80763245 C-42.59896851 386.5146637 -42.59896851 386.5146637 -45.03646851 384.6396637 C-47.5796201 381.18097752 -47.72524316 379.22586058 -47.73039627 374.96094704 C-47.73423742 373.77304404 -47.73807856 372.58514104 -47.7420361 371.36124098 C-47.74116962 370.04454779 -47.74030314 368.72785459 -47.7394104 367.3712616 C-47.74199265 365.96740524 -47.74500542 364.56354962 -47.7484138 363.15969503 C-47.75650424 359.28803918 -47.75827452 355.41640184 -47.75901127 351.54473853 C-47.7608584 347.37408431 -47.76840426 343.20343978 -47.77514648 339.03279114 C-47.78874724 329.90429712 -47.79475791 320.77580748 -47.79915714 311.64730501 C-47.80191796 305.9468441 -47.80615515 300.2463849 -47.81066132 294.54592514 C-47.82285879 278.76340402 -47.83315551 262.98088427 -47.83653641 247.19835854 C-47.83675597 246.18752448 -47.83697554 245.17669042 -47.83720176 244.13522502 C-47.83742004 243.12195452 -47.83763831 242.10868402 -47.83786321 241.06470835 C-47.83830667 239.01140571 -47.83875324 236.95810306 -47.83920288 234.90480042 C-47.83942431 233.88628889 -47.83964574 232.86777737 -47.83987388 231.81840186 C-47.84381826 215.33050634 -47.86125915 198.84265512 -47.8845624 182.3547767 C-47.90829399 165.42706791 -47.92073917 148.49938132 -47.92190433 131.57165563 C-47.92282034 122.0675124 -47.92855369 112.5634268 -47.94672394 103.05929947 C-47.96214966 94.96204022 -47.96723102 86.86485639 -47.95898584 78.76758523 C-47.95508738 74.63853456 -47.95596924 70.50963565 -47.97004318 66.38060379 C-47.98283133 62.59400198 -47.98154183 58.80766519 -47.96945247 55.02106349 C-47.9665869 53.01587182 -47.97839422 51.01067535 -47.99087453 49.00552046 C-47.91490767 35.01091261 -44.88462784 22.68278827 -35.31771851 12.1396637 C-25.01733225 2.40111669 -13.79837338 -0.08822506 0 0 Z M-22.59896851 24.5146637 C-27.39622005 30.61820909 -29.72507453 35.19652144 -29.72201633 42.98879623 C-29.72400738 44.10796362 -29.72599843 45.227131 -29.72804981 46.38021255 C-29.72513697 47.60977369 -29.72222413 48.83933483 -29.71922302 50.1061554 C-29.72007745 51.4122263 -29.72093187 52.7182972 -29.72181219 54.06394601 C-29.72405127 57.69202171 -29.72004386 61.32006796 -29.71503413 64.94813991 C-29.71072142 68.85948992 -29.71217664 72.77083822 -29.7129364 76.68218994 C-29.71346111 83.45982508 -29.71031979 90.2374506 -29.70469856 97.01508331 C-29.69657646 106.81443954 -29.69396761 116.61379111 -29.69271057 126.41315034 C-29.69052117 142.31141134 -29.68386411 158.2096672 -29.67440796 174.10792542 C-29.66523095 189.55291213 -29.65815153 204.99789746 -29.65390015 220.44288635 C-29.65363742 221.39468705 -29.6533747 222.34648774 -29.65310401 223.32713088 C-29.65179899 228.10196707 -29.65053528 232.87680326 -29.64929211 237.65163946 C-29.63892299 277.27265113 -29.6213077 316.89365707 -29.59896851 356.5146637 C-24.16443886 351.9262745 -24.16443886 351.9262745 -19.0218811 347.01745605 C-18.40550781 346.39378647 -17.78913452 345.77011688 -17.15408325 345.12754822 C-16.50457703 344.46502045 -15.8550708 343.80249268 -15.18588257 343.11988831 C-13.72578756 341.64013866 -12.26568381 340.16039763 -10.80557251 338.68066406 C-10.04162422 337.90448668 -9.27767593 337.12830929 -8.4905777 336.32861137 C-4.40851372 332.18535084 -0.31086753 328.05752771 3.78384399 323.92677307 C8.97732203 318.68542677 14.16618314 313.43972813 19.33950806 308.17848206 C23.53602446 303.91146141 27.74725904 299.6594614 31.96848297 295.41688728 C33.56699124 293.80484959 35.16009123 292.18742916 36.74745941 290.5644207 C52.94384135 274.01440767 52.94384135 274.01440767 62.40103149 271.5146637 C63.00918032 271.35031918 63.61732915 271.18597467 64.24390674 271.01665002 C70.36854141 269.49423166 76.15345276 269.23361573 82.44522095 269.2631073 C83.5246185 269.26013716 84.60401606 269.25716702 85.71612263 269.25410688 C89.3155741 269.24649768 92.91486092 269.25294828 96.51431274 269.2592926 C99.10199087 269.25654131 101.68966814 269.25286058 104.27734375 269.24832153 C109.84131733 269.23971069 115.40525912 269.23787503 120.96923828 269.24026871 C129.0235071 269.2433738 137.077706 269.23170168 145.13195717 269.21571891 C158.21415538 269.18978758 171.29635363 269.16975247 184.37857056 269.15626526 C185.16064255 269.15545489 185.94271454 269.15464452 186.74848568 269.15380959 C197.85018293 269.14258491 208.95187515 269.13730576 220.0535773 269.13442247 C220.8356493 269.13421848 221.61772129 269.13401449 222.42349243 269.13380432 C223.59516297 269.13350442 223.59516297 269.13350442 224.79050362 269.13319845 C237.8255631 269.1294629 250.86054651 269.11036192 263.89556789 269.07870996 C271.92749205 269.05982134 279.95922089 269.05381776 287.99116111 269.06452714 C294.14676099 269.07160465 300.30215766 269.05804732 306.45772171 269.0369091 C308.97920865 269.0315862 311.50072072 269.03308552 314.02219772 269.0419445 C317.46740553 269.05307198 320.91169046 269.03962543 324.35684204 269.02018738 C325.35169774 269.02931203 326.34655344 269.03843669 327.37155628 269.04783785 C336.16203658 268.95149768 343.39877891 266.26948646 349.91014826 260.2617833 C354.82513429 254.50206431 355.99257829 247.80145483 355.92242432 240.46478271 C355.93007541 239.59984658 355.9377265 238.73491045 355.94560945 237.84376413 C355.96610902 234.96973187 355.95831673 232.09651078 355.9503479 229.22242737 C355.95904989 227.15191922 355.96941878 225.08141751 355.98132324 223.01092529 C356.00804433 217.4033204 356.00926712 211.79598559 356.00419664 206.18832946 C356.00205297 201.49917263 356.01183493 196.81006997 356.02140749 192.12092477 C356.04357798 181.05348055 356.04448412 169.9861721 356.03237915 158.91871643 C356.02030284 147.51977154 356.04491752 136.1213206 356.08751929 124.72245997 C356.12280404 114.91916778 356.13474565 105.11603243 356.1282438 95.31267911 C356.12462578 89.46494028 356.12981306 83.61755373 356.15767288 77.76987267 C356.18290646 72.26779616 356.17887022 66.7664868 356.1528511 61.26442146 C356.14813683 59.25214244 356.15352698 57.23980879 356.17009735 55.22759247 C356.31370239 39.44112114 356.31370239 39.44112114 349.40103149 25.5146637 C340.39562399 17.48451852 331.25766466 17.22029933 319.6741333 17.25396729 C318.26794716 17.25094473 316.86176267 17.24705473 315.45558107 17.24237472 C311.60080692 17.23209933 307.74612583 17.23427536 303.89134407 17.23855531 C299.73037337 17.24102337 295.56942503 17.23200737 291.40846252 17.22451782 C283.26024132 17.21177099 275.11205307 17.20997712 266.96382357 17.21231809 C260.34030304 17.21410143 253.7167925 17.21235124 247.09327316 17.20809364 C246.15042192 17.20749845 245.20757067 17.20690327 244.23614817 17.20629004 C242.32071349 17.20507828 240.40527881 17.20386415 238.48984413 17.20264766 C220.52831338 17.19177217 202.5668014 17.19393466 184.6052696 17.20003251 C168.17709404 17.20520158 151.74897779 17.19394651 135.32081397 17.17493429 C118.44832813 17.1555577 101.57587035 17.14729958 84.70337331 17.15105754 C75.23238065 17.15296987 65.76143845 17.15047893 56.29045486 17.136343 C48.22762734 17.12443052 40.16488135 17.12302283 32.1020527 17.13513317 C27.98954494 17.1410228 23.87718633 17.14211898 19.76468849 17.13013077 C15.99694027 17.11927529 12.2294658 17.1223712 8.46173041 17.13639245 C6.45953502 17.14029073 4.4573275 17.12948953 2.45516074 17.11809558 C-6.92152683 17.17433932 -15.22246928 18.28561991 -22.59896851 24.5146637 Z M373.40103149 118.5146637 C373.40103149 126.4346637 373.40103149 134.3546637 373.40103149 142.5146637 C375.31786743 142.56364807 377.23470337 142.61263245 379.20962524 142.6631012 C381.75260736 142.73817078 384.29557543 142.81371678 386.83853149 142.8896637 C388.09859009 142.9206012 389.35864868 142.9515387 390.65689087 142.9834137 C408.33891899 143.5374198 408.33891899 143.5374198 414.71353149 148.0146637 C417.21200381 149.73269078 419.66073916 151.20803424 422.40103149 152.5146637 C422.96007032 143.19735001 423.19982928 135.31455794 417.40103149 127.5146637 C412.66206945 122.22413599 406.97460776 118.85763851 399.85244751 118.17408752 C398.63226929 118.18979797 397.41209106 118.20550842 396.15493774 118.22169495 C395.17097267 118.22806221 395.17097267 118.22806221 394.16712952 118.23455811 C392.09882239 118.25117591 390.03153749 118.28879131 387.96353149 118.3271637 C386.55013424 118.34223259 385.13672151 118.35591711 383.72329712 118.36817932 C380.28184386 118.39845604 376.84256387 118.45719841 373.40103149 118.5146637 Z M358.40103149 275.2646637 C348.25142939 284.33997932 336.46036365 285.83076336 323.24331665 285.75949097 C322.16377024 285.76175554 321.08422382 285.76402011 319.97196388 285.76635331 C316.37794616 285.77162302 312.78410298 285.76283939 309.19009399 285.75416565 C306.60389145 285.75527924 304.01768916 285.75733816 301.43148804 285.76026917 C295.87353339 285.76547479 290.31561368 285.76401364 284.75765991 285.75849342 C275.96639174 285.75025132 267.17519811 285.76153668 258.38394165 285.7756958 C255.37109392 285.780296 252.35824599 285.78474649 249.34539795 285.78913403 C248.59262837 285.79023217 247.83985879 285.79133031 247.06427801 285.79246173 C238.51051646 285.80461689 229.95675253 285.81218263 221.40298462 285.81813049 C220.23111835 285.81895258 220.23111835 285.81895258 219.03557801 285.81979128 C206.36857052 285.82825507 193.70158427 285.82490907 181.03457665 285.81897614 C168.00964238 285.81335392 154.98481489 285.8269133 141.95991325 285.85652894 C133.93632684 285.8740392 125.9130497 285.87573966 117.88946486 285.85688379 C111.73924971 285.84387975 105.58933769 285.85683668 99.43915558 285.87931061 C96.9213102 285.88435496 94.40343087 285.88088066 91.88561249 285.86817741 C88.4428278 285.85204421 85.00146749 285.86673904 81.55874634 285.8888855 C80.5674856 285.876848 79.57622486 285.8648105 78.55492592 285.85240823 C65.6718085 286.02087651 57.09701994 293.50127565 48.27603149 302.0771637 C47.75644867 302.57700775 47.23686584 303.07685181 46.70153809 303.59184265 C40.75046218 309.43598308 36.14015079 314.52424852 35.80581665 323.27418518 C36.03337018 327.1380159 36.54452444 330.73692968 37.40103149 334.5146637 C41.13773221 331.36298549 44.81751312 328.22543334 48.21353149 324.7021637 C51.18354749 321.6234057 51.18354749 321.6234057 53.40103149 320.5146637 C53.83345261 317.56950757 53.83345261 317.56950757 53.96353149 314.1396637 C54.30831626 307.79280939 54.30831626 307.79280939 55.40103149 304.5146637 C59.15800933 303.26233775 62.47098091 303.06340528 66.40103149 303.5146637 C68.33853149 304.7021637 68.33853149 304.7021637 69.40103149 306.5146637 C69.76106156 308.17576792 70.09722557 309.84236263 70.40103149 311.5146637 C104.24510158 311.47865319 138.08906289 311.42169635 171.93304437 311.33674274 C175.93083658 311.32672558 179.92862921 311.3168814 183.92642212 311.30714417 C185.12022868 311.30423211 185.12022868 311.30423211 186.33815254 311.30126122 C199.2159467 311.27026063 212.09372304 311.25326599 224.97154747 311.24146947 C238.19053156 311.22904784 251.40942234 311.20152363 264.62834752 311.16005063 C272.78172005 311.13494414 280.9349378 311.12154433 289.08834954 311.12323412 C294.68342327 311.12326393 300.27833961 311.10859185 305.87335198 311.08249941 C309.09893228 311.06788664 312.32412618 311.0618049 315.54974174 311.06886101 C319.05421579 311.07550526 322.55775393 311.05756807 326.06213379 311.03364563 C327.57676596 311.04528626 327.57676596 311.04528626 329.12199676 311.05716205 C339.03054419 310.93776024 348.32334956 307.66828642 355.40103149 300.5146637 C360.56235425 293.36909908 363.6924407 287.10505596 363.52603149 278.2021637 C363.50798462 276.94790588 363.48993774 275.69364807 363.47134399 274.40138245 C363.44814087 273.44876526 363.42493774 272.49614807 363.40103149 271.5146637 C361.42302433 271.5146637 359.7322878 273.99812124 358.40103149 275.2646637 Z " fill="#010100" transform="translate(59.598968505859375,-0.5146636962890625)"/>
<path d="M0 0 C3.96521085 -0.0499542 7.93029631 -0.08597787 11.89575195 -0.10986328 C13.89736377 -0.12470245 15.89888812 -0.15013361 17.90039062 -0.17578125 C35.47218061 -0.26430412 35.47218061 -0.26430412 42.3125 4.4375 C42.92738281 4.84871094 43.54226563 5.25992188 44.17578125 5.68359375 C44.77777344 6.11800781 45.37976563 6.55242187 46 7 C46.68747307 7.41629427 47.37494613 7.83258855 48.08325171 8.2614978 C50 10 50 10 50.49679399 12.32826442 C50.4952751 13.25364286 50.49375622 14.1790213 50.49219131 15.13244152 C50.50015551 16.20085032 50.5081197 17.26925911 50.51632524 18.37004393 C50.50467387 19.54804464 50.4930225 20.72604535 50.48101807 21.93974304 C50.48443577 23.18778979 50.48785347 24.43583653 50.49137473 25.72170287 C50.50034107 29.19258953 50.48428899 32.66298473 50.46426249 36.13380873 C50.4470254 39.87407734 50.45283152 43.61431712 50.45587158 47.35461426 C50.45797133 53.83712545 50.44539702 60.31947589 50.42292023 66.80194664 C50.39044357 76.1745403 50.37999766 85.54705605 50.37496826 94.91969988 C50.36620879 110.125303 50.33957554 125.3308204 50.30175781 140.53637695 C50.26505458 155.30915904 50.23673457 170.08191786 50.21972656 184.85473633 C50.21867567 185.76498181 50.21762477 186.67522729 50.21654204 187.61305597 C50.21132197 192.17938565 50.20626712 196.7457155 50.20129442 201.31204545 C50.15981208 239.20809084 50.08934593 277.10403875 50 315 C42.60795225 308.74219313 42.60795225 308.74219313 39.51902771 305.59217834 C38.92381821 304.98822739 38.3286087 304.38427643 37.71536255 303.76202393 C37.08927094 303.12133972 36.46317932 302.48065552 35.81811523 301.82055664 C34.4082812 300.38773998 32.99840267 298.95496712 31.58848572 297.52223206 C30.85100538 296.77090059 30.11352505 296.01956913 29.35369682 295.24547005 C25.40437929 291.22695958 21.43804256 287.22528328 17.47460938 283.22070312 C12.45110513 278.14337465 7.43273919 273.06129124 2.43334961 267.96020508 C-1.62469305 263.82051599 -5.70007368 259.69859942 -9.78718376 255.58761406 C-11.33110798 254.02837053 -12.8687622 252.46288997 -14.39962959 250.89082527 C-25.75577926 239.23809159 -37.75621614 228.18565046 -55.00882626 227.74946022 C-56.98062331 227.73896429 -58.95249705 227.73936699 -60.92430115 227.7484436 C-62.56026854 227.7439884 -62.56026854 227.7439884 -64.22928578 227.73944318 C-67.87874092 227.73181312 -71.52803465 227.73829321 -75.17749023 227.74462891 C-77.79605213 227.74187858 -80.4146132 227.73819843 -83.03317261 227.73365784 C-88.66975693 227.72503669 -94.30630986 227.72321384 -99.9428997 227.72560501 C-108.10111593 227.72870645 -116.25926297 227.7170506 -124.41746176 227.70105521 C-137.66607834 227.67510862 -150.91469497 227.65508165 -164.16333008 227.64160156 C-164.95576723 227.64079119 -165.74820438 227.63998082 -166.56465477 227.6391459 C-177.81173418 227.62792298 -189.05880864 227.62264268 -200.30589289 227.61975877 C-201.09802685 227.61955478 -201.89016081 227.61935079 -202.70629883 227.61914062 C-203.89304712 227.61884072 -203.89304712 227.61884072 -205.10377013 227.61853476 C-218.30261281 227.61480027 -231.50138032 227.59570559 -244.70018536 227.56404626 C-252.83639104 227.54514609 -260.97240384 227.53916121 -269.10862542 227.54986344 C-275.34383131 227.55693611 -281.57883633 227.54339414 -287.81400681 227.52224541 C-290.36977586 227.5169184 -292.92556969 227.51842882 -295.48132896 227.52728081 C-298.97078107 227.53839198 -302.45931897 227.52498051 -305.94871521 227.50552368 C-306.95952084 227.51464834 -307.97032646 227.523773 -309.01176256 227.53317416 C-316.87875632 227.44784247 -323.15399707 225.42227057 -328.8125 219.75 C-334.5102753 213.54488854 -335.84985895 206.53433318 -336.1340332 198.30297852 C-335.75803249 190.93009497 -331.31929709 186.97680123 -326.15649414 182.16552734 C-321.40784182 178 -321.40784182 178 -319 178 C-319.05800781 177.11957031 -319.11601562 176.23914063 -319.17578125 175.33203125 C-319.54224916 165.89810017 -319.54224916 165.89810017 -317 161.6875 C-312.82682804 159.34009077 -310.75453845 159.32078022 -306 160 C-302.73373649 162.3450097 -301.8275551 164.17557062 -301 168 C-267.28332375 167.96398925 -233.5667567 167.90703204 -199.8501694 167.82207905 C-195.86739846 167.81206189 -191.8846271 167.80221771 -187.90185547 167.79248047 C-187.10897504 167.7905391 -186.31609462 167.78859772 -185.49918751 167.78659752 C-172.66989232 167.75559719 -159.84061501 167.73860236 -147.01128943 167.72680578 C-133.8420257 167.71438402 -120.67285562 167.68685951 -107.50365102 167.64538693 C-99.38098781 167.62028082 -91.25847996 167.60688061 -83.1357774 167.60857043 C-76.90170504 167.60860377 -70.667863 167.58759943 -64.43386078 167.55883217 C-61.88055901 167.5503223 -59.32722413 167.54859057 -56.77391434 167.55419731 C-53.28257623 167.5608419 -49.79217742 167.54290359 -46.30093384 167.51898193 C-45.29507001 167.52674235 -44.28920617 167.53450277 -43.25286162 167.54249835 C-34.13413288 167.43220975 -24.5827599 164.66323373 -18 158 C-12.74529876 150.64584537 -9.8538068 144.36937535 -9.75 135.3125 C-9.53218795 128.86541003 -8.42164123 124.59654662 -4.47265625 119.30859375 C-0.48799977 113.06208983 -0.69658024 106.27397871 -0.68115234 99.10766602 C-0.67110672 98.03375107 -0.6610611 96.95983612 -0.65071106 95.8533783 C-0.61993546 92.32022616 -0.60285934 88.78714961 -0.5859375 85.25390625 C-0.56722136 82.79767713 -0.54764761 80.3414544 -0.5272522 77.88523865 C-0.47597232 71.43270646 -0.43632426 64.98015344 -0.39910889 58.52752686 C-0.35904337 51.93822086 -0.30796262 45.34900122 -0.2578125 38.75976562 C-0.16110221 25.83990554 -0.07630737 12.91999587 0 0 Z " fill="#D2C903" transform="translate(432,142)"/>
<path d="M0 0 C0.94875 0.86625 1.8975 1.7325 2.875 2.625 C12.95931115 11.24250226 22.91396574 15.47225953 36.10702515 15.36508179 C37.75440813 15.36976028 37.75440813 15.36976028 39.43507159 15.3745333 C43.10447738 15.38146134 46.7734906 15.36715967 50.44287109 15.35302734 C53.07804976 15.35385838 55.71319998 15.35590534 58.34837341 15.35957336 C64.01824429 15.36530901 69.68802952 15.36070675 75.35789108 15.34955978 C83.56636136 15.33387558 91.77471688 15.33948449 99.98318894 15.35117622 C113.31659294 15.3700556 126.64998131 15.37928852 139.98339844 15.37890625 C141.17939082 15.37888009 141.17939082 15.37888009 142.39954467 15.3788534 C151.29352656 15.37840126 160.18750283 15.37507419 169.08148193 15.36798096 C169.88093402 15.36734857 170.6803861 15.36671619 171.504064 15.36606465 C172.30271759 15.36543208 173.10137119 15.36479952 173.9242264 15.36414778 C175.53477072 15.36287801 177.14531505 15.3616126 178.75585938 15.36035156 C179.94947836 15.35940928 179.94947836 15.35940928 181.16721086 15.35844795 C194.4497158 15.348484 207.73212756 15.35784104 221.01461279 15.38253558 C229.19930334 15.39694693 237.38366536 15.39493475 245.56833686 15.37157358 C251.17921302 15.3567957 256.78989706 15.36001022 262.40076564 15.3772025 C265.63460691 15.3865149 268.86780554 15.38500758 272.10162544 15.36697197 C275.61455787 15.34859492 279.12611302 15.36105138 282.63900757 15.38095093 C283.65108729 15.36823131 284.66316701 15.35551169 285.70591581 15.34240663 C294.81228506 15.45325578 302.24066026 18.57752064 308.69281006 25.11172485 C309.48040207 25.89677902 310.26799408 26.68183319 311.07945251 27.49067688 C311.90369217 28.33760605 312.72793182 29.18453522 313.57714844 30.05712891 C314.47605301 30.96012222 315.37495758 31.86311554 316.30110168 32.79347229 C318.24052931 34.7418579 320.17188332 36.69777677 322.09712982 38.66017532 C325.14454988 41.76611782 328.21029299 44.85354715 331.27862549 47.93881226 C336.67991583 53.37452497 342.06575244 58.825343 347.44818115 64.27972412 C355.55989393 72.49963159 363.68365328 80.70758978 371.82210755 88.90102136 C374.86714267 91.96778499 377.90393999 95.0424092 380.93434191 98.12363076 C382.36602039 99.57718042 383.80109485 101.02727406 385.23771667 102.47593689 C386.98521013 104.23830808 388.72725439 106.00610662 390.46266174 107.78038025 C391.62713081 108.94950203 391.62713081 108.94950203 392.81512451 110.14224243 C393.48241955 110.81879694 394.14971458 111.49535145 394.83723068 112.19240761 C397.43768159 114.50689219 397.43768159 114.50689219 403 117 C403 125.25 403 133.5 403 142 C395.12614436 135.25098088 395.12614436 135.25098088 391.99858093 132.09191895 C391.28820679 131.37713882 390.57783264 130.6623587 389.84593201 129.92591858 C389.09199661 129.16210373 388.33806122 128.39828888 387.5612793 127.61132812 C386.34026016 126.38089027 386.34026016 126.38089027 385.09457397 125.12559509 C383.33664482 123.35387477 381.57978476 121.58109315 379.82388878 119.80735779 C377.0390526 116.99574574 374.24990714 114.1884558 371.4589386 111.38293457 C370.49917571 110.41802911 369.53941987 109.45311664 368.57967091 108.48819733 C368.09935307 108.00529393 367.61903524 107.52239054 367.12416232 107.02485371 C360.6380335 100.50282779 354.15673995 93.97605315 347.68579102 87.43896484 C343.30605747 83.01455724 338.91909141 78.59745731 334.52399379 74.18831015 C332.20548689 71.86178092 329.89193806 69.53064824 327.58499718 67.19264221 C325.00821638 64.58193392 322.41908056 61.98408234 319.8269043 59.38867188 C318.70511024 58.2429496 318.70511024 58.2429496 317.56065369 57.07408142 C308.85424972 48.4167728 299.86326949 42.80934167 287.39326602 42.72498846 C285.89575747 42.72993692 285.89575747 42.72993692 284.36799622 42.73498535 C283.29665662 42.73060408 282.22531702 42.72622281 281.12151259 42.72170877 C277.53124263 42.70938624 273.94111874 42.7111971 270.35083008 42.71289062 C267.7766905 42.70686647 265.2025529 42.69994224 262.62841797 42.69218445 C257.08404666 42.67674134 251.53970076 42.6683223 245.99530983 42.66447449 C237.96711545 42.65871877 229.93898921 42.64011798 221.91082498 42.61803395 C208.86919069 42.58232335 195.82755255 42.55400846 182.78588867 42.53173828 C182.00563541 42.53040329 181.22538215 42.5290683 180.42148485 42.52769285 C174.88515688 42.51826831 169.3488285 42.50910642 163.8125 42.5 C157.49698861 42.4896076 151.18147746 42.47908841 144.8659668 42.46826172 C144.08818274 42.46693098 143.31039867 42.46560023 142.5090454 42.46422917 C129.52155023 42.44176736 116.53408403 42.41155569 103.54661864 42.37586927 C95.54335966 42.3542534 87.54014579 42.33959739 79.53685924 42.33403051 C73.3972113 42.32926517 67.25762514 42.31445548 61.11800385 42.29603004 C58.60542296 42.29016539 56.09283151 42.28767947 53.58024406 42.28886986 C50.14237885 42.29003402 46.7047544 42.27897213 43.266922 42.26501465 C41.78614386 42.26996311 41.78614386 42.26996311 40.275451 42.27501154 C27.00858765 42.18652036 18.00062747 39.72974884 8.1875 30.625 C1.6208862 23.75367094 -0.17650664 16.52838659 -0.0625 7.25 C-0.05798828 6.55261719 -0.05347656 5.85523438 -0.04882812 5.13671875 C-0.0371002 3.42444197 -0.01916653 1.71220967 0 0 Z " fill="#D3CA03" transform="translate(88,370)"/>
<path d="M0 0 C1.54129865 -0.00514161 3.08259143 -0.01242471 4.62387085 -0.02168274 C8.80196161 -0.04018078 12.9794133 -0.02726609 17.15747738 -0.00759244 C21.53836215 0.00882052 25.91920727 -0.00002306 30.30010986 -0.00511169 C37.66078869 -0.00963161 45.02121334 0.00622608 52.38183594 0.03417969 C60.87406116 0.06618358 69.3658268 0.06623402 77.85808444 0.04896492 C86.04335931 0.03305736 94.2284668 0.03986359 102.41373444 0.05690193 C105.88879134 0.06374859 109.36371312 0.06276445 112.83876801 0.05535698 C116.93967665 0.04765199 121.04006761 0.0599564 125.14088821 0.08720589 C126.63958068 0.09404872 128.13832189 0.0942321 129.63701248 0.08699036 C139.28709353 0.04576154 147.51975954 0.76218596 155.59472656 6.49047852 C156.19414062 7.11438477 156.79355469 7.73829102 157.41113281 8.38110352 C158.33732422 9.30149414 158.33732422 9.30149414 159.28222656 10.24047852 C164.59621338 17.75124049 164.45390402 25.47347817 164.47753906 34.36157227 C164.48752426 35.67015701 164.49750946 36.97874176 164.50779724 38.32698059 C164.52566273 41.08297162 164.53132749 43.83868179 164.52954102 46.59472656 C164.52923487 50.11917813 164.57036152 53.64183369 164.62185764 57.16585827 C164.6632704 60.54362387 164.66148267 63.9210561 164.66503906 67.29907227 C164.69737389 69.19135811 164.69737389 69.19135811 164.73036194 71.12187195 C164.6640167 79.56820345 164.6640167 79.56820345 162.71871948 82.56314087 C159.90553255 85.08013921 158.11834596 85.62860846 154.34863281 85.69360352 C150.64977424 84.52914804 149.37189313 83.6132694 146.97363281 80.63110352 C146.46138 78.14041138 146.46138 78.14041138 146.44360352 75.31518555 C146.42711258 74.25373322 146.41062164 73.19228088 146.39363098 72.09866333 C146.39649361 70.38608841 146.39649361 70.38608841 146.39941406 68.63891602 C146.38524948 67.46021942 146.3710849 66.28152283 146.35649109 65.06710815 C146.3145337 61.29668106 146.29934707 57.52673132 146.28613281 53.75610352 C146.25703666 49.99284047 146.22241382 46.22969755 146.18363953 42.46652222 C146.16123803 40.12488216 146.14536663 37.78316829 146.13679504 35.44143677 C146.12624336 33.83980179 146.12624336 33.83980179 146.11547852 32.20581055 C146.11199905 31.27189484 146.10851959 30.33797913 146.10493469 29.37576294 C145.96253783 26.39918025 145.51595955 23.55906468 144.97363281 20.63110352 C141.66461562 19.52809778 139.20993509 19.5008805 135.72415161 19.49307251 C133.75989227 19.4848925 133.75989227 19.4848925 131.75595093 19.47654724 C130.30133062 19.47542746 128.84671025 19.47437694 127.39208984 19.47338867 C125.86283217 19.46872033 124.33357589 19.46357674 122.80432129 19.45799255 C119.50911718 19.44671153 116.21392212 19.43827741 112.91870499 19.43187332 C107.70829139 19.42119642 102.4979428 19.40095279 97.28756714 19.37875366 C82.47055027 19.31681771 67.65353727 19.26280291 52.83642578 19.22973633 C44.65462264 19.2113972 36.47292839 19.18247135 28.29120529 19.14173162 C23.96115953 19.12065191 19.63125106 19.10520297 15.30115128 19.10292435 C11.22828192 19.10077854 7.15569853 19.08491625 3.08291626 19.05853462 C1.58857678 19.05133793 0.09420266 19.04924246 -1.4001503 19.0526371 C-3.44109313 19.05653266 -5.48204475 19.04031616 -7.5229187 19.02310181 C-8.66481092 19.01979166 -9.80670315 19.01648151 -10.98319817 19.01307106 C-15.35985097 18.46372947 -17.94955103 16.70791968 -21.02636719 13.63110352 C-21.75839333 8.04940417 -21.75839333 8.04940417 -21.02636719 5.63110352 C-15.5152962 -1.17571809 -8.0521771 -0.06802085 0 0 Z " fill="#000000" transform="translate(235.0263671875,32.368896484375)"/>
<path d="M0 0 C2.69187352 2.05451938 3.85724946 3.21124909 4.46655273 6.57788086 C4.45023804 8.00692749 4.45023804 8.00692749 4.43359375 9.46484375 C4.44326172 10.51220703 4.45292969 11.55957031 4.46289062 12.63867188 C4.44599335 14.8340182 4.42517384 17.02933791 4.40039062 19.22460938 C4.41134766 20.27326172 4.42230469 21.32191406 4.43359375 22.40234375 C4.42384521 23.35616943 4.41409668 24.30999512 4.40405273 25.29272461 C5.25784188 29.17132677 6.92378848 30.53112109 10 33 C12.81404129 33.48615061 15.01931151 33.66412917 17.82545471 33.61231995 C18.99756725 33.62062007 18.99756725 33.62062007 20.19335884 33.62908787 C22.80856174 33.64165615 25.42223725 33.61868852 28.03735352 33.59594727 C29.91335394 33.59785121 31.78935323 33.60200669 33.66534424 33.60824585 C37.70332106 33.61703816 41.74086825 33.61027828 45.7788105 33.59158516 C52.16116033 33.56252047 58.54313903 33.5702781 64.92552185 33.58348083 C77.31872769 33.60415099 89.71175428 33.58853693 102.10494995 33.56800842 C117.88389975 33.54287007 133.66275026 33.52996701 149.44170326 33.55796474 C155.78902693 33.56793468 162.13590767 33.55775152 168.48318303 33.53205693 C172.4276205 33.51990773 176.37191881 33.52407806 180.31636047 33.53263474 C182.14817371 33.53317097 183.98000365 33.52680211 185.81176567 33.51309395 C188.30875785 33.49531154 190.80453343 33.5019412 193.30152893 33.5146637 C194.39369267 33.49790717 194.39369267 33.49790717 195.50792032 33.48081213 C198.9438353 33.52369175 200.6998248 33.76636224 203.44795132 35.90533352 C205.13123031 38.17711025 205.54361731 39.20849194 205.5 42 C205.51546875 42.99 205.51546875 42.99 205.53125 44 C204.73274563 47.00613411 203.45441448 48.09571837 201 50 C198.24627828 50.39506682 195.89128168 50.54511874 193.1386261 50.5146637 C192.34118223 50.52160922 191.54373836 50.52855475 190.72212952 50.53571075 C188.04664727 50.55402514 185.37204732 50.54370421 182.6965332 50.53344727 C180.77952916 50.54050374 178.8625307 50.54924761 176.94554138 50.55955505 C171.73450539 50.58209557 166.52377247 50.57909746 161.31270623 50.57023358 C156.96152307 50.56512818 152.6103971 50.57241307 148.25921983 50.57970566 C137.99022675 50.59672129 127.72138218 50.59312419 117.45239258 50.57641602 C106.86525761 50.55951255 96.27853548 50.57530115 85.69144565 50.6076389 C76.5991242 50.63435693 67.50693108 50.64160421 58.41457433 50.63312382 C52.98552655 50.62819867 47.55672689 50.6303873 42.12771034 50.65091133 C37.01809198 50.66930166 31.90906533 50.6632685 26.79947853 50.63871193 C24.92785434 50.63371372 23.05618484 50.637168 21.18459702 50.64986038 C2.24334816 50.76811079 2.24334816 50.76811079 -5.52314281 43.59279728 C-12.67423819 35.82839846 -13.23876752 26.56320285 -13.375 16.5625 C-13.41238281 15.52544922 -13.44976562 14.48839844 -13.48828125 13.41992188 C-13.57626475 5.80934945 -13.57626475 5.80934945 -10.73046875 1.8125 C-6.5995684 -0.92961411 -4.87916077 -0.69702297 0 0 Z " fill="#000000" transform="translate(126,302)"/>
<path d="M0 0 C9.68968815 8.51217114 16.27558628 17.67599823 17.42578125 30.78125 C17.86830073 43.05379013 14.72972467 53.24831247 6.79296875 62.66015625 C-2.14729911 72.01284718 -11.73221328 76.84635652 -24.89453125 77.15625 C-36.99401968 77.04675237 -47.12466736 72.33036653 -55.95703125 64.28125 C-63.64451216 56.24571385 -67.85128821 45.7198467 -67.82421875 34.6484375 C-67.12903491 21.62129688 -63.26678794 11.85107294 -53.58984375 2.73046875 C-38.06780797 -9.81069164 -16.62259981 -12.65610358 0 0 Z M-45.83203125 19.84375 C-49.9207422 26.03730032 -51.00289202 32.55154695 -49.83203125 39.84375 C-47.05545837 48.37004018 -42.21023869 53.26833386 -34.64453125 57.71875 C-27.37135864 59.86493208 -20.45599827 59.96847736 -13.45703125 56.84375 C-7.05171666 53.21887743 -3.12158392 47.78492778 -0.83203125 40.84375 C0.13117781 31.66199091 -1.18045519 24.96073713 -6.95703125 17.65625 C-11.9742539 12.23933246 -17.45524622 9.70973003 -24.83203125 9.34375 C-33.03212135 9.72514954 -40.48406756 13.63678697 -45.83203125 19.84375 Z " fill="#000000" transform="translate(146.83203125,108.15625)"/>
<path d="M0 0 C3.71969991 3.55797383 6.31631406 7.30104888 8.875 11.75 C9.29265625 12.45511719 9.7103125 13.16023438 10.140625 13.88671875 C14.6948266 23.07530156 14.18108049 34.69681927 12.0625 44.515625 C8.29671069 55.55147979 0.32142712 64.53493498 -10.125 69.75 C-23.41331158 75.22266371 -34.81435676 75.05231668 -48.125 69.75 C-51.5 67.875 -51.5 67.875 -54.125 65.75 C-54.68445313 65.33105469 -55.24390625 64.91210938 -55.8203125 64.48046875 C-64.07541069 57.99432017 -70.0498109 48.31272841 -71.36865234 37.80957031 C-72.3625405 25.9330244 -70.6826741 14.81559875 -62.8125 5.375 C-61.6054176 4.14460485 -60.37607164 2.93563902 -59.125 1.75 C-58.52945312 1.13511719 -57.93390625 0.52023438 -57.3203125 -0.11328125 C-40.21293495 -16.68827153 -17.58396797 -12.66045694 0 0 Z M-48.18359375 15.046875 C-53.20697505 22.4193195 -53.98170017 28.91086997 -53.125 37.75 C-50.91065595 45.58121675 -46.07756473 50.6829362 -39.125 54.75 C-32.96925919 56.89822792 -25.53713615 56.43343857 -19.375 54.6875 C-12.62238523 50.66190273 -7.37238193 46.54973727 -5.125 38.75 C-3.31702911 30.19416923 -4.78121945 24.10273531 -8.875 16.5 C-13.52431994 10.81749785 -18.99015969 7.51515574 -26.30078125 6.42578125 C-34.57485053 5.83194853 -42.59560434 8.81207847 -48.18359375 15.046875 Z " fill="#000000" transform="translate(352.125,111.25)"/>
<path d="M0 0 C9.0906222 8.53611105 12.32819662 18.66963812 13.3125 30.875 C12.87875549 44.29397066 7.18876164 54.67004087 -2.31640625 63.765625 C-12.11839242 71.9268129 -23.52569572 74.13145617 -36 73 C-44.23140657 71.35745175 -50.81487758 68.68504869 -57 63 C-57.68835938 62.401875 -58.37671875 61.80375 -59.0859375 61.1875 C-67.30326951 53.61166974 -71.29673333 44.42664166 -72.21875 33.37890625 C-72.65103892 20.68041927 -68.4122844 9.56604171 -59.75 0.25 C-41.97062851 -16.42555241 -17.97683595 -15.12121148 0 0 Z M-49.81640625 16.19921875 C-54.22313534 22.90384618 -54.94020508 29.14406424 -54 37 C-51.57583975 44.92413674 -45.93314282 49.77982611 -39 54 C-33.21612571 55.9279581 -25.83181897 56.10438271 -20.125 53.75 C-19.09375 53.1725 -18.0625 52.595 -17 52 C-15.989375 51.525625 -14.97875 51.05125 -13.9375 50.5625 C-8.72642753 46.01667083 -5.74610422 39.89984972 -4.44921875 33.12109375 C-4.06591963 25.42225716 -6.52682202 18.91041892 -11.64453125 13.1484375 C-17.68634986 7.61124031 -23.98038826 5.33154043 -32.15625 5.58984375 C-39.45927138 6.64316414 -45.39117334 10.3448738 -49.81640625 16.19921875 Z " fill="#000000" transform="translate(252,112)"/>
<path d="M0 0 C2.36497439 1.86708505 3.66030715 3.32061431 5 6 C5.09787091 7.38236585 5.13500772 8.76929012 5.14044189 10.15510559 C5.14900711 11.46099892 5.14900711 11.46099892 5.15774536 12.79327393 C5.15886322 13.75070496 5.15998108 14.70813599 5.16113281 15.69458008 C5.16609772 16.70121201 5.17106262 17.70784393 5.17617798 18.74497986 C5.19082389 22.08650386 5.19760583 25.42798038 5.203125 28.76953125 C5.20887467 31.08640037 5.21463242 33.40326947 5.22039795 35.72013855 C5.230915 40.58336611 5.23675299 45.44657711 5.24023438 50.30981445 C5.24571906 56.54437823 5.26974376 62.77872361 5.29820633 69.01321888 C5.31682186 73.80100648 5.32203775 78.58874138 5.32357025 83.37656212 C5.3266 85.67508831 5.33463932 87.9736135 5.34775543 90.27210426 C5.36479213 93.48731764 5.36294123 96.70199625 5.35644531 99.91723633 C5.3656601 100.86859467 5.37487488 101.819953 5.3843689 102.80014038 C5.3534535 107.67993695 5.22095305 111.05818137 2 115 C-0.94849393 117.06394575 -3.44318816 117.53352178 -7 117 C-9.79035429 114.7522146 -10.85910005 113.42269984 -12 110 C-12.09857536 108.56469148 -12.14342157 107.12532743 -12.15390015 105.68667603 C-12.16250061 104.80629166 -12.17110107 103.92590729 -12.17996216 103.0188446 C-12.18422211 102.05565811 -12.18848206 101.09247162 -12.19287109 100.10009766 C-12.20104858 99.08356613 -12.20922607 98.06703461 -12.21765137 97.0196991 C-12.24249271 93.65115958 -12.25901617 90.28266209 -12.2734375 86.9140625 C-12.27876118 85.76463543 -12.28408485 84.61520836 -12.28956985 83.43095016 C-12.31629298 77.34980689 -12.33567262 71.26868411 -12.35009766 65.1875 C-12.36676451 58.90013346 -12.41156232 52.61328914 -12.4624691 46.32612038 C-12.49608201 41.49630107 -12.50766845 36.6666068 -12.51332474 31.83668137 C-12.52005114 29.518589 -12.53530898 27.20050525 -12.55921555 24.8825264 C-12.59074776 21.64081099 -12.5909216 18.40051918 -12.58349609 15.15869141 C-12.59990143 14.19955338 -12.61630676 13.24041534 -12.63320923 12.25221252 C-12.59044282 7.69704631 -12.4818107 5.6454709 -9.68618774 1.90023804 C-6.16627406 -0.58978668 -4.22442387 -0.69126936 0 0 Z " fill="#030200" transform="translate(461,269)"/>
<path d="M0 0 C0.68505615 -0.00511093 1.3701123 -0.01022186 2.07592773 -0.01548767 C4.33529452 -0.02936152 6.59435551 -0.02842863 8.85375977 -0.02612305 C10.42790337 -0.03001118 12.00204593 -0.0343461 13.57618713 -0.03910828 C16.87390546 -0.04656571 20.17151672 -0.04628268 23.46923828 -0.04101562 C27.6904981 -0.03522138 31.9113191 -0.05215291 36.13250637 -0.0753603 C39.38306735 -0.09010819 42.6335229 -0.09096792 45.8841114 -0.08785057 C47.4402052 -0.08836325 48.99630497 -0.09359095 50.55236626 -0.10366249 C52.73051156 -0.11603056 54.90780534 -0.1092339 57.0859375 -0.09765625 C58.324077 -0.09828568 59.56221649 -0.0989151 60.83787537 -0.0995636 C64.41554253 0.30989413 66.26045832 1.10718257 69.10766602 3.2746582 C71.44935365 6.78718966 71.60390279 8.13935176 71.10766602 12.2746582 C68.9567615 15.61226866 67.90353802 17.00936753 64.10766602 18.2746582 C61.84986083 18.37956637 59.58906426 18.42334092 57.32885742 18.43579102 C56.6439473 18.44075592 55.95903717 18.44572083 55.25337219 18.45083618 C52.98864739 18.46543536 50.72399263 18.47225586 48.45922852 18.4777832 C46.8836568 18.4835363 45.30808511 18.48929401 43.73251343 18.49505615 C40.42885004 18.5055596 37.12521094 18.51140663 33.8215332 18.51489258 C29.59242711 18.5203774 25.36364296 18.54440772 21.13463783 18.57286453 C17.87980211 18.59150585 14.62504374 18.59669729 11.37015915 18.59822845 C9.8112652 18.60125191 8.25237251 18.60927011 6.69353104 18.62241364 C4.51052731 18.63950671 2.32830754 18.63758646 0.14526367 18.63110352 C-1.09589203 18.63474915 -2.33704773 18.63839478 -3.61581421 18.64215088 C-7.20232263 18.23989004 -9.06377606 17.48712039 -11.89233398 15.2746582 C-13.73862174 11.19743941 -14.21793361 9.23336822 -12.76733398 4.9621582 C-9.3046768 -0.00098376 -5.83987639 0.02174545 0 0 Z " fill="#000000" transform="translate(92.892333984375,32.725341796875)"/>
<path d="M0 0 C2.18838501 1.60571289 2.18838501 1.60571289 4 4 C4.49447632 7.26342773 4.49447632 7.26342773 4.48583984 11.18359375 C4.48963654 11.89951691 4.49343323 12.61544006 4.49734497 13.35305786 C4.5047427 15.71498706 4.48338061 18.0756805 4.4609375 20.4375 C4.45855246 22.08129736 4.45764788 23.72509748 4.4581604 25.36889648 C4.45503374 28.81218559 4.43847933 32.25505792 4.41162109 35.69824219 C4.37764135 40.11011471 4.36999262 44.5215294 4.37151146 48.93351746 C4.37096738 52.3273149 4.35999415 55.72101242 4.34550858 59.11477661 C4.33914794 60.74145756 4.3352034 62.36814982 4.33372116 63.99484253 C4.32938028 66.26889289 4.31186288 68.54245994 4.29052734 70.81640625 C4.28290375 72.11006104 4.27528015 73.40371582 4.26742554 74.73657227 C4.0168861 77.79393679 3.7192831 79.49864666 2 82 C-0.8852425 83.68305813 -2.7169722 84.00577608 -6.0625 83.9375 C-9.8702009 82.72227631 -10.86061092 81.34993012 -13 78 C-13.49447632 74.65428162 -13.49447632 74.65428162 -13.48583984 70.79467773 C-13.48963654 70.08836212 -13.49343323 69.38204651 -13.49734497 68.65432739 C-13.50472692 66.33029112 -13.48340503 64.00751801 -13.4609375 61.68359375 C-13.45855177 60.0636459 -13.45764803 58.44369525 -13.4581604 56.82374573 C-13.45503657 53.43350836 -13.43850252 50.04369514 -13.41162109 46.65356445 C-13.3776146 42.31010011 -13.36999355 37.96710083 -13.37151146 33.62351894 C-13.37096742 30.28033518 -13.35999529 26.93725286 -13.34550858 23.59410286 C-13.33914948 21.99254181 -13.33520376 20.39096928 -13.33372116 18.78939629 C-13.32938016 16.55137452 -13.31186337 14.31384378 -13.29052734 12.07592773 C-13.28290375 10.80305405 -13.27528015 9.53018036 -13.26742554 8.21873474 C-13.01549688 5.18652051 -12.66161247 3.50589666 -11 1 C-7.43300025 -1.77433314 -4.20504308 -1.05126077 0 0 Z " fill="#000000" transform="translate(59,202)"/>
</svg>
