<?xml version="1.0" encoding="UTF-8"?>
<svg version="1.1" xmlns="http://www.w3.org/2000/svg" width="512" height="512">
<path d="M0 0 C1.31366299 -0.00445784 2.62732598 -0.00891569 3.98079693 -0.01350862 C5.44747361 -0.01341932 6.91415029 -0.01322946 8.38082695 -0.01294994 C9.93205256 -0.0162484 11.48327731 -0.01997393 13.03450096 -0.02409142 C17.30874201 -0.03412171 21.58296902 -0.03782987 25.85722017 -0.04048073 C30.46270566 -0.04438076 35.06817999 -0.05395934 39.67365837 -0.0626936 C50.80194903 -0.082467 61.93024062 -0.09252553 73.05854446 -0.10142139 C78.29737998 -0.10580304 83.53621449 -0.11117018 88.77504921 -0.11641026 C106.18750422 -0.13342375 123.5999586 -0.14791815 141.01242065 -0.155159 C145.53226663 -0.15706893 150.05211259 -0.15898926 154.57195854 -0.16094494 C156.25706525 -0.16167055 156.25706525 -0.16167055 157.97621451 -0.16241082 C176.1764804 -0.17071191 194.37668059 -0.19604964 212.57691778 -0.22852562 C231.25729254 -0.26158691 249.93763389 -0.27960694 268.61803806 -0.28280324 C279.10857013 -0.28496924 289.59900639 -0.29373112 300.08950996 -0.31926441 C309.02346725 -0.34095872 317.95730546 -0.34902808 326.89128609 -0.33929763 C331.44936477 -0.3347492 336.0071977 -0.33667069 340.56524277 -0.35605907 C344.74028848 -0.37366485 348.9149087 -0.37271414 353.08995877 -0.35716178 C354.59809978 -0.35478177 356.10627006 -0.35912973 357.61436631 -0.37099043 C369.36023396 -0.45762524 377.34453244 1.26320211 386.0494976 9.41547108 C392.51302575 15.87899922 394.90942347 21.84775268 395.10882378 30.9174242 C395.10835186 33.5847235 395.09222819 36.24867258 395.06121635 38.91547108 C395.0556117 40.33892841 395.05134571 41.76239159 395.0483532 43.18585682 C395.0369727 46.90790635 395.00756551 50.62959713 394.97424126 54.35150623 C394.94339253 58.15923684 394.92981644 61.96702617 394.91473198 65.77484608 C394.88268806 73.22813352 394.83157574 80.68112677 394.7682476 88.13422108 C395.5375309 88.12533863 396.30681419 88.11645618 397.0994091 88.10730457 C404.38106153 88.02685731 411.66249575 87.96610483 418.94447803 87.92697239 C422.6874425 87.90617695 426.43003701 87.878009 430.17278862 87.83246326 C433.79085759 87.78871484 437.40857274 87.76502361 441.02688599 87.7547121 C442.4010919 87.74737227 443.77528041 87.73304024 445.14933395 87.71130085 C456.84398469 87.53378526 464.4629835 89.37413247 473.0494976 97.41547108 C480.77011874 105.13609221 482.10549787 112.18360744 482.16947782 122.81076461 C482.16299303 124.23542329 482.15622312 125.6600807 482.14919853 127.08473682 C482.15265782 128.61155792 482.15742421 130.13837652 482.16338027 131.66518992 C482.17588198 135.84857237 482.16972375 140.03174901 482.16042161 144.21513212 C482.15362836 148.73112423 482.16411352 153.24708118 482.17236137 157.76306629 C482.18569632 166.60365168 482.18282249 175.44416063 482.17412345 184.28474901 C482.16734853 191.46703371 482.16642935 198.64929699 482.1696949 205.83158398 C482.1701546 206.85374219 482.1706143 207.8759004 482.17108793 208.9290331 C482.17204709 211.00545664 482.17301973 213.08188017 482.1740057 215.1583037 C482.18255834 234.62378814 482.17272631 254.08923018 482.1566046 273.55470767 C482.14319148 290.26767539 482.14553794 306.98058064 482.15936089 323.69354725 C482.1754016 343.09709457 482.18174497 362.50060479 482.17252409 381.90415782 C482.17156843 383.97141754 482.17062531 386.03867727 482.1696949 388.105937 C482.16923207 389.12311165 482.16876925 390.14028631 482.1682924 391.18828443 C482.16569872 398.36695115 482.1700814 405.54559438 482.17713356 412.72425747 C482.18553157 421.46502686 482.18330391 430.2057154 482.16729133 438.94647548 C482.15938719 443.40861017 482.15635345 447.87060985 482.16623878 452.33274364 C482.17514145 456.41285882 482.17032661 460.4927131 482.15430613 464.57280441 C482.15093956 466.05309076 482.15269417 467.5333989 482.15993349 469.01367138 C482.168985 471.01730414 482.1579559 473.02099817 482.14577103 475.02461433 C482.14528397 476.14007301 482.14479691 477.25553168 482.1442951 478.40479213 C481.7682476 481.13422108 481.7682476 481.13422108 480.41091216 482.98530978 C477.70419576 484.87843948 476.01391729 484.61253029 472.7682476 484.13422108 C469.78416953 482.77020058 467.08107239 481.04090958 464.3307476 479.25922108 C463.53507378 478.7581786 462.73939995 478.25713612 461.91961479 477.74091053 C456.46350468 474.28533779 451.07675146 470.72424389 445.72430229 467.11053944 C440.23919901 463.41433758 434.66764554 459.86171813 429.0807476 456.32172108 C422.01190174 451.84162 414.96495161 447.33210485 407.9557476 442.75922108 C400.41911985 437.84330665 392.85147774 432.97792652 385.2682476 428.13422108 C376.12646353 422.29392702 367.01160839 416.41464906 357.9244976 410.48968983 C357.17879572 410.02284779 356.43309383 409.55600574 355.66479492 409.07501698 C353.46363356 407.60015588 351.4694382 406.10509401 349.41770554 404.44574451 C337.07111675 394.91391302 326.14981896 394.60124884 310.97186089 394.84125233 C308.51431791 394.83940033 306.05677456 394.8326551 303.59925652 394.82143116 C298.33995377 394.80796192 293.08191205 394.82746161 287.82287788 394.87769032 C280.20768136 394.95009104 272.59343585 394.95780256 264.97794817 394.95008707 C252.60211476 394.93898822 240.22689392 394.97444363 227.85125542 395.04193592 C215.86851462 395.1071435 203.8859087 395.15776809 191.90301323 395.18353748 C190.794438 395.18593624 190.794438 395.18593624 189.6634673 395.18838346 C181.585483 395.20539634 173.50749851 395.21774117 165.42950058 395.22591114 C164.71858116 395.22664538 164.00766175 395.22737963 163.27519932 395.22813612 C157.56952732 395.23397296 157.56952732 395.23397296 154.74703084 395.23633349 C146.45099346 395.24346618 138.15527462 395.26474316 129.85936372 395.31198663 C124.04232826 395.34489456 118.22531432 395.3641098 112.40820694 395.37871838 C110.02942728 395.38746823 107.65066004 395.40146054 105.27194595 395.42117214 C102.01637519 395.44761685 98.76124759 395.45537941 95.50558281 395.45892811 C94.57259208 395.471279 93.63960135 395.48362989 92.67833817 395.49635506 C80.00838521 395.458122 71.3353922 391.70136567 62.4557476 382.82172108 C57.26332057 374.55230025 56.21353502 367.1545463 56.5182476 357.50922108 C56.53629448 356.40965076 56.55434135 355.31008045 56.5729351 354.17718983 C56.61957747 351.49525405 56.68500642 348.81522765 56.7682476 346.13422108 C45.97455657 352.98513506 35.18612781 359.8426012 24.46258354 366.80292225 C16.93717492 371.68276232 9.38363648 376.51879417 1.81854057 381.3368578 C-2.72800948 384.23482027 -7.2668588 387.13498338 -11.7317524 390.15765858 C-12.37024117 390.58546619 -13.00872993 391.01327381 -13.66656685 391.4540453 C-15.27206319 392.53511081 -16.86767194 393.63082297 -18.46222115 394.72797108 C-21.70433002 396.37417586 -23.64322617 396.65041296 -27.2317524 396.13422108 C-28.88449627 394.99033171 -28.88449627 394.99033171 -30.2317524 393.13422108 C-30.60895056 390.40709347 -30.60895056 390.40709347 -30.61206913 387.03020096 C-30.62472904 385.10243227 -30.62472904 385.10243227 -30.63764471 383.13571876 C-30.63184883 381.70117197 -30.62576776 380.26662631 -30.61943245 378.83208179 C-30.62360262 377.3145642 -30.62907839 375.79704972 -30.63575226 374.27954108 C-30.65026824 370.09838285 -30.645943 365.91742071 -30.63858545 361.73625147 C-30.63387097 357.2309393 -30.64634863 352.72567061 -30.65660286 348.2203722 C-30.6738326 339.38812072 -30.6746219 330.55594025 -30.66938996 321.72367632 C-30.66535323 314.54371488 -30.6667859 307.36377448 -30.67213821 300.18381405 C-30.67288664 299.16299945 -30.67363506 298.14218485 -30.67440616 297.09043648 C-30.67593761 295.01676539 -30.67747596 292.9430943 -30.67902113 290.86942322 C-30.69276234 271.40375153 -30.68729808 251.93811998 -30.67583591 232.47244919 C-30.66591131 214.66730842 -30.67882796 196.86227168 -30.70277011 179.05714696 C-30.72716161 160.7801723 -30.73676826 142.50324609 -30.73011738 124.22625548 C-30.72662405 113.96318004 -30.72886422 103.70018453 -30.74636841 93.43712139 C-30.7610914 84.69604875 -30.76172501 75.95511227 -30.7442975 67.2140423 C-30.73578417 62.7550856 -30.73364583 58.29637212 -30.74894905 53.83742809 C-30.76279725 49.75174832 -30.7580314 45.66652007 -30.73870981 41.5808664 C-30.73494973 40.10636123 -30.73787206 38.63181989 -30.74832147 37.15734696 C-30.81247886 27.40744625 -30.08260512 19.33142456 -24.1536274 11.32953358 C-16.93419767 4.44770308 -10.2527325 0.01609676 0 0 Z M394.7682476 101.13422108 C394.76604776 102.5196325 394.76604776 102.5196325 394.76380348 103.93303204 C394.72717637 126.42694791 394.66768463 148.92071526 394.58434486 171.41450787 C394.54456902 182.29243555 394.5121691 193.17029105 394.49725151 204.04828358 C394.4842275 213.53172895 394.45724357 223.01501539 394.41363454 232.49837124 C394.39103672 237.5177805 394.37533592 242.53699384 394.37636375 247.55645847 C394.37711135 252.2859816 394.35912045 257.0150719 394.32707977 261.74448299 C394.31859748 263.47537415 394.31681945 265.20631396 394.32244492 266.93721676 C394.35499596 278.49730743 393.78648826 288.7544052 385.45965385 297.60297108 C376.88080502 305.36950397 367.54818263 306.45952308 356.32525444 306.30502796 C355.31023212 306.29953131 354.2952098 306.29403466 353.24942923 306.28837144 C349.86689445 306.26800253 346.48465249 306.23340027 343.10223198 306.19916248 C340.6685998 306.18225611 338.23495961 306.16647191 335.8013134 306.15172291 C331.24344339 306.12341331 326.68561551 306.09236095 322.12779236 306.0573027 C313.15117 305.98893472 304.17465459 305.95311792 295.19781303 305.92947865 C294.14738177 305.92661966 294.14738177 305.92661966 293.07572967 305.92370291 C289.4947548 305.91396367 285.91377917 305.90456057 282.33280277 305.89540076 C274.963134 305.87653096 267.59346988 305.85687828 260.22381401 305.83343983 C259.48481698 305.83110247 258.74581994 305.82876512 257.98442906 305.82635693 C246.04808245 305.78703686 234.11259663 305.69704437 222.17669052 305.58985277 C209.8782533 305.48077221 197.58061953 305.43384497 185.2816987 305.44111288 C178.39358066 305.44332933 171.50806062 305.41727796 164.6205883 305.31847477 C125.97213016 303.59999905 125.97213016 303.59999905 93.20855522 321.14891148 C89.52231423 324.14784882 85.42312777 326.06188558 81.14038658 328.07659817 C76.34025588 330.41991101 72.04277358 332.84427501 68.7682476 337.13422108 C65.32533172 347.90052411 67.60674282 360.50670115 70.7682476 371.13422108 C73.82957448 376.81954243 77.62100239 380.08513934 83.7682476 382.13422108 C85.20543379 382.22256029 86.64640384 382.25546663 88.08630085 382.25333309 C88.97313948 382.25449064 89.85997811 382.2556482 90.77369064 382.25684083 C91.7489585 382.25304409 92.72422635 382.24924736 93.72904778 382.24533558 C94.76445011 382.2453346 95.79985245 382.24533361 96.86663061 382.2453326 C100.35330552 382.24429543 103.8399314 382.23626976 107.32659721 382.22845936 C109.81985249 382.22658101 112.31310822 382.22523564 114.80636406 382.22438526 C119.48771868 382.22239467 124.16906621 382.21900706 128.85041768 382.21356766 C138.05795589 382.20310982 147.2654379 382.20735877 156.47297478 382.21719837 C157.92299443 382.21868597 159.37301409 382.22017183 160.82303375 382.22165596 C163.75909432 382.22470689 166.69515478 382.22783845 169.63121521 382.23101497 C177.18185611 382.23913618 184.73249713 382.24657349 192.28314018 382.25238514 C193.04090272 382.25297408 193.79866526 382.25356302 194.57939029 382.25416981 C206.84136812 382.26302309 219.10323929 382.25015014 231.36519962 382.23009242 C243.9628062 382.21007921 256.56020696 382.2167873 269.1577931 382.24723899 C276.92228994 382.26510639 284.68618838 382.2618938 292.4506479 382.23125474 C298.41181291 382.20989197 304.37231099 382.22541037 310.33346748 382.25435925 C312.77145407 382.26043888 315.20950478 382.25464707 317.64742661 382.23586559 C340.75574522 382.07019263 340.75574522 382.07019263 350.7682476 390.13422108 C352.53305322 391.28373299 354.30676578 392.41978825 356.09246635 393.53656483 C357.88195233 394.71232817 359.66965728 395.89080582 361.4557476 397.07172108 C369.75485225 402.52226781 378.08567353 407.91827984 386.4557476 413.25922108 C393.9134406 418.02041172 401.35674867 422.80141885 408.7682476 427.63422108 C417.36949232 433.24220459 426.01224887 438.7837756 434.6666851 444.30926991 C439.39505146 447.3294772 444.11941327 450.3545748 448.81902885 453.41937733 C449.95948662 454.16260242 449.95948662 454.16260242 451.12298393 454.92084217 C452.48525103 455.81041638 453.84595539 456.70239197 455.2045269 457.59759998 C458.56957654 459.79465634 461.98101684 461.83832484 465.50066948 463.77997303 C466.30242607 464.22299259 467.10418266 464.66601215 467.93023491 465.12245655 C468.5367791 465.45633884 469.14332329 465.79022114 469.7682476 466.13422108 C469.836923 422.09870202 469.88978111 378.06318864 469.92144359 334.02762658 C469.92519569 328.82813195 469.92907866 323.62863743 469.93304253 318.42914295 C469.93382946 317.39402273 469.93461639 316.35890251 469.93542717 315.29241501 C469.94847899 298.53468442 469.97213161 281.77698473 469.99970599 265.01927246 C470.02776639 247.82269739 470.04442521 230.62613849 470.05051309 213.42954147 C470.05462821 202.81941217 470.06762283 192.20937019 470.09199701 181.59926777 C470.107862 174.32227459 470.11264622 167.04532651 470.10875174 159.7683173 C470.10683139 155.57066623 470.10976314 151.37316769 470.12586403 147.17554379 C470.14051201 143.32852723 470.14116839 139.48176515 470.13094429 135.63473664 C470.12968151 134.246945 470.13344554 132.85913718 470.14289715 131.47137715 C470.46739747 118.51651591 470.46739747 118.51651591 465.05285996 107.19818985 C460.23343947 102.82134235 456.29087306 100.87999535 449.71453667 100.9071703 C448.49357292 100.90732136 447.27260918 100.90747242 446.01464653 100.90762806 C444.04416344 100.92311192 444.04416344 100.92311192 442.0338726 100.93890858 C440.67195659 100.94264066 439.31003788 100.94548671 437.94811821 100.94748402 C434.37077175 100.95510513 430.79358875 100.97474039 427.21630669 100.99689198 C423.5630699 101.01738329 419.9098066 101.02649275 416.25652885 101.03656483 C409.09369407 101.05798786 401.93099378 101.09210525 394.7682476 101.13422108 Z " fill="#EEE11F" transform="translate(30.231752395629883,13.865778923034668)"/>
<path d="M0 0 C1.31366299 -0.00445784 2.62732598 -0.00891569 3.98079693 -0.01350862 C5.44747361 -0.01341932 6.91415029 -0.01322946 8.38082695 -0.01294994 C9.93205256 -0.0162484 11.48327731 -0.01997393 13.03450096 -0.02409142 C17.30874201 -0.03412171 21.58296902 -0.03782987 25.85722017 -0.04048073 C30.46270566 -0.04438076 35.06817999 -0.05395934 39.67365837 -0.0626936 C50.80194903 -0.082467 61.93024062 -0.09252553 73.05854446 -0.10142139 C78.29737998 -0.10580304 83.53621449 -0.11117018 88.77504921 -0.11641026 C106.18750422 -0.13342375 123.5999586 -0.14791815 141.01242065 -0.155159 C145.53226663 -0.15706893 150.05211259 -0.15898926 154.57195854 -0.16094494 C156.25706525 -0.16167055 156.25706525 -0.16167055 157.97621451 -0.16241082 C176.1764804 -0.17071191 194.37668059 -0.19604964 212.57691778 -0.22852562 C231.25729254 -0.26158691 249.93763389 -0.27960694 268.61803806 -0.28280324 C279.10857013 -0.28496924 289.59900639 -0.29373112 300.08950996 -0.31926441 C309.02346725 -0.34095872 317.95730546 -0.34902808 326.89128609 -0.33929763 C331.44936477 -0.3347492 336.0071977 -0.33667069 340.56524277 -0.35605907 C344.74028848 -0.37366485 348.9149087 -0.37271414 353.08995877 -0.35716178 C354.59809978 -0.35478177 356.10627006 -0.35912973 357.61436631 -0.37099043 C369.36023396 -0.45762524 377.34453244 1.26320211 386.0494976 9.41547108 C392.51302575 15.87899922 394.90942347 21.84775268 395.10882378 30.9174242 C395.10835186 33.5847235 395.09222819 36.24867258 395.06121635 38.91547108 C395.0556117 40.33892841 395.05134571 41.76239159 395.0483532 43.18585682 C395.0369727 46.90790635 395.00756551 50.62959713 394.97424126 54.35150623 C394.94339253 58.15923684 394.92981644 61.96702617 394.91473198 65.77484608 C394.88268806 73.22813352 394.83157574 80.68112677 394.7682476 88.13422108 C395.5375309 88.12533863 396.30681419 88.11645618 397.0994091 88.10730457 C404.38106153 88.02685731 411.66249575 87.96610483 418.94447803 87.92697239 C422.6874425 87.90617695 426.43003701 87.878009 430.17278862 87.83246326 C433.79085759 87.78871484 437.40857274 87.76502361 441.02688599 87.7547121 C442.4010919 87.74737227 443.77528041 87.73304024 445.14933395 87.71130085 C456.84398469 87.53378526 464.4629835 89.37413247 473.0494976 97.41547108 C480.77011874 105.13609221 482.10549787 112.18360744 482.16947782 122.81076461 C482.16299303 124.23542329 482.15622312 125.6600807 482.14919853 127.08473682 C482.15265782 128.61155792 482.15742421 130.13837652 482.16338027 131.66518992 C482.17588198 135.84857237 482.16972375 140.03174901 482.16042161 144.21513212 C482.15362836 148.73112423 482.16411352 153.24708118 482.17236137 157.76306629 C482.18569632 166.60365168 482.18282249 175.44416063 482.17412345 184.28474901 C482.16734853 191.46703371 482.16642935 198.64929699 482.1696949 205.83158398 C482.1701546 206.85374219 482.1706143 207.8759004 482.17108793 208.9290331 C482.17204709 211.00545664 482.17301973 213.08188017 482.1740057 215.1583037 C482.18255834 234.62378814 482.17272631 254.08923018 482.1566046 273.55470767 C482.14319148 290.26767539 482.14553794 306.98058064 482.15936089 323.69354725 C482.1754016 343.09709457 482.18174497 362.50060479 482.17252409 381.90415782 C482.17156843 383.97141754 482.17062531 386.03867727 482.1696949 388.105937 C482.16923207 389.12311165 482.16876925 390.14028631 482.1682924 391.18828443 C482.16569872 398.36695115 482.1700814 405.54559438 482.17713356 412.72425747 C482.18553157 421.46502686 482.18330391 430.2057154 482.16729133 438.94647548 C482.15938719 443.40861017 482.15635345 447.87060985 482.16623878 452.33274364 C482.17514145 456.41285882 482.17032661 460.4927131 482.15430613 464.57280441 C482.15093956 466.05309076 482.15269417 467.5333989 482.15993349 469.01367138 C482.168985 471.01730414 482.1579559 473.02099817 482.14577103 475.02461433 C482.14528397 476.14007301 482.14479691 477.25553168 482.1442951 478.40479213 C481.7682476 481.13422108 481.7682476 481.13422108 480.41091216 482.98530978 C477.70419576 484.87843948 476.01391729 484.61253029 472.7682476 484.13422108 C469.78416953 482.77020058 467.08107239 481.04090958 464.3307476 479.25922108 C463.53507378 478.7581786 462.73939995 478.25713612 461.91961479 477.74091053 C456.46350468 474.28533779 451.07675146 470.72424389 445.72430229 467.11053944 C440.23919901 463.41433758 434.66764554 459.86171813 429.0807476 456.32172108 C422.01190174 451.84162 414.96495161 447.33210485 407.9557476 442.75922108 C400.41911985 437.84330665 392.85147774 432.97792652 385.2682476 428.13422108 C376.12646353 422.29392702 367.01160839 416.41464906 357.9244976 410.48968983 C357.17879572 410.02284779 356.43309383 409.55600574 355.66479492 409.07501698 C353.46363356 407.60015588 351.4694382 406.10509401 349.41770554 404.44574451 C337.07111675 394.91391302 326.14981896 394.60124884 310.97186089 394.84125233 C308.51431791 394.83940033 306.05677456 394.8326551 303.59925652 394.82143116 C298.33995377 394.80796192 293.08191205 394.82746161 287.82287788 394.87769032 C280.20768136 394.95009104 272.59343585 394.95780256 264.97794817 394.95008707 C252.60211476 394.93898822 240.22689392 394.97444363 227.85125542 395.04193592 C215.86851462 395.1071435 203.8859087 395.15776809 191.90301323 395.18353748 C190.794438 395.18593624 190.794438 395.18593624 189.6634673 395.18838346 C181.585483 395.20539634 173.50749851 395.21774117 165.42950058 395.22591114 C164.71858116 395.22664538 164.00766175 395.22737963 163.27519932 395.22813612 C157.56952732 395.23397296 157.56952732 395.23397296 154.74703084 395.23633349 C146.45099346 395.24346618 138.15527462 395.26474316 129.85936372 395.31198663 C124.04232826 395.34489456 118.22531432 395.3641098 112.40820694 395.37871838 C110.02942728 395.38746823 107.65066004 395.40146054 105.27194595 395.42117214 C102.01637519 395.44761685 98.76124759 395.45537941 95.50558281 395.45892811 C94.57259208 395.471279 93.63960135 395.48362989 92.67833817 395.49635506 C80.00838521 395.458122 71.3353922 391.70136567 62.4557476 382.82172108 C57.26332057 374.55230025 56.21353502 367.1545463 56.5182476 357.50922108 C56.53629448 356.40965076 56.55434135 355.31008045 56.5729351 354.17718983 C56.61957747 351.49525405 56.68500642 348.81522765 56.7682476 346.13422108 C45.97455657 352.98513506 35.18612781 359.8426012 24.46258354 366.80292225 C16.93717492 371.68276232 9.38363648 376.51879417 1.81854057 381.3368578 C-2.72800948 384.23482027 -7.2668588 387.13498338 -11.7317524 390.15765858 C-12.37024117 390.58546619 -13.00872993 391.01327381 -13.66656685 391.4540453 C-15.27206319 392.53511081 -16.86767194 393.63082297 -18.46222115 394.72797108 C-21.70433002 396.37417586 -23.64322617 396.65041296 -27.2317524 396.13422108 C-28.88449627 394.99033171 -28.88449627 394.99033171 -30.2317524 393.13422108 C-30.60895056 390.40709347 -30.60895056 390.40709347 -30.61206913 387.03020096 C-30.62472904 385.10243227 -30.62472904 385.10243227 -30.63764471 383.13571876 C-30.63184883 381.70117197 -30.62576776 380.26662631 -30.61943245 378.83208179 C-30.62360262 377.3145642 -30.62907839 375.79704972 -30.63575226 374.27954108 C-30.65026824 370.09838285 -30.645943 365.91742071 -30.63858545 361.73625147 C-30.63387097 357.2309393 -30.64634863 352.72567061 -30.65660286 348.2203722 C-30.6738326 339.38812072 -30.6746219 330.55594025 -30.66938996 321.72367632 C-30.66535323 314.54371488 -30.6667859 307.36377448 -30.67213821 300.18381405 C-30.67288664 299.16299945 -30.67363506 298.14218485 -30.67440616 297.09043648 C-30.67593761 295.01676539 -30.67747596 292.9430943 -30.67902113 290.86942322 C-30.69276234 271.40375153 -30.68729808 251.93811998 -30.67583591 232.47244919 C-30.66591131 214.66730842 -30.67882796 196.86227168 -30.70277011 179.05714696 C-30.72716161 160.7801723 -30.73676826 142.50324609 -30.73011738 124.22625548 C-30.72662405 113.96318004 -30.72886422 103.70018453 -30.74636841 93.43712139 C-30.7610914 84.69604875 -30.76172501 75.95511227 -30.7442975 67.2140423 C-30.73578417 62.7550856 -30.73364583 58.29637212 -30.74894905 53.83742809 C-30.76279725 49.75174832 -30.7580314 45.66652007 -30.73870981 41.5808664 C-30.73494973 40.10636123 -30.73787206 38.63181989 -30.74832147 37.15734696 C-30.81247886 27.40744625 -30.08260512 19.33142456 -24.1536274 11.32953358 C-16.93419767 4.44770308 -10.2527325 0.01609676 0 0 Z M-12.15753365 16.81781483 C-12.61515083 17.39660389 -13.07276802 17.97539295 -13.5442524 18.57172108 C-14.25001411 19.43603748 -14.25001411 19.43603748 -14.97003365 20.31781483 C-17.771223 24.3504868 -18.48136834 27.17420179 -18.47784805 32.12372684 C-18.48183015 33.35784628 -18.48581225 34.59196572 -18.48991501 35.86348271 C-18.48420894 37.23516269 -18.47831774 38.60684191 -18.47226143 39.97852039 C-18.47313335 41.43390311 -18.47488407 42.88928551 -18.47743976 44.34466624 C-18.48192003 48.34902288 -18.4739003 52.3532729 -18.46388364 56.35761595 C-18.45526122 60.67387772 -18.45816844 64.99013329 -18.45968819 69.30640125 C-18.4607378 76.78631742 -18.45445319 84.26619874 -18.44321251 91.74610615 C-18.42697087 102.56084379 -18.42175087 113.37556455 -18.41923653 124.19031307 C-18.41485732 141.7357529 -18.40154211 159.28117415 -18.3826313 176.82660389 C-18.36427833 193.87217586 -18.35011897 210.91774279 -18.34161568 227.96332264 C-18.34109023 229.01369419 -18.34056478 230.06406574 -18.34002341 231.14626673 C-18.33741337 236.41557724 -18.33488595 241.68488779 -18.33239961 246.95419836 C-18.3116601 290.68088547 -18.27642844 334.40755232 -18.2317524 378.13422108 C-14.47585105 376.68047007 -11.26039439 375.01444417 -7.8723774 372.82562733 C-6.33577461 371.83731922 -6.33577461 371.83731922 -4.76812935 370.8290453 C-3.14137276 369.77354481 -3.14137276 369.77354481 -1.4817524 368.69672108 C-0.34682507 367.96473269 0.78834971 367.23312784 1.92376518 366.50189686 C5.20869461 364.38463141 8.48884538 362.26003862 11.7682476 360.13422108 C13.31899231 359.13025837 14.86976852 358.12634434 16.42059135 357.12250233 C18.42923925 355.8219338 20.43762802 354.52097835 22.44500542 353.21844959 C29.14403992 348.87669244 35.88479095 344.60098318 42.62322807 340.32074451 C48.79674994 336.39652353 54.94886321 332.44132147 61.08465385 328.45843983 C68.53508663 323.62686218 76.01956808 318.84865522 83.5026226 314.06781483 C90.57189956 309.54868195 97.62546051 305.00643572 104.6432476 300.40765858 C113.1216147 294.88360909 113.1216147 294.88360909 118.22052193 294.88647461 C119.1118184 294.88209261 120.00311488 294.87771061 120.92142034 294.87319583 C121.89650383 294.87854116 122.87158732 294.88388649 123.8762188 294.88939381 C124.91529782 294.88712923 125.95437685 294.88486466 127.02494311 294.88253146 C130.51789007 294.87722092 134.01066092 294.88607855 137.50359917 294.89471912 C140.00349294 294.89360662 142.50338644 294.89154942 145.00327873 294.88861561 C150.39273778 294.8838872 155.78215116 294.8848876 161.17160606 294.89039135 C169.69300588 294.89860584 178.2143282 294.88737486 186.73571587 294.87318897 C189.65188771 294.86858783 192.56805977 294.86413748 195.48423195 294.85975075 C196.57741386 294.85810354 196.57741386 294.85810354 197.69268025 294.85642305 C205.98788588 294.84424964 214.28309398 294.83669727 222.5783062 294.83075428 C223.33655248 294.83020622 224.09479875 294.82965816 224.87602219 294.82909349 C237.16000416 294.82063662 249.44396421 294.82397114 261.72794631 294.82990863 C274.34361802 294.83552848 286.95917942 294.82197982 299.57481742 294.79235584 C307.35387422 294.7748249 315.13261198 294.77316941 322.91166726 294.79200099 C328.87596234 294.8049919 334.83991284 294.79206455 340.80419159 294.76957417 C343.24869424 294.76452359 345.69323181 294.76802017 348.13770676 294.78070736 C351.4764326 294.79680346 354.8136824 294.78217956 358.15234184 294.75999928 C359.11850245 294.77203677 360.08466305 294.78407427 361.08010125 294.79647654 C368.29889621 294.69876728 373.13180805 292.66243052 378.32809758 287.62079638 C382.04021846 283.44676474 382.88967826 280.16128479 382.90246868 274.72879887 C382.90915545 273.40752943 382.90915545 273.40752943 382.9159773 272.05956769 C382.91579294 271.09615704 382.91560857 270.1327464 382.91541862 269.14014149 C382.92093366 267.59989894 382.92093366 267.59989894 382.9265601 266.02854037 C382.93760054 262.5771086 382.94144139 259.12570693 382.94524956 255.67426014 C382.95151386 253.20392225 382.95816063 250.73358531 382.96516228 248.2632494 C382.98438955 240.84323619 382.99498977 233.42323097 383.00389007 226.00320017 C383.00827553 222.50758407 383.01364162 219.01196947 383.01887894 215.51635456 C383.03588816 203.89425057 383.05038245 192.27214752 383.05762768 180.650033 C383.05953751 177.63532224 383.06145786 174.62061149 383.06341362 171.60590076 C383.06389736 170.85662633 383.0643811 170.1073519 383.0648795 169.33537218 C383.07318035 157.19684713 383.09851953 145.05842061 383.1309943 132.91993859 C383.1640743 120.45347455 383.18207723 107.98706056 383.18527192 95.5205524 C383.18743599 88.52269709 383.19616961 81.52498554 383.22173309 74.52717304 C383.24572514 67.94441922 383.24925989 61.36187752 383.23897171 54.77907276 C383.23847548 52.36358499 383.24482149 49.94808462 383.25852776 47.53263569 C383.27620033 44.23352457 383.26916248 40.93534679 383.2559948 37.63623524 C383.26696404 36.68174748 383.27793329 35.72725972 383.28923494 34.74384809 C383.22539968 28.11342949 381.97115641 22.59342686 377.35633451 17.6093266 C372.35061666 13.17939389 367.95000496 11.88482524 361.37851715 11.87974548 C359.43154999 11.87099719 359.43154999 11.87099719 357.44525015 11.86207217 C356.00666102 11.86570529 354.56807235 11.86952966 353.12948418 11.87352467 C351.59985491 11.87050434 350.07022716 11.86661545 348.54060209 11.8619321 C344.33540328 11.85162798 340.1302895 11.85384005 335.92508364 11.85811269 C331.39056186 11.86057555 326.85606079 11.85157122 322.32154655 11.8440752 C313.43711355 11.83131379 304.55271075 11.82953632 295.66827013 11.83187547 C288.44781216 11.83365722 281.22736338 11.83191205 274.00690651 11.82765102 C272.979946 11.82705583 271.95298549 11.82646065 270.89490496 11.82584742 C268.80874575 11.82463569 266.72258654 11.82342156 264.63642733 11.82220504 C245.06402194 11.81132389 225.49163377 11.81349469 205.91922741 11.81958989 C188.00874098 11.82475925 170.09830893 11.81350413 152.18783326 11.79449167 C133.80346427 11.77512557 115.41912102 11.76685513 97.03474176 11.77061492 C86.71088266 11.77252887 76.38706986 11.77002057 66.06321907 11.75590038 C57.27418769 11.74400123 48.4852311 11.74256519 39.69619872 11.75469055 C35.21130801 11.76058962 30.7265542 11.76165033 26.24167252 11.74968815 C22.13594621 11.73886446 18.03047165 11.74189066 13.92475729 11.75594983 C12.439597 11.75860648 10.95441721 11.75619993 9.46927603 11.74821397 C-2.19562342 11.47175266 -2.19562342 11.47175266 -12.15753365 16.81781483 Z M394.7682476 101.13422108 C394.76604776 102.5196325 394.76604776 102.5196325 394.76380348 103.93303204 C394.72717637 126.42694791 394.66768463 148.92071526 394.58434486 171.41450787 C394.54456902 182.29243555 394.5121691 193.17029105 394.49725151 204.04828358 C394.4842275 213.53172895 394.45724357 223.01501539 394.41363454 232.49837124 C394.39103672 237.5177805 394.37533592 242.53699384 394.37636375 247.55645847 C394.37711135 252.2859816 394.35912045 257.0150719 394.32707977 261.74448299 C394.31859748 263.47537415 394.31681945 265.20631396 394.32244492 266.93721676 C394.35499596 278.49730743 393.78648826 288.7544052 385.45965385 297.60297108 C376.88080502 305.36950397 367.54818263 306.45952308 356.32525444 306.30502796 C355.31023212 306.29953131 354.2952098 306.29403466 353.24942923 306.28837144 C349.86689445 306.26800253 346.48465249 306.23340027 343.10223198 306.19916248 C340.6685998 306.18225611 338.23495961 306.16647191 335.8013134 306.15172291 C331.24344339 306.12341331 326.68561551 306.09236095 322.12779236 306.0573027 C313.15117 305.98893472 304.17465459 305.95311792 295.19781303 305.92947865 C294.14738177 305.92661966 294.14738177 305.92661966 293.07572967 305.92370291 C289.4947548 305.91396367 285.91377917 305.90456057 282.33280277 305.89540076 C274.963134 305.87653096 267.59346988 305.85687828 260.22381401 305.83343983 C259.48481698 305.83110247 258.74581994 305.82876512 257.98442906 305.82635693 C246.04808245 305.78703686 234.11259663 305.69704437 222.17669052 305.58985277 C209.8782533 305.48077221 197.58061953 305.43384497 185.2816987 305.44111288 C178.39358066 305.44332933 171.50806062 305.41727796 164.6205883 305.31847477 C125.97213016 303.59999905 125.97213016 303.59999905 93.20855522 321.14891148 C89.52231423 324.14784882 85.42312777 326.06188558 81.14038658 328.07659817 C76.34025588 330.41991101 72.04277358 332.84427501 68.7682476 337.13422108 C65.32533172 347.90052411 67.60674282 360.50670115 70.7682476 371.13422108 C73.82957448 376.81954243 77.62100239 380.08513934 83.7682476 382.13422108 C85.20543379 382.22256029 86.64640384 382.25546663 88.08630085 382.25333309 C88.97313948 382.25449064 89.85997811 382.2556482 90.77369064 382.25684083 C91.7489585 382.25304409 92.72422635 382.24924736 93.72904778 382.24533558 C94.76445011 382.2453346 95.79985245 382.24533361 96.86663061 382.2453326 C100.35330552 382.24429543 103.8399314 382.23626976 107.32659721 382.22845936 C109.81985249 382.22658101 112.31310822 382.22523564 114.80636406 382.22438526 C119.48771868 382.22239467 124.16906621 382.21900706 128.85041768 382.21356766 C138.05795589 382.20310982 147.2654379 382.20735877 156.47297478 382.21719837 C157.92299443 382.21868597 159.37301409 382.22017183 160.82303375 382.22165596 C163.75909432 382.22470689 166.69515478 382.22783845 169.63121521 382.23101497 C177.18185611 382.23913618 184.73249713 382.24657349 192.28314018 382.25238514 C193.04090272 382.25297408 193.79866526 382.25356302 194.57939029 382.25416981 C206.84136812 382.26302309 219.10323929 382.25015014 231.36519962 382.23009242 C243.9628062 382.21007921 256.56020696 382.2167873 269.1577931 382.24723899 C276.92228994 382.26510639 284.68618838 382.2618938 292.4506479 382.23125474 C298.41181291 382.20989197 304.37231099 382.22541037 310.33346748 382.25435925 C312.77145407 382.26043888 315.20950478 382.25464707 317.64742661 382.23586559 C340.75574522 382.07019263 340.75574522 382.07019263 350.7682476 390.13422108 C352.53305322 391.28373299 354.30676578 392.41978825 356.09246635 393.53656483 C357.88195233 394.71232817 359.66965728 395.89080582 361.4557476 397.07172108 C369.75485225 402.52226781 378.08567353 407.91827984 386.4557476 413.25922108 C393.9134406 418.02041172 401.35674867 422.80141885 408.7682476 427.63422108 C417.36949232 433.24220459 426.01224887 438.7837756 434.6666851 444.30926991 C439.39505146 447.3294772 444.11941327 450.3545748 448.81902885 453.41937733 C449.95948662 454.16260242 449.95948662 454.16260242 451.12298393 454.92084217 C452.48525103 455.81041638 453.84595539 456.70239197 455.2045269 457.59759998 C458.56957654 459.79465634 461.98101684 461.83832484 465.50066948 463.77997303 C466.30242607 464.22299259 467.10418266 464.66601215 467.93023491 465.12245655 C468.5367791 465.45633884 469.14332329 465.79022114 469.7682476 466.13422108 C469.836923 422.09870202 469.88978111 378.06318864 469.92144359 334.02762658 C469.92519569 328.82813195 469.92907866 323.62863743 469.93304253 318.42914295 C469.93382946 317.39402273 469.93461639 316.35890251 469.93542717 315.29241501 C469.94847899 298.53468442 469.97213161 281.77698473 469.99970599 265.01927246 C470.02776639 247.82269739 470.04442521 230.62613849 470.05051309 213.42954147 C470.05462821 202.81941217 470.06762283 192.20937019 470.09199701 181.59926777 C470.107862 174.32227459 470.11264622 167.04532651 470.10875174 159.7683173 C470.10683139 155.57066623 470.10976314 151.37316769 470.12586403 147.17554379 C470.14051201 143.32852723 470.14116839 139.48176515 470.13094429 135.63473664 C470.12968151 134.246945 470.13344554 132.85913718 470.14289715 131.47137715 C470.46739747 118.51651591 470.46739747 118.51651591 465.05285996 107.19818985 C460.23343947 102.82134235 456.29087306 100.87999535 449.71453667 100.9071703 C448.49357292 100.90732136 447.27260918 100.90747242 446.01464653 100.90762806 C444.04416344 100.92311192 444.04416344 100.92311192 442.0338726 100.93890858 C440.67195659 100.94264066 439.31003788 100.94548671 437.94811821 100.94748402 C434.37077175 100.95510513 430.79358875 100.97474039 427.21630669 100.99689198 C423.5630699 101.01738329 419.9098066 101.02649275 416.25652885 101.03656483 C409.09369407 101.05798786 401.93099378 101.09210525 394.7682476 101.13422108 Z " fill="#000000" transform="translate(30.231752395629883,13.865778923034668)"/>
<path d="M0 0 C9.58329181 -0.64167602 18.09427378 2.68870345 25.59375 8.6015625 C34.3413674 16.94980414 37.80822201 25.12909514 38.99609375 37.0078125 C38.76762523 45.13476396 35.69586922 53.95278843 30.62109375 60.2578125 C29.87859375 61.2684375 29.13609375 62.2790625 28.37109375 63.3203125 C22.41439257 70.2576901 13.84036675 73.75733427 4.9140625 74.61328125 C-5.6361244 75.13385387 -14.59621699 73.17428397 -23.19140625 66.6328125 C-31.54525366 58.64661607 -35.54205968 48.66988209 -36.81640625 37.3828125 C-36.31314022 25.78372879 -30.84193364 16.06345671 -22.72265625 8.15625 C-15.89183553 2.62328522 -8.51694804 0.923019 0 0 Z " fill="#060600" transform="translate(108.37890625,129.7421875)"/>
<path d="M0 0 C10.20771192 -0.56790409 18.28883887 2.93237035 25.98828125 9.53515625 C34.18290286 17.50652695 37.70553153 25.73615875 38.98828125 37.09765625 C38.63466076 45.24776663 35.63721311 53.86461643 30.55078125 60.22265625 C30.01453125 61.04765625 29.47828125 61.87265625 28.92578125 62.72265625 C25.34032523 66.49682048 21.12013042 68.79125944 16.55078125 71.22265625 C15.93460938 71.568125 15.3184375 71.91359375 14.68359375 72.26953125 C7.10533435 75.83973345 -2.90218875 75.39055779 -10.87109375 73.34375 C-21.5723436 69.22892931 -28.59711973 62.59193951 -33.44921875 52.22265625 C-37.38826181 41.55007921 -37.32803818 32.90505008 -33.44921875 22.22265625 C-28.99326938 12.72000664 -21.68496825 6.0641389 -12.0390625 2.12109375 C-7.98068981 0.71321182 -4.23866658 0.38533333 0 0 Z " fill="#060500" transform="translate(211.44921875,129.77734375)"/>
<path d="M0 0 C8.84936353 9.69525857 10.8474042 20.08903976 10.29980469 32.7109375 C9.58534174 41.30045852 5.21364291 48.86302607 -0.875 54.8125 C-4.05355905 57.18215985 -7.32984265 59.04840256 -10.875 60.8125 C-11.48730469 61.1528125 -12.09960938 61.493125 -12.73046875 61.84375 C-20.28620153 65.44648351 -30.29231396 64.95420725 -38.26171875 62.96875 C-49.18814102 58.82762197 -55.9216765 52.28921885 -60.72265625 41.703125 C-64.88122874 31.27145162 -64.68425677 22.30331601 -60.875 11.8125 C-56.42116714 2.31436402 -49.10905764 -4.3673803 -39.453125 -8.28515625 C-25.80011795 -13.06370872 -10.63872186 -9.66098375 0 0 Z " fill="#050400" transform="translate(341.875,140.1875)"/>
<path d="M0 0 C5.91123073 3.32271409 10.05493072 7.75725878 13.1875 13.75 C14.84346151 23.31777763 14.28063925 31.37713008 9.0625 39.6875 C3.00258182 45.74741818 -2.96612588 48.11185098 -11.4375 48.375 C-17.90760743 48.29530103 -22.26895786 47.18485217 -27.25 43 C-33.14178442 36.94989507 -36.09363205 31.16496501 -36.6875 22.6875 C-36.49871169 16.16875074 -33.69361795 10.72478738 -29.3828125 5.91796875 C-20.876635 -1.94279839 -10.88157561 -4.90250591 0 0 Z " fill="#ECDF1F" transform="translate(326.25,144)"/>
<path d="M0 0 C5.96870517 3.33601196 11.27440235 8.51738848 13.75 15 C14.76283619 24.06221856 14.54244531 32.55058115 8.75 40 C2.91733054 45.63275942 -2.85347992 48.28362129 -11 48.4375 C-17.59105089 48.32029512 -22.19413551 47.31876721 -27.25 43 C-34.17465859 35.58179123 -35.92135683 28.73694002 -35.625 18.671875 C-34.93000673 11.86673259 -31.73645707 8.20876482 -26.875 3.6875 C-18.73879409 -2.72019864 -9.54100296 -4.29853406 0 0 Z " fill="#ECDF1F" transform="translate(223.25,144)"/>
<path d="M0 0 C5.96870517 3.33601196 11.27440235 8.51738848 13.75 15 C14.76283619 24.06221856 14.54244531 32.55058115 8.75 40 C3.14064507 45.41709882 -2.57876301 48.27477341 -10.4375 48.4375 C-17.92655183 48.29347977 -23.82770579 46.52901856 -29.12890625 41.0625 C-35.4867876 32.9734365 -36.2750612 25.03705758 -35.25 15 C-32.74794178 7.71722341 -26.46696348 2.85594047 -20 -0.875 C-12.99700284 -2.97589915 -6.73341886 -3.03362554 0 0 Z " fill="#ECDF1F" transform="translate(120.25,144)"/>
</svg>
