<svg xmlns="http://www.w3.org/2000/svg" width="49" height="52" viewBox="0 0 49 52" fill="none">
  <path d="M48.998 34.1877C48.998 34.1875 48.998 34.1873 48.998 34.1871C48.998 34.1737 48.9966 34.1608 48.996 34.1476C48.976 33.6461 48.7728 33.1771 48.4143 32.8201L45.8763 30.2945C45.5691 29.989 45.0722 29.9899 44.7664 30.2972C44.4607 30.6045 44.4619 31.1014 44.7691 31.407L46.7738 33.4019H42.0891C42.0484 33.3475 42.0048 33.2946 41.9557 33.2456L38.1863 29.495C38.1378 29.4467 38.0854 29.4039 38.0311 29.3638V24.7029L42.8861 29.5336C43.1934 29.8394 43.6903 29.8382 43.9959 29.5309C44.3016 29.2236 44.3004 28.7268 43.9932 28.4212L38.6144 23.0693C38.2544 22.7112 37.7809 22.509 37.2752 22.4915C37.2655 22.4912 37.256 22.49 37.2463 22.49C37.2461 22.49 37.246 22.49 37.2458 22.49C37.2322 22.4898 37.2188 22.488 37.2052 22.488C36.6731 22.488 36.1726 22.6944 35.7958 23.0692L25.9958 32.8201C25.6183 33.1959 25.4104 33.696 25.4104 34.2278C25.4104 34.7597 25.6183 35.2596 25.996 35.6356L35.7959 45.3868C36.1554 45.7441 36.6278 45.9462 37.1324 45.9643C37.1326 45.9643 37.1327 45.9643 37.1329 45.9643C37.157 45.9651 37.1809 45.9677 37.2052 45.9677C37.7371 45.9677 38.2376 45.7614 38.6145 45.3866L48.4145 35.6355C48.792 35.2597 48.9999 34.7597 48.9999 34.2278C49 34.2145 48.9983 34.2012 48.998 34.1877ZM36.4616 24.621V29.3068C36.3768 29.3607 36.2967 29.4231 36.2238 29.4956L32.4545 33.246C32.3724 33.3278 32.3032 33.4188 32.2449 33.5156H27.5226L36.4616 24.621ZM36.3477 43.7216L35.4886 42.8668L27.668 35.0851H32.3446C32.3789 35.1284 32.4149 35.1706 32.4546 35.21L36.2239 38.9605C36.2631 38.9996 36.3048 39.035 36.3476 39.0687V43.7216H36.3477ZM37.2052 37.7227L33.693 34.2279L37.2052 30.7331L40.7173 34.2279L37.2052 37.7227ZM37.9174 43.8662L37.9175 39.1679C38.014 39.1101 38.1049 39.0416 38.1868 38.9603L41.9562 35.2098C42.0294 35.1369 42.0924 35.0568 42.1468 34.9719H46.8566L37.9174 43.8662Z" fill="#222F42"/>
  <path d="M41.4654 7.03089L37.4687 0.911395C37.0953 0.340684 36.467 0 35.788 0H21.3835C20.7039 0 20.0757 0.340884 19.7029 0.911895L15.7061 7.03059C15.2194 7.77554 15.2709 8.73851 15.8342 9.42669L27.0328 23.1121C27.4161 23.5809 27.9822 23.8499 28.5857 23.8499C29.1892 23.8499 29.7552 23.5811 30.1384 23.1124L36.4857 15.3557C36.7603 15.0202 36.7108 14.5258 36.3754 14.2513C36.0401 13.9769 35.5455 14.0263 35.271 14.3617L30.2569 20.4893L34.0207 9.0088H39.6514L36.8981 12.3737C36.6235 12.7092 36.673 13.2036 37.0085 13.478C37.3439 13.7526 37.8384 13.7033 38.1128 13.3677L41.3375 9.42699C41.9007 8.73871 41.9522 7.77564 41.4654 7.03089ZM27.1286 1.56953L24.6579 5.352L22.1872 1.56953H27.1286ZM20.7303 2.20924L23.7206 6.78704L23.2947 7.43907H17.3141L20.7303 2.20924ZM17.5202 9.0087H23.1798L26.9242 20.501L17.5202 9.0087ZM28.5881 20.5415L24.8306 9.0087H27.5344C27.9678 9.0087 28.3192 8.6573 28.3192 8.22388C28.3192 7.79047 27.9678 7.43907 27.5344 7.43907H25.1694L28.5856 2.20904L32.002 7.43907H30.3596C29.9262 7.43907 29.5748 7.79047 29.5748 8.22388C29.5748 8.6573 29.9262 9.0087 30.3596 9.0087H32.3688L28.5881 20.5415ZM30.0428 1.56953H34.9843L32.5135 5.352L30.0428 1.56953ZM33.8769 7.43917L33.4509 6.78704L36.4414 2.20894L39.8575 7.43917H33.8769Z" fill="#222F42"/>
  <path d="M20.9227 30.6068C21.3561 30.6068 21.7075 30.2554 21.7075 29.822V23.3822C21.7075 22.8047 21.4612 22.249 21.0314 21.8575L12.2658 13.8807C11.8797 13.529 11.3783 13.3354 10.8537 13.3354C10.3292 13.3354 9.82766 13.5291 9.44151 13.8806L0.67576 21.8577C0.24635 22.2486 0 22.8043 0 23.3823V41.0977C0 41.6699 0.242044 42.2216 0.663743 42.6112L9.42949 50.7165C9.81754 51.0753 10.3235 51.2728 10.8537 51.2728C11.3843 51.2728 11.8901 51.0751 12.2777 50.7164L21.0433 42.6113C21.4654 42.2214 21.7075 41.6696 21.7075 41.0975V32.7517C21.7075 32.3183 21.3561 31.9669 20.9227 31.9669C20.4893 31.9669 20.1379 32.3183 20.1379 32.7517V40.0221L16.4944 38.8549V25.6411L20.1379 24.4613V29.8219C20.1379 30.2554 20.4893 30.6068 20.9227 30.6068ZM10.0688 15.4316V20.3043L5.80605 24.1835L1.85704 22.9045L10.0688 15.4316ZM1.56943 24.4614L5.2126 25.6412V38.855L1.56943 40.0221V24.4614ZM10.0688 49.1701L1.85784 41.5779L5.80084 40.3148L10.0688 44.2611V49.1701ZM19.8491 41.5778L11.6384 49.1698V44.2611L15.9061 40.3148L19.8491 41.5778ZM15.901 24.1836L14.7733 23.1573C14.4529 22.8657 13.9565 22.889 13.6646 23.2095C13.3729 23.53 13.3963 24.0264 13.7168 24.3181L14.9247 25.4174V39.0845L10.8536 42.8491L6.78223 39.0845V25.4174L10.8536 21.7123L11.7295 22.5093C12.05 22.8009 12.5463 22.7776 12.8381 22.4571C13.1298 22.1364 13.1064 21.6401 12.786 21.3484L11.6386 20.3042V15.4318L19.8502 22.9044L15.901 24.1836Z" fill="#222F42"/>
</svg>