<svg xmlns="http://www.w3.org/2000/svg" width="21" height="29" viewBox="0 0 21 29" fill="none">
  <path d="M20.9301 3.34286C20.9118 2.47122 20.8925 1.60002 20.8723 0.729299C20.8713 0.538343 20.7964 0.355367 20.6635 0.219179C20.5306 0.082991 20.3503 0.00432896 20.1608 0H20.1456L17.5816 0.0582221H17.5541L14.9584 0.116444C14.8623 0.116419 14.7672 0.136304 14.679 0.174835C14.5908 0.213366 14.5114 0.269729 14.4457 0.340447C14.38 0.411165 14.3294 0.49473 14.2971 0.585944C14.2648 0.677158 14.2515 0.774077 14.2579 0.870708C14.2537 0.963388 14.2685 1.05597 14.3015 1.14261C14.3344 1.22924 14.3847 1.3081 14.4493 1.37423C14.5139 1.44035 14.5914 1.49233 14.6769 1.52689C14.7623 1.56145 14.854 1.57781 14.946 1.57504H14.9667L17.561 1.51682L18.4624 1.49744L15.3617 4.62121L15.2089 4.5117C14.5214 4.02417 13.7743 3.628 12.9862 3.33313C11.9445 2.94624 10.8429 2.74951 9.73269 2.75218C7.27723 2.73139 4.9064 3.65523 3.10386 5.3351C1.30132 7.01498 0.202837 9.32435 0.0325842 11.7922C-0.133695 13.8143 0.339378 15.8377 1.38409 17.5725C2.17592 18.8671 3.25392 19.9601 4.53399 20.766C5.81405 21.5719 7.26157 22.069 8.76373 22.2187L8.96466 22.2395V24.6658H6.11717C5.92517 24.6658 5.74103 24.7427 5.60526 24.8794C5.4695 25.0162 5.39324 25.2017 5.39324 25.3951C5.39324 25.5886 5.4695 25.774 5.60526 25.9108C5.74103 26.0475 5.92517 26.1244 6.11717 26.1244H8.96466V28.2707C8.96466 28.4641 9.04092 28.6496 9.17668 28.7864C9.31245 28.9232 9.49659 29 9.68859 29C9.88059 29 10.0647 28.9232 10.2005 28.7864C10.3363 28.6496 10.4125 28.4641 10.4125 28.2707V26.1189H13.2614C13.4534 26.1189 13.6376 26.042 13.7733 25.9053C13.9091 25.7685 13.9854 25.583 13.9854 25.3896C13.9854 25.1961 13.9091 25.0106 13.7733 24.8739C13.6376 24.7371 13.4534 24.6603 13.2614 24.6603H10.4125V22.2408L10.6149 22.2228C12.7494 22.0309 14.7587 21.1251 16.3232 19.6498C17.8877 18.1744 18.9173 16.2143 19.2482 14.0813C19.3296 13.5587 19.3734 13.031 19.379 12.5021C19.379 12.4673 19.3767 12.4326 19.3722 12.3981V12.3731C19.3331 10.3985 18.7027 8.48179 17.5637 6.87426C17.2773 6.46802 16.9613 6.08385 16.6182 5.72489L16.4668 5.56545L19.4767 2.53317L19.4946 3.34151C19.513 4.21315 19.5322 5.08426 19.5524 5.95498C19.5525 6.05096 19.572 6.146 19.6096 6.23416C19.6473 6.32232 19.7023 6.40178 19.7715 6.46781C19.8406 6.53384 19.9224 6.58502 20.0118 6.61819C20.1012 6.65136 20.1964 6.66584 20.2915 6.66076C20.3888 6.66266 20.4854 6.64515 20.5759 6.60922C20.6664 6.57328 20.7489 6.51963 20.8187 6.45139C20.8807 6.38514 20.9287 6.3068 20.9597 6.22121C20.9907 6.13563 21.0041 6.04459 20.9989 5.95363C20.9787 5.08568 20.9595 4.2168 20.9411 3.34701L20.9301 3.34286ZM17.9133 12.6088C17.8962 14.2496 17.3971 15.8487 16.479 17.2041C15.5609 18.5596 14.2649 19.6107 12.7545 20.2251C11.2441 20.8394 9.58699 20.9894 7.99209 20.6561C6.39719 20.3228 4.93597 19.5212 3.79276 18.3523C2.64954 17.1834 1.87549 15.6997 1.56831 14.0882C1.26112 12.4767 1.43457 10.8097 2.06669 9.29733C2.69881 7.785 3.76133 6.49507 5.12024 5.59033C6.47914 4.6856 8.07353 4.20654 9.70237 4.21357C10.2259 4.21369 10.7482 4.2657 11.2617 4.36885C12.9165 4.71403 14.4287 5.55592 15.5993 6.78372C16.7699 8.01151 17.544 9.56766 17.8197 11.2473C17.8783 11.5936 17.9091 11.9442 17.9119 12.2955" fill="#D5B76E"/>
</svg>