<svg xmlns="http://www.w3.org/2000/svg" width="23" height="21" viewBox="0 0 23 21" fill="none">
  <path d="M22.638 7.86747L13.2524 0.599581C12.7499 0.210395 12.128 -0.00255287 11.4981 2.30997e-05C10.8692 0.00259907 10.2477 0.220269 9.74815 0.613534L9.32198 0.949055L3.27572 5.61801C3.13124 5.72963 2.99738 5.85542 2.87562 5.99281L0.430133 7.94711L0.356116 8.0055C0.155123 8.16371 0.0362789 8.39147 0.00708904 8.63104C0.00688054 8.63318 0.00667239 8.63533 0.00646389 8.63748C0.0050044 8.64993 0.00375297 8.66216 0.00291897 8.67461C0.00250197 8.67912 0.00229393 8.68341 0.00208543 8.68792C0.00145994 8.69801 0.000834561 8.7081 0.000417564 8.7184C0.000209065 8.72506 0.00020918 8.73193 0.00020918 8.73858C0.00020918 8.74652 0 8.75447 0 8.7622C0.000208499 8.77121 0.000417335 8.78044 0.000834332 8.78924C0.00104283 8.79482 0.00104249 8.8004 0.00145949 8.8062C0.00208498 8.81758 0.00312758 8.82874 0.00417007 8.84012C0.00458707 8.84334 0.0047959 8.84656 0.0050044 8.84978C0.00646389 8.8633 0.00813141 8.87704 0.0102164 8.89056C0.0104249 8.89142 0.0104255 8.89228 0.010634 8.89336C0.0335688 9.04469 0.0927824 9.19238 0.19036 9.32182C0.369252 9.55903 0.637172 9.68332 0.907804 9.68332C1.10233 9.68332 1.29811 9.61914 1.46366 9.4869L1.5381 9.42765L2.11835 8.97085V18.0209C2.11835 18.8169 2.41921 19.565 2.96569 20.1274C3.51216 20.6902 4.23878 21 5.01168 21H17.9878C18.7609 21 19.4875 20.69 20.0338 20.1274C20.5805 19.5648 20.8814 18.8166 20.8814 18.0209V8.84763L21.5475 9.36197C21.7108 9.48798 21.9018 9.54894 22.0913 9.54894C22.2053 9.54894 22.3185 9.52662 22.4251 9.48347C22.4272 9.48261 22.4295 9.48175 22.4318 9.48089C22.4424 9.47638 22.453 9.47166 22.4634 9.46694C22.4676 9.46501 22.4716 9.46307 22.4755 9.46136C22.4851 9.45685 22.4949 9.45191 22.5045 9.44697C22.5093 9.4444 22.5139 9.44204 22.5185 9.43925C22.5275 9.43431 22.5366 9.42937 22.5456 9.42401C22.5506 9.421 22.5554 9.418 22.5602 9.41477C22.5748 9.40576 22.5892 9.39653 22.6031 9.38644C22.6098 9.38193 22.6163 9.37742 22.623 9.3727C22.629 9.36819 22.6348 9.36326 22.6409 9.35853C22.6482 9.35295 22.6553 9.34737 22.6626 9.34136C22.6682 9.33664 22.6738 9.33191 22.6792 9.32698C22.6865 9.32054 22.6938 9.3141 22.7009 9.30744C22.7061 9.30294 22.7111 9.298 22.7159 9.29306C22.7237 9.28555 22.7312 9.27782 22.7387 9.27009C22.743 9.26558 22.7472 9.26129 22.7514 9.25657C22.7601 9.24691 22.7687 9.23703 22.7772 9.22694C22.7797 9.22372 22.7825 9.22093 22.785 9.21793C22.7962 9.2044 22.8071 9.19045 22.8177 9.17607C23.119 8.76348 23.0385 8.17766 22.638 7.86747ZM13.273 19.1313H9.72647V17.3732C9.72647 16.8857 9.91078 16.427 10.2458 16.082C10.5807 15.7373 11.0262 15.5471 11.4998 15.5469C11.7339 15.5469 11.9622 15.5937 12.1784 15.686C12.3946 15.7783 12.5881 15.9114 12.7537 16.0816C12.9192 16.2521 13.0485 16.4515 13.1381 16.6741C13.2276 16.8969 13.273 17.132 13.273 17.373V19.1313ZM18.9525 7.50448C19.027 7.65796 19.0664 7.82991 19.0664 8.00121V18.0207C19.0664 18.3173 18.9542 18.5964 18.7505 18.8061C18.5468 19.0159 18.2758 19.1313 17.9876 19.1313H15.0878V17.3732C15.0878 16.8855 14.9961 16.4098 14.8149 15.9595C14.6337 15.5089 14.372 15.1055 14.0372 14.7606C13.7023 14.4158 13.3106 14.1464 12.8731 13.9599C12.4355 13.7731 11.9735 13.6784 11.4995 13.6784C10.5411 13.6787 9.63994 14.0631 8.96232 14.7608C8.2847 15.4587 7.91128 16.3864 7.91128 17.3732V19.1313H5.01168C4.72354 19.1313 4.4527 19.0159 4.24879 18.8059C4.04509 18.5962 3.93291 18.3173 3.93291 18.0207V8.00121C3.93291 7.82969 3.97232 7.65796 4.04696 7.50469C4.06218 7.47335 4.07928 7.44265 4.09742 7.41303L10.4178 2.43861L10.8526 2.10288C11.0379 1.95969 11.2677 1.88091 11.4998 1.88091C11.7318 1.88091 11.9614 1.95969 12.1469 2.10309L17.3025 6.08404C17.3052 6.08619 17.3077 6.08855 17.3106 6.0907L18.6421 7.11872C18.772 7.22069 18.8796 7.354 18.9525 7.50448Z" fill="#B7BDC6"/>
</svg>