<?xml version="1.0" encoding="UTF-8"?>
<svg version="1.1" xmlns="http://www.w3.org/2000/svg" width="512" height="512">
<path d="M0 0 C1.86430203 1.78526381 3.67964163 3.60741899 5.48144531 5.45556641 C7.1777658 7.18079525 8.95802923 8.75943306 10.8125 10.3125 C53.18335621 47.14255194 76.97213938 104.69114936 81.625 159.75 C83.42832582 188.7343641 80.22331986 217.17372847 72 245 C71.77393066 245.76586426 71.54786133 246.53172852 71.31494141 247.32080078 C64.3509851 270.22867931 53.31720005 292.81154886 39 312 C38.51901855 312.6501709 38.03803711 313.3003418 37.54248047 313.97021484 C32.69958041 320.46377059 27.67862709 326.62781553 21.8046875 332.23046875 C20.03194969 333.96867271 18.4624587 335.78018021 16.875 337.6875 C-19.05065141 379.24694674 -75.89103504 403.13234759 -129.81640625 407.68359375 C-191.96234147 411.95650722 -252.37971841 392.90713212 -299.83496094 352.43505859 C-303.12823811 349.52983084 -306.32496038 346.53148802 -309.47802734 343.47509766 C-311.00272235 341.99736149 -312.54210293 340.53605244 -314.08203125 339.07421875 C-321.4984279 331.94338714 -327.88079913 324.25879646 -334 316 C-334.4846875 315.35434082 -334.969375 314.70868164 -335.46875 314.04345703 C-371.0455466 266.41085142 -386.47839591 204.75148256 -378.48071289 145.84594727 C-370.57825154 93.8050285 -347.81641083 50.55180372 -311.64453125 12.72363281 C-310.337028 11.35323897 -309.04140735 9.97150997 -307.75 8.5859375 C-302.33464862 2.91382377 -296.17154572 -1.83899808 -289.92285156 -6.546875 C-288.66582343 -7.4968282 -287.41485595 -8.45486905 -286.17089844 -9.421875 C-210.42279122 -68.11758767 -94.34164823 -69.05012445 0 0 Z " fill="#080807" transform="translate(405,79)"/>
<path d="M0 0 C1.22332031 0.08121094 2.44664062 0.16242188 3.70703125 0.24609375 C24.0036961 2.17816096 40.74752815 10.5419366 56 24 C56.63550781 24.54011719 57.27101563 25.08023438 57.92578125 25.63671875 C71.80807428 38.30630572 80.94113978 59.46375744 82.1262207 77.97119141 C83.06136447 102.92617075 77.03349723 124.64436879 59.921875 143.44921875 C46.69442485 157.45137426 30.02948096 166.72357421 11 170 C9.1128125 170.3403125 9.1128125 170.3403125 7.1875 170.6875 C-15.22672917 172.90066969 -37.89669253 167.79476981 -55.78955078 153.578125 C-59.71161672 150.23267496 -63.37651594 146.66436964 -67 143 C-67.61488281 142.39542969 -68.22976562 141.79085937 -68.86328125 141.16796875 C-83.51437108 125.56909953 -89.37169583 102.83894679 -89 82 C-87.73423358 58.85332267 -78.69405343 38.5978304 -61.5390625 22.72265625 C-44.59854519 8.19156736 -22.60030651 -1.52892602 0 0 Z " fill="#FCFCFC" transform="translate(259,170)"/>
<path d="M0 0 C1.88834183 7.35565055 3.77165085 14.71257782 5.65185547 22.0703125 C6.28878383 24.56050104 6.92676342 27.05042099 7.56591797 29.54003906 C11.15694614 43.53091101 14.62549451 57.53464892 17.82684326 71.62001038 C20.51204062 83.37110504 23.56087708 95.02377249 26.62988281 106.67944336 C27.36001142 109.45814616 28.08277677 112.23868405 28.8046875 115.01953125 C29.02647675 115.85273392 29.24826599 116.68593658 29.47677612 117.54438782 C30.48645954 121.44813422 31.28812866 124.92877275 31 129 C24.8795843 131.24305558 18.94605911 132.69962773 12.5 133.625 C11.70980469 133.74617187 10.91960937 133.86734375 10.10546875 133.9921875 C1.84543717 135.23592384 -6.32174687 136.15324703 -14.6796875 136.23828125 C-15.4825116 136.24789383 -16.28533569 136.25750641 -17.11248779 136.26741028 C-19.7000357 136.29200834 -22.28734892 136.30466099 -24.875 136.3125 C-25.75806824 136.31578308 -26.64113647 136.31906616 -27.55096436 136.32244873 C-44.57249745 136.34286794 -62.88738993 136.1040946 -79 130 C-78.37072089 125.15416243 -77.47962051 120.48676764 -76.328125 115.73046875 C-76.16550674 115.05657608 -76.00288849 114.38268341 -75.83534241 113.68836975 C-75.31065415 111.52047995 -74.78066108 109.35393484 -74.25 107.1875 C-74.0694809 106.44568481 -73.88896179 105.70386963 -73.70297241 104.9395752 C-71.52327395 95.98562213 -69.27138238 87.06655199 -66.72583008 78.20849609 C-64.90123315 71.80967711 -63.36702817 65.34972249 -61.87426758 58.86621094 C-60.25093554 51.86283284 -58.40780206 44.92285764 -56.53488159 37.98287964 C-55.12757782 32.76581096 -53.73261705 27.54540895 -52.33520508 22.32568359 C-51.98189911 21.0071807 -51.62804345 19.68882499 -51.27368164 18.37060547 C-50.7499938 16.42194422 -50.22848324 14.47269825 -49.70703125 12.5234375 C-49.4025708 11.38825684 -49.09811035 10.25307617 -48.78442383 9.08349609 C-48.10126957 6.39808113 -47.51178073 3.72250828 -47 1 C-46.319375 1.144375 -45.63875 1.28875 -44.9375 1.4375 C-31.25640409 4.05728432 -17.31181946 3.86750668 -3.765625 0.43359375 C-2 0 -2 0 0 0 Z " fill="#FCFAED" transform="translate(281,344)"/>
<path d="M0 0 C0.90878906 0.00870117 1.81757813 0.01740234 2.75390625 0.02636719 C16.74185515 0.20031681 31.71469277 2.57156426 45 7 C43.63452145 17.94737115 40.6245794 28.48348318 37.77148438 39.11523438 C37.06225974 41.76719586 36.36386949 44.42162334 35.671875 47.078125 C33.91120224 53.83530155 32.12835589 60.58272909 30.22851562 67.30224609 C27.45664755 77.10918709 24.97890205 86.98075484 22.52270508 96.87109375 C19.33833297 109.68895592 15.99291083 122.40533976 12 135 C11.32839844 134.855625 10.65679687 134.71125 9.96484375 134.5625 C2.36807749 133.15097182 -4.9727373 132.80753594 -12.6875 132.8125 C-13.64857666 132.81185547 -14.60965332 132.81121094 -15.59985352 132.81054688 C-21.78896067 132.85721309 -27.84822888 133.34280158 -34 134 C-34.13923386 133.43862335 -34.27846771 132.8772467 -34.42192078 132.29885864 C-35.8957131 126.35880989 -37.37305491 120.41965143 -38.85229492 114.48095703 C-39.40102372 112.27609704 -39.94890157 110.07102507 -40.49584961 107.86572266 C-43.31633456 96.49588508 -46.17936778 85.15051121 -49.36210632 73.87612915 C-50.89151411 68.44711697 -52.2520623 62.99943456 -53.5 57.5 C-55.0263327 50.93495233 -56.6609664 44.42198287 -58.5 37.9375 C-60.37099899 31.33655606 -62.1350389 24.71543053 -63.8125 18.0625 C-64.03164062 17.20325928 -64.25078125 16.34401855 -64.4765625 15.45874023 C-64.67636719 14.65895752 -64.87617188 13.8591748 -65.08203125 13.03515625 C-65.25968018 12.3275415 -65.4373291 11.61992676 -65.62036133 10.89086914 C-66 9 -66 9 -66 6 C-43.9750383 -0.10651697 -22.67300894 -0.35691236 0 0 Z " fill="#FCFAEC" transform="translate(268,32)"/>
<path d="M0 0 C5.81478056 4.83001933 11.16932653 10.01906267 16.5 15.375 C17.72396484 16.59316406 17.72396484 16.59316406 18.97265625 17.8359375 C20.17728516 19.0425 20.17728516 19.0425 21.40625 20.2734375 C22.47842773 21.34730713 22.47842773 21.34730713 23.57226562 22.44287109 C25.48163343 24.45400529 27.28807405 26.48980082 29.08984375 28.59423828 C33.36711403 33.5120974 37.97574079 38.0889746 42.60075378 42.67591858 C44.19353491 44.25573133 45.78299157 45.83882586 47.3717041 47.42272949 C50.74497313 50.78466861 54.12217602 54.14263819 57.5 57.5 C61.41971835 61.39597349 65.33772742 65.29363538 69.25151062 69.1955719 C70.80415238 70.74181555 72.35981403 72.2849738 73.91564941 73.82800293 C80.68964889 80.56679731 87.11432345 87.46633402 93 95 C92.5875 95.42667969 92.175 95.85335937 91.75 96.29296875 C82.30388371 106.51923304 76.7128933 118.09309904 72 131 C56.4218469 127.60113023 40.96429287 123.84387049 25.62890625 119.47265625 C13.03248868 115.89087425 0.40093744 112.55959395 -12.31347656 109.42950439 C-21.72299059 107.11046713 -31.07873925 104.66321664 -40.37011719 101.90209961 C-45.53924564 100.37204201 -50.72320829 99.10391825 -56 98 C-53.89699541 72.90652148 -36.73965747 45.82723442 -22 26 C-21.58540527 25.4313623 -21.17081055 24.86272461 -20.74365234 24.27685547 C-14.41839586 15.61503971 -7.38962124 7.7578326 0 0 Z " fill="#FBFAEC" transform="translate(96,98)"/>
<path d="M0 0 C1.2734375 2.1171875 1.2734375 2.1171875 2.375 4.875 C6.34026068 14.19155473 10.74696851 22.17679754 17.4609375 29.80859375 C19 32 19 32 19 36 C17.27734375 38.078125 17.27734375 38.078125 14.9375 40.25 C12.13449746 42.87571862 9.51320381 45.53607142 7.03149414 48.46191406 C2.71097934 53.42225933 -1.93282144 58.04640852 -6.60075378 62.67591858 C-8.19353491 64.25573133 -9.78299157 65.83882586 -11.3717041 67.42272949 C-15.31514616 71.35292659 -19.26406286 75.27760772 -23.21282959 79.20245361 C-26.56139027 82.53115714 -29.90780693 85.86198931 -33.25151062 89.1955719 C-34.80415238 90.74181555 -36.35981403 92.2849738 -37.91564941 93.82800293 C-42.6272011 98.51542143 -47.20858599 103.25504402 -51.53213501 108.30505371 C-53.53569025 110.61856247 -55.66885386 112.78148245 -57.83984375 114.9375 C-58.67451172 115.76894531 -59.50917969 116.60039062 -60.36914062 117.45703125 C-61.21669922 118.29621094 -62.06425781 119.13539063 -62.9375 120 C-63.81212891 120.87011719 -64.68675781 121.74023438 -65.58789062 122.63671875 C-67.72297449 124.76013549 -69.86037205 126.88116378 -72 129 C-76.52010912 125.29658029 -80.58523929 121.50055131 -84.3125 117 C-84.77833496 116.4416748 -85.24416992 115.88334961 -85.72412109 115.30810547 C-101.69889714 95.90823371 -113.47795704 74.1816403 -123 51 C-123.391875 50.04867187 -123.78375 49.09734375 -124.1875 48.1171875 C-129 36.26286765 -129 36.26286765 -129 31 C-128.43716309 30.86948242 -127.87432617 30.73896484 -127.29443359 30.60449219 C-124.65376907 29.98993362 -122.01439935 29.3699688 -119.375 28.75 C-118.49070312 28.54503906 -117.60640625 28.34007812 -116.6953125 28.12890625 C-111.59926562 26.9276952 -106.56199301 25.60560359 -101.53515625 24.140625 C-92.44119372 21.50790047 -83.25286876 19.26821012 -74.0625 17 C-63.52217144 14.39326268 -52.9937239 11.76592087 -42.5090332 8.94238281 C-36.70309259 7.3831446 -30.88248523 5.88080042 -25.0625 4.375 C-23.90943359 4.0759375 -22.75636719 3.776875 -21.56835938 3.46875 C-19.35777601 2.8961519 -17.14639325 2.32662776 -14.93408203 1.76074219 C-13.13370955 1.29394566 -11.33675756 0.8133682 -9.54638672 0.30957031 C-5.97438043 -0.67609539 -3.51578301 -1.27762975 0 0 Z " fill="#FCFAEC" transform="translate(169,285)"/>
<path d="M0 0 C0.63150902 3.01959411 1.25521425 6.04049503 1.875 9.0625 C2.04902344 9.89072266 2.22304688 10.71894531 2.40234375 11.57226562 C5.05927678 24.61091847 6.38101291 37.44270063 6.3125 50.75 C6.31076279 51.80800812 6.31076279 51.80800812 6.30899048 52.88739014 C6.24728839 72.1044936 4.42334884 91.27135278 0 110 C-6.71311818 108.72798495 -13.31833926 107.21694194 -19.92163086 105.46557617 C-20.85817505 105.21972275 -21.79471924 104.97386932 -22.75964355 104.7205658 C-25.82878276 103.91414732 -28.89681167 103.10358812 -31.96484375 102.29296875 C-34.12457137 101.72462235 -36.28436774 101.15653717 -38.44422913 100.58869934 C-44.12077318 99.095564 -49.7963841 97.59891166 -55.47180176 96.10150146 C-61.18962964 94.59355048 -66.90832513 93.08889765 -72.62695312 91.58398438 C-79.08813387 89.88336248 -85.54921451 88.18236415 -92.00975037 86.47929382 C-92.99531701 86.21958959 -93.98088366 85.95988535 -94.99631596 85.69231129 C-96.91440045 85.18627673 -98.8322119 84.67920586 -100.74972439 84.17100811 C-105.36972779 82.94795287 -109.9932735 81.74457886 -114.62820435 80.57925415 C-115.51523072 80.35364713 -116.4022571 80.1280401 -117.31616306 79.8955965 C-118.98782501 79.47118879 -120.66112621 79.05316947 -122.33623409 78.64257336 C-124.24078679 78.15604337 -126.12369006 77.5860831 -128 77 C-129.46306721 74.07386558 -128.61638928 72.01636938 -128.0625 68.8125 C-126.28663781 57.00966081 -126.5597057 45.70033963 -129 34 C-122.78603645 31.84434183 -116.54110639 30.00370188 -110.17602539 28.35205078 C-109.23802094 28.10605133 -108.30001648 27.86005188 -107.33358765 27.6065979 C-104.25565912 26.80007489 -101.17665841 25.99772604 -98.09765625 25.1953125 C-95.93395773 24.62895186 -93.77033908 24.06228599 -91.60679626 23.49533081 C-85.91805376 22.00528209 -80.2284414 20.51858444 -74.53857422 19.03283691 C-65.4659543 16.66336528 -56.39448173 14.28951158 -47.32336235 11.91430283 C-44.18345306 11.09276082 -41.0430619 10.27308252 -37.90260315 9.4536438 C-35.93116865 8.9382964 -33.95980747 8.4226684 -31.98852539 7.90673828 C-30.58346033 7.53919024 -30.58346033 7.53919024 -29.15001011 7.164217 C-22.23910497 5.34742597 -15.35204987 3.45190495 -8.48699284 1.46858406 C-5.55598938 0.63508098 -3.06466789 0 0 0 Z " fill="#FBF9EC" transform="translate(474,201)"/>
<path d="M0 0 C8.7694072 1.84619099 17.41420653 4.15752003 26.078125 6.4375 C27.77021468 6.88161959 29.46233365 7.32562758 31.15447998 7.76953125 C34.71199557 8.70318337 38.26919734 9.63801924 41.82617188 10.57373047 C46.26333149 11.74091671 50.70117394 12.90548005 55.13924408 14.06919861 C72.60907266 18.65090808 90.07095912 23.26184573 107.51021576 27.95874023 C109.14879736 28.39998952 110.78755362 28.8405908 112.42649078 29.28051758 C114.67784791 29.88527245 116.92840217 30.49291997 119.17871094 31.1015625 C120.45260681 31.44525879 121.72650269 31.78895508 123.03900146 32.14306641 C126 33 126 33 128 34 C127.75636719 35.57974609 127.75636719 35.57974609 127.5078125 37.19140625 C126.77256625 43.09545959 126.85471233 48.99659381 126.875 54.9375 C126.87113281 56.06607422 126.86726562 57.19464844 126.86328125 58.35742188 C126.86457031 59.46537109 126.86585938 60.57332031 126.8671875 61.71484375 C126.86887939 63.20165649 126.86887939 63.20165649 126.87060547 64.71850586 C127.03320708 68.84214399 127.49849313 72.90562354 128 77 C127.31224991 77.17966812 126.62449982 77.35933624 125.91590881 77.54444885 C118.43350278 79.4992661 110.95127568 81.45476708 103.46914673 83.41064453 C100.53654871 84.17723463 97.60390823 84.94366198 94.67123413 85.70996094 C79.18485864 89.75670021 63.69997319 93.80876329 48.22506905 97.89918327 C46.22538289 98.42771087 44.22561212 98.95591715 42.22581482 99.48402405 C35.98373118 101.13262079 29.74237854 102.78391262 23.50219727 104.43969727 C21.25800708 105.03283525 19.0137868 105.62585937 16.76953125 106.21875 C15.25513458 106.62225929 15.25513458 106.62225929 13.71014404 107.03392029 C9.15646526 108.23410727 4.67180328 109.34513386 0 110 C-0.6325152 106.81394637 -1.2544813 103.62590992 -1.875 100.4375 C-2.13603516 99.12362305 -2.13603516 99.12362305 -2.40234375 97.78320312 C-5.17978962 83.43306614 -6.43347776 69.52180122 -6.4375 54.9375 C-6.44022919 54.07491577 -6.44295837 53.21233154 -6.44577026 52.3236084 C-6.45419598 34.48656503 -4.37393376 17.32896113 0 0 Z " fill="#FDFBED" transform="translate(38,201)"/>
<path d="M0 0 C2.89342697 1.29069916 4.76304246 2.55966414 6.8046875 4.9765625 C7.30613281 5.56566406 7.80757813 6.15476562 8.32421875 6.76171875 C8.83597656 7.37660156 9.34773438 7.99148437 9.875 8.625 C10.37902344 9.21667969 10.88304687 9.80835937 11.40234375 10.41796875 C29.8889137 32.30871527 44.21659788 57.56381188 53.375 84.6875 C53.76981567 85.85623657 53.76981567 85.85623657 54.17260742 87.04858398 C55.18533808 90.13650979 56 92.72889933 56 96 C55.10917725 96.22139648 54.21835449 96.44279297 53.30053711 96.67089844 C49.91747293 97.51234125 46.5346988 98.35493284 43.15209961 99.19824219 C41.70266565 99.55936232 40.25312542 99.92005624 38.8034668 100.28027344 C25.88668053 103.49041539 13.01452539 106.83279521 0.21435547 110.48510742 C-12.35763842 114.06970167 -25.00072111 117.29886774 -37.69140625 120.43359375 C-45.90599311 122.46385179 -54.08298739 124.6206204 -62.23046875 126.90625 C-63.22691406 127.1846875 -64.22335937 127.463125 -65.25 127.75 C-66.10078125 127.99234375 -66.9515625 128.2346875 -67.828125 128.484375 C-70 129 -70 129 -73 129 C-73.27972656 128.20078125 -73.55945313 127.4015625 -73.84765625 126.578125 C-77.72922711 115.94436818 -82.62185 106.33784796 -90.03125 97.71875 C-91 96 -91 96 -90.75576782 94.10809326 C-89.85944722 91.60795053 -88.76603689 90.40983645 -86.87646484 88.55175781 C-86.21842865 87.8971759 -85.56039246 87.24259399 -84.88241577 86.56817627 C-84.16582794 85.87020935 -83.44924011 85.17224243 -82.7109375 84.453125 C-81.97428864 83.72309265 -81.23763977 82.9930603 -80.47866821 82.24090576 C-78.117758 79.90341226 -75.74696672 77.57626872 -73.375 75.25 C-71.02614013 72.9363851 -68.67948419 70.62059835 -66.33560181 68.30194092 C-64.87742367 66.86051708 -63.41616125 65.42220407 -61.95126343 63.98760986 C-58.00390906 60.09715885 -54.28456649 56.09335521 -50.66763306 51.8949585 C-48.12071564 49.00085492 -45.40253073 46.29723371 -42.65625 43.59375 C-42.08346313 43.02474976 -41.51067627 42.45574951 -40.92053223 41.86950684 C-38.51060718 39.47567314 -36.09465522 37.08795757 -33.67919922 34.69970703 C-24.87240696 25.9993513 -24.87240696 25.9993513 -16.58349609 16.81054688 C-13.58002846 13.37642477 -10.30761726 10.20371733 -7.0625 7 C-6.37865234 6.32066406 -5.69480469 5.64132813 -4.99023438 4.94140625 C-3.32912841 3.29191641 -1.66571487 1.6448332 0 0 Z " fill="#FBF9EB" transform="translate(416,100)"/>
<path d="M0 0 C7.84261888 1.47431881 15.57399994 3.30685006 23.3125 5.25 C24.54581055 5.5586499 25.77912109 5.8672998 27.04980469 6.18530273 C35.17079972 8.2366067 43.22932607 10.44523011 51.2668457 12.79980469 C58.81463351 14.99356488 66.42657634 16.87854046 74.05957031 18.75024414 C81.43616357 20.57302479 88.73452702 22.5955415 96.02246094 24.7434082 C100.8599741 26.15334827 105.70784955 27.43530388 110.609375 28.60546875 C111.71474609 28.87037109 112.82011719 29.13527344 113.95898438 29.40820312 C116.1190552 29.91969764 118.28179396 30.42007909 120.44726562 30.90820312 C121.41857422 31.13830078 122.38988281 31.36839844 123.390625 31.60546875 C124.6904834 31.90167114 124.6904834 31.90167114 126.01660156 32.20385742 C126.67112305 32.46658447 127.32564453 32.72931152 128 33 C131.72140371 44.16421112 117.64682154 66.6475598 112.72802734 76.56445312 C107.34107535 87.01366411 101.08646438 96.63721096 94 106 C93.13121593 107.16905205 92.26272847 108.33832457 91.39453125 109.5078125 C87.34062387 114.91860938 83.24623301 120.11232462 78.27734375 124.73046875 C76.86990248 125.99424809 76.86990248 125.99424809 76 128 C71.81832674 126.36743754 69.05532357 123.2913425 65.984375 120.14453125 C65.40971497 119.56466965 64.83505493 118.98480804 64.24298096 118.38737488 C62.40715981 116.5337814 60.57814585 114.6736614 58.75 112.8125 C56.35238147 110.37810818 53.951574 107.9469294 51.546875 105.51953125 C50.96425903 104.93132599 50.38164307 104.34312073 49.78137207 103.73709106 C46.34632965 100.28993784 42.82166844 97.03480709 39.11035156 93.88549805 C33.23219338 88.63364524 27.81127117 82.8565152 22.27246094 77.25195312 C16.6824334 71.60154439 11.13468276 66.00582834 5.078125 60.85107422 C0.17518864 56.48382052 -4.37753788 51.72306329 -9 47.0625 C-10.07137887 45.98609346 -11.14299182 44.90991986 -12.21484375 43.83398438 C-14.81259638 41.22533255 -17.40717962 38.61355529 -20 36 C-19.61328125 35.49283447 -19.2265625 34.98566895 -18.828125 34.46313477 C-10.58836355 23.58088794 -4.66085692 12.76439225 0 0 Z " fill="#FCFAEC" transform="translate(343,283)"/>
<path d="M0 0 C0.72021484 1.75561523 0.72021484 1.75561523 1.2109375 4.05859375 C1.40429688 4.92162109 1.59765625 5.78464844 1.796875 6.67382812 C1.98765625 7.58583984 2.1784375 8.49785156 2.375 9.4375 C3.82446712 16.13873356 5.45542474 22.75148584 7.3203125 29.34765625 C10.54575894 40.77601977 13.35729286 52.30321806 16.19775391 63.83203125 C18.76461698 74.23619104 21.37186931 84.6166111 24.30981445 94.92321777 C27.31554206 105.50121379 29.65654624 116.25917028 32 127 C30.47632813 127.63615234 30.47632813 127.63615234 28.921875 128.28515625 C18.61426496 132.65080621 8.8040527 137.34216541 -0.17773438 144.11694336 C-0.89457397 144.65693466 -1.61141357 145.19692596 -2.34997559 145.75328064 C-2.89448364 146.16469803 -3.4389917 146.57611542 -4 147 C-10.6620581 140.36120574 -17.32134193 133.71964431 -23.97718906 127.07462311 C-27.06849996 123.98851048 -30.16072552 120.90332652 -33.25512695 117.8203125 C-36.24644643 114.83993119 -39.23525121 111.8570486 -42.22239494 108.8724823 C-43.35727344 107.73943848 -44.49302542 106.6072688 -45.62970161 105.47602844 C-51.05467408 100.07594851 -56.3982877 94.66768325 -61.37586975 88.84552002 C-64.38585924 85.42523038 -67.65516852 82.26333516 -70.90234375 79.0703125 C-72.38359031 77.60169035 -73.86470648 76.13293668 -75.34570312 74.6640625 C-77.65708093 72.37766588 -79.97004646 70.09291719 -82.28540039 67.81054688 C-84.53702307 65.58893953 -86.78253932 63.36130595 -89.02734375 61.1328125 C-89.72721909 60.44639679 -90.42709442 59.75998108 -91.1481781 59.05276489 C-91.78626907 58.41805267 -92.42436005 57.78334045 -93.08178711 57.12939453 C-93.64691513 56.57172394 -94.21204315 56.01405334 -94.79429626 55.43948364 C-96 54 -96 54 -96 52 C-94.45111498 50.58293498 -92.83238466 49.24190504 -91.1875 47.9375 C-86.73314313 44.38969493 -86.73314313 44.38969493 -82.34765625 40.7578125 C-62.20338782 23.73363377 -38.40479607 11.20816998 -13.625 2.4375 C-12.61945068 2.07841553 -11.61390137 1.71933105 -10.57788086 1.34936523 C-9.6369458 1.02653564 -8.69601074 0.70370605 -7.7265625 0.37109375 C-6.46706787 -0.0631189 -6.46706787 -0.0631189 -5.18212891 -0.50610352 C-3 -1 -3 -1 0 0 Z " fill="#FCFAEC" transform="translate(197,41)"/>
<path d="M0 0 C3.5825632 1.72224834 6.5990287 3.83903858 9.8125 6.1875 C17.64337712 11.76236839 26.57258631 16.80977986 36 19 C34.41654563 27.46767044 32.37761565 35.79540179 30.27856445 44.14648438 C29.69589031 46.46659124 29.11818115 48.78789248 28.54101562 51.109375 C26.63524232 58.73853787 24.65169382 66.33710147 22.51953125 73.90625 C19.80408594 83.55313829 17.39346601 93.26906474 15 103 C11.28883691 118.08819745 7.27615811 133.06273537 3 148 C-30.88790472 139.81520945 -62.53413502 121.69783229 -87.85546875 97.93359375 C-89.84633687 95.96566437 -89.84633687 95.96566437 -92 95 C-90.52011778 91.56267063 -88.58715467 89.34920327 -85.93676758 86.72558594 C-85.09862015 85.89081726 -84.26047272 85.05604858 -83.39692688 84.19598389 C-82.48863632 83.30115295 -81.58034576 82.40632202 -80.64453125 81.484375 C-79.21550872 80.06330239 -77.7864889 78.64222705 -76.3576231 77.22099686 C-74.35394015 75.23043846 -72.34575947 73.2444481 -70.33752441 71.25848389 C-66.36284983 67.32691892 -62.39472299 63.3887785 -58.43008995 59.44709015 C-57.05510869 58.08219155 -55.67650359 56.72094662 -54.29780579 55.35980225 C-49.94845123 51.0437127 -45.77997048 46.6665174 -41.78981018 42.01812744 C-38.22536538 37.99898399 -34.37534167 34.25424898 -30.56640625 30.46875 C-29.68846909 29.59222778 -28.81053192 28.71570557 -27.9059906 27.81262207 C-25.12718504 25.03937204 -22.34490603 22.26963718 -19.5625 19.5 C-17.66680135 17.60989195 -15.77190217 15.71898482 -13.87695312 13.828125 C-9.25394811 9.21608996 -4.62809343 4.60692859 0 0 Z " fill="#FCFAEC" transform="translate(193,324)"/>
<path d="M0 0 C35.60063903 10.26941511 66.15808115 28.58375083 93 54 C91.36743754 58.18167326 88.2913425 60.94467643 85.14453125 64.015625 C84.56466965 64.59028503 83.98480804 65.16494507 83.38737488 65.75701904 C81.5337814 67.59284019 79.6736614 69.42185415 77.8125 71.25 C75.97001075 73.06465708 74.12908013 74.88082553 72.29118347 76.70013428 C71.14976186 77.82953285 70.00568243 78.95625477 68.85835266 80.07965088 C65.97898487 82.92377552 63.24181723 85.83383657 60.59838867 88.89941406 C56.89132758 93.18531858 52.93523144 97.1745253 48.90625 101.15625 C48.15589478 101.9028186 47.40553955 102.64938721 46.63244629 103.4185791 C43.45783496 106.57701112 40.27724084 109.72939279 37.09716797 112.88232422 C34.76059639 115.20069745 32.42712001 117.5221552 30.09375 119.84375 C29.3862561 120.54294556 28.67876221 121.24214111 27.9498291 121.96252441 C23.99152414 125.90153319 20.21964393 129.93714692 16.59117126 134.18273926 C13.89277476 137.26455084 10.97933909 140.12669582 8.0625 143 C7.47404297 143.58394531 6.88558594 144.16789063 6.27929688 144.76953125 C4.85520207 146.18204805 3.4279475 147.5913781 2 149 C-1.32307711 147.51296093 -3.84403267 145.58709958 -6.625 143.25 C-14.75002317 136.67146733 -23.42034357 132.11597406 -33 128 C-32.46857331 120.42716967 -30.61431243 113.39667606 -28.58251953 106.11279297 C-27.58109139 102.48062233 -26.63850059 98.83313103 -25.6875 95.1875 C-23.702471 87.61521188 -21.66865117 80.05665156 -19.625 72.5 C-17.13444438 63.28426186 -14.70080326 54.0552594 -12.3125 44.8125 C-12.01762695 43.67184082 -11.72275391 42.53118164 -11.41894531 41.35595703 C-10.85985019 39.19287448 -10.30076746 37.02978872 -9.74169922 34.86669922 C-6.71663379 23.1746919 -3.45578303 11.57120793 0 0 Z " fill="#FCFAEC" transform="translate(319,41)"/>
<path d="M0 0 C4.76932233 3.95752278 9.1797614 8.11121526 13.49609375 12.55859375 C15.46395495 14.47733517 17.44790173 16.25416899 19.53515625 18.03515625 C25.88153254 23.5409725 31.68320443 29.62724597 37.58203125 35.60253906 C42.88314938 40.96613935 48.18105925 46.24585996 53.921875 51.14453125 C59.1876161 55.84608581 64.05281128 61.00597145 69.00927734 66.02978516 C74.3034321 71.38932109 79.60509325 76.66731775 85.33789062 81.56494141 C87.49332137 83.4259317 89.50488176 85.40675465 91.5 87.4375 C92.1703125 88.11683594 92.840625 88.79617188 93.53125 89.49609375 C94.0159375 89.99238281 94.500625 90.48867188 95 91 C83.53099293 116.04787866 40.47825868 134.31440221 16.11987305 143.40185547 C3.57975767 148 3.57975767 148 0 148 C-2.24730279 139.32320754 -4.49079187 130.64543948 -6.72985268 121.96651649 C-7.77045754 117.93343854 -8.81221302 113.90066631 -9.85693359 109.86865234 C-14.37020513 92.44661388 -18.77309193 75.0228154 -22.74853516 57.46875 C-24.59968845 49.31026873 -26.69342676 41.21769152 -28.8046875 33.12304688 C-29.0934375 31.99318359 -29.3821875 30.86332031 -29.6796875 29.69921875 C-29.93476074 28.71783936 -30.18983398 27.73645996 -30.45263672 26.7253418 C-30.98620994 24.06866123 -31.10396327 21.70089191 -31 19 C-29.91203125 18.52691406 -28.8240625 18.05382812 -27.703125 17.56640625 C-17.42489082 12.98240994 -8.04611877 8.04611877 0 0 Z " fill="#FCFAEC" transform="translate(318,323)"/>
<path d="M0 0 C6.61634577 4.16109973 11.61624578 10.06753324 14 17.5625 C15.06756508 27.72919539 13.62871021 35.64904632 8.3125 44.3125 C0.37363063 52.03680533 -6.74005549 54.01323672 -17.64453125 53.90234375 C-25.21183286 53.13592321 -31.46207628 49.12679558 -36.52734375 43.55859375 C-42.1368317 35.9552825 -42.98100248 27.79118998 -42 18.5625 C-40.875 14.75 -40.875 14.75 -39 11.5625 C-38.63261719 10.90765625 -38.26523438 10.2528125 -37.88671875 9.578125 C-29.85722663 -3.02272988 -13.12811641 -6.42899528 0 0 Z " fill="#F8C65B" transform="translate(270,228.4375)"/>
<path d="M0 0 C2.475 0.495 2.475 0.495 5 1 C5.29390625 2.34578125 5.29390625 2.34578125 5.59375 3.71875 C10.23191826 23.07110724 19.95016806 38.95016806 34 53 C33.625 55.125 33.625 55.125 33 57 C28.31808451 56.54261927 26.36895826 54.80889606 23.1875 51.4375 C22.00220703 50.19806641 22.00220703 50.19806641 20.79296875 48.93359375 C20.20128906 48.29550781 19.60960937 47.65742188 19 47 C14.94207241 48.50046973 11.31134139 50.4356143 7.5625 52.58984375 C6.95994385 52.93503555 6.3573877 53.28022736 5.73657227 53.63587952 C3.82262402 54.73339101 1.9113237 55.83542555 0 56.9375 C-1.28368963 57.67411494 -2.56754231 58.4104458 -3.8515625 59.14648438 C-8.92499166 62.05844117 -13.99288377 64.97486728 -19 68 C-18.7834375 68.99580078 -18.7834375 68.99580078 -18.5625 70.01171875 C-18.376875 70.89472656 -18.19125 71.77773437 -18 72.6875 C-17.814375 73.55761719 -17.62875 74.42773438 -17.4375 75.32421875 C-17.01027953 77.93712964 -16.92383799 80.35813038 -17 83 C-19.475 83.495 -19.475 83.495 -22 84 C-22.37125 82.989375 -22.7425 81.97875 -23.125 80.9375 C-23.40472656 80.20402344 -23.68445313 79.47054687 -23.97265625 78.71484375 C-24.72962738 76.71448277 -25.46318451 74.70522349 -26.18359375 72.69140625 C-31.19826664 59.26685702 -38.05729548 47.17083502 -48.3828125 37.11328125 C-50.34537027 34.54868282 -50.34246831 33.15402262 -50 30 C-44.91664275 30.15404113 -42.64245282 33.02068432 -39.35546875 36.50390625 C-38.90816406 36.99761719 -38.46085937 37.49132812 -38 38 C-31.23796028 34.48097933 -24.74987379 30.63848661 -18.36621094 26.47900391 C-12.31439854 22.53615644 -6.16708034 18.75966526 0 15 C-0.08378906 14.08476562 -0.16757812 13.16953125 -0.25390625 12.2265625 C-0.40666016 10.44378906 -0.40666016 10.44378906 -0.5625 8.625 C-0.71912109 6.84996094 -0.71912109 6.84996094 -0.87890625 5.0390625 C-1 2 -1 2 0 0 Z " fill="#0A0A0A" transform="translate(419,126)"/>
<path d="M0 0 C2.54081336 0.28763925 3.77728376 0.79449602 5.66796875 2.5390625 C10.15634611 8.70048541 10.67571537 13.90463303 10.69921875 21.44921875 C11.07876652 25.92985408 12.22060337 29.35273679 15.578125 32.4609375 C19.88902772 34.81783291 22.98907283 35.67944775 28 35 C31.41034041 33.83787763 34.70225293 32.44792567 38 31 C43.5789441 28.55921196 48.11507831 29.13935928 54 30 C54.495 32.475 54.495 32.475 55 35 C54.08734375 35.00386719 54.08734375 35.00386719 53.15625 35.0078125 C44.04043796 35.40998068 36.33761014 38.57917376 28 42 C28.32355469 42.87785156 28.64710938 43.75570312 28.98046875 44.66015625 C30.77540593 50.54012288 31.06999588 57.08134908 28.75 62.875 C25.15029811 69.30303909 21.151864 72.75574919 14.6875 76.25 C7.49539118 78.25710014 1.81813393 77.19281982 -4.69921875 73.625 C-9.54767556 70.20062303 -13.61470564 64.81823631 -15 59 C-15.7618242 52.15548568 -15.17389305 46.61557199 -11 41 C-7.29306841 37.0763793 -3.35447736 33.33861934 2 32 C3.32 32 4.64 32 6 32 C5.61025575 28.60051418 5.18348753 25.20666268 4.75 21.8125 C4.64042969 20.85279297 4.53085937 19.89308594 4.41796875 18.90429688 C3.69571904 13.41139777 2.94986407 10.12756757 -1 6 C-1.3125 3.25 -1.3125 3.25 -1 1 C-0.67 0.67 -0.34 0.34 0 0 Z " fill="#0B0B0B" transform="translate(332,61)"/>
<path d="M0 0 C1.60522922 2.05129481 3.09342408 4.10391773 4.5625 6.25 C5.45961558 7.53607938 6.35808007 8.82121875 7.2578125 10.10546875 C7.71317383 10.75692871 8.16853516 11.40838867 8.63769531 12.07958984 C11.36003137 15.91720551 14.23309161 19.64076053 17.08984375 23.37890625 C19 26 19 26 20.4609375 28.7890625 C21.79710998 31.19017895 21.79710998 31.19017895 24.26171875 31.70703125 C25.06222656 31.74183594 25.86273438 31.77664063 26.6875 31.8125 C27.89986328 31.88404297 27.89986328 31.88404297 29.13671875 31.95703125 C29.75160156 31.97121094 30.36648438 31.98539062 31 32 C31.495 34.475 31.495 34.475 32 37 C28.91190305 38.76462683 27.76687864 39 24 39 C24.103125 39.721875 24.20625 40.44375 24.3125 41.1875 C24 44 24 44 22 46.8125 C17.96985387 49.75114822 15.88409122 49.41390604 11 49 C10.731875 50.093125 10.46375 51.18625 10.1875 52.3125 C8.48790601 57.59018659 8.48790601 57.59018659 6 59 C0.5473323 59.84610361 -2.17433974 59.21319315 -6.75 56.125 C-7.46671875 55.59132813 -8.1834375 55.05765625 -8.921875 54.5078125 C-10.88348788 53.08453699 -12.80626269 52.01781506 -15 51 C-15.53625 51.495 -16.0725 51.99 -16.625 52.5 C-19.73633962 54.4650566 -21.36711987 54.50860322 -25 54 C-31.28225364 51.17939632 -33.61796731 46.15912038 -36 40 C-37.39333542 35.14912855 -37.11099267 30.18970496 -37.0625 25.1875 C-37.05798828 24.30384766 -37.05347656 23.42019531 -37.04882812 22.50976562 C-37.03709866 20.33981441 -37.01916495 18.16989828 -37 16 C-40.465 14.02 -40.465 14.02 -44 12 C-43.67 10.35 -43.34 8.7 -43 7 C-39.08393425 7.53400897 -36.60661066 8.19669467 -33 10 C-31.35 7.36 -29.7 4.72 -28 2 C-25.525 2.495 -25.525 2.495 -23 3 C-23.43121268 6.01848877 -23.94553818 7.91621258 -25.625 10.5 C-27.23640086 12.87235618 -27.23640086 12.87235618 -26.76953125 15.35546875 C-25.91874224 18.27924622 -24.7550223 20.28367257 -23.0625 22.8125 C-20.83401593 26.18496974 -18.64198097 29.56374313 -16.55859375 33.02734375 C-9.82101391 45.52007594 -9.82101391 45.52007594 1.4375 52.9375 C2.283125 52.958125 3.12875 52.97875 4 53 C4.81565836 42.80427049 -1.33261332 35.78175073 -7 28 C-8.5706255 25.83591818 -10.13562907 23.66878308 -11.68408203 21.48876953 C-12.66893781 20.10408597 -13.66820207 18.72951269 -14.68310547 17.36669922 C-18.04416349 12.65639062 -18.04416349 12.65639062 -17.80078125 9.0390625 C-17.53652344 8.36617188 -17.27226562 7.69328125 -17 7 C-14.79516602 7.0925293 -14.79516602 7.0925293 -12 8 C-10.19877933 10.15827016 -8.75453041 12.15636433 -7.27734375 14.51953125 C-6.84998428 15.17451096 -6.42262482 15.82949066 -5.98231506 16.50431824 C-4.61952588 18.59805869 -3.27777521 20.70429111 -1.9375 22.8125 C-0.59020794 24.90751145 0.76137125 26.99958669 2.11802673 29.08854675 C2.96018968 30.38782732 3.79640998 31.69098512 4.62574768 32.99848938 C8.67225274 39.53616942 8.67225274 39.53616942 15.25 42.75 C16.1575 42.8325 17.065 42.915 18 43 C14.49815565 27.62523577 3.58216652 16.06089706 -6 4 C-2.25 0 -2.25 0 0 0 Z " fill="#0C0C0B" transform="translate(356,382)"/>
<path d="M0 0 C3.73974186 2.28903118 7.01830571 5.03661142 9 9 C9.12176503 10.80948495 9.17545792 12.62396271 9.1875 14.4375 C9.20167969 15.40558594 9.21585937 16.37367188 9.23046875 17.37109375 C9 20 9 20 7 23 C7.59167969 23.36351562 8.18335938 23.72703125 8.79296875 24.1015625 C14.61101292 27.80309142 19.73206763 31.1962029 22 38 C22.77533615 44.46113455 20.9239117 48.97248813 17 54 C14.50209354 56.07991002 11.91598389 57.58076858 9 59 C8.154375 59.433125 7.30875 59.86625 6.4375 60.3125 C1.61457598 61.6728119 -2.42745808 61.49882877 -7 59.5 C-15.37450634 54.79739259 -19.23856228 47.17754154 -23.07226562 38.72363281 C-25.1051338 34.34171969 -27.21067687 31.15369473 -31 28 C-33.65904469 27.74846741 -33.65904469 27.74846741 -36 29 C-38.25878952 31.18090022 -38.93161673 32.43925717 -39.3125 35.5625 C-39.15077513 38.25525964 -39.15077513 38.25525964 -37 41 C-37 42.32 -37 43.64 -37 45 C-38.98 45.495 -38.98 45.495 -41 46 C-43.77519984 42.18410021 -45.82971603 39.09738561 -46.5625 34.375 C-45.65691171 28.94147029 -43.31675009 26.08775008 -39.125 22.625 C-35.57122117 20.77703501 -33.93938391 20.35683528 -30 21 C-21.73225699 24.2480419 -18.93491501 30.9532188 -15.24609375 38.625 C-14.94509766 39.24584473 -14.64410156 39.86668945 -14.33398438 40.50634766 C-13.47549668 42.29579886 -12.64144908 44.0969135 -11.80859375 45.8984375 C-9.87816694 49.20893186 -8.1916902 50.9150259 -5 53 C0.83020572 54.52923429 3.98008619 54.06153529 9.23828125 51.203125 C12.90765829 48.71143549 12.90765829 48.71143549 14.46875 44.6953125 C14.54147653 38.95863939 14.54147653 38.95863939 11.8125 34 C6.89895896 30.50592637 3.05572132 29.79418974 -2.9375 29.625 C-8.64410352 29.28475272 -11.83792994 28.9370933 -16 25 C-19.51739637 20.99744551 -20.35968516 17.40198914 -20.28125 12.05859375 C-19.67657397 7.63270111 -16.7555202 4.86999296 -13.9375 1.625 C-9.35295282 -0.91113248 -5.10006504 -1.0882984 0 0 Z " fill="#0C0C0B" transform="translate(420,312)"/>
<path d="M0 0 C0.6875 1.8125 0.6875 1.8125 1 4 C-0.4375 5.75 -0.4375 5.75 -2 7 C-0.7625 7.7425 -0.7625 7.7425 0.5 8.5 C3 11 3 11 3.43359375 14.7421875 C3.28007342 19.28597707 1.35949917 22.16754153 -1.4375 25.625 C-2.35584436 26.83107023 -3.27112858 28.0394757 -4.18359375 29.25 C-4.6513623 29.86359375 -5.11913086 30.4771875 -5.60107422 31.109375 C-7.87911923 34.18811507 -9.94370028 37.39556315 -12 40.625 C-12.37310303 41.20459473 -12.74620605 41.78418945 -13.13061523 42.38134766 C-16.40491967 47.51706656 -18.27195498 50.57789065 -18.125 56.75 C-18.10695312 57.73484375 -18.08890625 58.7196875 -18.0703125 59.734375 C-18.04710937 60.48203125 -18.02390625 61.2296875 -18 62 C-9.59900548 58.9450929 -5.85114529 53.21405243 -1 46 C-0.41750488 45.13810059 0.16499023 44.27620117 0.76513672 43.38818359 C4.88127922 37.2836373 8.95495638 31.15185518 13 25 C14.65 25.33 16.3 25.66 18 26 C17.43583854 29.91619913 16.31467425 32.44153081 14.0859375 35.6953125 C13.19575928 37.0090686 13.19575928 37.0090686 12.28759766 38.34936523 C11.65644043 39.26532471 11.0252832 40.18128418 10.375 41.125 C9.09856885 43.0140598 7.82252317 44.90338013 6.546875 46.79296875 C4.9211606 49.18410232 3.29341932 51.57360509 1.65429688 53.95556641 C0.63333494 55.44191536 -0.37188657 56.93904749 -1.375 58.4375 C-1.89835937 59.19933594 -2.42171875 59.96117187 -2.9609375 60.74609375 C-4.27983758 63.6070161 -4.18808349 65.88766605 -4 69 C0.65849887 68.85883337 2.99594858 66.69993258 6.046875 63.4765625 C9.87020401 58.62858131 12.82012049 53.21929753 15.89794922 47.88037109 C18.46323719 43.50335559 21.24581951 39.25968108 24 35 C25.9375 35.3125 25.9375 35.3125 28 36 C29 39 29 39 27.90771484 41.44848633 C27.34777832 42.40005615 26.7878418 43.35162598 26.2109375 44.33203125 C25.59863281 45.37810547 24.98632812 46.42417969 24.35546875 47.50195312 C23.70191406 48.59443359 23.04835937 49.68691406 22.375 50.8125 C21.74464844 51.89337891 21.11429688 52.97425781 20.46484375 54.08789062 C15.26443382 62.89399019 15.26443382 62.89399019 12.02734375 66.39453125 C9.74187018 68.84718021 9.74187018 68.84718021 9.73046875 71.9921875 C9.88128906 72.94351563 10.03210938 73.89484375 10.1875 74.875 C10.32542969 75.84179688 10.46335938 76.80859375 10.60546875 77.8046875 C10.73566406 78.52914062 10.86585938 79.25359375 11 80 C8.525 80.495 8.525 80.495 6 81 C3 77.25 3 77.25 3 75 C2.40832031 75.14179688 1.81664062 75.28359375 1.20703125 75.4296875 C-1.29727384 75.89541471 -3.4548619 76.17905494 -6 76 C-9.2426131 73.74755547 -10.76308373 70.71074882 -12 67 C-13.2375 67.2475 -14.475 67.495 -15.75 67.75 C-19.65507569 68.24763796 -19.65507569 68.24763796 -22.4375 66.25 C-25.74343004 61.48946074 -25.92809463 56.57554593 -25 51 C-21.29642423 41.07781275 -15.65279299 32.62029241 -9.03808594 24.40380859 C-6.1020239 20.72082002 -4.1893836 17.65722495 -3 13 C-3.66 13 -4.32 13 -5 13 C-5 13.99 -5 14.98 -5 16 C-6.65 16.33 -8.3 16.66 -10 17 C-14.92307692 9.15384615 -14.92307692 9.15384615 -14 5 C-10.08195531 1.08195531 -5.44375283 -0.31107159 0 0 Z " fill="#0B0B0B" transform="translate(171,367)"/>
<path d="M0 0 C3.60003622 1.9102233 5.74840078 4.62260117 8 8 C8.75287187 12.59602013 8.63754167 16.63424645 6 20.5625 C5.34 21.366875 4.68 22.17125 4 23 C4.7425 23.53625 5.485 24.0725 6.25 24.625 C10.53459245 28.32532985 13.0317303 31.7286021 13.75 37.375 C13.8325 38.57125 13.915 39.7675 14 41 C12.125 42.0625 12.125 42.0625 10 43 C9.01 42.505 9.01 42.505 8 42 C7.52757606 40.57984755 7.12025077 39.13764886 6.75 37.6875 C5.63276003 34.1681941 5.11701544 33.10371823 2.25 30.5625 C-8.77066941 25.26410125 -20.31517654 26.1964984 -32 29 C-33.99810662 29.34450114 -35.99722415 29.68377223 -38 30 C-36.31908832 32.06117901 -35.41896254 32.92197903 -32.76342773 33.41650391 C-31.48640991 33.44623291 -31.48640991 33.44623291 -30.18359375 33.4765625 C-28.79043945 33.52296875 -28.79043945 33.52296875 -27.36914062 33.5703125 C-26.40169922 33.58835937 -25.43425781 33.60640625 -24.4375 33.625 C-22.51942729 33.67591102 -20.60144567 33.73042075 -18.68359375 33.7890625 C-17.83337646 33.80662598 -16.98315918 33.82418945 -16.10717773 33.84228516 C-14 34 -14 34 -12 35 C-12.33 36.65 -12.66 38.3 -13 40 C-14.02480469 40.04898438 -15.04960938 40.09796875 -16.10546875 40.1484375 C-17.4661706 40.22351071 -18.82684644 40.29905655 -20.1875 40.375 C-20.86103516 40.4059375 -21.53457031 40.436875 -22.22851562 40.46875 C-26.17246292 40.69961521 -29.52455929 41.05784195 -33 43 C-34.21526985 44.68046157 -34.21526985 44.68046157 -34.8125 46.625 C-35.204375 47.73875 -35.59625 48.8525 -36 50 C-37.32 49.67 -38.64 49.34 -40 49 C-40.25 41.375 -40.25 41.375 -38 38 C-38.78375 37.731875 -39.5675 37.46375 -40.375 37.1875 C-43 36 -43 36 -45 33 C-45.4375 30.5625 -45.4375 30.5625 -45 28 C-39.80919198 22.49459756 -32.19319013 21.74655571 -25.0625 20.375 C-24.37865234 20.2409375 -23.69480469 20.106875 -22.99023438 19.96875 C-21.32734617 19.64314951 -19.66374639 19.32118656 -18 19 C-18.04640625 18.27554688 -18.0928125 17.55109375 -18.140625 16.8046875 C-18.36926794 10.68032295 -18.36687225 6.73077827 -14 2 C-9.56733461 -0.71618645 -5.05325818 -0.79704388 0 0 Z " fill="#0B0B0B" transform="translate(94,232)"/>
<path d="M0 0 C2.84412533 1.42206267 3.13620497 3.22921799 4.375 6.125 C5.86899308 9.53857469 7.38818057 12.80877987 9.3125 16 C11 19 11 19 11 22 C7.49963612 24.0281327 3.99820026 26.05440163 0.49584961 28.07910156 C-0.69030384 28.76513928 -1.8761858 29.45164668 -3.06176758 30.13867188 C-10.65037876 34.53563083 -18.27619245 38.84471888 -26 43 C-26.54269531 42.03578125 -27.08539063 41.0715625 -27.64453125 40.078125 C-28.3670425 38.80200123 -29.08970683 37.52596412 -29.8125 36.25 C-30.16892578 35.61578125 -30.52535156 34.9815625 -30.89257812 34.328125 C-32.41105384 31.65337878 -33.90264338 29.12865753 -35.76171875 26.671875 C-37 25 -37 25 -37 23 C-34.7878418 21.4152832 -34.7878418 21.4152832 -31.69921875 19.55078125 C-30.57580078 18.86693359 -29.45238281 18.18308594 -28.29492188 17.47851562 C-27.09262136 16.75622164 -25.89014649 16.03421779 -24.6875 15.3125 C-22.95134721 14.26208516 -21.21645762 13.20961574 -19.48196411 12.15646362 C-17.76896835 11.11767751 -16.05318917 10.08348594 -14.33740234 9.04931641 C-10.20064183 6.50915783 -6.15185867 3.84499821 -2.12036133 1.14135742 C-1.42064209 0.76470947 -0.72092285 0.38806152 0 0 Z " fill="#FAF8EA" transform="translate(422,146)"/>
<path d="M0 0 C6.20147126 4.27212465 8.00952828 8.71106233 9.625 15.875 C12.46247794 32.12601004 11.42321351 47.98349972 2.3203125 62.28125 C0.8125 63.9375 0.8125 63.9375 -1.875 64.1875 C-2.638125 64.105 -3.40125 64.0225 -4.1875 63.9375 C-4.59892101 60.44042138 -4.32070587 59.13481119 -2.3125 56.16015625 C4.11101103 46.41861839 4.37976243 35.18820483 3.8125 23.9375 C3.214375 24.411875 2.61625 24.88625 2 25.375 C-2.37609327 28.50078091 -7.0008333 28.5591895 -12.1875 27.9375 C-17.31997713 25.51652022 -20.22172681 22.18324307 -22.1875 16.9375 C-23.04641379 10.92510345 -21.52707489 7.76133039 -18.1875 2.9375 C-12.91955183 -1.85154379 -6.54451013 -2.18150338 0 0 Z " fill="#0C0C0B" transform="translate(457.1875,223.0625)"/>
<path d="M0 0 C2.4375 0.375 2.4375 0.375 5 1 C5.33 1.66 5.66 2.32 6 3 C4.85546875 5.03125 4.85546875 5.03125 3.1875 7.5 C-2.91110469 17.4332262 -2.25189981 27.72048612 -2 39 C-0.63875 38.02353516 -0.63875 38.02353516 0.75 37.02734375 C4.85352777 34.46757102 7.33157306 34.23437798 12 35 C17.34740414 36.95385921 20.45618143 39.91236287 23 45 C23.48359421 52.25391314 22.38808115 56.25370668 17.5 61.875 C13.86811403 64.63956992 10.22080974 64.82184409 5.76171875 64.62109375 C0.95802166 63.54077149 -1.93785497 60.73125127 -5 57 C-6.375 54.6875 -6.375 54.6875 -7 52 C-7.16089111 51.3191333 -7.32178223 50.6382666 -7.48754883 49.93676758 C-8.88916948 43.56804519 -9.33529635 37.51063857 -9.3125 31 C-9.32861328 30.07960937 -9.34472656 29.15921875 -9.36132812 28.2109375 C-9.36748307 19.470917 -7.57968743 11.79062489 -2.8125 4.375 C-2.28269531 3.53710938 -1.75289063 2.69921875 -1.20703125 1.8359375 C-0.80871094 1.23007813 -0.41039062 0.62421875 0 0 Z " fill="#090909" transform="translate(427,225)"/>
<path d="M0 0 C1.67542976 0.28604898 3.34385343 0.61781233 5 1 C5.10957031 1.96679688 5.21914062 2.93359375 5.33203125 3.9296875 C6.2616852 11.56343135 7.4275188 18.71130326 10 26 C13.96 25.505 13.96 25.505 18 25 C18.495 26.98 18.495 26.98 19 29 C17.35 30.32 15.7 31.64 14 33 C16.35422239 41.63214876 24.83547827 46.56481988 32 51 C31.67 52.32 31.34 53.64 31 55 C23.34596294 54.11128742 17.88709926 50.23580752 12.80078125 44.53515625 C11.13405844 42.39512474 9.53238739 40.23769152 8 38 C4.27452289 39.21294604 0.63022016 40.52812198 -3 42 C-2.71125 42.88558594 -2.4225 43.77117187 -2.125 44.68359375 C0.86887496 54.67357234 1.45782462 63.60992463 1 74 C0.01 74.33 -0.98 74.66 -2 75 C-3.46484375 73.9765625 -3.46484375 73.9765625 -5 72 C-5.33050749 69.39688793 -5.50771162 66.98328631 -5.5625 64.375 C-5.80086737 58.34994226 -6.43277326 52.85097983 -8 47 C-9.0828125 47.7734375 -9.0828125 47.7734375 -10.1875 48.5625 C-13.4195366 50.21442982 -14.61608307 50.06351675 -18 49 C-17.8125 46.625 -17.8125 46.625 -17 44 C-14.4375 42.6875 -14.4375 42.6875 -12 42 C-16.69594569 34.99165681 -21.76051378 30.00412076 -29.4375 26.375 C-32 25 -32 25 -32.9375 22.875 C-32.958125 22.25625 -32.97875 21.6375 -33 21 C-32.67 20.67 -32.34 20.34 -32 20 C-23.68813908 20.17316377 -17.84299464 25.0056952 -12.125 30.6875 C-11.07849825 31.78708517 -10.0365084 32.89098972 -9 34 C-8.00345023 35.00343836 -7.00450106 36.00452141 -6 37 C-5.16855469 36.45859375 -5.16855469 36.45859375 -4.3203125 35.90625 C-3.59585938 35.4421875 -2.87140625 34.978125 -2.125 34.5 C-1.40570313 34.0359375 -0.68640625 33.571875 0.0546875 33.09375 C2 32 2 32 4 32 C3.72285156 31.0821875 3.44570312 30.164375 3.16015625 29.21875 C0.38629179 19.8211736 -1.73599383 10.89262297 -1 1 C-0.67 0.67 -0.34 0.34 0 0 Z " fill="#0B0B0A" transform="translate(169,66)"/>
<path d="M0 0 C3.80003243 3.29336144 5.39651065 6.45046534 6.09375 11.45703125 C6.30974023 16.16381827 5.46089893 19.55948729 2.8125 23.4375 C0.6875 24.375 0.6875 24.375 -1.1875 24.4375 C-1.5175 24.1075 -1.8475 23.7775 -2.1875 23.4375 C-1.92161285 20.19184303 -1.53613329 16.96761159 -1.1484375 13.734375 C-1.19242167 10.02211077 -2.02181983 8.39170987 -4.1875 5.4375 C-7.39842031 5.70507669 -8.90573495 6.18059657 -11.3125 8.375 C-16.17754448 16.32123931 -17.07502632 25.92766299 -18.3125 35 C-18.48426758 36.2262207 -18.65603516 37.45244141 -18.83300781 38.71582031 C-20.08453568 47.94796475 -20.92147267 57.12654348 -21.1875 66.4375 C-22.8375 66.4375 -24.4875 66.4375 -26.1875 66.4375 C-26.20208252 65.59791748 -26.21666504 64.75833496 -26.23168945 63.89331055 C-26.48559962 44.13227167 -26.48559962 44.13227167 -28.5 24.5 C-28.60546143 23.78223389 -28.71092285 23.06446777 -28.81958008 22.32495117 C-29.84484397 16.45375183 -31.92635065 10.69864935 -36.1875 6.4375 C-39.1875 6.02083333 -39.1875 6.02083333 -42.1875 6.4375 C-44.74444972 10.27292457 -44.22795639 12.09652533 -43.8125 16.625 C-43.70164063 17.89730469 -43.59078125 19.16960937 -43.4765625 20.48046875 C-43.38117188 21.45628906 -43.28578125 22.43210937 -43.1875 23.4375 C-45.0625 24.0625 -45.0625 24.0625 -47.1875 24.4375 C-50.68483954 20.94016046 -51.30384243 16.18787839 -51.5625 11.375 C-51.13447199 6.88070585 -50.05195972 4.87485166 -47.1875 1.4375 C-43.13435541 -1.2645964 -39.9419315 -1.09077017 -35.1875 -0.5625 C-30.56117067 1.28803173 -28.54495813 4.11549343 -26.1875 8.4375 C-25.03452086 11.73383779 -24.06880902 15.05914875 -23.1875 18.4375 C-22.88457031 17.64085938 -22.58164062 16.84421875 -22.26953125 16.0234375 C-17.24597698 3.31770947 -17.24597698 3.31770947 -11.25 -0.9375 C-6.89857805 -2.25611271 -4.09132831 -2.0055531 0 0 Z " fill="#0A0909" transform="translate(280.1875,52.5625)"/>
<path d="M0 0 C6.61634577 4.16109973 11.61624578 10.06753324 14 17.5625 C15.06756508 27.72919539 13.62871021 35.64904632 8.3125 44.3125 C0.37363063 52.03680533 -6.74005549 54.01323672 -17.64453125 53.90234375 C-25.21183286 53.13592321 -31.46207628 49.12679558 -36.52734375 43.55859375 C-42.1368317 35.9552825 -42.98100248 27.79118998 -42 18.5625 C-40.875 14.75 -40.875 14.75 -39 11.5625 C-38.63261719 10.90765625 -38.26523438 10.2528125 -37.88671875 9.578125 C-29.85722663 -3.02272988 -13.12811641 -6.42899528 0 0 Z M-30.8125 10.5 C-35.95062982 16.60226402 -36.50287917 21.1151575 -36.37890625 29.07421875 C-35.68878205 35.42763022 -32.66047551 39.22774406 -28.0625 43.4375 C-21.57486527 47.9391241 -14.7517656 48.70685564 -7 47.5625 C-0.79733088 44.81494731 4.1446022 40.47644134 7.0703125 34.3046875 C9.00144745 28.60865081 9.19704163 21.78372361 7.08984375 16.11328125 C3.53763567 10.11678852 -1.33252875 5.76879151 -8 3.5625 C-17.22381159 2.59487944 -24.36967919 3.4102566 -30.8125 10.5 Z " fill="#0B0A07" transform="translate(270,228.4375)"/>
<path d="M0 0 C3.79022571 2.5842448 6.69936328 5.45045372 8.5625 9.75 C8.624375 10.45125 8.68625 11.1525 8.75 11.875 C8.87375 13.1125 8.9975 14.35 9.125 15.625 C9.03138379 20.64282867 7.10791753 24.20886782 3.75 27.875 C-0.91178636 31.34695804 -5.43413116 32.70583841 -11.25 31.875 C-17.06731237 29.92494049 -20.31068291 27.40091613 -23.25 21.875 C-24.91026461 16.89420617 -24.84903425 12.57226371 -23.125 7.6875 C-17.57125388 -0.64311917 -9.4374745 -3.2668181 0 0 Z " fill="#FAF8EB" transform="translate(347.25,100.125)"/>
<path d="M0 0 C-0.19140625 1.796875 -0.19140625 1.796875 -1 4 C-3.21484375 5.703125 -3.21484375 5.703125 -5.9375 7.25 C-6.83339844 7.77078125 -7.72929688 8.2915625 -8.65234375 8.828125 C-11 10 -11 10 -13 10 C-13 10.66 -13 11.32 -13 12 C-11.8759375 12.12246094 -10.751875 12.24492187 -9.59375 12.37109375 C-4.82185832 12.96758021 -0.18268144 13.98334784 4.5 15.0625 C5.32242188 15.24876953 6.14484375 15.43503906 6.9921875 15.62695312 C8.9955717 16.08120885 10.9979003 16.54011599 13 17 C13.18175781 16.14535156 13.36351562 15.29070312 13.55078125 14.41015625 C13.92783203 12.75306641 13.92783203 12.75306641 14.3125 11.0625 C14.55613281 9.96035156 14.79976562 8.85820312 15.05078125 7.72265625 C15.36402344 6.82417969 15.67726562 5.92570312 16 5 C16.99 4.67 17.98 4.34 19 4 C19.66 4.33 20.32 4.66 21 5 C21.22577402 10.4185766 20.46670113 14.77487721 19 20 C19.56847656 20.03738281 20.13695312 20.07476562 20.72265625 20.11328125 C26.08435193 20.56978622 30.1669508 21.63489082 35 24 C34.505 26.475 34.505 26.475 34 29 C28.18733381 28.21450457 22.63122376 26.59317541 17 25 C16.93941406 25.69867188 16.87882812 26.39734375 16.81640625 27.1171875 C16.73261719 28.02726562 16.64882812 28.93734375 16.5625 29.875 C16.48128906 30.77992188 16.40007812 31.68484375 16.31640625 32.6171875 C16 35 16 35 15 37 C13.68 36.67 12.36 36.34 11 36 C9.48596188 31.15507803 10.63397828 27.7408989 12 23 C10.8759375 22.87753906 9.751875 22.75507813 8.59375 22.62890625 C3.82185832 22.03241979 -0.81731856 21.01665216 -5.5 19.9375 C-6.32242188 19.75123047 -7.14484375 19.56496094 -7.9921875 19.37304688 C-9.9955717 18.91879115 -11.9979003 18.45988401 -14 18 C-13.48308594 18.66386719 -12.96617188 19.32773437 -12.43359375 20.01171875 C-11.77488281 20.89472656 -11.11617187 21.77773438 -10.4375 22.6875 C-9.77621094 23.55761719 -9.11492187 24.42773438 -8.43359375 25.32421875 C-7 28 -7 28 -7.28515625 30.83203125 C-7.52105469 31.54746094 -7.75695312 32.26289063 -8 33 C-10.171875 33 -10.171875 33 -13 32 C-15.09438058 29.5407127 -16.64561516 26.79566461 -18.25 24 C-19.12958687 22.5204637 -20.0097643 21.04127827 -20.890625 19.5625 C-21.27250977 18.90378906 -21.65439453 18.24507813 -22.04785156 17.56640625 C-22.90639755 16.01461995 -22.90639755 16.01461995 -24 15 C-24.4453125 12.6953125 -24.4453125 12.6953125 -24 10 C-21.93938989 8.33072237 -20.16560046 7.13483025 -17.875 5.875 C-16.16957031 4.88113281 -16.16957031 4.88113281 -14.4296875 3.8671875 C-4.59544577 -1.48676187 -4.59544577 -1.48676187 0 0 Z " fill="#0A0A09" transform="translate(90,327)"/>
<path d="M0 0 C1.53333984 -0.00193359 1.53333984 -0.00193359 3.09765625 -0.00390625 C4.16886719 -0.00003906 5.24007812 0.00382812 6.34375 0.0078125 C7.95056641 0.00201172 7.95056641 0.00201172 9.58984375 -0.00390625 C11.12318359 -0.00197266 11.12318359 -0.00197266 12.6875 0 C13.62787109 0.00112793 14.56824219 0.00225586 15.53710938 0.00341797 C17.84375 0.1328125 17.84375 0.1328125 19.84375 1.1328125 C19.20559211 5.72754934 19.20559211 5.72754934 17.28125 7.8828125 C15.0031264 11.44857117 15.4323867 15.01917948 15.84375 19.1328125 C16.35415344 22.04283771 16.35415344 22.04283771 17.84375 24.1328125 C21.72750648 26.46306639 25.39668627 26.60092447 29.84375 26.1328125 C32.92568978 24.5046179 35.10795667 23.10272188 37.21875 20.3203125 C38.14835241 17.06670407 38.19257528 14.50479025 37.84375 11.1328125 C36.51969012 9.12666116 35.18706654 7.12612092 33.84375 5.1328125 C34.22265625 2.453125 34.22265625 2.453125 34.84375 0.1328125 C37.80214355 0.10591801 40.76029427 0.08602509 43.71875 0.0703125 C44.56050781 0.06193359 45.40226562 0.05355469 46.26953125 0.04492188 C47.07519531 0.04169922 47.88085938 0.03847656 48.7109375 0.03515625 C49.82637939 0.02730103 49.82637939 0.02730103 50.96435547 0.01928711 C52.84375 0.1328125 52.84375 0.1328125 54.84375 1.1328125 C54.84375 2.4528125 54.84375 3.7728125 54.84375 5.1328125 C52.31899538 6.39518981 50.53174534 6.23137654 47.71875 6.1953125 C46.80867188 6.18628906 45.89859375 6.17726563 44.9609375 6.16796875 C44.26226562 6.15636719 43.56359375 6.14476562 42.84375 6.1328125 C43.16601562 6.70515625 43.48828125 7.2775 43.8203125 7.8671875 C45.78270018 12.21140451 45.5838902 16.85638129 44.12109375 21.35546875 C41.61561747 26.78231009 38.56979002 29.80149063 33.15625 32.4453125 C27.68102428 33.5816801 22.57820345 33.54845703 17.52734375 30.93359375 C13.3080059 27.97306388 10.36527384 25.17286022 8.84375 20.1328125 C8.13670426 10.54690397 8.13670426 10.54690397 9.84375 7.1328125 C4.56375 6.8028125 -0.71625 6.4728125 -6.15625 6.1328125 C-6.48625 4.4828125 -6.81625 2.8328125 -7.15625 1.1328125 C-4.62178127 -0.13442187 -2.83398046 0.00339922 0 0 Z " fill="#090908" transform="translate(232.15625,436.8671875)"/>
<path d="M0 0 C1.23363281 0.00410889 2.46726563 0.00821777 3.73828125 0.01245117 C4.72574341 0.0131385 4.72574341 0.0131385 5.7331543 0.01383972 C7.12518109 0.01686111 8.51720453 0.02474411 9.90917969 0.03710938 C12.04243928 0.0553486 14.17526438 0.05761916 16.30859375 0.05737305 C26.75568492 0.09537176 26.75568492 0.09537176 29.05078125 1.24291992 C28.21115349 8.35110975 24.80419034 13.53257959 21.23828125 19.61791992 C20.60857422 20.73553711 19.97886719 21.8531543 19.33007812 23.00463867 C18.71583984 24.06038086 18.10160156 25.11612305 17.46875 26.20385742 C16.62993286 27.65477783 16.62993286 27.65477783 15.77416992 29.13500977 C14.92109253 30.17842529 14.92109253 30.17842529 14.05078125 31.24291992 C12.73078125 31.24291992 11.41078125 31.24291992 10.05078125 31.24291992 C8.32739258 29.11914062 8.32739258 29.11914062 6.6328125 26.16870117 C5.71145508 24.57832031 5.71145508 24.57832031 4.77148438 22.95581055 C3.82692383 21.27261719 3.82692383 21.27261719 2.86328125 19.55541992 C2.22197266 18.45262695 1.58066406 17.34983398 0.91992188 16.21362305 C-4.59278202 6.579489 -4.59278202 6.579489 -4.94921875 2.24291992 C-2.94921875 0.24291992 -2.94921875 0.24291992 0 0 Z " fill="#0D0C0C" transform="translate(204.94921875,219.757080078125)"/>
<path d="M0 0 C2.51586914 0.60253906 2.51586914 0.60253906 4.36865234 2.72631836 C4.9289917 3.69996338 5.48933105 4.6736084 6.06665039 5.67675781 C6.98994141 7.26713867 6.98994141 7.26713867 7.93188477 8.88964844 C8.55772461 10.01177734 9.18356445 11.13390625 9.82836914 12.29003906 C10.47354492 13.39283203 11.1187207 14.495625 11.78344727 15.63183594 C17.04089414 24.83932227 17.04089414 24.83932227 16.51586914 29.60253906 C14.63683666 31.48157154 11.42780854 30.73307381 8.92602539 30.73535156 C8.26630234 30.73630829 7.60657928 30.73726501 6.92686462 30.73825073 C5.52887883 30.73893242 4.1308899 30.73707892 2.73291016 30.73291016 C0.59082932 30.72757012 -1.55104103 30.73285106 -3.69311523 30.73925781 C-5.04923549 30.73859686 -6.40535561 30.73731535 -7.76147461 30.73535156 C-9.00147217 30.73422363 -10.24146973 30.7330957 -11.51904297 30.73193359 C-14.48413086 30.60253906 -14.48413086 30.60253906 -16.48413086 29.60253906 C-16.20274818 22.43733002 -12.83666908 17.2231367 -9.23413086 11.16503906 C-8.66049805 10.14732422 -8.08686523 9.12960938 -7.49584961 8.08105469 C-6.92995117 7.12005859 -6.36405273 6.1590625 -5.78100586 5.16894531 C-5.26892578 4.29181885 -4.7568457 3.41469238 -4.22924805 2.51098633 C-2.48413086 0.60253906 -2.48413086 0.60253906 0 0 Z " fill="#0B0A0A" transform="translate(256.484130859375,189.3974609375)"/>
<path d="M0 0 C1.28825684 0.01047363 2.57651367 0.02094727 3.90380859 0.03173828 C4.93167984 0.03598312 4.93167984 0.03598312 5.98031616 0.04031372 C8.17113636 0.05151797 10.36154925 0.07662219 12.55224609 0.10205078 C14.03661519 0.1120803 15.5209907 0.1212062 17.00537109 0.12939453 C20.6461287 0.15145784 24.28664766 0.18598903 27.92724609 0.22705078 C29.11323839 4.67093812 29.11323839 4.67093812 28.29394531 7.12060547 C27.94348145 7.70745117 27.59301758 8.29429687 27.23193359 8.89892578 C26.8477124 9.55957031 26.46349121 10.22021484 26.06762695 10.90087891 C25.65005127 11.58601562 25.23247559 12.27115234 24.80224609 12.97705078 C23.96750058 14.39886115 23.13286454 15.82073579 22.29833984 17.24267578 C21.89083496 17.92523438 21.48333008 18.60779297 21.06347656 19.31103516 C19.61364775 21.75586896 18.23326354 24.23595235 16.86474609 26.72705078 C16.29046875 27.76345703 16.29046875 27.76345703 15.70458984 28.82080078 C15.44806641 29.28486328 15.19154297 29.74892578 14.92724609 30.22705078 C12.64697266 30.53051758 12.64697266 30.53051758 9.92724609 30.22705078 C8.09033203 28.19506836 8.09033203 28.19506836 6.41162109 25.37158203 C5.80060547 24.35644531 5.18958984 23.34130859 4.56005859 22.29541016 C3.93873047 21.22097656 3.31740234 20.14654297 2.67724609 19.03955078 C2.04044922 17.98445313 1.40365234 16.92935547 0.74755859 15.84228516 C-4.70763969 6.6438923 -4.70763969 6.6438923 -5.07275391 2.22705078 C-3.07275391 0.22705078 -3.07275391 0.22705078 0 0 Z " fill="#0A0909" transform="translate(283.07275390625,218.77294921875)"/>
<path d="M0 0 C1.89331055 0.05175781 1.89331055 0.05175781 4 1 C7.00174688 4.63622055 9.34091669 8.73976906 11.8125 12.75 C12.51826172 13.84828125 13.22402344 14.9465625 13.95117188 16.078125 C14.61310547 17.1403125 15.27503906 18.2025 15.95703125 19.296875 C16.86932495 20.75625488 16.86932495 20.75625488 17.80004883 22.24511719 C19.16799941 25.38569794 19.03362765 26.78979456 18 30 C9.88025751 30.59751062 1.76845192 31.10727883 -6.375 31.1875 C-7.59960938 31.20167969 -8.82421875 31.21585937 -10.0859375 31.23046875 C-13 31 -13 31 -15 29 C-14.64585941 25.11023879 -13.21036829 22.16154318 -11.34765625 18.76953125 C-10.81849609 17.80208984 -10.28933594 16.83464844 -9.74414062 15.83789062 C-9.18919922 14.83951172 -8.63425781 13.84113281 -8.0625 12.8125 C-7.51142578 11.80251953 -6.96035156 10.79253906 -6.39257812 9.75195312 C-2.27834356 2.27834356 -2.27834356 2.27834356 0 0 Z " fill="#0A0908" transform="translate(216,258)"/>
<path d="M0 0 C0.65972305 -0.00095673 1.31944611 -0.00191345 1.99916077 -0.00289917 C3.39714656 -0.00358086 4.79513549 -0.00172736 6.19311523 0.00244141 C8.33519607 0.00778144 10.47706642 0.00250051 12.61914062 -0.00390625 C13.97526088 -0.0032453 15.33138101 -0.00196379 16.6875 0 C17.92749756 0.00112793 19.16749512 0.00225586 20.44506836 0.00341797 C23.41015625 0.1328125 23.41015625 0.1328125 25.41015625 1.1328125 C25.97844542 7.87768981 22.01304111 12.82108823 18.72265625 18.4453125 C18.09681641 19.56744141 17.47097656 20.68957031 16.82617188 21.84570312 C16.21064453 22.90595703 15.59511719 23.96621094 14.9609375 25.05859375 C14.40059814 26.03223877 13.84025879 27.00588379 13.26293945 28.0090332 C11.41015625 30.1328125 11.41015625 30.1328125 8.91015625 30.76708984 C6.41015625 30.1328125 6.41015625 30.1328125 4.55737305 28.0090332 C3.99703369 27.03538818 3.43669434 26.06174316 2.859375 25.05859375 C1.93608398 23.46821289 1.93608398 23.46821289 0.99414062 21.84570312 C0.05538086 20.16250977 0.05538086 20.16250977 -0.90234375 18.4453125 C-1.54751953 17.34251953 -2.19269531 16.23972656 -2.85742188 15.10351562 C-8.11486875 5.89602929 -8.11486875 5.89602929 -7.58984375 1.1328125 C-5.71081127 -0.74621998 -2.50178315 0.00227775 0 0 Z " fill="#0A0908" transform="translate(247.58984375,287.8671875)"/>
<path d="M0 0 C1.82421875 0.07421875 1.82421875 0.07421875 4 1 C5.89453125 3.51953125 5.89453125 3.51953125 7.8125 6.8125 C8.32091431 7.67959595 8.32091431 7.67959595 8.83959961 8.56420898 C9.54550796 9.76991029 10.24670295 10.97838249 10.94335938 12.18945312 C11.96640124 13.94242875 13.03722662 15.66724575 14.109375 17.390625 C14.75390625 18.43734375 15.3984375 19.4840625 16.0625 20.5625 C16.65160156 21.51253906 17.24070312 22.46257812 17.84765625 23.44140625 C19 26 19 26 18 30 C7.44 30 -3.12 30 -14 30 C-15.1152264 24.42386802 -14.83480588 23.891428 -12.0703125 19.296875 C-11.43996094 18.2346875 -10.80960937 17.1725 -10.16015625 16.078125 C-9.48855469 14.97984375 -8.81695312 13.8815625 -8.125 12.75 C-7.12919922 11.079375 -7.12919922 11.079375 -6.11328125 9.375 C-1.24548822 1.24548822 -1.24548822 1.24548822 0 0 Z " fill="#0E0A09" transform="translate(294,257)"/>
<path d="M0 0 C1.79244141 0.01740234 1.79244141 0.01740234 3.62109375 0.03515625 C5.41740234 0.04869141 5.41740234 0.04869141 7.25 0.0625 C8.17683594 0.07410156 9.10367188 0.08570312 10.05859375 0.09765625 C10.44078142 1.75380282 10.77254477 3.42222649 11.05859375 5.09765625 C10.05859375 6.09765625 10.05859375 6.09765625 8.2109375 6.1953125 C6.16015625 6.16276042 4.109375 6.13020833 2.05859375 6.09765625 C2.08179687 7.22945312 2.105 8.36125 2.12890625 9.52734375 C2.14766276 11.009108 2.16586309 12.49087937 2.18359375 13.97265625 C2.20035156 14.71902344 2.21710938 15.46539062 2.234375 16.234375 C2.25198965 18.18960086 2.16179564 20.14507646 2.05859375 22.09765625 C0.05859375 24.09765625 0.05859375 24.09765625 -2.10546875 24.29296875 C-2.91757813 24.26976562 -3.7296875 24.2465625 -4.56640625 24.22265625 C-5.38367188 24.20460937 -6.2009375 24.1865625 -7.04296875 24.16796875 C-7.66945313 24.14476562 -8.2959375 24.1215625 -8.94140625 24.09765625 C-8.92980469 25.22945312 -8.91820313 26.36125 -8.90625 27.52734375 C-8.89687171 29.00911294 -8.88777155 30.4908839 -8.87890625 31.97265625 C-8.87052734 32.71902344 -8.86214844 33.46539062 -8.85351562 34.234375 C-8.828125 39.87109375 -8.828125 39.87109375 -9.94140625 42.09765625 C-13.90140625 42.09765625 -17.86140625 42.09765625 -21.94140625 42.09765625 C-21.92980469 43.37382812 -21.91820313 44.65 -21.90625 45.96484375 C-21.89687208 47.63411312 -21.88777188 49.30338408 -21.87890625 50.97265625 C-21.87052734 51.81441406 -21.86214844 52.65617187 -21.85351562 53.5234375 C-21.85029297 54.32910156 -21.84707031 55.13476562 -21.84375 55.96484375 C-21.83851318 56.70847168 -21.83327637 57.45209961 -21.82788086 58.21826172 C-21.94140625 60.09765625 -21.94140625 60.09765625 -22.94140625 62.09765625 C-24.26140625 62.09765625 -25.58140625 62.09765625 -26.94140625 62.09765625 C-28.88486599 58.21073677 -28.12621428 53.37251044 -28.12890625 49.09765625 C-28.14115234 48.07414062 -28.15339844 47.050625 -28.16601562 45.99609375 C-28.16794922 45.01898438 -28.16988281 44.041875 -28.171875 43.03515625 C-28.17598389 42.13667969 -28.18009277 41.23820312 -28.18432617 40.3125 C-27.94140625 38.09765625 -27.94140625 38.09765625 -25.94140625 36.09765625 C-23.33984375 35.90234375 -23.33984375 35.90234375 -20.31640625 35.97265625 C-19.31351563 35.99070313 -18.310625 36.00875 -17.27734375 36.02734375 C-16.12105469 36.06214844 -16.12105469 36.06214844 -14.94140625 36.09765625 C-14.96460937 34.96585938 -14.9878125 33.8340625 -15.01171875 32.66796875 C-15.03047526 31.1862045 -15.04867559 29.70443313 -15.06640625 28.22265625 C-15.08316406 27.47628906 -15.09992188 26.72992188 -15.1171875 25.9609375 C-15.13480215 24.00571164 -15.04460814 22.05023604 -14.94140625 20.09765625 C-12.94140625 18.09765625 -12.94140625 18.09765625 -10.77734375 17.90234375 C-9.96523437 17.92554688 -9.153125 17.94875 -8.31640625 17.97265625 C-7.09050781 17.99972656 -7.09050781 17.99972656 -5.83984375 18.02734375 C-4.90011719 18.06214844 -4.90011719 18.06214844 -3.94140625 18.09765625 C-3.95300781 16.88207031 -3.96460937 15.66648438 -3.9765625 14.4140625 C-3.98593903 12.82942861 -3.99503938 11.24479307 -4.00390625 9.66015625 C-4.01228516 8.85771484 -4.02066406 8.05527344 -4.02929688 7.22851562 C-4.03792055 5.18470404 -3.99368775 3.14081723 -3.94140625 1.09765625 C-2.94140625 0.09765625 -2.94140625 0.09765625 0 0 Z " fill="#080707" transform="translate(96.94140625,127.90234375)"/>
<path d="M0 0 C2.75 -0.328125 2.75 -0.328125 6 -0.25 C7.0725 -0.23453125 8.145 -0.2190625 9.25 -0.203125 C12 0 12 0 14 1 C13.125 4.875 13.125 4.875 12 6 C9.32941149 6.14115161 6.67567762 6.04247107 4 6 C4.01160156 7.21558594 4.02320312 8.43117187 4.03515625 9.68359375 C4.04453278 11.26822764 4.05363313 12.85286318 4.0625 14.4375 C4.07087891 15.23994141 4.07925781 16.04238281 4.08789062 16.86914062 C4.0965143 18.91295221 4.0522815 20.95683902 4 23 C3 24 3 24 0.71484375 24.09765625 C-1.85677083 24.06510417 -4.42838542 24.03255208 -7 24 C-7 29.94 -7 35.88 -7 42 C-10.96 42 -14.92 42 -19 42 C-18.98839844 43.27617187 -18.97679688 44.55234375 -18.96484375 45.8671875 C-18.95546583 47.53645687 -18.94636563 49.20572783 -18.9375 50.875 C-18.92912109 51.71675781 -18.92074219 52.55851562 -18.91210938 53.42578125 C-18.90888672 54.23144531 -18.90566406 55.03710938 -18.90234375 55.8671875 C-18.89710693 56.61081543 -18.89187012 57.35444336 -18.88647461 58.12060547 C-19 60 -19 60 -20 62 C-21.32 62 -22.64 62 -24 62 C-25.27861615 59.44276771 -25.11336609 57.63262898 -25.09765625 54.7734375 C-25.09443359 53.7421875 -25.09121094 52.7109375 -25.08789062 51.6484375 C-25.07951172 50.56820312 -25.07113281 49.48796875 -25.0625 48.375 C-25.05798828 47.28703125 -25.05347656 46.1990625 -25.04882812 45.078125 C-25.03701776 42.38536211 -25.02054778 39.69270812 -25 37 C-21.14854957 35.07427479 -16.19956748 35.95116782 -12 36 C-12 30.39 -12 24.78 -12 19 C-8.78548731 17.39274365 -5.56387464 17.94251815 -2 18 C-2.02320312 16.95199219 -2.04640625 15.90398437 -2.0703125 14.82421875 C-2.08907303 13.44531963 -2.10727293 12.0664128 -2.125 10.6875 C-2.14175781 9.99720703 -2.15851563 9.30691406 -2.17578125 8.59570312 C-2.21217794 4.82864604 -2.14378864 3.21568296 0 0 Z " fill="#080707" transform="translate(115,138)"/>
<path d="M0 0 C7.52771157 -0.02314652 15.05541947 -0.04092691 22.58315849 -0.05181217 C26.07840098 -0.05703593 29.57361916 -0.06412441 33.06884766 -0.07543945 C37.08496334 -0.08835974 41.1010534 -0.0932324 45.1171875 -0.09765625 C47.00472244 -0.10539818 47.00472244 -0.10539818 48.9303894 -0.11329651 C50.09144196 -0.11337204 51.25249451 -0.11344757 52.44873047 -0.11352539 C53.47465302 -0.115746 54.50057556 -0.11796661 55.55758667 -0.12025452 C58 0 58 0 60 1 C60 2.32 60 3.64 60 5 C57.39503827 6.30248086 55.48923447 6.12707873 52.57226562 6.12939453 C51.43768921 6.13254669 50.30311279 6.13569885 49.13415527 6.13894653 C47.28884216 6.13591019 47.28884216 6.13591019 45.40625 6.1328125 C44.14864868 6.13376923 42.89104736 6.13472595 41.59533691 6.13571167 C38.93217553 6.13639322 36.26910542 6.13503992 33.60595703 6.13037109 C30.18936749 6.1246739 26.7728565 6.12795387 23.35626984 6.13394356 C20.10209372 6.13842226 16.84792714 6.13528813 13.59375 6.1328125 C12.36354126 6.13483673 11.13333252 6.13686096 9.86584473 6.13894653 C8.1639801 6.13421829 8.1639801 6.13421829 6.42773438 6.12939453 C5.42560913 6.12859894 4.42348389 6.12780334 3.39099121 6.12698364 C1 6 1 6 -1 5 C-0.67 3.35 -0.34 1.7 0 0 Z " fill="#0B0B0A" transform="translate(227,418)"/>
<path d="M0 0 C2.9375 1.5 2.9375 1.5 5 4 C5.80552191 7.74375897 5.42891429 10.88482286 4.0625 14.4375 C0.69169697 16.99113866 -2.8352061 17.40845614 -7 17 C-10.11892983 15.0267995 -11.60038493 13.67111758 -12.47265625 10.0234375 C-12.74309954 6.32044482 -12.29617682 4.35900221 -9.9375 1.5 C-6.25211716 -0.38189762 -4.09153627 -0.58450518 0 0 Z " fill="#F9F7E9" transform="translate(418,318)"/>
<path d="M0 0 C3.5 0.625 3.5 0.625 6.5 2.5625 C8.95462138 6.32113899 8.9227991 8.28145672 8.1328125 12.59765625 C7.5 14.625 7.5 14.625 5.9375 16.6875 C2.38482286 18.05391429 -0.75624103 18.43052191 -4.5 17.625 C-7.74985922 14.94386615 -8.39575014 13.27366582 -9.0625 9.125 C-8.5 5.625 -8.5 5.625 -6.4375 2.6875 C-3.5 0.625 -3.5 0.625 0 0 Z " fill="#F8F7E9" transform="translate(435.5,265.375)"/>
<path d="M0 0 C2.67752485 1.6477076 3.63064823 2.90790435 4.6328125 5.87109375 C5.46560996 9.87609244 5.33847083 11.47591613 3.0625 15 C-1.14162886 17.74555354 -3.04041408 17.70851227 -8 17 C-10.5 15.5625 -10.5 15.5625 -12 13 C-12.76004105 8.68518361 -12.73570183 5.25682396 -10.5 1.4375 C-6.95489969 -0.60093268 -3.99226514 -0.78697629 0 0 Z " fill="#F9F7E9" transform="translate(454,228)"/>
<path d="M0 0 C2.4375 1.625 2.4375 1.625 4 4 C4.48288863 7.31123632 4.29618989 9.296549 3 12.375 C0.2897489 14.57707902 -1.70878117 14.51582761 -5.125 14.30859375 C-7 14 -7 14 -9 13 C-10.62932095 9.7413581 -10.52673518 6.56102656 -10 3 C-7.83165681 -1.08158719 -4.19361486 -0.51500533 0 0 Z " fill="#F7F5E8" transform="translate(92,238)"/>
<path d="M0 0 C3.78179416 3.50746712 6.36148123 6.90391627 8.8125 11.4375 C9.71935547 13.07525391 9.71935547 13.07525391 10.64453125 14.74609375 C12.05284532 18.12685922 12.27837069 20.38118109 12 24 C10.35 24.33 8.7 24.66 7 25 C-0.10785047 17.33100344 -0.30023026 10.15779055 0 0 Z " fill="#F4F2E5" transform="translate(325,405)"/>
<path d="M0 0 C5.94 0 11.88 0 18 0 C12.25 11.625 12.25 11.625 10 15 C9.34 15 8.68 15 8 15 C6.52690889 12.89980986 5.18690365 10.82232271 3.875 8.625 C3.50246094 8.02171875 3.12992188 7.4184375 2.74609375 6.796875 C0 2.27034684 0 2.27034684 0 0 Z " fill="#EB6952" transform="translate(208,226)"/>
<path d="M0 0 C2.57162373 3.21452967 4.96788004 6.2931347 7.25 9.6875 C7.77078125 10.45449219 8.2915625 11.22148437 8.828125 12.01171875 C10 14 10 14 10 16 C4.06 16 -1.88 16 -8 16 C-5.36 10.72 -2.72 5.44 0 0 Z " fill="#ED6A53" transform="translate(217,267)"/>
<path d="M0 0 C5.94 0 11.88 0 18 0 C15.36 5.28 12.72 10.56 10 16 C7.06601873 13.06601873 5.36776206 10.45124216 3.3125 6.875 C2.37857422 5.26238281 2.37857422 5.26238281 1.42578125 3.6171875 C0 1 0 1 0 0 Z " fill="#F36D55" transform="translate(286,225)"/>
<path d="M0 0 C3.50297874 4.02193856 9 10.39433144 9 16 C3.39 16 -2.22 16 -8 16 C-6.46392719 12.15981797 -4.86686467 8.78151668 -2.875 5.1875 C-2.33617187 4.21167969 -1.79734375 3.23585937 -1.2421875 2.23046875 C-0.83226562 1.49441406 -0.42234375 0.75835937 0 0 Z " fill="#F06B53" transform="translate(256,198)"/>
<path d="M0 0 C5.61 0 11.22 0 17 0 C15.46392719 3.84018203 13.86686467 7.21848332 11.875 10.8125 C11.06675781 12.27623047 11.06675781 12.27623047 10.2421875 13.76953125 C9.62730469 14.87361328 9.62730469 14.87361328 9 16 C6.72861652 13.06698229 4.73130058 10.04931207 2.8125 6.875 C2.28269531 6.00617188 1.75289062 5.13734375 1.20703125 4.2421875 C0 2 0 2 0 0 Z " fill="#F76E56" transform="translate(248,294)"/>
<path d="M0 0 C4.0081803 3.67416528 6.52591615 7.14346504 9 12 C9 12.66 9 13.32 9 14 C3.72 14 -1.56 14 -7 14 C-5.58022512 9.74067537 -4.6974968 7.16986354 -2.375 3.625 C-1.70597656 2.59246094 -1.70597656 2.59246094 -1.0234375 1.5390625 C-0.68570312 1.03117187 -0.34796875 0.52328125 0 0 Z " fill="#F76E56" transform="translate(295,267)"/>
<path d="M0 0 C1.65 0 3.3 0 5 0 C5.95576819 3.10764393 6.16960483 4.5830805 4.92578125 7.640625 C4.39339844 8.50171875 3.86101562 9.3628125 3.3125 10.25 C2.79300781 11.12140625 2.27351563 11.9928125 1.73828125 12.890625 C0 15 0 15 -2.08203125 15.921875 C-3.03142578 15.96054687 -3.03142578 15.96054687 -4 16 C-4.66 15.34 -5.32 14.68 -6 14 C-5.65082368 10.22254703 -4.32850651 7.4361522 -2.4375 4.1875 C-1.98246094 3.39730469 -1.52742188 2.60710937 -1.05859375 1.79296875 C-0.53458984 0.90544922 -0.53458984 0.90544922 0 0 Z " fill="#000000" transform="translate(480,366)"/>
<path d="M0 0 C2.0625 0.4375 2.0625 0.4375 4 1 C4.68359375 2.640625 4.68359375 2.640625 5 5 C3.78515625 7.796875 3.78515625 7.796875 2.0625 10.75 C1.49660156 11.73484375 0.93070313 12.7196875 0.34765625 13.734375 C-0.09707031 14.48203125 -0.54179688 15.2296875 -1 16 C-2.65 16 -4.3 16 -6 16 C-6.99009729 12.83624085 -7.19531687 11.43719935 -5.8203125 8.359375 C-5.26085937 7.49828125 -4.70140625 6.6371875 -4.125 5.75 C-3.57070313 4.87859375 -3.01640625 4.0071875 -2.4453125 3.109375 C-1 1 -1 1 0 0 Z " fill="#000000" transform="translate(33,130)"/>
<path d="M0 0 C2.37890625 0.10546875 2.37890625 0.10546875 5 1 C6.65234375 3.36328125 6.65234375 3.36328125 7.9375 6.3125 C8.37964844 7.27800781 8.82179688 8.24351562 9.27734375 9.23828125 C10 12 10 12 9.12890625 14.35546875 C8.57009766 15.16951172 8.57009766 15.16951172 8 16 C5.6796875 15.80078125 5.6796875 15.80078125 3 15 C1.3828125 12.85546875 1.3828125 12.85546875 0.125 10.1875 C-0.30554688 9.31480469 -0.73609375 8.44210938 -1.1796875 7.54296875 C-2.06358965 4.80287208 -2.05498323 3.63745809 -1 1 C-0.67 0.67 -0.34 0.34 0 0 Z " fill="#000000" transform="translate(480,138)"/>
<path d="M0 0 C2.125 0.375 2.125 0.375 4 1 C5.06074867 4.93184173 4.88362449 7.39329742 3.625 11.25 C3.34914063 12.12140625 3.07328125 12.9928125 2.7890625 13.890625 C2 16 2 16 1 17 C-0.66617115 17.04063832 -2.33388095 17.042721 -4 17 C-5.2707866 13.40085943 -4.71850422 11.00061673 -3.6875 7.375 C-3.42324219 6.41335938 -3.15898437 5.45171875 -2.88671875 4.4609375 C-2 2 -2 2 0 0 Z " fill="#000000" transform="translate(501,310)"/>
<path d="M0 0 C0.73734375 0.22816406 1.4746875 0.45632813 2.234375 0.69140625 C2.62469626 4.01204983 2.55043221 5.29065397 0.44140625 7.96484375 C-0.74388672 9.00511719 -0.74388672 9.00511719 -1.953125 10.06640625 C-2.73042969 10.77539062 -3.50773437 11.484375 -4.30859375 12.21484375 C-6.765625 13.69140625 -6.765625 13.69140625 -9.56640625 13.41796875 C-10.29214844 13.17820312 -11.01789063 12.9384375 -11.765625 12.69140625 C-11.765625 9.34915881 -11.25686295 7.27675988 -9.09375 4.69921875 C-3.63983308 -0.40613957 -3.63983308 -0.40613957 0 0 Z " fill="#000000" transform="translate(430.765625,436.30859375)"/>
<path d="M0 0 C5.15030167 1.40462773 8.91335027 4.73181372 12 9 C11.9375 11.9375 11.9375 11.9375 11 14 C7.82267207 14.32888131 6.39489771 14.27344292 3.7265625 12.42578125 C3.03304687 11.72839844 2.33953125 11.03101563 1.625 10.3125 C0.91601562 9.62800781 0.20703125 8.94351562 -0.5234375 8.23828125 C-2 6 -2 6 -1.7890625 3.29296875 C-1 1 -1 1 0 0 Z " fill="#000000" transform="translate(74,429)"/>
<path d="M0 0 C2.475 0.99 2.475 0.99 5 2 C4.48118887 6.1724106 3.28848726 8.25416821 0.4375 11.3125 C-0.20316406 12.00988281 -0.84382813 12.70726563 -1.50390625 13.42578125 C-1.99761719 13.94527344 -2.49132812 14.46476562 -3 15 C-4.65 14.67 -6.3 14.34 -8 14 C-8.37992882 10.65781368 -8.23536171 9.33045204 -6.25 6.54296875 C-5.5075 5.76566406 -4.765 4.98835938 -4 4.1875 C-3.2575 3.39730469 -2.515 2.60710937 -1.75 1.79296875 C-1.1725 1.20128906 -0.595 0.60960938 0 0 Z " fill="#000000" transform="translate(67,82)"/>
<path d="M0 0 C4.29475923 0.50482258 6.33731829 1.76917204 9.375 4.8125 C10.08398438 5.49957031 10.79296875 6.18664062 11.5234375 6.89453125 C13 9 13 9 12.7265625 11.26171875 C12.36691406 12.12216797 12.36691406 12.12216797 12 13 C10.25 13.6875 10.25 13.6875 8 14 C5.75 12.6875 5.75 12.6875 4 11 C4 10.34 4 9.68 4 9 C3.38125 8.7525 2.7625 8.505 2.125 8.25 C-0.35068687 6.79371361 -0.95125002 5.62187494 -2 3 C-1.34 2.01 -0.68 1.02 0 0 Z " fill="#000000" transform="translate(427,68)"/>
<path d="M0 0 C0.625 2.375 0.625 2.375 1 5 C-1.85793316 7.85793316 -4.14665584 7.40799941 -8.125 7.625 C-9.40632813 7.69976562 -10.68765625 7.77453125 -12.0078125 7.8515625 C-12.99523437 7.90054687 -13.98265625 7.94953125 -15 8 C-15.625 6.1875 -15.625 6.1875 -16 4 C-14 1 -14 1 -11.375 0.3125 C-7.54729875 -0.04191678 -3.84289464 -0.0662568 0 0 Z " fill="#000000" transform="translate(303,502)"/>
<path d="M0 0 C1.98928833 0.87312655 3.96626817 1.77433893 5.9375 2.6875 C7.03964844 3.18636719 8.14179688 3.68523437 9.27734375 4.19921875 C12 6 12 6 12.87890625 8.70703125 C12.91886719 9.46371094 12.95882812 10.22039062 13 11 C11.35546875 12.1640625 11.35546875 12.1640625 9 13 C6.23828125 12.0234375 6.23828125 12.0234375 3.3125 10.375 C1.85263672 9.58222656 1.85263672 9.58222656 0.36328125 8.7734375 C-2 7 -2 7 -3.01953125 4.9765625 C-3 3 -3 3 -1.5625 1.25 C-1.046875 0.8375 -0.53125 0.425 0 0 Z " fill="#000000" transform="translate(120,466)"/>
<path d="M0 0 C0.67756882 1.55780332 1.34159457 3.12150096 2 4.6875 C2.37125 5.55761719 2.7425 6.42773438 3.125 7.32421875 C4.01870488 10.0572002 4.16449676 12.14700934 4 15 C2.02 15.99 2.02 15.99 0 17 C-2.58110119 14.73701772 -3.64929044 12.81995115 -4.6875 9.5625 C-5.06455078 8.41974609 -5.06455078 8.41974609 -5.44921875 7.25390625 C-6 5 -6 5 -6 1 C-4 0 -4 0 0 0 Z " fill="#000000" transform="translate(496,165)"/>
<path d="M0 0 C1.66611905 -0.042721 3.33382885 -0.04063832 5 0 C5.33 0.33 5.66 0.66 6 1 C5.64672484 6.77016096 3.7996192 10.98672841 1 16 C-0.65 15.67 -2.3 15.34 -4 15 C-4.59720137 9.17728663 -2.528243 5.0790596 0 0 Z " fill="#000000" transform="translate(19,157)"/>
<path d="M0 0 C0.495 0.391875 0.99 0.78375 1.5 1.1875 C1.5625 3.4375 1.5625 3.4375 0.5 6.1875 C-3.74856054 8.92935453 -8.38280712 10.84778295 -13.5 10.1875 C-13.83 8.5375 -14.16 6.8875 -14.5 5.1875 C-10.65523569 1.82333123 -5.12871116 -1.66683113 0 0 Z " fill="#000000" transform="translate(166.5,16.8125)"/>
<path d="M0 0 C5.77378925 0.4811491 9.95859836 2.18467181 15 5 C15 6.65 15 8.3 15 10 C11.72520421 11.04769518 10.32916541 11.13815174 7.10546875 9.78515625 C6.14253906 9.21667969 5.17960938 8.64820313 4.1875 8.0625 C3.21167969 7.49660156 2.23585937 6.93070312 1.23046875 6.34765625 C0.49441406 5.90292969 -0.24164063 5.45820313 -1 5 C-0.67 3.35 -0.34 1.7 0 0 Z " fill="#000000" transform="translate(144,481)"/>
<path d="M0 0 C0.86044922 0.42152344 0.86044922 0.42152344 1.73828125 0.8515625 C2.06828125 1.8415625 2.39828125 2.8315625 2.73828125 3.8515625 C-0.62402719 7.51054521 -3.57533306 10.09416787 -8.26171875 11.8515625 C-11.13671875 11.5390625 -11.13671875 11.5390625 -13.26171875 10.8515625 C-12.97360347 7.54106147 -12.68882372 6.21720792 -10.1171875 4.015625 C-9.23675781 3.50773437 -8.35632813 2.99984375 -7.44921875 2.4765625 C-6.57652344 1.95320313 -5.70382812 1.42984375 -4.8046875 0.890625 C-2.26171875 -0.1484375 -2.26171875 -0.1484375 0 0 Z " fill="#000000" transform="translate(384.26171875,471.1484375)"/>
<path d="M0 0 C0.84498047 0.34417969 0.84498047 0.34417969 1.70703125 0.6953125 C2.03703125 2.0153125 2.36703125 3.3353125 2.70703125 4.6953125 C1.60467189 5.65572421 0.50006501 6.61355657 -0.60546875 7.5703125 C-1.22035156 8.10398437 -1.83523438 8.63765625 -2.46875 9.1875 C-4.29296875 10.6953125 -4.29296875 10.6953125 -7.29296875 12.6953125 C-9.98046875 12.3203125 -9.98046875 12.3203125 -12.29296875 11.6953125 C-11.96829096 8.51457073 -11.58445025 7.00630493 -9.3671875 4.640625 C-8.57957031 4.03992188 -7.79195313 3.43921875 -6.98046875 2.8203125 C-5.81064453 1.89605469 -5.81064453 1.89605469 -4.6171875 0.953125 C-2.29296875 -0.3046875 -2.29296875 -0.3046875 0 0 Z " fill="#000000" transform="translate(408.29296875,455.3046875)"/>
<path d="M0 0 C4.1724106 0.51881113 6.25416821 1.71151274 9.3125 4.5625 C10.00988281 5.20316406 10.70726563 5.84382813 11.42578125 6.50390625 C11.94527344 6.99761719 12.46476562 7.49132812 13 8 C12.67 9.65 12.34 11.3 12 13 C8.65781368 13.37992882 7.33045204 13.23536171 4.54296875 11.25 C3.76566406 10.5075 2.98835938 9.765 2.1875 9 C1.39730469 8.2575 0.60710937 7.515 -0.20703125 6.75 C-0.79871094 6.1725 -1.39039062 5.595 -2 5 C-1.34 3.35 -0.68 1.7 0 0 Z " fill="#000000" transform="translate(95,449)"/>
<path d="M0 0 C0.556875 0.226875 1.11375 0.45375 1.6875 0.6875 C2.0175 2.0075 2.3475 3.3275 2.6875 4.6875 C1.58514064 5.64791171 0.48053376 6.60574407 -0.625 7.5625 C-1.23988281 8.09617187 -1.85476562 8.62984375 -2.48828125 9.1796875 C-4.3125 10.6875 -4.3125 10.6875 -7.3125 12.6875 C-9.5 12.3125 -9.5 12.3125 -11.3125 11.6875 C-12.125 10 -12.125 10 -12.3125 7.6875 C-9.23857925 3.98071321 -5.17599416 -0.69945867 0 0 Z " fill="#000000" transform="translate(113.3125,44.3125)"/>
<path d="M0 0 C5.54590313 0.35740265 10.26783315 0.80578737 15 4 C15.875 6.1875 15.875 6.1875 16 8 C13.02022797 9.53338634 11.48159369 10.09079225 8.140625 9.4609375 C7.18671875 9.10257813 6.2328125 8.74421875 5.25 8.375 C4.28578125 8.03210937 3.3215625 7.68921875 2.328125 7.3359375 C0 6 0 6 -0.890625 3.9765625 C-1 2 -1 2 0 0 Z " fill="#000000" transform="translate(325,10)"/>
<path d="M0 0 C0.33 1.65 0.66 3.3 1 5 C-4.00577428 8.14648669 -7.98122677 10.3439299 -14 10 C-14.33 8.35 -14.66 6.7 -15 5 C-13.44424022 4.15415002 -11.8800388 3.32381601 -10.3125 2.5 C-9.44238281 2.0359375 -8.57226562 1.571875 -7.67578125 1.09375 C-4.88211171 -0.04818792 -2.98370887 -0.21504208 0 0 Z " fill="#000000" transform="translate(359,485)"/>
<path d="M0 0 C2.2890625 -0.26171875 2.2890625 -0.26171875 5 0 C6.8359375 1.79296875 6.8359375 1.79296875 8.375 4.1875 C8.89835937 4.96480469 9.42171875 5.74210937 9.9609375 6.54296875 C11.20816766 9.49224608 10.91116352 10.98244082 10 14 C9.01 14.33 8.02 14.66 7 15 C3.74462981 11.92059576 0.85380546 9.1195677 -1 5 C-0.6875 2.1875 -0.6875 2.1875 0 0 Z " fill="#000000" transform="translate(37,384)"/>
<path d="M0 0 C1.65 0 3.3 0 5 0 C4.64465177 5.51402424 4.25908621 10.34416256 1 15 C-1.625 15.9375 -1.625 15.9375 -4 16 C-4.33 15.67 -4.66 15.34 -5 15 C-4.64672484 9.22983904 -2.7996192 5.01327159 0 0 Z " fill="#000000" transform="translate(492,339)"/>
<path d="M0 0 C0.6875 1.8125 0.6875 1.8125 1 4 C-1.20400066 7.306001 -5.41959399 9.42524812 -9 11 C-11.9375 11.25 -11.9375 11.25 -14 11 C-14.33 9.35 -14.66 7.7 -15 6 C-13.70903219 5.18639005 -12.41720125 4.37414954 -11.125 3.5625 C-10.04605469 2.88380859 -10.04605469 2.88380859 -8.9453125 2.19140625 C-5.70200825 0.20504521 -3.80131767 -0.10003468 0 0 Z " fill="#000000" transform="translate(141,29)"/>
<path d="M0 0 C0.79664063 0.55300781 0.79664063 0.55300781 1.609375 1.1171875 C1.279375 2.7671875 0.949375 4.4171875 0.609375 6.1171875 C-9.06450187 9.65795289 -9.06450187 9.65795289 -13.390625 9.1171875 C-14.390625 8.1171875 -14.390625 8.1171875 -14.453125 5.5546875 C-14.4325 4.7503125 -14.411875 3.9459375 -14.390625 3.1171875 C-12.48083867 2.3905078 -10.56243985 1.68643162 -8.640625 0.9921875 C-7.57328125 0.59773437 -6.5059375 0.20328125 -5.40625 -0.203125 C-2.390625 -0.8828125 -2.390625 -0.8828125 0 0 Z " fill="#000000" transform="translate(194.390625,7.8828125)"/>
<path d="M0 0 C0.625 2.375 0.625 2.375 1 5 C-2.40208828 8.40208828 -6.77178592 8.05433827 -11.375 8.0625 C-12.57125 8.041875 -13.7675 8.02125 -15 8 C-15.6875 6.1875 -15.6875 6.1875 -16 4 C-15 2.3125 -15 2.3125 -13 1 C-8.63850757 0.09478459 -4.44501473 -0.10841499 0 0 Z " fill="#000000" transform="translate(224,2)"/>
<path d="M0 0 C2.72068456 1.03094332 4.00893143 2.43816113 5.92578125 4.61328125 C6.55097656 5.30035156 7.17617187 5.98742187 7.8203125 6.6953125 C9.11328125 8.80078125 9.11328125 8.80078125 8.8125 11.0625 C8.58175781 11.63613281 8.35101563 12.20976562 8.11328125 12.80078125 C6.46328125 13.13078125 4.81328125 13.46078125 3.11328125 13.80078125 C1.93165074 12.58599274 0.7684529 11.35325717 -0.38671875 10.11328125 C-1.03640625 9.42878906 -1.68609375 8.74429687 -2.35546875 8.0390625 C-4.16485659 5.39421753 -4.19451045 3.93915736 -3.88671875 0.80078125 C-1.88671875 -0.19921875 -1.88671875 -0.19921875 0 0 Z " fill="#000000" transform="translate(56.88671875,408.19921875)"/>
<path d="M0 0 C1.32 0.66 2.64 1.32 4 2 C3.67963036 7.12591427 0.77731301 11.63217446 -3 15 C-5.703125 15.23046875 -5.703125 15.23046875 -8 15 C-9 12 -9 12 -7.375 8.625 C-5.31233207 5.22808883 -2.92165831 2.67818678 0 0 Z " fill="#000000" transform="translate(467,391)"/>
<path d="M0 0 C1.66611905 -0.042721 3.33382885 -0.04063832 5 0 C5.33 0.33 5.66 0.66 6 1 C5.96195593 2.96073272 5.8445406 4.92019607 5.6875 6.875 C5.60886719 7.94492187 5.53023438 9.01484375 5.44921875 10.1171875 C5 13 5 13 3 16 C0.375 16.1875 0.375 16.1875 -2 16 C-2.20413361 10.26157749 -2.27141454 5.39460953 0 0 Z " fill="#000000" transform="translate(505,282)"/>
<path d="M0 0 C4.29716661 1.75793179 6.61560191 5.06964364 8.75 9.125 C8.625 12.125 8.625 12.125 7.75 14.125 C4.93292629 14.04214489 3.21556687 13.54824261 1.1171875 11.640625 C-3.82928695 6.04895823 -3.82928695 6.04895823 -4.25 2.125 C-2.25 0.125 -2.25 0.125 0 0 Z " fill="#000000" transform="translate(450.25,89.875)"/>
<path d="M0 0 C5.38369776 0.16314236 9.00862419 3.76134022 13 7 C12.67 8.32 12.34 9.64 12 11 C8.887486 11.96747771 7.51983845 12.25702664 4.54296875 10.78515625 C3.76566406 10.21667969 2.98835938 9.64820313 2.1875 9.0625 C1.39730469 8.49660156 0.60710937 7.93070313 -0.20703125 7.34765625 C-0.79871094 6.90292969 -1.39039063 6.45820312 -2 6 C-1.125 1.125 -1.125 1.125 0 0 Z " fill="#000000" transform="translate(381,33)"/>
<path d="M0 0 C5.34844008 0.53484401 9.35796103 2.46690767 14 5 C13.67 6.65 13.34 8.3 13 10 C10.3313431 11.02018585 9.19935744 11.06982104 6.45703125 10.109375 C5.14798828 9.43648437 5.14798828 9.43648437 3.8125 8.75 C2.93207031 8.31171875 2.05164063 7.8734375 1.14453125 7.421875 C-1 6 -1 6 -2 3 C-1.34 2.01 -0.68 1.02 0 0 Z " fill="#000000" transform="translate(354,20)"/>
<path d="M0 0 C1.65 0.33 3.3 0.66 5 1 C5 6.28 5 11.56 5 17 C3.35 17 1.7 17 0 17 C-2 15 -2 15 -2.01171875 11.77734375 C-1.85123047 9.87662109 -1.85123047 9.87662109 -1.6875 7.9375 C-1.58824219 6.66777344 -1.48898437 5.39804687 -1.38671875 4.08984375 C-1 1 -1 1 0 0 Z " fill="#000000" transform="translate(507,252)"/>
<path d="M0 0 C1.67542976 0.28604898 3.34385343 0.61781233 5 1 C6.58012426 5.31900631 7.64638402 9.4029922 8 14 C7.34 14.66 6.68 15.32 6 16 C3.375 15.625 3.375 15.625 1 15 C-0.32558098 10.19476896 -1.36809815 6.03067466 -1 1 C-0.67 0.67 -0.34 0.34 0 0 Z " fill="#000000" transform="translate(500,194)"/>
<path d="M0 0 C0.97324219 0.00644531 1.94648438 0.01289063 2.94921875 0.01953125 C5.3125 0.1875 5.3125 0.1875 6.3125 1.1875 C6.4375 3.6875 6.4375 3.6875 6.3125 6.1875 C5.3125 7.1875 5.3125 7.1875 2.15234375 7.28515625 C0.22068359 7.26775391 0.22068359 7.26775391 -1.75 7.25 C-3.04035156 7.24097656 -4.33070313 7.23195313 -5.66015625 7.22265625 C-6.65917969 7.21105469 -7.65820312 7.19945312 -8.6875 7.1875 C-9.0175 5.5375 -9.3475 3.8875 -9.6875 2.1875 C-6.36599055 0.1914385 -3.84659894 -0.05649211 0 0 Z " fill="#000000" transform="translate(267.6875,504.8125)"/>
<path d="M0 0 C2.125 0.9375 2.125 0.9375 4 2 C3.72014305 6.61763975 1.61399479 9.29036089 -1.3671875 12.6171875 C-3 14 -3 14 -5.875 14.4375 C-6.57625 14.293125 -7.2775 14.14875 -8 14 C-8.70703125 11.765625 -8.70703125 11.765625 -9 9 C-7.63671875 6.796875 -7.63671875 6.796875 -5.6875 4.75 C-4.73423828 3.72132813 -4.73423828 3.72132813 -3.76171875 2.671875 C-2 1 -2 1 0 0 Z " fill="#000000" transform="translate(449,415)"/>
<path d="M0 0 C3.58797806 1.53770488 4.35473932 3.57373519 5.91015625 7.046875 C6.75462928 9.50184578 6.94703135 11.54874916 6.625 14.125 C4.975 14.455 3.325 14.785 1.625 15.125 C-4.24958858 6.3889882 -4.24958858 6.3889882 -4.375 2.125 C-2.375 0.125 -2.375 0.125 0 0 Z " fill="#000000" transform="translate(26.375,357.875)"/>
<path d="M0 0 C4.70588235 0.70588235 4.70588235 0.70588235 6 2 C6.26149658 3.97284642 6.45992624 5.95425667 6.625 7.9375 C6.72039062 9.01902344 6.81578125 10.10054687 6.9140625 11.21484375 C7 14 7 14 6 16 C4.35 16 2.7 16 1 16 C-1.06149392 10.97510856 -1.4857159 6.3654663 -1 1 C-0.67 0.67 -0.34 0.34 0 0 Z " fill="#000000" transform="translate(505,223)"/>
<path d="M0 0 C1.65 0.33 3.3 0.66 5 1 C4.61329288 6.28499735 2.78112595 10.30040776 -1 14 C-3.04296875 14.82421875 -3.04296875 14.82421875 -5 15 C-5.66 14.34 -6.32 13.68 -7 13 C-7 7.67899997 -3.18550405 3.92586585 0 0 Z " fill="#000000" transform="translate(48,106)"/>
<path d="M0 0 C1.2065625 0.0309375 1.2065625 0.0309375 2.4375 0.0625 C3.16447561 1.80483825 3.86848244 3.55677345 4.5625 5.3125 C4.95695312 6.28703125 5.35140625 7.2615625 5.7578125 8.265625 C6.4375 11.0625 6.4375 11.0625 5.5546875 13.421875 C5.00167969 14.23398437 5.00167969 14.23398437 4.4375 15.0625 C2.125 15.0625 2.125 15.0625 -0.5625 14.0625 C-2.92528787 10.11221403 -4.11936646 5.65664825 -3.5625 1.0625 C-2.5625 0.0625 -2.5625 0.0625 0 0 Z " fill="#000000" transform="translate(15.5625,330.9375)"/>
<path d="M0 0 C2.625 0.375 2.625 0.375 5 1 C6.33583899 5.84241633 7.25328119 9.93437617 7 15 C5.35 15.33 3.7 15.66 2 16 C-0.20481515 11.30278511 -1.69041608 7.26292658 -2 2 C-1.34 1.34 -0.68 0.68 0 0 Z " fill="#000000" transform="translate(6,302)"/>
<path d="M0 0 C1.65 0 3.3 0 5 0 C6.7479503 5.24385089 7.19392201 9.47322267 7 15 C4.625 15.625 4.625 15.625 2 16 C-0.65450267 13.34549733 -0.41639121 11.69774614 -0.6875 8 C-0.77386719 6.9275 -0.86023437 5.855 -0.94921875 4.75 C-1 2 -1 2 0 0 Z " fill="#000000" transform="translate(1,273)"/>
<path d="M0 0 C1.65 0.33 3.3 0.66 5 1 C5.19392201 6.52677733 4.7479503 10.75614911 3 16 C1.33388095 16.042721 -0.33382885 16.04063832 -2 16 C-2.33 15.67 -2.66 15.34 -3 15 C-2.96195593 13.03926728 -2.8445406 11.07980393 -2.6875 9.125 C-2.60886719 8.05507812 -2.53023438 6.98515625 -2.44921875 5.8828125 C-2 3 -2 3 0 0 Z " fill="#000000" transform="translate(4,214)"/>
<path d="M0 0 C3.39169482 1.20986308 4.92949789 2.85992109 6.8125 5.875 C7.25207031 6.55304688 7.69164062 7.23109375 8.14453125 7.9296875 C9.16843185 10.40762047 8.90457722 11.52489914 8 14 C6.35 14.33 4.7 14.66 3 15 C1.96097967 13.61765122 0.94436554 12.21844209 -0.0625 10.8125 C-0.63097656 10.03519531 -1.19945312 9.25789063 -1.78515625 8.45703125 C-3 6 -3 6 -2.80859375 3.26171875 C-2 1 -2 1 0 0 Z " fill="#000000" transform="translate(467,113)"/>
<path d="M0 0 C0.7265625 1.734375 0.7265625 1.734375 1 4 C-0.4765625 6.140625 -0.4765625 6.140625 -2.625 8.25 C-3.31851563 8.95640625 -4.01203125 9.6628125 -4.7265625 10.390625 C-7.39669905 12.28082476 -8.79954634 12.33688986 -12 12 C-12.9375 9.9375 -12.9375 9.9375 -13 7 C-9.43381132 2.34631971 -6.01330588 -1.80399176 0 0 Z " fill="#000000" transform="translate(92,63)"/>
<path d="M0 0 C0.33 1.32 0.66 2.64 1 4 C-3.65492322 7.56877447 -8.34849564 7.68175995 -14 8 C-14.33 6.35 -14.66 4.7 -15 3 C-9.40309575 0.07434551 -6.21474283 -1.55368571 0 0 Z " fill="#000000" transform="translate(331,496)"/>
<path d="M0 0 C2.125 0.9375 2.125 0.9375 4 2 C3.88512252 3.58409994 3.75765492 5.16728963 3.625 6.75 C3.55539062 7.63171875 3.48578125 8.5134375 3.4140625 9.421875 C3.00149945 11.99066382 2.28839043 13.75841015 1 16 C-0.65 16 -2.3 16 -4 16 C-5.0471725 12.09243012 -4.90220382 9.5956026 -3.6875 5.75 C-3.42324219 4.87859375 -3.15898438 4.0071875 -2.88671875 3.109375 C-2 1 -2 1 0 0 Z " fill="#000000" transform="translate(11,185)"/>
<path d="M0 0 C3.13837611 -0.3077917 4.59343628 -0.27813784 7.23828125 1.53125 C7.92277344 2.1809375 8.60726563 2.830625 9.3125 3.5 C10.00988281 4.1496875 10.70726562 4.799375 11.42578125 5.46875 C11.94527344 5.9740625 12.46476562 6.479375 13 7 C12.67 8.65 12.34 10.3 12 12 C8.86162389 12.3077917 7.40656372 12.27813784 4.76171875 10.46875 C4.07722656 9.8190625 3.39273437 9.169375 2.6875 8.5 C1.99011719 7.8503125 1.29273438 7.200625 0.57421875 6.53125 C0.05472656 6.0259375 -0.46476562 5.520625 -1 5 C-0.67 3.35 -0.34 1.7 0 0 Z " fill="#000000" transform="translate(405,50)"/>
<path d="M0 0 C1.93166016 0.01740234 1.93166016 0.01740234 3.90234375 0.03515625 C5.19269531 0.04417969 6.48304688 0.05320313 7.8125 0.0625 C8.81152344 0.07410156 9.81054688 0.08570313 10.83984375 0.09765625 C11.96484375 3.84765625 11.96484375 3.84765625 10.83984375 6.09765625 C7.87635094 7.08548719 5.86857745 7.2317615 2.77734375 7.22265625 C1.46056641 7.22652344 1.46056641 7.22652344 0.1171875 7.23046875 C-2.16015625 7.09765625 -2.16015625 7.09765625 -4.16015625 6.09765625 C-4.20287725 4.4315372 -4.20079457 2.7638274 -4.16015625 1.09765625 C-3.16015625 0.09765625 -3.16015625 0.09765625 0 0 Z " fill="#000000" transform="translate(242.16015625,-0.09765625)"/>
<path d="M0 0 C1.45212891 0.31710938 1.45212891 0.31710938 2.93359375 0.640625 C4.38958984 0.94226563 4.38958984 0.94226563 5.875 1.25 C8.37109375 1.890625 8.37109375 1.890625 10.37109375 2.890625 C10.37109375 4.540625 10.37109375 6.190625 10.37109375 7.890625 C4.95645663 9.41783034 0.29015606 8.50031701 -4.62890625 5.890625 C-4.95890625 4.900625 -5.28890625 3.910625 -5.62890625 2.890625 C-3.78885858 0.42059491 -3.1549194 -0.13125965 0 0 Z " fill="#000000" transform="translate(301.62890625,3.109375)"/>
<path d="M0 0 C4.92963395 0.13240752 9.53315231 0.83862209 14 3 C14 4.65 14 6.3 14 8 C10.62953982 9.11563018 8.25980759 8.86843709 4.8125 8.125 C3.93207031 7.94195312 3.05164063 7.75890625 2.14453125 7.5703125 C0 7 0 7 -1 6 C-1.125 3.5 -1.125 3.5 -1 1 C-0.67 0.67 -0.34 0.34 0 0 Z " fill="#000000" transform="translate(201,500)"/>
<path d="M0 0 C1.45212891 0.42539062 1.45212891 0.42539062 2.93359375 0.859375 C3.90425781 1.13265625 4.87492188 1.4059375 5.875 1.6875 C8.37109375 2.609375 8.37109375 2.609375 10.37109375 4.609375 C9.99609375 6.734375 9.99609375 6.734375 9.37109375 8.609375 C5.76806775 9.91116761 3.69454815 9.31692188 0.18359375 7.921875 C-0.69683594 7.58800781 -1.57726562 7.25414062 -2.484375 6.91015625 C-4.62890625 5.609375 -4.62890625 5.609375 -5.4296875 3.46484375 C-5.49542969 2.85253906 -5.56117188 2.24023438 -5.62890625 1.609375 C-2.62890625 -0.390625 -2.62890625 -0.390625 0 0 Z " fill="#000000" transform="translate(176.62890625,492.390625)"/>
<path d="M0 0 C1.67542976 0.28604898 3.34385343 0.61781233 5 1 C6.5111995 6.03733166 5.64599773 10.88171027 5 16 C1.25 17.125 1.25 17.125 -1 16 C-1.02685095 13.52076199 -1.04676547 11.0418116 -1.0625 8.5625 C-1.07506836 7.50192383 -1.07506836 7.50192383 -1.08789062 6.41992188 C-1.09653588 4.61306441 -1.05220011 2.80612397 -1 1 C-0.67 0.67 -0.34 0.34 0 0 Z " fill="#000000" transform="translate(1,243)"/>
<path d="M0 0 C3.7538853 0.03381879 6.80692596 0.78527039 10.3125 2.1875 C9.9825 3.8375 9.6525 5.4875 9.3125 7.1875 C7.18777424 7.24136629 5.06266348 7.28023071 2.9375 7.3125 C1.16246094 7.34730469 1.16246094 7.34730469 -0.6484375 7.3828125 C-3.6875 7.1875 -3.6875 7.1875 -5.6875 5.1875 C-5.01744255 0.76512081 -4.64029932 0.23594742 0 0 Z " fill="#000000" transform="translate(272.6875,-0.1875)"/>
<path d="M0 0 C1.93681161 -0.08107583 3.8745934 -0.13922475 5.8125 -0.1875 C6.89144531 -0.22230469 7.97039062 -0.25710938 9.08203125 -0.29296875 C12 0 12 0 13.88671875 1.51171875 C14.25410156 2.00285156 14.62148437 2.49398438 15 3 C14.34 4.32 13.68 5.64 13 7 C3.58997722 7.3690205 3.58997722 7.3690205 -1 5 C-0.67 3.35 -0.34 1.7 0 0 Z " fill="#000000" transform="translate(230,505)"/>
</svg>
