<svg width="50" height="45" viewBox="0 0 50 45" fill="none" xmlns="http://www.w3.org/2000/svg">
<path d="M44.9451 1.00055H15.8303C13.4077 1.00055 11.4362 2.97204 11.4362 5.39465V9.78874H5.39409C2.97143 9.78874 1 11.7602 1 14.1828V32.8614C1 35.2841 2.97149 37.2555 5.39409 37.2555H8.04125L7.04625 43.2112C7.00711 43.4357 7.11218 43.6623 7.30994 43.7777C7.50771 43.893 7.75491 43.8765 7.93003 43.7344L16.0221 37.2635H34.5071C36.9298 37.2635 38.9012 35.292 38.9012 32.8694V31.0339L44.0369 35.4836C44.3995 35.8194 45.0319 35.4733 44.9372 34.983L43.9381 28.4731H44.9433C47.366 28.4731 49.3374 26.5016 49.3374 24.079L49.3395 5.39409C49.3395 2.97143 47.368 1 44.9454 1L44.9451 1.00055ZM37.8029 32.8635C37.8029 34.6825 36.3258 36.1596 34.5068 36.1596H15.8303C15.7047 36.1596 15.5831 36.2029 15.4904 36.2812L8.37085 41.9773L9.234 36.8025C9.29374 36.479 9.01975 36.1535 8.69017 36.1659H5.39408C3.57505 36.1659 2.09798 34.6889 2.09798 32.8698V14.1913C2.09798 12.3722 3.57505 10.8952 5.39408 10.8952H34.5089C36.3279 10.8952 37.805 12.3722 37.805 14.1913V32.8698L37.8029 32.8635ZM48.2412 24.0732C48.2412 25.8922 46.7642 27.3693 44.9451 27.3693H43.2971C43.1385 27.3693 42.984 27.4414 42.8789 27.5609C42.7738 27.6825 42.7306 27.8411 42.7532 27.9997L43.6267 33.6627L38.903 29.5693V14.1826C38.903 11.76 36.9315 9.78853 34.5089 9.78853L12.5342 9.79059V5.3965C12.5342 3.57748 14.0113 2.1004 15.8303 2.1004H44.9451C46.7641 2.1004 48.2412 3.57748 48.2412 5.3965V24.0751L48.2412 24.0732Z" fill="#EDAA57" stroke="#EDAA57" stroke-width="0.5"/>
<path d="M24.2784 22.151C21.3716 22.2437 21.3716 26.4524 24.2784 26.5451C27.1851 26.4524 27.1789 22.2437 24.2784 22.151ZM24.2784 25.4471C22.8281 25.408 22.8281 23.2882 24.2784 23.249C25.7287 23.2882 25.7287 25.408 24.2784 25.4471Z" fill="#EDAA57" stroke="#EDAA57" stroke-width="0.5"/>
<path d="M31.5677 22.151C28.661 22.2437 28.661 26.4524 31.5677 26.5451C34.4744 26.4524 34.4683 22.2437 31.5677 22.151ZM31.5677 25.4471C30.1174 25.408 30.1174 23.2882 31.5677 23.249C33.018 23.2882 33.018 25.408 31.5677 25.4471Z" fill="#EDAA57" stroke="#EDAA57" stroke-width="0.5"/>
<path d="M16.5882 22.151C13.6815 22.2437 13.6815 26.4524 16.5882 26.5451C19.4949 26.4524 19.4888 22.2437 16.5882 22.151ZM16.5882 25.4471C15.1379 25.408 15.1379 23.2882 16.5882 23.249C18.0385 23.2882 18.0385 25.408 16.5882 25.4471Z" fill="#EDAA57" stroke="#EDAA57" stroke-width="0.5"/>
<path d="M8.89642 22.151C5.98969 22.2437 5.98969 26.4524 8.89642 26.5451C11.8032 26.4524 11.797 22.2437 8.89642 22.151ZM8.89642 25.4471C7.44614 25.408 7.44614 23.2882 8.89642 23.249C10.3467 23.2882 10.3467 25.408 8.89642 25.4471Z" fill="#EDAA57" stroke="#EDAA57" stroke-width="0.5"/>
</svg>
