<svg width="36" height="35" viewBox="0 0 36 35" fill="none" xmlns="http://www.w3.org/2000/svg">
<path d="M35.7197 17.426C35.7197 7.8021 27.9176 0 18.2937 0C8.66978 0 0.867676 7.8021 0.867676 17.426C0.867676 27.0499 8.66978 34.852 18.2937 34.852C27.9176 34.852 35.7197 27.0499 35.7197 17.426ZM2.45186 17.426C2.45186 8.67657 9.54425 1.58418 18.2937 1.58418C27.0431 1.58418 34.1355 8.67657 34.1355 17.426C34.1355 26.1755 27.0431 33.2678 18.2937 33.2678C9.54425 33.2678 2.45186 26.1755 2.45186 17.426Z" fill="#707B8E"/>
<path d="M18.2938 26.836C16.4037 26.836 15.0381 26.836 13.9424 26.7297C12.8092 26.6199 12.0552 26.403 11.4214 26.0048C10.7358 25.574 10.1457 24.9839 9.71484 24.2983C9.31649 23.6641 9.09974 22.9101 8.99001 21.7772C8.88379 20.6816 8.88379 19.316 8.88379 17.4259C8.88379 15.5358 8.88379 14.1702 8.99004 13.0745C9.09974 11.9416 9.31649 11.1877 9.71481 10.5536C10.1457 9.86786 10.7358 9.27771 11.4215 8.84689C12.0557 8.44854 12.8096 8.23179 13.9426 8.12209C15.038 8.01587 16.4037 8.01587 18.2938 8.01587C20.1839 8.01587 21.5496 8.01587 22.6452 8.12212C23.7781 8.23182 24.532 8.44857 25.1661 8.84689C25.8518 9.27777 26.4419 9.86793 26.8727 10.5536C27.2709 11.1873 27.4877 11.9413 27.5976 13.0746C27.7039 14.1702 27.7039 15.5358 27.7039 17.4259C27.7039 19.316 27.7039 20.6816 27.5976 21.7773C27.4878 22.9106 27.271 23.6645 26.8726 24.2983C26.4419 24.9839 25.8518 25.574 25.1661 26.0048C24.5324 26.403 23.7785 26.6198 22.6452 26.7297C21.5496 26.836 20.1839 26.836 18.2938 26.836ZM18.2938 9.29181C16.4395 9.29181 15.0997 9.29181 14.0656 9.3921C13.143 9.48144 12.5553 9.64151 12.1002 9.92732C11.576 10.2567 11.1247 10.708 10.7952 11.2324C10.5094 11.6874 10.3494 12.2751 10.26 13.1976C10.1597 14.2319 10.1597 15.5717 10.1597 17.4259C10.1597 19.2802 10.1597 20.6199 10.26 21.6542C10.3494 22.5767 10.5094 23.1645 10.7952 23.6195C11.1247 24.1437 11.576 24.595 12.1003 24.9244C12.5551 25.2102 13.1428 25.3703 14.0656 25.4597C15.0998 25.56 16.4396 25.56 18.2938 25.56C20.1481 25.56 21.4879 25.56 22.5221 25.4597C23.4449 25.3702 24.0326 25.2102 24.4873 24.9244C25.0117 24.595 25.4629 24.1437 25.7923 23.6195C26.0781 23.1647 26.2382 22.5769 26.3277 21.6542C26.4279 20.6199 26.4279 19.2802 26.4279 17.4259C26.4279 15.5717 26.4279 14.2319 26.3277 13.1977C26.2382 12.2749 26.0781 11.6872 25.7923 11.2324C25.4629 10.7081 25.0116 10.2568 24.4873 9.92729C24.0324 9.64154 23.4446 9.48144 22.5222 9.39213C21.4879 9.29181 20.1481 9.29181 18.2938 9.29181Z" fill="#707B8E"/>
<path d="M18.2937 22.0513C15.7434 22.0513 13.6685 19.9764 13.6685 17.426C13.6685 14.8757 15.7434 12.8008 18.2937 12.8008C20.8441 12.8008 22.919 14.8757 22.919 17.426C22.919 19.9764 20.8441 22.0513 18.2937 22.0513ZM18.2937 14.0767C16.4469 14.0767 14.9444 15.5792 14.9444 17.426C14.9444 19.2729 16.4469 20.7754 18.2937 20.7754C20.1406 20.7754 21.6431 19.2729 21.6431 17.426C21.6431 15.5792 20.1406 14.0767 18.2937 14.0767Z" fill="#707B8E"/>
<path d="M23.4774 13.4388C24.1381 13.4388 24.6736 12.9033 24.6736 12.2426C24.6736 11.582 24.1381 11.0464 23.4774 11.0464C22.8168 11.0464 22.2812 11.582 22.2812 12.2426C22.2812 12.9033 22.8168 13.4388 23.4774 13.4388Z" fill="#707B8E"/>
</svg>
