<svg xmlns="http://www.w3.org/2000/svg" width="35" height="35" viewBox="0 0 35 35" fill="none">
  <path d="M7.74771 31.1479C7.64637 31.1479 7.54443 31.1261 7.44911 31.0815C7.2016 30.9655 7.0435 30.7169 7.0435 30.4436V24.1044H2.99198C2.19278 24.1044 1.44143 23.7932 0.876304 23.228C0.311228 22.6629 0 21.9116 0 21.1125V2.99198C0 2.19273 0.311228 1.44143 0.876352 0.876304C1.44138 0.311228 2.19273 0 2.99198 0H28.156C28.9551 0 29.7064 0.311228 30.2715 0.876352C30.8367 1.44148 31.1479 2.19283 31.1479 2.99198V9.80131C31.1479 10.1903 30.8325 10.5057 30.4436 10.5057C30.0546 10.5057 29.7392 10.1903 29.7392 9.80131V2.99198C29.7392 2.56909 29.5745 2.17151 29.2755 1.87244C28.9764 1.57338 28.5788 1.4087 28.156 1.4087H2.99198C2.56904 1.4087 2.17146 1.57338 1.87244 1.8724C1.57338 2.17142 1.4087 2.569 1.4087 2.99194V21.1125C1.4087 21.5353 1.57338 21.9328 1.87244 22.2319C2.17151 22.531 2.56909 22.6957 2.99198 22.6957H7.74785C8.13684 22.6957 8.4522 23.011 8.4522 23.4V28.9397L11.9926 25.9894C12.2914 25.7403 12.7355 25.7808 12.9846 26.0795C13.2336 26.3784 13.1932 26.8225 12.8944 27.0716L8.19873 30.9847C8.06969 31.0922 7.90952 31.1479 7.74771 31.1479Z" fill="#222F42"/>
  <path d="M24.1828 7.66959H6.96534C6.57635 7.66959 6.26099 7.35423 6.26099 6.96524C6.26099 6.57626 6.57635 6.26089 6.96534 6.26089H24.1828C24.5717 6.26089 24.8871 6.57626 24.8871 6.96524C24.8871 7.35423 24.5717 7.66959 24.1828 7.66959Z" fill="#222F42"/>
  <path d="M14.7915 13.9305H6.96534C6.57635 13.9305 6.26099 13.6151 6.26099 13.2261C6.26099 12.8372 6.57635 12.5218 6.96534 12.5218H14.7915C15.1804 12.5218 15.4958 12.8372 15.4958 13.2261C15.4958 13.6151 15.1804 13.9305 14.7915 13.9305Z" fill="#222F42"/>
  <path d="M25.748 29.5827C21.9073 29.5827 18.7827 26.4581 18.7827 22.6174C18.7827 18.7768 21.9073 15.6522 25.748 15.6522C29.5886 15.6522 32.7132 18.7768 32.7132 22.6174C32.7132 26.4581 29.5886 29.5827 25.748 29.5827ZM25.748 17.0609C22.6841 17.0609 20.1914 19.5536 20.1914 22.6174C20.1914 25.6814 22.6841 28.174 25.748 28.174C28.8118 28.174 31.3045 25.6814 31.3045 22.6174C31.3045 19.5536 28.8118 17.0609 25.748 17.0609Z" fill="#222F42"/>
  <path d="M33.5743 34.2783C33.3678 34.2783 33.163 34.1878 33.0239 34.0139C32.3433 33.1633 31.3149 32.4462 30.0496 31.9402C28.7537 31.4219 27.2663 31.1479 25.7478 31.1479C24.2293 31.1479 22.7417 31.4219 21.446 31.9402C20.1808 32.4462 19.1522 33.1633 18.4716 34.014C18.2286 34.3177 17.7854 34.367 17.4817 34.1239C17.1779 33.8809 17.1286 33.4377 17.3717 33.1339C18.2041 32.0935 19.432 31.2285 20.9228 30.6322C22.3834 30.0481 24.0518 29.7392 25.7478 29.7392C27.4437 29.7392 29.1122 30.048 30.5727 30.6323C32.0635 31.2285 33.2915 32.0935 34.1239 33.134C34.3669 33.4377 34.3176 33.8809 34.0139 34.1239C33.884 34.2279 33.7286 34.2783 33.5743 34.2783Z" fill="#222F42"/>
</svg>