<svg width="20" height="24" viewBox="0 0 20 24" fill="none" xmlns="http://www.w3.org/2000/svg">
<path d="M19 10C19 16.0216 12.414 22.0832 10.5099 23.1317C10.1882 23.3088 9.81184 23.3088 9.49012 23.1317C7.58597 22.0832 1 16.0216 1 10C1 4.6 5.36081 1 10 1C14.8 1 19 4.6 19 10Z" stroke="#D5B76E" stroke-width="1.25"/>
<path d="M9.9998 14.2C12.3194 14.2 14.1998 12.3196 14.1998 9.99999C14.1998 7.68039 12.3194 5.79999 9.9998 5.79999C7.68021 5.79999 5.7998 7.68039 5.7998 9.99999C5.7998 12.3196 7.68021 14.2 9.9998 14.2Z" stroke="#D5B76E" stroke-width="1.25"/>
</svg>
