<svg width="22" height="21" viewBox="0 0 22 21" fill="none" xmlns="http://www.w3.org/2000/svg">
<path d="M21.25 9.19901L17.281 5.22101C17.1397 5.08417 16.9504 5.0083 16.7537 5.00972C16.5571 5.01115 16.3689 5.08976 16.2296 5.22862C16.0903 5.36749 16.0112 5.5555 16.0092 5.75215C16.0072 5.9488 16.0826 6.13836 16.219 6.28001L18.932 9.00001H6.75C6.55109 9.00001 6.36032 9.07902 6.21967 9.21968C6.07902 9.36033 6 9.55109 6 9.75001C6 9.94892 6.07902 10.1397 6.21967 10.2803C6.36032 10.421 6.55109 10.5 6.75 10.5H18.932L16.219 13.22C16.0784 13.3608 15.9996 13.5517 15.9998 13.7507C15.9999 13.9497 16.0792 14.1404 16.22 14.281C16.3608 14.4216 16.5517 14.5004 16.7507 14.5002C16.9497 14.5001 17.1404 14.4208 17.281 14.28L21.25 10.3C21.3285 10.2315 21.3914 10.1469 21.4346 10.0521C21.4777 9.95721 21.5 9.85421 21.5 9.75001C21.5 9.6458 21.4777 9.5428 21.4346 9.44793C21.3914 9.35306 21.3285 9.26753 21.25 9.19901Z" fill="#222F42"/>
<path d="M2.75 20.5H11.75C12.4792 20.4995 13.1783 20.2096 13.694 19.694C14.2096 19.1783 14.4995 18.4792 14.5 17.75V14.75C14.5 14.5511 14.421 14.3603 14.2803 14.2197C14.1397 14.079 13.9489 14 13.75 14C13.5511 14 13.3603 14.079 13.2197 14.2197C13.079 14.3603 13 14.5511 13 14.75V17.75C12.9995 18.0814 12.8676 18.399 12.6333 18.6333C12.399 18.8676 12.0814 18.9995 11.75 19H2.75C2.41864 18.9995 2.10101 18.8676 1.8667 18.6333C1.63239 18.399 1.50053 18.0814 1.5 17.75V2.75C1.50053 2.41864 1.63239 2.10101 1.8667 1.8667C2.10101 1.63239 2.41864 1.50053 2.75 1.5H11.75C12.0814 1.50053 12.399 1.63239 12.6333 1.8667C12.8676 2.10101 12.9995 2.41864 13 2.75V4.75C13 4.94891 13.079 5.13968 13.2197 5.28033C13.3603 5.42098 13.5511 5.5 13.75 5.5C13.9489 5.5 14.1397 5.42098 14.2803 5.28033C14.421 5.13968 14.5 4.94891 14.5 4.75V2.75C14.4995 2.02082 14.2096 1.32165 13.694 0.806041C13.1783 0.290431 12.4792 0.000529737 11.75 0H2.75C2.02082 0.000529737 1.32165 0.290431 0.806041 0.806041C0.290431 1.32165 0.000529737 2.02082 0 2.75V17.75C0.000529737 18.4792 0.290431 19.1783 0.806041 19.694C1.32165 20.2096 2.02082 20.4995 2.75 20.5Z" fill="#222F42"/>
</svg>
