<?xml version="1.0" encoding="UTF-8"?>
<svg version="1.1" xmlns="http://www.w3.org/2000/svg" width="512" height="512">
<path d="M0 0 C3.30917481 1.44846035 6.09761839 3.36416521 9 5.5 C9.77964111 6.04809326 10.55928223 6.59618652 11.36254883 7.16088867 C13.59703032 8.74617686 15.80295786 10.36334763 18 12 C19.03511719 12.76957031 20.07023437 13.53914062 21.13671875 14.33203125 C27.31684422 19.13038288 27.31684422 19.13038288 29.66015625 22.11328125 C31.35824954 24.26197424 32.59517254 25.67304248 35 27 C38.51260742 26.98618896 41.69180148 26.38728419 45.13671875 25.70703125 C66.72592577 21.75592258 89.133417 28.97581388 107 41 C115.31793204 47.44914555 124.4950678 55.85030051 128 66 C129.29357422 65.94779297 129.29357422 65.94779297 130.61328125 65.89453125 C141.34750251 65.65649678 151.4667092 67.00856082 162 69 C163.22074219 69.2165625 164.44148438 69.433125 165.69921875 69.65625 C166.74722656 69.8728125 167.79523438 70.089375 168.875 70.3125 C169.75929688 70.49425781 170.64359375 70.67601563 171.5546875 70.86328125 C175.06752631 72.49624626 177.12411704 74.68638142 179 78 C180.24425541 81.56564354 181.01206528 85.17542123 181.75 88.875 C181.95753906 89.83019531 182.16507812 90.78539063 182.37890625 91.76953125 C184.10509907 99.88820585 185.13668419 107.69137022 185.0625 116 C185.05798828 116.67933594 185.05347656 117.35867187 185.04882812 118.05859375 C185.0372283 119.70576874 185.01930199 121.35289726 185 123 C185.69351562 123.22429687 186.38703125 123.44859375 187.1015625 123.6796875 C190.67461921 125.30730633 193.43415784 127.57655697 196.375 130.125 C196.95080811 130.62217529 197.52661621 131.11935059 198.11987305 131.6315918 C213.62008059 145.20440318 224.31312707 165.26778752 226 186 C226.33415805 192.11654508 226.46670936 198.07939157 225.1953125 204.09375 C223.42781251 211.64807668 223.42781251 211.64807668 225.7421875 218.7421875 C227.45947556 220.37387865 229.23934921 221.94145323 231.06640625 223.44921875 C235.93408069 227.68169732 239.26823045 232.98214201 242.84814453 238.30566406 C243.93092189 239.89838871 245.05598414 241.46213189 246.18359375 243.0234375 C252.30630016 251.81943825 252.30630016 251.81943825 251.8046875 257.4375 C247.92522911 269.79150341 237.3137083 283.87931859 227.25 291.8125 C225.1926644 293.5818775 225.1926644 293.5818775 224 296 C223.93667195 300.79709994 224.77262222 305.25912269 225.66162109 309.95703125 C228.8450472 329.17702381 221.63635821 350.84481932 210.62109375 366.60546875 C204.99676814 374.15476728 198.3962244 381.1058067 190.171875 385.71875 C187.55399677 387.4227989 186.24849315 388.31458288 185.17578125 391.2734375 C184.83525873 394.03965748 184.75233843 396.71306065 184.75 399.5 C184.66115373 401.55006979 184.55922551 403.59960768 184.4453125 405.6484375 C184.35878418 407.21803223 184.35878418 407.21803223 184.27050781 408.81933594 C183.82820294 414.02001098 182.78502793 419.04280969 181.625 424.125 C181.42745117 425.04216797 181.22990234 425.95933594 181.02636719 426.90429688 C179.8834356 431.76403468 178.83541406 435.55813277 175 439 C171.99609375 440.2578125 171.99609375 440.2578125 168.4375 441.125 C167.46707764 441.36246948 167.46707764 441.36246948 166.47705078 441.60473633 C155.70942994 444.13193484 144.75248397 446.01144828 133.6875 446.125 C129.59386216 446.33344476 129.59386216 446.33344476 126.3671875 448.56640625 C125.44834945 450.06020583 124.58138729 451.58653449 123.75390625 453.1328125 C116.85017567 464.41864379 105.73360268 472.39832641 94 478 C92.98035156 478.48984375 91.96070313 478.9796875 90.91015625 479.484375 C76.61055308 485.8731596 60.00651389 488.85844421 44.49682617 485.88842773 C38.31275076 484.58357277 38.31275076 484.58357277 32.49609375 486.515625 C30.32255924 488.74578791 30.32255924 488.74578791 28.3203125 491.29296875 C23.7941514 496.57349004 17.73860707 500.14587345 12 504 C11.41573242 504.40234863 10.83146484 504.80469727 10.22949219 505.21923828 C8.54146209 506.37637864 6.83759425 507.50462307 5.125 508.625 C4.13757813 509.27726562 3.15015625 509.92953125 2.1328125 510.6015625 C-1.70335821 512.31396788 -4.90618543 512.7755363 -9 512 C-11.79247387 510.85569431 -14.19611346 509.31672831 -16.6875 507.625 C-17.37448975 507.17600342 -18.06147949 506.72700684 -18.76928711 506.2644043 C-23.30430124 503.25799953 -27.72758341 500.10031067 -32.0625 496.8125 C-32.60438965 496.40177246 -33.1462793 495.99104492 -33.70458984 495.56787109 C-36.72200715 493.20924556 -39.00722599 490.78606964 -41.3125 487.75 C-42.83238664 485.96166817 -42.83238664 485.96166817 -45 485 C-48.24632167 485.05309405 -51.21339054 485.43412976 -54.40161133 485.98779297 C-75.36358517 489.61202609 -96.83844288 483.45920156 -114.6484375 472.34765625 C-116.91020374 470.67786854 -118.94662559 468.92113563 -121 467 C-121.71712158 466.33411865 -121.71712158 466.33411865 -122.44873047 465.65478516 C-124.06543399 464.14009448 -125.6613102 462.60652978 -127.25 461.0625 C-127.99407104 460.34562012 -127.99407104 460.34562012 -128.75317383 459.61425781 C-131.554406 456.8050073 -133.43813075 454.23264268 -135.26171875 450.69921875 C-136.69663465 448.31968292 -137.41131071 447.21954116 -140.03662109 446.24047852 C-142.56423415 445.89666623 -145.01198943 445.7875418 -147.5625 445.75 C-149.44190575 445.64815621 -151.32083806 445.53723356 -153.19921875 445.41796875 C-154.15747559 445.36044434 -155.11573242 445.30291992 -156.10302734 445.24365234 C-160.76174788 444.8518267 -165.29847997 443.99664167 -169.875 443.0625 C-170.68783447 442.90426758 -171.50066895 442.74603516 -172.33813477 442.58300781 C-184.10782563 440.14341388 -184.10782563 440.14341388 -187.61254883 436.17333984 C-189.97151916 432.47818695 -190.62004103 428.42764247 -191.5625 424.1875 C-191.78301025 423.22859863 -192.00352051 422.26969727 -192.23071289 421.28173828 C-194.01491936 413.04005375 -194.79280654 404.84044593 -195.01586914 396.41479492 C-195.14378677 393.82188864 -195.31025963 391.50323453 -196 389 C-198.67234833 386.49794632 -198.67234833 386.49794632 -202 385 C-205.44464729 382.11969987 -208.71215565 379.05711843 -212 376 C-212.63292969 375.44441406 -213.26585937 374.88882812 -213.91796875 374.31640625 C-227.3725467 361.97021459 -235.19232177 340.75358894 -236.17578125 322.7890625 C-236.28412033 317.71423176 -236.24728979 312.87756376 -235.1953125 307.90234375 C-233.43164623 300.40671347 -233.43164623 300.40671347 -235.671875 293.36328125 C-237.37055494 291.77009258 -239.12745577 290.23760613 -240.92578125 288.7578125 C-244.77785304 285.53056887 -247.47214631 281.5483976 -250.3125 277.4375 C-250.80314941 276.74084229 -251.29379883 276.04418457 -251.79931641 275.32641602 C-253.24113176 273.24197275 -254.62901485 271.13161685 -256 269 C-256.48388184 268.2692627 -256.96776367 267.53852539 -257.46630859 266.78564453 C-260.69645888 261.55268753 -262.33572733 257.15005281 -261 251 C-259.69630527 247.9428183 -257.97760609 245.33249858 -256.0625 242.625 C-255.56395508 241.89039551 -255.06541016 241.15579102 -254.55175781 240.39892578 C-244.31540361 225.52065569 -244.31540361 225.52065569 -238.81640625 221.33984375 C-236.58120156 219.6362082 -235.28079699 218.5164955 -234 216 C-234.02131458 211.23619084 -234.84243797 206.73234738 -235.67773438 202.0546875 C-238.80845154 182.0939938 -231.55893509 160.68806471 -220.19140625 144.41015625 C-213.74272335 135.98924035 -205.91341904 128.75658313 -197 123 C-196.34 123 -195.68 123 -195 123 C-195.03480469 122.12601562 -195.06960937 121.25203125 -195.10546875 120.3515625 C-195.33480747 109.93303186 -194.04614924 100.20182538 -192 90 C-191.77183594 88.81277344 -191.54367188 87.62554687 -191.30859375 86.40234375 C-190.07247154 80.70205448 -188.87837935 75.68177023 -184 72 C-180.310442 70.59420733 -176.56532631 69.8865389 -172.6875 69.1875 C-171.68009766 68.98447266 -170.67269531 68.78144531 -169.63476562 68.57226562 C-161.38683023 66.94417154 -153.41597388 65.86235738 -145 65.9375 C-144.32066406 65.94201172 -143.64132813 65.94652344 -142.94140625 65.95117188 C-141.29423126 65.9627717 -139.64710274 65.98069801 -138 66 C-137.77570313 65.30648437 -137.55140625 64.61296875 -137.3203125 63.8984375 C-135.69269367 60.32538079 -133.42344303 57.56584216 -130.875 54.625 C-130.37782471 54.04919189 -129.88064941 53.47338379 -129.3684082 52.88012695 C-115.14805616 36.64042525 -94.64507486 26.49786495 -73.00195312 24.84765625 C-65.62105269 24.49040066 -58.86577421 24.98543141 -51.625 26.625 C-46.76697867 27.41723201 -46.76697867 27.41723201 -42.50390625 25.328125 C-40.89493053 23.62418444 -39.34043837 21.86779737 -37.83203125 20.07421875 C-34.53300587 16.24981587 -30.51429385 13.53574859 -26.375 10.6875 C-25.67012451 10.19685059 -24.96524902 9.70620117 -24.23901367 9.20068359 C-22.85266018 8.24644239 -21.45753121 7.30481872 -20.05371094 6.37646484 C-18.69359529 5.46487045 -17.35702486 4.51704494 -16.04785156 3.53369141 C-10.85109927 -0.17548076 -6.32749473 -1.30098022 0 0 Z M-13.75 27.375 C-14.35473145 27.82818604 -14.95946289 28.28137207 -15.58251953 28.74829102 C-23.7327616 34.89257014 -23.7327616 34.89257014 -31 42 C-31 42.99 -31 43.98 -31 45 C-28.9124701 46.77013401 -28.9124701 46.77013401 -26.1875 48.5 C-19.14160793 53.43121295 -11.76172465 59.36516118 -7.3125 66.83203125 C-6.879375 67.54746094 -6.44625 68.26289062 -6 69 C-5.34 69 -4.68 69 -4 69 C-2.75994615 67.54466256 -2.75994615 67.54466256 -1.5 65.625 C4.95222817 56.77667738 12.81943259 49.89900289 22 44 C17.64055777 38.57828862 13.03232549 34.3252893 7.5 30.125 C6.76652344 29.54492188 6.03304687 28.96484375 5.27734375 28.3671875 C-1.95852026 22.82702687 -6.18793813 21.48460732 -13.75 27.375 Z M-161.3125 88.375 C-162.41452759 88.56412964 -162.41452759 88.56412964 -163.53881836 88.75708008 C-167.69646942 89.49866822 -167.69646942 89.49866822 -171 92 C-171.6477365 94.57608966 -172.17678149 97.07580375 -172.625 99.6875 C-172.75688721 100.43829834 -172.88877441 101.18909668 -173.0246582 101.96264648 C-174.22348294 109.34700388 -174.29342497 116.53396465 -174 124 C-173.35313232 123.8570752 -172.70626465 123.71415039 -172.03979492 123.56689453 C-164.71959081 122.07695876 -157.76651829 121.75631998 -150.3125 121.875 C-149.21744141 121.88402344 -148.12238281 121.89304688 -146.99414062 121.90234375 C-144.32918646 121.92561846 -141.66471866 121.95830865 -139 122 C-139.01571045 120.9958606 -139.01571045 120.9958606 -139.03173828 119.97143555 C-139.07384901 116.87683007 -139.09949853 113.78228522 -139.125 110.6875 C-139.14175781 109.63498047 -139.15851563 108.58246094 -139.17578125 107.49804688 C-139.21920196 100.44218197 -138.5223667 93.89012527 -137 87 C-145.2889766 86.67423236 -153.13626341 86.93874082 -161.3125 88.375 Z M127 87 C127.1429248 87.64686768 127.28584961 88.29373535 127.43310547 88.96020508 C128.92304124 96.28040919 129.24368002 103.23348171 129.125 110.6875 C129.11597656 111.78255859 129.10695313 112.87761719 129.09765625 114.00585938 C129.07438154 116.67081354 129.04169135 119.33528134 129 122 C129.66942627 121.98952637 130.33885254 121.97905273 131.02856445 121.96826172 C134.12316993 121.92615099 137.21771478 121.90050147 140.3125 121.875 C141.36501953 121.85824219 142.41753906 121.84148437 143.50195312 121.82421875 C150.55781803 121.78079804 157.10987473 122.4776333 164 124 C164.32576764 115.7110234 164.06125918 107.86373659 162.625 99.6875 C162.49891357 98.95281494 162.37282715 98.21812988 162.24291992 97.46118164 C161.50133178 93.30353058 161.50133178 93.30353058 159 90 C156.42391034 89.3522635 153.92419625 88.82321851 151.3125 88.375 C150.56170166 88.24311279 149.81090332 88.11122559 149.03735352 87.9753418 C141.65299612 86.77651706 134.46603535 86.70657503 127 87 Z M-221.4375 232.125 C-227.90802259 238.64232564 -232.92231994 246.38347992 -238 254 C-237.4881453 263.42132561 -226.90759612 273.54860581 -220.9453125 280.26953125 C-219.06035382 282.33232158 -219.06035382 282.33232158 -216 282 C-214.22986599 279.9124701 -214.22986599 279.9124701 -212.5 277.1875 C-207.95340633 270.67435749 -202.71211423 265.48158048 -197 260 C-195.3298815 258.33679233 -193.66216827 256.67115296 -192 255 C-192.54527344 254.59910156 -193.09054688 254.19820312 -193.65234375 253.78515625 C-202.43429701 247.16491456 -209.63049967 240.08278175 -215.6875 230.87109375 C-216.3371875 229.94490234 -216.3371875 229.94490234 -217 229 C-218.8995693 229 -220.14661133 230.8834612 -221.4375 232.125 Z M207 229 C206.46632813 229.75023437 205.93265625 230.50046875 205.3828125 231.2734375 C198.8121919 240.29951494 191.80779246 249.32180437 182 255 C184.67139835 257.68629463 187.35781123 260.35177886 190.0859375 262.98046875 C196.50479682 269.21386215 202.24979262 275.34784775 207 283 C213.99084588 277.68087814 218.88593795 271.05860491 224 264 C224.77988281 262.9790625 225.55976563 261.958125 226.36328125 260.90625 C228.23295232 258.17585068 228.23295232 258.17585068 227.91015625 255.38671875 C224.10087499 245.39757347 215.47769829 235.35827372 207 229 Z M-174 388 C-174.32138177 396.17738071 -174.12453525 404.14719413 -172.9375 412.25 C-172.85330811 412.97630615 -172.76911621 413.7026123 -172.68237305 414.45092773 C-172.36321086 416.80384098 -172.36321086 416.80384098 -171 420 C-161.19644303 425.8391466 -148.07263342 425.33107542 -137 425 C-137.1429248 424.35313232 -137.28584961 423.70626465 -137.43310547 423.03979492 C-138.92304124 415.71959081 -139.24368002 408.76651829 -139.125 401.3125 C-139.11597656 400.21744141 -139.10695312 399.12238281 -139.09765625 397.99414062 C-139.07438154 395.32918646 -139.04169135 392.66471866 -139 390 C-139.5983667 390.01047363 -140.1967334 390.02094727 -140.81323242 390.03173828 C-152.06328502 390.20243917 -162.94129929 390.33693298 -174 388 Z M160.171875 388.4375 C149.94535382 390.81269202 139.42866257 390.17940004 129 390 C129.01047363 390.66942627 129.02094727 391.33885254 129.03173828 392.02856445 C129.07384901 395.12316993 129.09949853 398.21771478 129.125 401.3125 C129.15013672 402.8912793 129.15013672 402.8912793 129.17578125 404.50195312 C129.21920196 411.55781803 128.5223667 418.10987473 127 425 C134.74669573 425.29376084 141.98453606 424.88710287 149.625 423.625 C150.40665527 423.49891357 151.18831055 423.37282715 151.99365234 423.24291992 C155.57496447 422.61523095 157.93795767 422.04136155 161 420 C161.73058292 417.3933523 162.26158204 414.9709161 162.6875 412.3125 C162.81487549 411.56170166 162.94225098 410.81090332 163.07348633 410.03735352 C164.2275513 402.66170955 164.2928104 395.45039797 164 388 C162.01088823 387.92241862 162.01088823 387.92241862 160.171875 388.4375 Z M-6 443 C-7.53756059 444.74968411 -7.53756059 444.74968411 -9.125 447 C-15.68960742 455.61773567 -22.65219042 461.50128848 -32 467 C-30.43375651 471.17991233 -27.35106015 473.56080089 -24 476.3125 C-23.42056641 476.79235352 -22.84113281 477.27220703 -22.24414062 477.76660156 C-14.27236051 485.40700332 -14.27236051 485.40700332 -4.63671875 488.953125 C-1.11941517 487.68168489 1.70596105 485.70356797 4.6875 483.5 C5.29674316 483.0565625 5.90598633 482.613125 6.53369141 482.15625 C11.96495093 478.14301809 17.37852645 473.94093024 22 469 C22 468.34 22 467.68 22 467 C20.43392428 465.96099812 18.8188487 464.99567709 17.1875 464.0625 C9.50484634 459.31791544 2.78696574 453.24751463 -2.19140625 445.66015625 C-2.78824219 444.78230469 -3.38507813 443.90445312 -4 443 C-4.66 443 -5.32 443 -6 443 Z " fill="#020100" transform="translate(261,0)"/>
<path d="M0 0 C9.88195857 3.59813474 18.21659513 12.13820769 25 20 C26.31640625 22.8359375 26.31640625 22.8359375 27 25 C27.66 25 28.32 25 29 25 C29.19464844 24.31808594 29.38929688 23.63617188 29.58984375 22.93359375 C31.53926835 18.87814257 34.36893932 16.18578059 37.5625 13.0625 C38.18785645 12.44294434 38.81321289 11.82338867 39.45751953 11.18505859 C43.93296004 6.83396786 48.5209109 3.04393839 54 0 C63.90282876 4.27475688 70.11566641 18.43932338 74 28 C76.12146414 34.68642385 78 41.96461241 78 49 C76.783125 48.938125 75.56625 48.87625 74.3125 48.8125 C70.41750797 48.80559399 68.12309875 49.53937675 65 52 C63.85636888 54.28726223 63.73498068 55.82852427 63.625 58.375 C63.55152344 59.53128906 63.55152344 59.53128906 63.4765625 60.7109375 C64.28815795 64.26015341 65.93902224 65.07386141 69 67 C72.25604862 68.43466875 75.58529715 69.62336492 78.9375 70.8125 C116.67645882 84.73529578 147.06866622 111.74893767 164.28515625 148.24609375 C164.85977295 149.49602006 165.43154375 150.74725995 166 152 C166.49371094 153.08410156 166.98742187 154.16820312 167.49609375 155.28515625 C173.07658455 168.11862916 175.8818184 181.54251549 177.125 195.4375 C177.2084668 196.365625 177.29193359 197.29375 177.37792969 198.25 C180.45188715 233.93300012 171.9125452 272.87796308 149.0234375 301.24804688 C147.07130367 303.55048692 145.04403 305.7791508 143 308 C141.87335556 309.3319441 140.74821607 310.66516351 139.625 312 C138.42695667 313.34258684 137.21734137 314.67488596 136 316 C135.16339844 316.91394531 134.32679688 317.82789063 133.46484375 318.76953125 C125.82541759 326.87702719 117.36583582 333.02455698 108 339 C107.0615625 339.62390625 106.123125 340.2478125 105.15625 340.890625 C91.11342617 349.72934353 74.42446813 356.57795862 58 359 C56.8078186 359.24508301 56.8078186 359.24508301 55.59155273 359.49511719 C47.03658634 361.16315481 38.68100523 361.3061475 30.00073242 361.26074219 C27.56989517 361.25003258 25.13979916 361.2606889 22.70898438 361.2734375 C-6.61296692 361.30123542 -33.94030377 351.64845052 -58 335 C-58.928125 334.36964844 -59.85625 333.73929687 -60.8125 333.08984375 C-90.81585477 311.74437194 -112.1646222 277.95232718 -119.375 241.94140625 C-123.75946849 214.29185184 -123.30825305 185.30931374 -113 159 C-112.75878418 158.36465332 -112.51756836 157.72930664 -112.26904297 157.07470703 C-98.73714014 121.79875691 -70.39126481 91.39482785 -35.96289062 75.85400391 C-31.50022284 73.91241038 -26.97297881 72.14216973 -22.4375 70.37890625 C-14.08999825 67.59527654 -14.08999825 67.59527654 -8 62 C-7.64495935 56.65330814 -7.64495935 56.65330814 -8.9375 51.5625 C-12.66352415 48.73975443 -17.45206489 49 -22 49 C-19.94620475 30.48881916 -13.49644482 13.24518122 0 0 Z " fill="#FDDA8B" transform="translate(228,44)"/>
<path d="M0 0 C8.9952383 5.52584624 15.59022939 13.43151423 19.0546875 23.48046875 C19.86920896 27.1562579 19.74542539 30.80366246 19.51171875 34.54296875 C20.50751953 33.72892578 20.50751953 33.72892578 21.5234375 32.8984375 C22.40644531 32.18300781 23.28945313 31.46757812 24.19921875 30.73046875 C25.06933594 30.02277344 25.93945312 29.31507813 26.8359375 28.5859375 C37.15318498 20.70868139 47.80822546 19.25335287 60.51171875 20.54296875 C72.91171696 22.98306741 82.61046736 31.28007628 89.51171875 41.54296875 C90.10984375 42.40921875 90.70796875 43.27546875 91.32421875 44.16796875 C96.02595982 53.57145088 96.48515462 66.52847227 93.484375 76.54296875 C89.15988652 87.46799229 82.05825407 96.19970196 71.51171875 101.54296875 C70.68671875 101.97609375 69.86171875 102.40921875 69.01171875 102.85546875 C65.41038619 103.8458352 62.19722324 104.36608947 58.51171875 103.54296875 C55.20511076 100.91117872 53.76487447 99.49295196 53.22265625 95.31640625 C53.40901833 91.03007844 54.04350976 89.04629341 57.01171875 85.85546875 C58.87472267 84.52796595 60.79287032 83.37904474 62.76953125 82.2265625 C67.77819519 79.19326272 70.86567515 76.69434153 72.92578125 71.109375 C74.32122727 64.99732143 74.37507879 59.04216887 72.32421875 53.10546875 C67.831201 46.75327124 63.08251742 43.36855141 55.51171875 41.54296875 C47.44446439 41.07818866 41.50002441 43.18694997 35.3449707 48.36621094 C33.01143428 50.49878374 30.75649302 52.69231521 28.51171875 54.91796875 C27.72410156 55.66046875 26.93648438 56.40296875 26.125 57.16796875 C21.67692793 61.27398023 21.67692793 61.27398023 20.44921875 66.89453125 C20.79984375 67.76851563 21.15046875 68.6425 21.51171875 69.54296875 C24.63036579 78.89890988 23.91924876 93.19537543 19.90625 102.12890625 C17.14215263 106.91381431 14.01425652 111.27320843 10.51171875 115.54296875 C9.98964844 116.20296875 9.46757812 116.86296875 8.9296875 117.54296875 C3.01098559 124.2558256 -7.65903915 129.9375259 -16.66381836 130.73583984 C-31.66494538 131.24973706 -43.48990304 130.53722238 -55.48046875 120.44921875 C-65.17859552 111.24165871 -65.17859552 111.24165871 -65.92578125 104.73046875 C-65.87175379 101.02283435 -65.52589588 100.58700539 -62.92578125 97.54296875 C-58.82111288 95.15479806 -57.14835445 94.57881567 -52.48828125 95.54296875 C-49.54076437 97.59764556 -47.04245988 100.025353 -44.48828125 102.54296875 C-37.2410363 109.25144969 -30.81791794 110.0017783 -21.125 109.859375 C-16.39178702 109.44757022 -13.29791438 108.30449707 -9.48828125 105.54296875 C-7.91046875 104.49109375 -7.91046875 104.49109375 -6.30078125 103.41796875 C-1.30420824 98.8731407 1.22583712 93.41652123 1.890625 86.734375 C2.05466717 80.97887843 2.02051971 75.83260934 -0.48828125 70.54296875 C-2.31359375 70.63578125 -2.31359375 70.63578125 -4.17578125 70.73046875 C-9.12255238 70.72172887 -11.71894032 69.13537559 -15.36328125 65.85546875 C-17.07958282 62.32751552 -16.66408269 59.16472751 -15.48828125 55.54296875 C-13.42614884 52.99562872 -11.2145394 51.12709896 -8.671875 49.08203125 C-8.05441406 48.57414062 -7.43695313 48.06625 -6.80078125 47.54296875 C-6.21941406 47.08921875 -5.63804687 46.63546875 -5.0390625 46.16796875 C-1.75220825 42.72380913 -1.17944404 38.78613181 -1.11328125 34.16796875 C-1.23773103 29.02404431 -1.93957791 25.37000177 -5.48828125 21.54296875 C-9.09108573 18.47159747 -12.21749213 16.7278108 -16.92578125 16.04296875 C-22.98594996 16.89351874 -27.77204223 17.86573516 -32.23828125 22.23046875 C-34.46143988 25.29981232 -36.43784974 28.55266692 -38.375 31.80859375 C-39.48828125 33.54296875 -39.48828125 33.54296875 -41.48828125 35.54296875 C-46.09453816 36.40268271 -49.54420015 36.12097759 -53.55078125 33.66796875 C-56.24053817 29.32965113 -56.38785012 25.52807957 -55.48828125 20.54296875 C-51.08548 10.1572198 -42.15410353 1.74907966 -31.7890625 -2.5859375 C-21.57181877 -5.28232253 -9.46209478 -4.71125221 0 0 Z " fill="#030201" transform="translate(241.48828125,225.45703125)"/>
<path d="M0 0 C9.88195857 3.59813474 18.21659513 12.13820769 25 20 C26.31640625 22.8359375 26.31640625 22.8359375 27 25 C27.66 25 28.32 25 29 25 C29.29197266 23.97712891 29.29197266 23.97712891 29.58984375 22.93359375 C31.53926835 18.87814257 34.36893932 16.18578059 37.5625 13.0625 C38.18785645 12.44294434 38.81321289 11.82338867 39.45751953 11.18505859 C43.93296004 6.83396786 48.5209109 3.04393839 54 0 C63.90282876 4.27475688 70.11566641 18.43932338 74 28 C76.12146414 34.68642385 78 41.96461241 78 49 C76.783125 48.938125 75.56625 48.87625 74.3125 48.8125 C70.36733763 48.84741294 67.97635885 49.19872108 65 52 C63.99121004 54.67778278 63.51210122 57.16016598 63 60 C62.67 60 62.34 60 62 60 C62 58.35 62 56.7 62 55 C60.28103516 54.80083984 60.28103516 54.80083984 58.52734375 54.59765625 C56.99739032 54.41931812 55.46744271 54.24093004 53.9375 54.0625 C53.18533203 53.97548828 52.43316406 53.88847656 51.65820312 53.79882812 C47.09411781 53.26536361 42.54606466 52.67013702 38 52 C37.9175 52.7425 37.835 53.485 37.75 54.25 C36.79654283 57.74600961 35.97964239 58.91425032 33 61 C29.93644375 61.94483511 27.19596152 62.33611717 24 62 C19.59445348 58.87940455 19.08051055 57.40255276 18 52 C10.08 52.99 2.16 53.98 -6 55 C-6 56.65 -6 58.3 -6 60 C-6.33 60 -6.66 60 -7 60 C-7.226875 58.741875 -7.45375 57.48375 -7.6875 56.1875 C-8.45777512 53.18608316 -8.80736445 52.18130405 -11.125 50 C-14.94792354 48.67028747 -17.96301345 48.7947295 -22 49 C-19.94620475 30.48881916 -13.49644482 13.24518122 0 0 Z " fill="#FECE61" transform="translate(228,44)"/>
<path d="M0 0 C11.11731909 10.1845735 17.08503628 26.33177278 19 41 C19.06388388 42.95740193 19.08638169 44.91670147 19.0625 46.875 C19.05347656 47.84179688 19.04445313 48.80859375 19.03515625 49.8046875 C19.02355469 50.52914062 19.01195312 51.25359375 19 52 C8.06182117 55.24666792 -4.80199169 57.10390565 -16 54 C-15.75878418 54.85452759 -15.75878418 54.85452759 -15.51269531 55.72631836 C-13.1617333 66.15227515 -14.19221425 79.11788936 -18 89 C-37.14706522 90.21568668 -54.83970722 82.11754804 -70 71 C-67.12938354 67.8800577 -64.35198142 65.93373251 -60.625 63.9375 C-45.68225744 55.41177462 -31.90888922 43.25733065 -21 30 C-20.34 29.25105469 -19.68 28.50210937 -19 27.73046875 C-11.63414005 19.16765656 -5.87481528 9.61782211 0 0 Z " fill="#FDCD61" transform="translate(406,336)"/>
<path d="M0 0 C2.18604422 2.06022304 3.83148075 4.11328046 5.41796875 6.66015625 C5.86333984 7.3663208 6.30871094 8.07248535 6.76757812 8.80004883 C7.23615234 9.54665771 7.70472656 10.2932666 8.1875 11.0625 C17.25391665 25.25632672 28.00021764 38.2266997 41 49 C41.83402344 49.74507813 42.66804688 50.49015625 43.52734375 51.2578125 C52.00595388 58.67805017 61.28705521 64.34547002 71 70 C61.06121487 80.88418176 43.35566751 87.38674095 29 89 C25.65786011 89.13350146 22.34193025 89.12798882 19 89 C15.02141978 78.67463704 13.95928939 64.7719763 17 54 C16.12976196 54.24121582 16.12976196 54.24121582 15.24194336 54.48730469 C4.51148992 56.94118166 -7.62814165 55.0785728 -18 52 C-19.51167178 32.55822131 -11.53150545 15.21177315 0 0 Z " fill="#FECE61" transform="translate(105,336)"/>
<path d="M0 0 C3.72754367 10.91637791 5.16940956 24.75780576 2 36 C2.66 35.67 3.32 35.34 4 35 C7.49422321 34.75689163 10.99827317 34.81478572 14.5 34.8125 C15.45648438 34.80025391 16.41296875 34.78800781 17.3984375 34.77539062 C23.77173795 34.76243676 29.84107326 35.26920088 36 37 C37.54785999 38.54785999 37.20723349 39.96529128 37.25 42.125 C36.94648432 59.95654648 29.92864633 76.10012795 19 90 C16.35069125 86.78871667 14.03310708 83.55708102 11.875 80 C4.81121769 68.81192865 -3.54094985 58.93462372 -12.67041016 49.39697266 C-13.79981752 48.21032761 -14.90814969 47.00368044 -16.01171875 45.79296875 C-26.13597795 35.00986405 -39.27753604 27.30864951 -52 20 C-40.87096831 8.13040428 -22.34743915 0.77844948 -6.1640625 0.0078125 C-4.10938674 0.0003949 -2.05468915 0 0 0 Z " fill="#FDCE61" transform="translate(388,86)"/>
<path d="M0 0 C14.39964695 0.24749393 26.49597536 3.88860112 39.1875 10.5 C39.89430908 10.86738281 40.60111816 11.23476562 41.3293457 11.61328125 C45.58271769 13.93395463 48.74372742 16.40861587 52 20 C50.9584375 20.57105469 49.916875 21.14210938 48.84375 21.73046875 C22.98482615 36.22534029 2.51645036 56.80985129 -13.02734375 81.94140625 C-14.86529307 84.79113757 -16.83228298 87.39582989 -19 90 C-29.81835303 73.96479673 -38.27190019 58.02065113 -37 38 C-31.50136206 36.08187049 -26.60319072 34.8746413 -20.76953125 34.8671875 C-19.31836914 34.86525391 -19.31836914 34.86525391 -17.83789062 34.86328125 C-16.34032227 34.86908203 -16.34032227 34.86908203 -14.8125 34.875 C-13.2975293 34.86919922 -13.2975293 34.86919922 -11.75195312 34.86328125 C-10.78837891 34.86457031 -9.82480469 34.86585937 -8.83203125 34.8671875 C-7.95264893 34.86831543 -7.0732666 34.86944336 -6.16723633 34.87060547 C-4 35 -4 35 -2 36 C-2.24121582 35.14438477 -2.24121582 35.14438477 -2.48730469 34.27148438 C-4.94402538 23.38704183 -3.56992865 10.45479104 0 0 Z " fill="#FECE61" transform="translate(124,86)"/>
<path d="M0 0 C-0.14622803 0.75095947 -0.29245605 1.50191895 -0.44311523 2.27563477 C-1.10969412 5.70424578 -1.77361956 9.13336551 -2.4375 12.5625 C-2.66759766 13.74392578 -2.89769531 14.92535156 -3.13476562 16.14257812 C-3.35712891 17.29306641 -3.57949219 18.44355469 -3.80859375 19.62890625 C-4.01282959 20.68150635 -4.21706543 21.73410645 -4.42749023 22.81860352 C-5.9579056 31.32301404 -6.24046313 39.56468241 -6.25 48.1875 C-6.25133942 48.89942505 -6.25267883 49.6113501 -6.25405884 50.34484863 C-6.24784941 65.58234833 -4.66496826 80.07957498 -0.55078125 94.78515625 C0 97 0 97 0 100 C-18.84928313 97.1763229 -34.68054628 91.04661338 -49 78 C-45.00796856 67.036239 -34.40386139 56.65097457 -25 50 C-25.845625 49.23816406 -26.69125 48.47632813 -27.5625 47.69140625 C-45.57423666 31.34584824 -45.57423666 31.34584824 -49 24 C-47.04068485 16.98020203 -38.09819833 12.90845701 -32.2019043 9.49853516 C-22.38725545 4.0575259 -11.37728263 0 0 0 Z " fill="#FDCE61" transform="translate(93,206)"/>
<path d="M0 0 C1.50012334 0.27014933 3.00008578 0.54119199 4.5 0.8125 C6.00046875 1.08320313 6.00046875 1.08320313 7.53125 1.359375 C9.99225587 1.81388509 12.45035381 2.28426935 14.90625 2.765625 C15.92235352 2.96321411 15.92235352 2.96321411 16.95898438 3.16479492 C18.9108488 3.54512831 20.86170131 3.9306438 22.8125 4.31640625 C46.5415864 8.4845621 71.59658265 6.96401475 94.75 0.55078125 C97 0 97 0 100 0 C97.1763229 18.84928313 91.04661338 34.68054628 78 49 C67.90496926 44.92316066 55.93801081 34.87602163 51 25 C50.34 25 49.68 25 49 25 C47.72537408 26.48842315 47.72537408 26.48842315 46.4375 28.4375 C39.95669646 37.297729 32.46520321 43.49779776 23 49 C9.49554401 36.28992377 1.47621422 18.45267771 0 0 Z " fill="#FECE61" transform="translate(206,419)"/>
<path d="M0 0 C18.48484488 3.06147995 35.35954333 8.44426666 49 22 C44.84592655 33.44367349 34.40194114 42.68923794 25 50 C25.76183594 50.67804688 26.52367187 51.35609375 27.30859375 52.0546875 C45.51725635 68.40785986 45.51725635 68.40785986 49 76 C47.09221601 82.85296091 37.50573773 87.19364658 31.76953125 90.55078125 C21.70384971 95.81787272 11.36319098 99.06509908 0 99 C0.14622803 98.25427734 0.29245605 97.50855469 0.44311523 96.74023438 C1.11070143 93.32736214 1.77413216 89.91369457 2.4375 86.5 C2.78264648 84.74042969 2.78264648 84.74042969 3.13476562 82.9453125 C5.30995982 71.72257146 6.23733195 61.10355386 6.25 49.6875 C6.25133942 48.97579651 6.25267883 48.26409302 6.25405884 47.53082275 C6.24940146 36.10610779 5.42511811 25.17887218 3 14 C2.70989391 12.58224439 2.42082469 11.16427621 2.1328125 9.74609375 C1.46037659 6.48830523 0.7456929 3.24191312 0 0 Z " fill="#FECE61" transform="translate(419,206)"/>
<path d="M0 0 C3.02791256 1.15060677 4.05387036 1.56180918 6 4 C7.25273911 7.20579419 8.17437126 10.42889586 9.08984375 13.74609375 C11.72977093 23.18411668 16.78084511 29.26635511 25.2578125 34.35546875 C32.91996665 38.27136672 40.52502055 39.18756367 49 38 C55.86973064 35.77530875 61.44806546 32.57218139 67 28 C70.23415916 26.38292042 73.50375265 26.43177624 77 27 C80.12136655 29.01588256 81.64983681 30.43861662 82.4765625 34.125 C82.73946193 38.22069646 82.26786577 40.53816247 80.1875 44.125 C69.98390223 54.47231041 55.75470878 59.20400953 41.5625 59.375 C32.77995944 59.41452539 25.87393445 58.11716129 18 54 C17.12214844 53.56558594 16.24429687 53.13117188 15.33984375 52.68359375 C0.5312884 44.64989525 -6.99017955 31.92889418 -12.1171875 16.515625 C-14.03396371 8.88244539 -14.03396371 8.88244539 -11.9765625 5.13671875 C-7.89949691 0.7650675 -6.04395897 -0.5811499 0 0 Z " fill="#040302" transform="translate(247,161)"/>
<path d="M0 0 C10.64578337 5.77492235 16.40478962 17.56093422 20.2578125 28.60546875 C22.83631423 37.30565814 23.50081255 44.97146259 23 54 C19.32523484 52.84867873 16.04104773 51.56965567 12.6875 49.6875 C3.15950117 44.80060531 -7.65394039 42.54582815 -18 40 C-17.42121094 38.99066406 -16.84242188 37.98132813 -16.24609375 36.94140625 C-9.47163354 25.07045375 -3.11009842 13.45526791 0 0 Z " fill="#FCCC60" transform="translate(443,146)"/>
<path d="M0 0 C0.99 0.33 1.98 0.66 3 1 C3.67260742 2.78735352 3.67260742 2.78735352 4.10546875 5.12890625 C4.36807495 6.42368896 4.36807495 6.42368896 4.63598633 7.74462891 C4.81798584 8.67452637 4.99998535 9.60442383 5.1875 10.5625 C7.0915917 19.50737399 10.00551302 26.97397164 14.42578125 34.9453125 C16 38 16 38 16 41 C-2.8462097 42.14412066 -19.56484853 35.71797909 -34.109375 23.89453125 C-35.98337888 22.01665546 -36.98579431 20.43301471 -38 18 C-37.04222656 17.74347656 -36.08445313 17.48695313 -35.09765625 17.22265625 C-27.24975584 15.00756321 -20.01822666 12.28018546 -12.8125 8.4375 C-12.10681885 8.06181885 -11.4011377 7.6861377 -10.67407227 7.29907227 C-7.57409984 5.59526209 -4.92851003 3.94027546 -2.19921875 1.66015625 C-1.47347656 1.11230469 -0.74773437 0.56445312 0 0 Z " fill="#FCCD61" transform="translate(184,425)"/>
<path d="M0 0 C1.6384516 3.02305858 2.80397414 6.14515735 3.95361328 9.38110352 C6.93463372 17.73410921 10.56031141 25.30656703 15 33 C15.73747103 34.29008353 16.47444533 35.58045114 17.2109375 36.87109375 C17.80132812 37.90363281 18.39171875 38.93617188 19 40 C18.10244995 40.22550537 18.10244995 40.22550537 17.18676758 40.45556641 C1.51194144 44.43210749 1.51194144 44.43210749 -13.34375 50.703125 C-16.16873875 52.08238421 -19.00174904 53.06525117 -22 54 C-23.06161116 34.86150991 -17.35463223 18.84230783 -5.05078125 4.1796875 C-3 2 -3 2 0 0 Z " fill="#FCCD61" transform="translate(68,146)"/>
<path d="M0 0 C-0.67095703 1.25490234 -0.67095703 1.25490234 -1.35546875 2.53515625 C-7.25128688 13.88680608 -11.82626251 25.23303274 -13.54296875 38.0234375 C-13.69378906 38.67570312 -13.84460938 39.32796875 -14 40 C-14.99 40.495 -14.99 40.495 -16 41 C-18.15382396 39.7070972 -20.18968189 38.36706306 -22.25 36.9375 C-32.38886445 30.17299078 -43.10239988 25.76801309 -55 23 C-49.52230018 12.86976669 -37.91143566 6.33279065 -27.2734375 2.7421875 C-18.09420358 0.07514138 -9.53139102 -0.49300298 0 0 Z " fill="#FCCD61" transform="translate(201,46)"/>
<path d="M0 0 C0.7969399 19.68736718 -4.65792327 35.96317093 -17.140625 51.1796875 C-19.00170322 53.00166744 -20.61262481 53.99645733 -23 55 C-23.268125 54.030625 -23.53625 53.06125 -23.8125 52.0625 C-25.97622359 44.54904548 -28.49080684 37.43594772 -32 30.4375 C-32.3196875 29.79619141 -32.639375 29.15488281 -32.96875 28.49414062 C-35.27974319 24.02590983 -38.00483281 20.04035574 -41 16 C-40.67 15.34 -40.34 14.68 -40 14 C-37.99667995 13.50594814 -35.9696521 13.10740217 -33.9375 12.75 C-23.64369571 10.668107 -9.01289403 0 0 0 Z " fill="#FDCD61" transform="translate(466,311)"/>
<path d="M0 0 C2.62642488 1.27476375 5.11504754 2.64744385 7.58203125 4.20703125 C15.82789402 9.31156629 23.60831523 13.32266134 32.92578125 16.0625 C35.48713533 16.84359908 37.66673165 17.70950096 40 19 C29.17783593 31.36818751 15.20702728 38.42273572 -1 41 C-3.26995419 41.06652855 -5.54168695 41.08543751 -7.8125 41.0625 C-8.97394531 41.05347656 -10.13539063 41.04445313 -11.33203125 41.03515625 C-12.21246094 41.02355469 -13.09289062 41.01195312 -14 41 C-13.22752306 36.94192115 -11.39734141 33.35123518 -9.6875 29.625 C-6.36190484 22.218649 -4.03645371 14.86592309 -2 7 C-1.34507122 4.66313479 -0.67333013 2.33166283 0 0 Z " fill="#FDCD61" transform="translate(326,425)"/>
<path d="M0 0 C0.74552124 0.37753418 0.74552124 0.37753418 1.50610352 0.76269531 C12.21190602 6.13591235 22.3205254 10.32921967 34 13 C36.3419888 13.63993512 38.67002918 14.31697556 41 15 C39.05230046 18.43558582 37.09300379 21.84764389 35.03515625 25.21875 C30.61532906 32.57054176 27.49079819 39.60735984 25.0078125 47.8203125 C24.18862989 50.40486539 23.30503829 52.63682256 22 55 C9.8827911 44.39744221 2.09136464 30.04720175 0 14 C-0.06578002 11.54245859 -0.08569162 9.08331222 -0.0625 6.625 C-0.05347656 5.37976563 -0.04445312 4.13453125 -0.03515625 2.8515625 C-0.02355469 1.91054688 -0.01195312 0.96953125 0 0 Z " fill="#FDCD61" transform="translate(46,311)"/>
<path d="M0 0 C20.29611959 -1.0363976 36.35815898 5.1795534 52.05078125 17.984375 C54 20 54 20 54 23 C53.01902344 23.268125 52.03804688 23.53625 51.02734375 23.8125 C37.82564609 27.58441362 26.49147913 33.49536057 15 41 C13.98610767 37.5180803 13.01193114 34.04821266 12.140625 30.52734375 C9.46274264 19.73359861 5.94564634 9.4918627 0 0 Z " fill="#FECE61" transform="translate(311,46)"/>
<path d="M0 0 C2.8100346 1.79363911 4.50940468 3.01880935 6 6 C6.6847676 12.96180396 6.6847676 12.96180396 4.0625 16.9375 C0.1240561 19.5899214 -3.2465886 20.62001018 -8 20 C-11 17.625 -11 17.625 -13 15 C-13.33 14.67 -13.66 14.34 -14 14 C-14.58968059 6.92383292 -14.58968059 6.92383292 -12.125 3.0625 C-8.49059499 -0.46501074 -4.90782663 -0.7051475 0 0 Z " fill="#090704" transform="translate(260,86)"/>
<path d="M0 0 C4.21809905 0.2723607 7.23384463 0.54297026 10.171875 3.77734375 C12.29673145 7.41016284 12.80966354 8.97564858 12.109375 13.08984375 C10.84833601 15.86412952 9.79847586 17.5730181 7.359375 19.40234375 C4.0883132 20.40183486 1.51194912 20.44800945 -1.890625 20.08984375 C-4.64391521 18.2942197 -6.41689961 17.03729453 -7.890625 14.08984375 C-8.39760967 8.93549963 -8.39760967 8.93549963 -7.890625 6.08984375 C-5.453125 3.15234375 -5.453125 3.15234375 -2.890625 1.08984375 C-1.890625 0.08984375 -1.890625 0.08984375 0 0 Z " fill="#080704" transform="translate(286.890625,154.91015625)"/>
</svg>
