<svg xmlns="http://www.w3.org/2000/svg" width="13" height="13" viewBox="0 0 13 13" fill="none">
  <path d="M5.68801 2.11444L6.50473 2.5228L6.91311 3.33956C6.97785 3.46906 7.10804 3.54952 7.25283 3.54952C7.39762 3.54952 7.52777 3.46908 7.59252 3.33961L8.0009 2.52285L8.81758 2.11449C8.94709 2.04972 9.02757 1.91957 9.02757 1.7748C9.02757 1.63002 8.94711 1.49985 8.81758 1.43508L8.0009 1.02672L7.5925 0.209934C7.52775 0.0804426 7.39757 0 7.25282 0C7.10801 0 6.97783 0.0804426 6.91309 0.209934L6.5047 1.02672L5.68808 1.43503C5.55852 1.49975 5.47803 1.62993 5.47803 1.77477C5.47804 1.91961 5.5585 2.04975 5.68801 2.11444ZM6.21834 1.77477L6.7948 1.48656C6.86765 1.4501 6.92795 1.3898 6.9646 1.31672L7.25283 0.740279L7.54091 1.31652C7.57739 1.38959 7.63772 1.44998 7.71085 1.48659L8.28727 1.7748L7.71086 2.06303C7.63775 2.09957 7.5774 2.15992 7.54101 2.23289L7.25282 2.80933L6.96447 2.23264C6.92793 2.15972 6.86767 2.09949 6.79477 2.06303L6.21834 1.77477Z" fill="#222F42"/>
  <path d="M11.7698 4.01022L10.5698 3.61023L10.1698 2.41018C10.118 2.25489 9.9732 2.15054 9.80953 2.15054C9.64579 2.15054 9.50099 2.2549 9.44922 2.41022L9.04929 3.61022L7.8493 4.0102C7.69394 4.06199 7.5896 4.20677 7.5896 4.37049C7.58958 4.53423 7.69393 4.67905 7.84929 4.73082L9.04927 5.1308L9.44924 6.33082C9.50104 6.48613 9.64583 6.59046 9.80955 6.59046C9.97324 6.59046 10.118 6.48612 10.1698 6.33082L10.5698 5.13082L11.7699 4.73084C11.9252 4.679 12.0295 4.5342 12.0295 4.37053C12.0295 4.20681 11.9252 4.06202 11.7698 4.01022ZM11.14 4.37053L10.3223 4.64307C10.2097 4.68059 10.1199 4.77036 10.0821 4.88328L9.80955 5.70094L9.53702 4.88331C9.49945 4.77049 9.40963 4.68067 9.29681 4.64307L8.47914 4.37051L9.29684 4.09795C9.40965 4.06033 9.49943 3.97054 9.53701 3.85776L9.80955 3.04008L10.0822 3.85815C10.1199 3.97077 10.2097 4.06041 10.3223 4.09795L11.14 4.37053Z" fill="#222F42"/>
  <path d="M11.209 7.36963C11.1771 7.36963 11.0968 7.37577 11.0399 7.43269C11.0096 7.46304 10.9783 7.49338 10.9469 7.523C10.8708 7.59476 10.7911 7.66481 10.7098 7.73117C10.6882 7.74876 10.6667 7.76597 10.6451 7.78295C9.87644 8.38669 8.908 8.71917 7.91793 8.71917C7.32842 8.71917 6.7521 8.60607 6.20493 8.38295C5.63866 8.152 5.12995 7.81333 4.69295 7.37631C3.89402 6.57731 3.41959 5.52145 3.35713 4.40312C3.29498 3.29072 3.64369 2.2094 4.33903 1.35832C4.35083 1.34386 4.3627 1.32951 4.37475 1.31517C4.42946 1.24994 4.48687 1.18538 4.54534 1.12335C4.57592 1.09095 4.60656 1.05936 4.63651 1.02943C4.68602 0.979955 4.71275 0.900791 4.70808 0.81766C4.70367 0.739397 4.67398 0.693988 4.665 0.681922L4.63944 0.648315L4.59829 0.657102C4.46148 0.686316 4.32398 0.72107 4.18959 0.760414C4.13875 0.775316 4.08785 0.790988 4.03816 0.80707L4.00957 0.816365C1.64877 1.59289 0 3.84028 0 6.28159C0 9.45138 2.57884 12.0302 5.74862 12.0302C8.1818 12.0302 10.365 10.4595 11.1813 8.12177C11.1881 8.10227 11.195 8.08225 11.2018 8.06226C11.2261 7.98995 11.2494 7.91584 11.271 7.84197C11.3067 7.71989 11.3386 7.59515 11.3659 7.4713L11.376 7.42504L11.3353 7.40082C11.3195 7.39146 11.2755 7.36963 11.209 7.36963ZM3.07761 2.44607C2.41451 4.28492 2.8908 6.37789 4.29105 7.77815C5.26438 8.75146 6.55365 9.28751 7.92134 9.28751C8.47454 9.28751 9.01811 9.19808 9.53698 9.02176L10.366 8.73999L9.82841 9.4311C9.35059 10.0455 8.73496 10.5554 8.04816 10.9056C7.32433 11.2748 6.55061 11.4619 5.74859 11.4619C4.36488 11.4619 3.06398 10.923 2.08556 9.94461C1.1071 8.96618 0.568262 7.66531 0.568262 6.28159C0.568262 5.47482 0.768212 4.66535 1.14652 3.94068C1.51036 3.24374 2.03838 2.62359 2.67347 2.14727L3.37513 1.621L3.07761 2.44607Z" fill="#222F42"/>
</svg>