<svg xmlns="http://www.w3.org/2000/svg" width="24" height="28" viewBox="0 0 24 28" fill="none">
  <path d="M7.64501 16.3407H18.2255C18.6468 16.3407 18.9897 15.9979 18.9897 15.5766C18.9897 15.1552 18.6468 14.8124 18.2255 14.8124H7.64501C7.22367 14.8124 6.88086 15.1552 6.88086 15.5766C6.88086 15.9979 7.22367 16.3407 7.64501 16.3407Z" fill="#C6A148"/>
  <path d="M7.64501 21.631H18.2255C18.6468 21.631 18.9897 21.2882 18.9897 20.8669C18.9897 20.4455 18.6468 20.1027 18.2255 20.1027H7.64501C7.22367 20.1027 6.88086 20.4455 6.88086 20.8669C6.88086 21.2882 7.22367 21.631 7.64501 21.631Z" fill="#C6A148"/>
  <path d="M7.64501 11.0507H18.2255C18.6468 11.0507 18.9897 10.7079 18.9897 10.2866C18.9897 9.86524 18.6468 9.52243 18.2255 9.52243H7.64501C7.22367 9.52243 6.88086 9.86524 6.88086 10.2866C6.88086 10.7079 7.22367 11.0507 7.64501 11.0507Z" fill="#C6A148"/>
  <path d="M4.99974 9.52243C4.5784 9.52243 4.2356 9.86524 4.2356 10.2866C4.2356 10.7079 4.5784 11.0507 4.99974 11.0507C5.42108 11.0507 5.76389 10.7079 5.76389 10.2866C5.76389 9.86524 5.42108 9.52243 4.99974 9.52243Z" fill="#C6A148"/>
  <path d="M4.99974 14.8124C4.5784 14.8124 4.2356 15.1552 4.2356 15.5766C4.2356 15.9979 4.5784 16.3407 4.99974 16.3407C5.42108 16.3407 5.76389 15.9979 5.76389 15.5766C5.76389 15.1552 5.42108 14.8124 4.99974 14.8124Z" fill="#C6A148"/>
  <path d="M4.99974 20.1027C4.5784 20.1027 4.2356 20.4455 4.2356 20.8669C4.2356 21.2882 4.5784 21.631 4.99974 21.631C5.42108 21.631 5.76389 21.2882 5.76389 20.8669C5.76389 20.4455 5.42108 20.1027 4.99974 20.1027Z" fill="#C6A148"/>
  <path d="M9.42216 5.7605H13.6544C14.805 5.7605 15.7411 4.82447 15.7411 3.67379V2.08671C15.7411 0.936022 14.805 0 13.6544 0H9.42216C8.27147 0 7.33545 0.936022 7.33545 2.08671V3.67379C7.33545 4.82424 8.27171 5.7605 9.42216 5.7605ZM14.2128 3.67379C14.2128 3.9818 13.9624 4.2322 13.6544 4.2322H9.42216C9.11415 4.2322 8.86374 3.9818 8.86374 3.67379V2.08671C8.86374 1.7787 9.11415 1.52829 9.42216 1.52829H13.6544C13.9624 1.52829 14.2128 1.7787 14.2128 2.08671V3.67379Z" fill="#C6A148"/>
  <path d="M18.222 2.09424H17.1834C16.7621 2.09424 16.4193 2.43705 16.4193 2.85839C16.4193 3.27972 16.7621 3.62253 17.1834 3.62253H18.222C20.1377 3.62253 21.6964 5.10239 21.6964 6.9213V23.1732C21.6964 24.9919 20.1377 26.4717 18.222 26.4717H5.0027C3.08692 26.4717 1.52829 24.9919 1.52829 23.1732V6.9213C1.52829 5.10239 3.08692 3.62253 5.0027 3.62253H6.03253C6.45387 3.62253 6.79668 3.27972 6.79668 2.85839C6.79668 2.43705 6.45387 2.09424 6.03253 2.09424H5.0027C2.24424 2.09424 0 4.25948 0 6.9213V23.1732C0 25.8348 2.24424 28 5.0027 28H18.222C20.9804 28 23.2247 25.8348 23.2247 23.1732V6.9213C23.2247 4.25971 20.9804 2.09424 18.222 2.09424Z" fill="#C6A148"/>
</svg>