<svg xmlns="http://www.w3.org/2000/svg" width="24" height="28" viewBox="0 0 24 28" fill="none">
  <path d="M23.9085 22.0263L21.9091 17.8216V9.86669C21.9078 7.37794 20.9689 4.9811 19.2796 3.15405C17.5903 1.32701 15.2746 0.204013 12.7943 0.00897904C12.7603 0.00697915 12.7262 0.00697915 12.6921 0.00897904C12.6921 0.00897904 11.445 -0.0112238 11.1989 0.00897904C8.71837 0.203711 6.40239 1.32657 4.71278 3.15365C3.02318 4.98072 2.08412 7.37774 2.08285 9.86669V17.8216L0.0834441 22.0263C0.0208032 22.1581 -0.00744968 22.3037 0.00131743 22.4495C0.0100845 22.5952 0.0555914 22.7363 0.133589 22.8597C0.211586 22.9831 0.319537 23.0848 0.44739 23.1552C0.575242 23.2256 0.718835 23.2625 0.864783 23.2624H6.95264C7.03168 24.5363 7.58993 25.7331 8.51515 26.612C9.44037 27.4909 10.6639 27.9868 11.9398 28H12.0383C13.3174 27.9907 14.5455 27.4967 15.4749 26.6176C16.4044 25.7384 16.9661 24.5395 17.0469 23.2624H23.1347C23.2807 23.2625 23.4243 23.2256 23.5521 23.1552C23.68 23.0848 23.7879 22.9831 23.8659 22.8597C23.9439 22.7363 23.9894 22.5952 23.9982 22.4495C24.007 22.3037 23.9787 22.1581 23.9161 22.0263H23.9085ZM12.0218 26.2689H11.9638C11.1393 26.27 10.3445 25.9614 9.7367 25.4041C9.12891 24.8469 8.75247 24.0816 8.68192 23.2599H15.3088C15.2382 24.0821 14.8614 24.8477 14.253 25.405C13.6447 25.9623 12.8493 26.2706 12.0244 26.2689H12.0218ZM17.0481 21.5326H2.22928L3.72505 18.3872C3.78029 18.2713 3.80918 18.1445 3.80962 18.016V9.86291C3.82018 8.74538 4.05801 7.64167 4.50864 6.61904C4.95927 5.5964 5.61326 4.67622 6.4308 3.91452C7.24833 3.15282 8.2123 2.56555 9.26399 2.18847C10.3157 1.81139 11.4331 1.65241 12.5482 1.72117C12.5828 1.72834 12.6178 1.7334 12.653 1.73632C12.6677 1.73761 12.6825 1.73761 12.6972 1.73632C14.7376 1.90065 16.641 2.8288 18.0274 4.33546C19.4137 5.84212 20.181 7.81642 20.176 9.86416V18.0173C20.1764 18.1458 20.2053 18.2726 20.2606 18.3885L21.7564 21.5338L17.0481 21.5326Z" fill="#C6A148"/>
</svg>