<svg xmlns="http://www.w3.org/2000/svg" width="66" height="55" viewBox="0 0 66 55" fill="none">
  <path d="M33.8244 42.2568C34.0123 42.2568 34.1626 42.1064 34.1626 41.9185V39.3471L35.16 40.3437C35.2236 40.408 35.3096 40.442 35.3992 40.442C35.4888 40.442 35.5698 40.408 35.6384 40.3437C35.7714 40.2107 35.7714 40.0012 35.6384 39.8689L34.6331 38.8672H35.3768C35.5618 38.8672 35.7158 38.7176 35.7158 38.529C35.7158 38.3411 35.5662 38.1908 35.3768 38.1908H34.6331L35.6298 37.1941C35.7627 37.0611 35.7627 36.8516 35.6298 36.7193C35.4968 36.587 35.2879 36.5863 35.1557 36.7193L34.1583 37.7167V35.1445C34.1583 34.9602 34.0087 34.8063 33.8201 34.8063C33.6315 34.8063 33.4818 34.9559 33.4818 35.1445V37.7167L32.4845 36.7236C32.3515 36.5907 32.1426 36.5907 32.0104 36.7236C31.8781 36.8566 31.8774 37.0662 32.0104 37.1985L33.007 38.1958H32.2633C32.0783 38.1958 31.9244 38.3454 31.9244 38.5333C31.9244 38.722 32.0747 38.8723 32.2633 38.8723H33.007L32.0104 39.8689C31.8774 40.0019 31.8774 40.2115 32.0104 40.3437C32.0747 40.408 32.16 40.442 32.2496 40.442C32.3392 40.442 32.4209 40.408 32.4888 40.3437L33.4862 39.3471V41.9185C33.4869 42.1028 33.6365 42.2568 33.8244 42.2568Z" fill="#222F42"/>
  <path d="M65.7344 38.2009C65.7062 38.1879 62.8478 36.9289 62.7611 34.1428C62.7611 33.9433 62.5985 33.7887 62.3997 33.7887C62.399 33.7887 62.399 33.7887 62.399 33.7887C62.2039 33.7887 62.0449 33.9498 62.0377 34.1443C62.0377 34.1486 62.037 34.1537 62.037 34.1587C61.9502 36.9296 59.0919 38.1886 59.0637 38.2016C58.93 38.2587 58.844 38.3895 58.844 38.5348C58.8447 38.6786 58.9307 38.8101 59.0637 38.8665C59.0926 38.8795 61.9502 40.1269 62.037 42.9224C62.037 43.1218 62.1996 43.2772 62.3983 43.2772C62.3983 43.2772 62.399 43.2772 62.3997 43.2772C62.5949 43.2772 62.7524 43.1161 62.7604 42.9231C62.7604 42.9173 62.7611 42.913 62.7611 42.9079C62.8478 40.1385 65.7055 38.8795 65.7344 38.8665C65.8674 38.8094 65.9533 38.6786 65.9533 38.534C65.9533 38.3895 65.8666 38.258 65.7344 38.2009ZM62.4005 41.2103C61.8237 39.8299 60.6883 38.9648 59.975 38.5326C60.6862 38.1004 61.8172 37.2353 62.3954 35.8477C62.9714 37.2324 64.109 38.1004 64.823 38.5333C64.1104 38.9648 62.9772 39.8299 62.4005 41.2103Z" fill="#222F42"/>
  <path d="M7.76172 12.9701C7.73281 12.9571 4.87447 11.6974 4.78846 8.91133C4.78846 8.84339 4.76967 8.78051 4.73642 8.72703C4.67355 8.62079 4.55792 8.54997 4.42566 8.54997C4.22619 8.54997 4.0643 8.71186 4.0643 8.91133V8.92506C4.0643 8.92722 4.0643 8.92867 4.0643 8.93084C3.97469 11.6988 1.11923 12.9571 1.09032 12.9701C0.957341 13.0272 0.87062 13.158 0.871342 13.3026C0.871342 13.4471 0.958069 13.5779 1.09105 13.6343C1.11996 13.6466 3.97685 14.8954 4.0643 17.6902C4.0643 17.8896 4.22619 18.045 4.42566 18.045C4.61429 18.045 4.76895 17.8954 4.78557 17.7111C4.78702 17.6996 4.78774 17.688 4.78846 17.6757C4.87447 14.9055 7.73281 13.6466 7.76172 13.6343C7.8947 13.5772 7.9807 13.4464 7.9807 13.3018C7.9807 13.1573 7.8947 13.0272 7.76172 12.9701ZM4.42711 15.9795C3.85038 14.5984 2.71499 13.7333 2.00167 13.3018C2.71282 12.8696 3.84315 12.0046 4.42277 10.6177C4.99878 12.0024 6.13633 12.8696 6.85037 13.3018C6.13777 13.734 5.00456 14.5984 4.42711 15.9795Z" fill="#222F42"/>
  <path d="M45.8171 12.9022C40.1163 11.6721 34.6114 17.0289 37.396 25.4435C43.5861 36.6311 56.8139 30.8422 52.7978 18.7041C41.9108 -3.21585 16.6576 -5.68681 10.6353 14.5847L14.3038 16.6885C17.2546 -1.49072 35.7157 -1.97494 45.8171 12.9022ZM40.6576 24.0168C35.5437 15.0609 44.5285 10.2606 48.6104 17.9157C48.9356 18.6326 49.2478 19.3669 49.5369 20.1315C55.0845 29.8506 44.0327 34.6885 40.6576 24.0168Z" fill="#222F42"/>
  <path d="M20.0949 41.8744C25.7964 43.1038 31.2999 37.7463 28.5145 29.3303C22.3245 18.1462 9.09657 23.9345 13.1113 36.0696C24.0012 57.9925 49.255 60.4605 55.276 40.1912L51.6068 38.086C48.661 56.2673 30.1977 56.7508 20.0949 41.8744ZM25.2529 30.7576C30.3668 39.7157 21.3849 44.5152 17.303 36.8631C16.9778 36.1455 16.6649 35.409 16.3751 34.6437C10.8268 24.926 21.8785 20.0889 25.2529 30.7576Z" fill="#222F42"/>
</svg>