<svg xmlns="http://www.w3.org/2000/svg" width="33" height="37" viewBox="0 0 33 37" fill="none">
  <path d="M28.0384 16.1074C25.6459 16.1074 23.6995 14.161 23.6995 11.7686C23.6995 9.37612 25.6459 7.42972 28.0384 7.42972C30.4307 7.42972 32.3771 9.37612 32.3771 11.7686C32.3771 14.161 30.4308 16.1074 28.0384 16.1074ZM28.0384 8.46272C26.2155 8.46272 24.7325 9.9457 24.7325 11.7685C24.7325 13.5913 26.2155 15.0743 28.0384 15.0743C29.8611 15.0743 31.3441 13.5913 31.3441 11.7685C31.3441 9.9457 29.8612 8.46272 28.0384 8.46272Z" fill="#222F42"/>
  <path d="M29.7227 11.3448L27.8258 9.96812C27.8252 9.96779 27.2343 9.62341 26.9937 10.2688C26.9829 10.3023 26.9629 10.3873 26.9629 10.5591V11.6852V11.7685V11.8519V12.978C26.9629 13.1498 26.9829 13.2347 26.9937 13.2682C27.2343 13.9136 27.8252 13.5692 27.8258 13.5689L29.7227 12.1922C29.7227 12.1922 29.953 12.012 29.9563 11.7685C29.953 11.5251 29.7227 11.3448 29.7227 11.3448Z" fill="#222F42"/>
  <path d="M0.117432 19.2061V33.0472C0.117432 35.2257 1.88967 36.9979 4.06813 36.9979H24.7216C26.9001 36.9979 28.6723 35.2257 28.6723 33.0472V15.4701H27.6555V33.0472C27.6555 34.665 26.3394 35.981 24.7217 35.981H4.06818C2.45043 35.981 1.13433 34.665 1.13433 33.0472V3.74531L1.18227 3.46169C1.42104 2.04886 2.63435 1.0206 4.06719 1.01675H24.7216C24.7302 1.01661 24.7443 1.01652 24.7582 1.01652C26.1948 1.01652 27.4113 2.04487 27.6506 3.46174L27.72 3.87256L27.7771 4.78958L27.7888 7.93567H28.6723V3.95065C28.6723 1.77224 26.9001 0 24.7216 0H4.06813C1.88967 0 0.117432 1.77224 0.117432 3.95065V7.62773" fill="#222F42"/>
  <path d="M21.8775 26.3229L20.2731 25.7878C22.2684 25.3867 23.3904 24.5632 23.4513 24.5171L24.004 24.102L23.4114 23.7465C22.1174 22.9703 21.3133 21.5499 21.3133 20.0407V18.5678V14.8494C21.3133 11.0051 18.1858 7.87759 14.3415 7.87759C12.4573 7.87759 10.7503 8.63374 9.49509 9.85283L9.49496 9.85292C9.40391 9.94139 9.31497 10.032 9.22876 10.1253V10.1246C8.88203 10.5132 8.25695 11.3336 7.71981 12.68C7.49376 13.3627 7.36956 14.0913 7.36956 14.8494V15.3142V16.2438V17.3965V18.5677V20.0406C7.36956 20.8429 7.13745 21.617 6.72931 22.2851V22.2861C6.72931 22.2861 6.72526 22.2924 6.71775 22.3038C6.673 22.3762 6.62685 22.4477 6.57806 22.5175L6.57318 22.5127C6.38967 22.767 6.06985 23.1736 5.75402 23.4001C5.75383 23.4002 5.75364 23.4004 5.75336 23.4005C5.60183 23.5264 5.44247 23.6435 5.27098 23.7464L4.67843 24.1019L5.23153 24.517C5.2929 24.563 6.41488 25.3862 8.41016 25.7878L6.80575 26.3228C6.31172 26.4873 5.87982 26.7628 5.52938 27.1147C5.28572 27.3723 4.68876 28.1447 4.58081 29.6173V31.179V31.3564V32.4375V32.9391V36.6946H24.1019V29.4086C24.102 28.0064 23.2083 26.7658 21.8775 26.3229ZM6.36431 24.1114C7.48109 23.1981 8.1783 21.846 8.27874 20.3982C8.27874 20.3982 8.29921 17.5854 8.29921 16.5993V14.8495C8.29921 11.518 11.0099 8.80729 14.3415 8.80729C17.6731 8.80729 20.3838 11.518 20.3838 14.8495V16.7208L20.4043 20.3982C20.5047 21.846 21.2019 23.1981 22.3187 24.1114C21.5737 24.4925 20.1277 25.0595 18.1282 25.0726L17.1302 24.7398V23.7768C18.1575 23.1052 18.9262 22.0742 19.2632 20.8639C19.2632 20.8639 19.437 20.0993 19.4529 19.5715C19.4536 19.547 19.4542 19.5223 19.4542 19.4975V17.259C19.4542 16.9039 19.4542 16.565 19.4542 16.2914V15.6602V14.8496H18.5246V15.7792H17.708C16.5604 15.7792 15.4816 15.3325 14.6702 14.521L14.3415 14.1924L14.0129 14.521C13.2014 15.3325 12.1226 15.7792 10.975 15.7792H10.1584V14.8496H9.22881V15.9419V16.291V17.2591V18.9237V19.4975C9.22881 19.6276 9.23853 19.755 9.24834 19.8829C9.22552 19.8751 9.2034 19.8659 9.18105 19.857C9.19561 20.1569 9.24107 20.5025 9.34691 20.8528C9.37123 20.8565 9.39523 20.8611 9.41983 20.864C9.75632 22.0747 10.5256 23.1052 11.5528 23.7768V24.7399L10.5553 25.0726C8.55573 25.0595 7.10933 24.4925 6.36431 24.1114ZM12.4823 24.9257V24.2555C13.0596 24.4814 13.6851 24.6101 14.3415 24.6101C14.9978 24.6101 15.6233 24.4814 16.2007 24.255V24.9252L14.3415 27.5183L12.4823 24.9257ZM13.7483 28.2866C13.4058 28.6115 12.9591 28.7933 12.4823 28.7933C11.4569 28.7933 10.6231 27.9594 10.6231 26.9341C10.6231 26.5724 10.7305 26.229 10.9248 25.9292L11.8395 25.6243L13.7483 28.2866ZM10.1584 19.4974V16.7087H10.975C12.2211 16.7087 13.4002 16.2755 14.3415 15.4802C15.2821 16.2756 16.4618 16.7087 17.7079 16.7087H18.5246V19.4974C18.5246 21.8042 16.6477 23.6806 14.3415 23.6806C12.0352 23.6806 10.1584 21.8042 10.1584 19.4974ZM16.8434 25.6243L17.7576 25.9291C17.9524 26.229 18.0598 26.5724 18.0598 26.934C18.0598 27.9594 17.226 28.7932 16.2007 28.7932C15.7238 28.7932 15.2771 28.6115 14.9346 28.2866L16.8434 25.6243ZM23.1725 35.7651H20.3837V35.0205C20.9847 34.3521 21.3133 33.4973 21.3133 32.5911V32.4312C21.3133 31.5253 20.9847 30.6701 20.3837 30.0017V28.7933H19.4541V30.3801L19.5903 30.5163C20.102 31.0279 20.3836 31.708 20.3836 32.4316V32.5915C20.3836 33.3152 20.102 33.9957 19.5903 34.5069L19.4541 34.6431V35.7651H9.22872V34.6431L9.09254 34.5069C8.5808 33.9952 8.29916 33.3152 8.29916 32.5915V32.4316C8.29916 31.708 8.5808 31.0275 9.09254 30.5163L9.22872 30.3801V28.7933H8.29911V30.0027C7.69816 30.671 7.36952 31.5258 7.36952 32.4322V32.592C7.36952 33.4979 7.69816 34.3532 8.29911 35.0214V35.7651H5.51031V29.4086C5.51031 28.4069 6.14902 27.5206 7.09951 27.2041L9.77111 26.3135C9.7251 26.5158 9.69354 26.7221 9.69354 26.9341C9.69354 28.4721 10.9443 29.7229 12.4823 29.7229C13.1813 29.7229 13.8334 29.4621 14.3415 28.9992C14.8494 29.4621 15.5016 29.7229 16.2007 29.7229C17.7386 29.7229 18.9894 28.4721 18.9894 26.9341C18.9894 26.7221 18.9578 26.5158 18.9118 26.3135L21.5839 27.2041C22.5338 27.5211 23.1725 28.4069 23.1725 29.4086L23.1725 35.7651Z" fill="#222F42"/>
  <path d="M12.0175 18.5678C12.2742 18.5678 12.4823 18.3597 12.4823 18.103C12.4823 17.8464 12.2742 17.6383 12.0175 17.6383C11.7608 17.6383 11.5527 17.8464 11.5527 18.103C11.5527 18.3597 11.7608 18.5678 12.0175 18.5678Z" fill="#222F42"/>
  <path d="M16.6652 18.5678C16.9219 18.5678 17.13 18.3597 17.13 18.103C17.13 17.8464 16.9219 17.6383 16.6652 17.6383C16.4085 17.6383 16.2004 17.8464 16.2004 18.103C16.2004 18.3597 16.4085 18.5678 16.6652 18.5678Z" fill="#222F42"/>
  <path d="M16.2007 20.427H15.2711C15.2711 20.9396 14.8542 21.3566 14.3415 21.3566C13.829 21.3566 13.4119 20.9396 13.4119 20.427H12.4824C12.4824 21.4523 13.3162 22.2862 14.3415 22.2862C15.3669 22.2862 16.2007 21.4523 16.2007 20.427Z" fill="#222F42"/>
</svg>