<svg xmlns="http://www.w3.org/2000/svg" width="38" height="38" viewBox="0 0 38 38" fill="none">
  <path d="M22.3158 37.0287C22.3157 37.0287 22.3157 37.0287 22.3158 37.0287C22.1563 37.0287 21.9951 37.017 21.8363 36.9941C10.4577 35.5419 1.49293 26.5839 0.034314 15.2059C0.00989653 15.0372 -0.0016045 14.8652 0.000179853 14.6947C0.0193382 12.8827 1.50885 11.4085 3.32053 11.4085L3.35016 11.4087H8.6494C9.64686 11.4087 10.4817 12.1563 10.5914 13.1478C10.5921 13.1545 10.5928 13.1613 10.5933 13.168C10.7239 14.8931 11.1648 16.5608 11.9037 18.1249C12.3473 19.0278 12.0207 20.1405 11.1586 20.6601C11.1545 20.6626 11.1504 20.665 11.1462 20.6673L9.97049 21.3373C9.96781 21.3388 9.96508 21.3403 9.96241 21.3418C9.93536 21.3567 9.9086 21.3736 9.88292 21.392C9.53403 21.6429 9.45425 22.1313 9.70537 22.4806C9.70814 22.4845 9.71086 22.4884 9.71353 22.4923C11.0302 24.421 12.6757 26.0665 14.6044 27.3832C14.6082 27.3859 14.6121 27.3886 14.6159 27.3913C14.6414 27.4096 14.6683 27.4266 14.6958 27.4417C14.8124 27.5059 14.9385 27.5384 15.0703 27.5384C15.3555 27.5384 15.618 27.3834 15.7552 27.134C15.7566 27.1314 15.758 27.1288 15.7595 27.1263L16.4294 25.9506C16.7787 25.3444 17.4277 24.9694 18.1246 24.9694C18.3897 24.9694 18.6483 25.0226 18.893 25.1273C18.8997 25.1302 18.9063 25.1332 18.9129 25.1363C20.4782 25.8764 22.1473 26.318 23.874 26.4488C23.8808 26.4492 23.8875 26.4499 23.8942 26.4506C24.8918 26.561 25.6394 27.401 25.6334 28.4047L25.6334 33.6752C25.6351 33.8463 25.6233 34.019 25.5985 34.1887C25.4821 34.9826 25.0829 35.7069 24.4744 36.2284C23.8721 36.7445 23.1055 37.0287 22.3158 37.0287ZM3.32058 12.5824C2.14943 12.5824 1.18649 13.5356 1.1741 14.707C1.17297 14.8185 1.18053 14.931 1.19668 15.0412C1.1972 15.0448 1.19767 15.0483 1.19814 15.0519C2.58735 25.9036 11.1373 34.4479 21.9898 35.8302C21.9935 35.8307 21.9972 35.8312 22.0008 35.8317C22.1052 35.847 22.2111 35.8548 22.3157 35.8548C23.3714 35.8548 24.2834 35.0654 24.4369 34.0186C24.453 33.9082 24.4606 33.7957 24.4594 33.6845C24.4594 33.6824 24.4594 33.6803 24.4594 33.6782V28.4011C24.4618 27.9998 24.1676 27.6664 23.7736 27.6184C21.9114 27.4759 20.1112 26.9998 18.4223 26.2029C18.327 26.1634 18.2268 26.1433 18.1245 26.1433C17.8461 26.1433 17.5868 26.293 17.4479 26.5341L16.7815 27.7036C16.4374 28.3259 15.7821 28.7123 15.0704 28.7123C14.7431 28.7123 14.4178 28.6285 14.1299 28.4702C14.0635 28.4336 13.9987 28.3929 13.9371 28.349C11.8913 26.9514 10.1454 25.2055 8.74778 23.1596C8.12424 22.2853 8.32526 21.0661 9.19795 20.4386C9.26083 20.3934 9.3262 20.3521 9.39287 20.3152L10.5579 19.6514C10.8988 19.4423 11.0268 18.9994 10.8491 18.6404C10.8475 18.6373 10.846 18.6341 10.8445 18.6309C10.0443 16.9387 9.56628 15.1346 9.42357 13.2682C9.37596 12.8767 9.04464 12.5826 8.64936 12.5826H8.64447H3.35011C3.348 12.5826 3.34594 12.5826 3.34387 12.5826L3.32058 12.5824Z" fill="#C6A148"/>
  <path d="M15.2794 23.1995C15.2794 21.8959 16.1545 20.7361 17.4076 20.378L18.084 20.1848L20.9995 19.3519L22.3273 18.9724L23.4961 18.5792V17.9527V17.7966V17.0512C24.2046 17.4051 24.9999 17.6088 25.8439 17.6088C26.7016 17.6088 27.5092 17.3993 28.2264 17.0347V17.493L28.2611 17.4836V18.6105L30.9425 19.4148L33.2166 20.0646L34.3154 20.3787C35.5686 20.7361 36.4438 21.8965 36.4438 23.2002V28.1741H32.905H31.7311H26.7909V29.348H37.6177V23.1995C37.6177 21.3747 36.3921 19.75 34.6377 19.2493L29.4003 17.7532V16.2212C30.0418 15.6348 30.5378 14.8941 30.8296 14.0565C31.5468 13.9843 32.2224 13.6644 32.7113 13.1262C33.2021 12.5867 33.4562 11.8789 33.4579 11.1522H33.4744V7.63046C33.4744 3.42314 30.0512 0 25.8439 0C21.6366 0 18.2134 3.42314 18.2134 7.63046V11.1522H18.2299C18.2317 11.8794 18.4864 12.5867 18.9765 13.1262C19.4654 13.6638 20.1411 13.9837 20.8583 14.0565C21.1553 14.9093 21.6635 15.6612 22.3222 16.2523V17.7532L17.0847 19.2493C15.3303 19.75 14.1047 21.3747 14.1047 23.1995V24.6288H15.2793L15.2794 23.1995ZM31.8427 12.3367C31.6401 12.5591 31.3819 12.7159 31.1019 12.811C31.1166 12.6508 31.1266 12.4899 31.1266 12.3262V9.51755C31.7582 9.75708 32.2289 10.3135 32.2923 10.9773C32.3404 11.4821 32.1808 11.9652 31.8427 12.3367ZM19.8452 12.3367C19.5072 11.9652 19.3475 11.4827 19.3957 10.9779C19.4591 10.314 19.9298 9.75759 20.5613 9.51811V12.3261C20.5613 12.4899 20.5713 12.6507 20.586 12.8109C20.306 12.7153 20.0478 12.5591 19.8452 12.3367ZM21.1483 8.21741V8.21915C20.4891 8.24028 19.8816 8.47981 19.3874 8.85424V7.63041C19.3874 4.07048 22.2841 1.17387 25.8439 1.17387C29.4038 1.17387 32.3005 4.07053 32.3005 7.63041V8.85424C31.781 8.46098 31.136 8.21737 30.4386 8.21737H30.0953C28.6461 8.21737 27.2837 7.65328 26.2589 6.62845L25.8439 6.21349L25.4289 6.62845C24.4042 7.65328 23.0418 8.21737 21.5926 8.21737H21.1483V8.21741ZM21.7352 12.3261V9.38485C23.2555 9.35254 24.6918 8.81376 25.8439 7.84002C26.9961 8.81376 28.4324 9.35259 29.9527 9.38485V12.3261C29.9527 14.5912 28.1096 16.4348 25.8439 16.4348C23.5783 16.4348 21.7352 14.5912 21.7352 12.3261Z" fill="#C6A148"/>
</svg>