<svg xmlns="http://www.w3.org/2000/svg" width="53" height="58" viewBox="0 0 53 58" fill="none">
  <path d="M36.4736 26.9464L35.4904 27.9342V8.41825C35.4904 6.34515 33.8172 4.65966 31.7625 4.65966H31.246C30.6888 4.65966 30.1515 4.78016 29.648 5.0181L29.1 5.27676V3.75858C29.1 1.68626 27.4275 0 25.3721 0H24.8563C23.8547 0 22.9152 0.388369 22.2107 1.09296C21.5061 1.79755 21.1185 2.737 21.1185 3.73863V5.26524L20.5712 5.00735C20.0877 4.7794 19.542 4.6589 18.9924 4.6589H18.4759C16.4089 4.6589 14.728 6.33978 14.728 8.40673L14.7173 18.7753L14.1708 18.5174C13.6658 18.2794 13.1316 18.1589 12.582 18.1589H12.0655C9.99851 18.1589 8.31763 19.8398 8.31763 21.9068V40.0964C8.31763 44.6302 10.0829 48.8938 13.2897 52.1006C16.4956 55.3073 20.7585 57.0726 25.2938 57.0726C34.432 57.0726 42.042 49.6491 42.2585 40.5239L42.2692 40.0964V24.7528H41.4564C39.7648 24.7528 37.9135 25.5725 36.4736 26.9464ZM40.6651 40.0872C40.6528 48.5531 33.7604 55.4409 25.3 55.4409C21.2006 55.4409 17.3453 53.8429 14.4448 50.9424C11.5443 48.0419 9.94632 44.1874 9.94632 40.0872V21.8983C9.94632 20.7263 10.8996 19.7731 12.0724 19.7731H12.5889C13.6297 19.7731 14.4985 20.5252 14.6797 21.5146H14.715L14.7242 21.8983L14.7142 29.5045C14.7142 29.952 15.0788 30.3158 15.5262 30.3158C15.9737 30.3158 16.3375 29.9513 16.3375 29.5038L16.3583 8.38678C16.3583 7.21553 17.3115 6.2615 18.4843 6.2615H19.0001C19.5658 6.2615 20.0953 6.48561 20.4914 6.89394C20.8882 7.30226 21.1062 7.83953 21.1062 8.4075V27.9035C21.1062 28.351 21.4708 28.7155 21.9182 28.7155C22.3657 28.7155 22.7303 28.351 22.7303 27.9035L22.7502 3.73863C22.7502 3.17833 22.969 2.6449 23.3658 2.23581C23.7687 1.83286 24.3037 1.61257 24.8763 1.61257H25.3928C26.5533 1.61257 27.4982 2.57506 27.4982 3.75858V26.5258C27.4982 26.9732 27.8627 27.3378 28.3102 27.3378C28.7577 27.3378 29.1215 26.9732 29.1215 26.5258V8.41825C29.1215 7.25467 30.1047 6.27224 31.2683 6.27224H31.784C32.9453 6.27224 33.8894 7.23472 33.8894 8.41825V35.2572C33.8894 35.7046 34.2539 36.0684 34.7014 36.0684C35.1489 36.0684 35.5135 35.7046 35.5135 35.2572V33.029C35.5135 30.6267 36.6517 29.0348 37.6073 28.1222C38.3479 27.413 39.2575 26.8643 40.1677 26.5764L40.6666 26.4183V40.0872H40.6651Z" fill="#222F42"/>
  <path d="M25.1687 38.4378C21.4861 38.4378 18.5281 39.7088 16.8387 42.0176L16.4734 42.5556L16.8418 42.9916C17.1411 43.3661 19.8421 46.5613 25.1779 46.5613C30.3357 46.5613 33.1794 43.3822 33.4872 43.02L33.8894 42.5594L33.5087 41.9945C31.8186 39.7058 28.8536 38.4378 25.1687 38.4378ZM23.1808 44.0446L23.8547 44.8958L22.7948 44.6556C20.8859 44.2234 19.6256 43.4099 18.9049 42.8028L18.5726 42.5226L18.8919 42.2271C19.9365 41.26 21.3011 40.5938 22.8377 40.2983L23.8754 40.0988L23.2069 40.9177C22.8446 41.3613 22.6458 41.9224 22.6458 42.498C22.6543 43.076 22.8393 43.6125 23.1808 44.0446ZM31.408 42.8066C30.8216 43.2909 29.5421 44.1751 27.5557 44.6456L26.5027 44.895L27.1628 44.0385C27.4966 43.6048 27.6808 43.0622 27.6808 42.5103C27.6808 41.9347 27.4813 41.3736 27.119 40.9292L26.449 40.1087L27.4889 40.3106C29.0133 40.6045 30.3733 41.2677 31.4225 42.2271L31.748 42.5249L31.408 42.8066Z" fill="#222F42"/>
  <path d="M4.71196 39.7864H5.50251C5.69823 39.7864 5.86171 39.6275 5.86171 39.4272C5.86171 39.2276 5.70284 39.068 5.50251 39.068H4.71196L5.77115 38.0095C5.91237 37.8683 5.91237 37.6457 5.77115 37.5053C5.62992 37.3648 5.40734 37.3641 5.26688 37.5053L4.20846 38.5645V35.8328C4.20846 35.6371 4.04958 35.4736 3.84926 35.4736C3.64893 35.4736 3.49005 35.6325 3.49005 35.8328V38.5645L2.43163 37.5099C2.29041 37.3687 2.06782 37.3687 1.92736 37.5099C1.78691 37.6511 1.78691 37.8737 1.92736 38.0141L2.98655 39.0733H2.196C2.00028 39.0733 1.8368 39.2322 1.8368 39.4318C1.8368 39.6321 1.99644 39.7917 2.196 39.7917H2.98655L1.92736 40.8502C1.78691 40.9914 1.78691 41.214 1.92736 41.3544C1.99567 41.4227 2.08701 41.4588 2.18218 41.4588C2.27813 41.4588 2.36409 41.4227 2.43624 41.3544L3.49542 40.296V43.0269C3.49542 43.2226 3.6543 43.3861 3.85386 43.3861C4.05418 43.3861 4.21306 43.2264 4.21306 43.0269V40.296L5.27148 41.3544C5.33979 41.4227 5.43113 41.4588 5.5263 41.4588C5.62148 41.4588 5.70744 41.4227 5.78036 41.3544C5.92158 41.2132 5.92158 40.9906 5.78036 40.8502L4.71196 39.7864Z" fill="#222F42"/>
  <path d="M52.5749 39.0779C52.545 39.0641 49.5094 37.7271 49.4173 34.7683C49.4173 34.5564 49.2454 34.3922 49.0328 34.3922C48.8248 34.3922 48.6567 34.5633 48.649 34.7698C48.649 34.7744 48.649 34.7798 48.6482 34.7852C48.5561 37.7279 45.5206 39.0649 45.4906 39.0787C45.3494 39.1393 45.2573 39.2783 45.2581 39.4325C45.2581 39.5853 45.3494 39.725 45.4906 39.7848C45.5221 39.7987 48.5561 41.1234 48.6482 44.0922C48.6482 44.304 48.8202 44.4691 49.0328 44.4691C49.24 44.4691 49.4089 44.2979 49.4165 44.093C49.4165 44.0868 49.4165 44.0822 49.4173 44.0769C49.5094 41.1357 52.545 39.7987 52.5749 39.7848C52.7161 39.7242 52.8075 39.5853 52.8075 39.4318C52.8075 39.2783 52.7161 39.1386 52.5749 39.0779ZM49.0343 42.2739C48.421 40.808 47.216 39.8892 46.4592 39.4302C47.213 38.9713 48.4141 38.0525 49.0289 36.5789C49.6406 38.0495 50.8487 38.9713 51.6071 39.431C50.8503 39.8892 49.6476 40.808 49.0343 42.2739Z" fill="#222F42"/>
  <path d="M7.31685 12.2828C7.28615 12.2689 4.25057 10.9311 4.15847 7.97232C4.15847 7.76048 3.98654 7.59546 3.77471 7.59546C3.56671 7.59546 3.39862 7.76739 3.39171 7.97308C3.39171 7.97769 3.39094 7.98306 3.39094 7.98843C3.29884 10.9304 0.263263 12.2689 0.232562 12.282C0.0913369 12.3426 0 12.4815 0 12.635C0 12.7886 0.092104 12.9275 0.233329 12.9873C0.26403 13.0004 3.29884 14.3267 3.39094 17.2947C3.39094 17.5066 3.56287 17.6716 3.77471 17.6716C3.98194 17.6716 4.15003 17.5012 4.1577 17.2955C4.1577 17.2901 4.15847 17.2847 4.15847 17.2794C4.25057 14.3374 7.28615 13.0004 7.31685 12.9873C7.45807 12.9267 7.54941 12.7878 7.54941 12.6343C7.54941 12.4808 7.4573 12.3434 7.31685 12.2828ZM3.77471 15.4787C3.16222 14.012 1.95643 13.0933 1.19965 12.635C1.95413 12.1761 3.15531 11.2566 3.76933 9.78368C4.38105 11.255 5.58914 12.1761 6.34746 12.6358C5.59144 13.094 4.38873 14.012 3.77471 15.4787Z" fill="#222F42"/>
</svg>