<svg width="45" height="30" viewBox="0 0 45 30" fill="none" xmlns="http://www.w3.org/2000/svg">
<path d="M43.4737 2.69142C42.9982 1.75786 42.2533 1.01299 41.3196 0.537296C40.2649 -2.10416e-07 39.0934 0 36.7593 0H7.25139C4.91722 0 3.7459 -1.2625e-07 2.69161 0.53712C1.75804 1.01281 1.013 1.75769 0.537481 2.69125C7.74332e-06 3.74572 0 4.91722 0 7.25139V21.9584C0 24.2925 -9.63707e-06 25.464 0.537287 26.5183C1.01316 27.4524 1.75822 28.1973 2.69143 28.6725C3.7459 29.2098 4.91722 29.2098 7.25139 29.2098H36.7593C39.0934 29.2098 40.2649 29.2098 41.3194 28.6725C42.2531 28.1969 42.998 27.4519 43.4735 26.5183C44.0108 25.4639 44.0108 24.2924 44.0108 21.9584V7.25139C44.0108 4.91739 44.0108 3.74572 43.4737 2.69142ZM41.8927 21.9584C41.8927 23.891 41.8927 24.9553 41.5863 25.5569C41.3152 26.0892 40.8905 26.5139 40.3578 26.7852C39.7566 27.0916 38.6919 27.0916 36.7593 27.0916H7.25139C5.31896 27.0916 4.25441 27.0916 3.65287 26.785C3.12051 26.5141 2.69583 26.0894 2.42453 25.5567C2.11811 24.9553 2.11812 23.8908 2.11812 21.9584V7.25139C2.11812 5.31895 2.11811 4.25442 2.42471 3.65287C2.69583 3.12034 3.12052 2.69566 3.65323 2.42437C4.25425 2.11794 5.31896 2.11794 7.25139 2.11794H36.7593C38.6919 2.11794 39.7564 2.11794 40.3578 2.42437C40.8905 2.69584 41.3152 3.12052 41.5865 3.65287C41.8927 4.25424 41.8927 5.31878 41.8927 7.25139V21.9584Z" fill="#EDAA57"/>
<path d="M36.5679 7.41447H24.653C24.0682 7.41447 23.5939 7.88876 23.5939 8.47353C23.5939 9.05831 24.0682 9.53259 24.653 9.53259H36.5679C37.1527 9.53259 37.627 9.05831 37.627 8.47353C37.627 7.88876 37.1527 7.41447 36.5679 7.41447Z" fill="#EDAA57"/>
<path d="M36.5679 13.4005H24.653C24.0682 13.4005 23.5939 13.8747 23.5939 14.4595C23.5939 15.0443 24.0682 15.5186 24.653 15.5186H36.5679C37.1527 15.5186 37.627 15.0443 37.627 14.4595C37.627 13.8747 37.1527 13.4005 36.5679 13.4005Z" fill="#EDAA57"/>
<path d="M36.5679 19.124H24.653C24.0682 19.124 23.5939 19.5983 23.5939 20.183C23.5939 20.7678 24.0682 21.2421 24.653 21.2421H36.5679C37.1527 21.2421 37.627 20.7678 37.627 20.183C37.627 19.5983 37.1527 19.124 36.5679 19.124Z" fill="#EDAA57"/>
<path d="M10.5488 13.4541C11.2571 13.9852 12.134 14.2777 13.0187 14.2777C13.0192 14.2777 13.0222 14.2777 13.0226 14.2777C13.9048 14.2761 14.7796 13.9835 15.486 13.4538C15.6439 13.3353 15.7927 13.2063 15.9293 13.0699C16.694 12.3033 17.1319 11.243 17.1312 10.1613C17.1312 9.06219 16.7028 8.02908 15.9256 7.25314C15.1495 6.4765 14.1164 6.04881 13.0171 6.04881C11.9174 6.04881 10.8833 6.47756 10.1042 7.25702C9.33882 8.02502 8.90106 9.08708 8.90318 10.1703C8.90494 11.2693 9.33422 12.3013 10.1119 13.0764C10.2457 13.2102 10.3927 13.3371 10.5488 13.4541ZM11.3535 8.50389C11.7983 8.05891 12.3891 7.81391 13.0171 7.81391C13.6448 7.81391 14.2343 8.05785 14.6777 8.5016C15.1216 8.94481 15.3659 9.53418 15.3659 10.162C15.3664 10.78 15.1163 11.3854 14.6804 11.8225C14.6032 11.8996 14.5178 11.9734 14.4265 12.0419C14.0228 12.3446 13.5232 12.5119 13.0201 12.5128L13.0183 13.3953V12.5128C12.5132 12.5128 12.0121 12.3456 11.6075 12.0422C11.5175 11.9748 11.4338 11.9024 11.3581 11.8269C10.914 11.3844 10.6692 10.7952 10.6681 10.1673C10.6672 9.5483 10.9173 8.94181 11.3535 8.50389Z" fill="#EDAA57"/>
<path d="M18.3858 16.3416C17.6727 15.6285 16.8376 15.0725 15.9039 14.6888C15.6158 14.5707 15.2877 14.6127 15.0392 14.7989C14.4601 15.2332 13.7431 15.473 13.0187 15.4744C12.2945 15.4744 11.5761 15.2349 10.9955 14.7996C10.747 14.6132 10.4182 14.5712 10.1308 14.6895C9.19354 15.0746 8.35598 15.6328 7.64094 16.3487C6.44385 17.5495 5.67516 19.1402 5.47658 20.828C5.44711 21.0783 5.52601 21.3293 5.69352 21.5176C5.86102 21.7059 6.10107 21.8136 6.35295 21.8136H19.6819C19.934 21.8136 20.1739 21.706 20.3412 21.5178C20.5087 21.3296 20.5876 21.0788 20.5583 20.8285C20.3604 19.1365 19.5887 17.5428 18.3858 16.3416ZM7.43319 20.0485C7.70872 19.127 8.20913 18.2787 8.89028 17.5954C9.33067 17.1543 9.83215 16.7912 10.3853 16.5121C11.1782 16.984 12.0961 17.2395 13.024 17.2395C13.9445 17.2378 14.859 16.982 15.6492 16.5116C16.1996 16.7894 16.6989 17.1509 17.1382 17.5901C17.8235 18.2744 18.3262 19.1245 18.602 20.0485H7.43319Z" fill="#EDAA57"/>
</svg>
