<svg xmlns="http://www.w3.org/2000/svg" width="38" height="34" viewBox="0 0 38 34" fill="none">
  <path d="M37.2832 23.925C36.8044 23.2671 35.7876 23.0882 34.2922 23.3268L28.7894 24.344C28.3707 24.4037 28.1315 24.8224 28.1912 25.2411C28.2512 25.6596 28.6699 25.8991 29.0884 25.8393L34.5912 24.8224C35.0696 24.7027 35.4283 24.7027 35.6678 24.7624C31.0624 26.8559 26.5764 29.1289 22.6284 31.1627C21.0136 31.9998 19.698 32.4188 18.5017 32.4188C17.4848 32.4785 16.5276 32.0001 15.6902 31.6411H15.6305C14.1952 31.0432 7.79551 28.2321 7.13731 27.9328L6.06041 27.5141L6.12015 29.0695V29.1292H6.06041H5.88121H4.7443C3.309 26.8562 2.41186 24.344 1.99316 21.7123C1.93287 21.2339 1.87313 20.6957 1.81339 20.217L5.7609 20.097H5.82063V20.1573L5.88093 21.7123L6.89753 21.2936C7.79466 20.935 8.75153 20.7555 9.76841 20.7555C10.9648 20.6957 12.2209 21.0544 13.477 21.7123C13.9554 21.9518 14.4339 22.3105 14.9123 22.7289C15.3907 23.0882 15.8694 23.5066 16.4079 23.8058C18.2619 24.9425 20.2957 25.2414 23.0471 24.8227C24.3629 24.6432 25.3198 24.7627 25.559 25.0022C25.559 25.0022 25.619 25.0619 25.559 25.182C25.4993 25.7199 23.8845 26.0188 23.2863 26.0791H23.0468C21.8504 26.318 20.0562 26.5573 18.3811 26.4378L15.9289 26.258C15.5105 26.1983 15.1515 26.557 15.1515 26.9762C15.0915 27.3947 15.4502 27.7536 15.8694 27.7536C18.0824 27.9331 18.3216 27.9331 18.3216 27.9331C20.1759 28.0526 22.0902 27.8136 23.346 27.5744L23.5855 27.5144C24.7219 27.3349 26.8151 26.9762 27.1143 25.3609C27.2341 24.6432 26.9348 24.1645 26.6956 23.8656C25.7985 22.9684 23.9442 23.0885 22.927 23.2674C20.5949 23.6261 18.8601 23.3874 17.305 22.43C16.8263 22.1313 16.4079 21.7721 15.9292 21.4731C15.3907 21.0547 14.8526 20.636 14.2544 20.3368C12.7593 19.5594 11.2637 19.2001 9.82843 19.2001C8.99103 19.2001 8.15336 19.3199 7.37597 19.5591C7.19649 18.9009 6.65803 18.5422 5.82063 18.602L1.39498 18.7217H1.15548H0.198608L0.258346 19.4991C0.258346 19.7386 0.318358 19.9778 0.318358 20.217L0.497845 21.8321C0.916545 24.703 1.93315 27.4547 3.54849 29.9669C3.72797 30.2658 4.14639 30.505 4.56509 30.505H5.94095H6.12015C6.77835 30.505 7.25678 30.1461 7.49599 29.6679C8.15391 29.9669 14.3144 32.6583 15.1521 33.0172H15.2121C16.1689 33.4359 17.2456 33.9144 18.5017 33.9144H18.6211C20.0567 33.8544 21.552 33.4359 23.4063 32.4788C27.4138 30.4453 31.8998 28.1723 36.6255 26.0188C37.164 25.7799 37.5227 25.4209 37.6424 25.0022C37.5821 24.643 37.5227 24.2843 37.2832 23.925Z" fill="#C6A148"/>
  <path d="M24.3635 0C18.6212 0 13.9561 4.66544 13.9561 10.4075C13.9561 16.1495 18.6215 20.8147 24.3635 20.8147C30.1053 20.8147 34.7708 16.1495 34.7708 10.4075C34.7708 4.66544 30.105 0 24.3635 0ZM24.3635 19.3208C19.4583 19.3208 15.4511 15.3133 15.4511 10.4083C15.4511 5.5034 19.4583 1.49588 24.3635 1.49588C29.2682 1.49588 33.276 5.5034 33.276 10.4083C33.276 15.3133 29.2682 19.3208 24.3635 19.3208Z" fill="#C6A148"/>
  <path d="M28.4948 6.66831C28.8821 6.66831 29.1959 6.35449 29.1959 5.9672C29.1959 5.57991 28.8821 5.2661 28.4948 5.2661H24.0829H20.4066H19.6716C19.2843 5.2661 18.9705 5.57991 18.9705 5.9672C18.9705 6.35449 19.2843 6.66831 19.6716 6.66831H20.4066H24.0829C25.0732 6.66831 25.9139 7.31473 26.2092 8.20738H21.1422C20.7549 8.20738 20.4411 8.52119 20.4411 8.90848C20.4411 9.29577 20.7549 9.60959 21.1422 9.60959H26.2092C25.9139 10.5022 25.0732 11.1487 24.0829 11.1487H21.877C21.5934 11.1487 21.3377 11.3194 21.2291 11.5814C21.1206 11.8433 21.1803 12.1448 21.3811 12.3456L25.7933 16.7575C25.9302 16.8944 26.1097 16.9628 26.2892 16.9628C26.4686 16.9628 26.6478 16.8944 26.785 16.7575C27.059 16.4838 27.059 16.0398 26.785 15.7659L23.5697 12.5509H24.0829C25.8517 12.5509 27.3282 11.2835 27.6558 9.60959H28.4948C28.8821 9.60959 29.1959 9.29577 29.1959 8.90848C29.1959 8.52119 28.8821 8.20738 28.4948 8.20738H27.6558C27.5439 7.63471 27.2959 7.11141 26.9488 6.66831H28.4948Z" fill="#C6A148"/>
</svg>