<svg xmlns="http://www.w3.org/2000/svg" width="62" height="57" viewBox="0 0 62 57" fill="none">
  <path d="M25.5741 40.2246H26.3639C26.5604 40.2246 26.7239 40.0657 26.7239 39.8654C26.7239 39.6658 26.565 39.5062 26.3639 39.5062H25.5741L26.6326 38.4478C26.7738 38.3065 26.7738 38.084 26.6326 37.9435C26.4913 37.803 26.2695 37.8023 26.1291 37.9435L25.0699 39.0027V36.271C25.0699 36.0753 24.911 35.9118 24.7107 35.9118C24.5103 35.9118 24.3515 36.0707 24.3515 36.271V39.0027L23.2923 37.9481C23.1511 37.8069 22.9292 37.8069 22.7888 37.9481C22.6483 38.0893 22.6476 38.3119 22.7888 38.4524L23.8472 39.5116H23.0574C22.8609 39.5116 22.6974 39.6704 22.6974 39.87C22.6974 40.0703 22.8571 40.23 23.0574 40.23H23.8472L22.7888 41.2884C22.6476 41.4296 22.6476 41.6522 22.7888 41.7926C22.8571 41.861 22.9477 41.897 23.0428 41.897C23.138 41.897 23.2247 41.861 23.2969 41.7926L24.3561 40.7342V43.4651C24.3561 43.6608 24.5149 43.8243 24.7153 43.8243C24.9148 43.8243 25.0745 43.6646 25.0745 43.4651V40.7342L26.1337 41.7926C26.2012 41.861 26.2925 41.897 26.3877 41.897C26.4829 41.897 26.5689 41.861 26.6418 41.7926C26.783 41.6514 26.783 41.4288 26.6418 41.2884L25.5741 40.2246Z" fill="#222F42"/>
  <path d="M61.261 39.5162C61.2295 39.5024 58.194 38.1653 58.1026 35.2065C58.1026 34.9947 57.9299 34.8304 57.7189 34.8304H57.7173C57.5101 34.8304 57.3412 35.0016 57.3351 35.208C57.3343 35.2126 57.3336 35.218 57.3336 35.2234C57.2422 38.1661 54.2067 39.5031 54.1752 39.5169C54.034 39.5776 53.9426 39.7165 53.9426 39.8708C53.9426 40.0235 54.0347 40.1632 54.1767 40.2231C54.2067 40.2369 57.2415 41.5616 57.3336 44.5304C57.3336 44.7423 57.5063 44.9073 57.7173 44.9073H57.7181C57.9253 44.9073 58.0934 44.7361 58.1011 44.5312C58.1019 44.5251 58.1026 44.5205 58.1026 44.5151C58.194 41.5739 61.2295 40.2369 61.261 40.2231C61.4022 40.1624 61.4936 40.0235 61.4936 39.87C61.4936 39.7165 61.4022 39.5768 61.261 39.5162ZM57.7189 42.7122C57.1071 41.2462 55.9014 40.3275 55.1438 39.8685C55.8991 39.4095 57.1002 38.4908 57.7143 37.0171C58.326 38.4877 59.5341 39.4095 60.2924 39.8692C59.5356 40.3275 58.3329 41.2462 57.7189 42.7122Z" fill="#222F42"/>
  <path d="M7.31762 12.721C7.28692 12.7072 4.25134 11.3694 4.16001 8.41059C4.16001 8.19875 3.98731 8.03373 3.77547 8.03373C3.56747 8.03373 3.39861 8.20566 3.39171 8.41136C3.39094 8.41596 3.39094 8.42134 3.39094 8.42671C3.29884 11.3686 0.263263 12.7072 0.232562 12.7203C0.0913369 12.7809 0 12.9198 0 13.0733C0 13.2268 0.0913365 13.3658 0.233329 13.4256C0.26403 13.4387 3.29807 14.765 3.39094 17.733C3.39094 17.9448 3.56287 18.1098 3.77471 18.1098C3.98194 18.1098 4.1508 17.9395 4.15847 17.7338C4.15847 17.7284 4.15924 17.723 4.16001 17.7176C4.25134 14.7757 7.28692 13.4387 7.31762 13.4256C7.45884 13.365 7.55017 13.2261 7.55017 13.0726C7.55017 12.919 7.45807 12.7817 7.31762 12.721ZM3.77547 15.917C3.16298 14.4503 1.9572 13.5315 1.20042 13.0733C1.9549 12.6143 3.15608 11.6948 3.77011 10.222C4.38183 11.6933 5.58991 12.6143 6.34823 13.0741C5.59298 13.5323 4.38872 14.4503 3.77547 15.917Z" fill="#222F42"/>
  <path d="M50.1465 0.439026C47.5377 0.535734 38.4026 1.78988 30.6452 11.6319C22.8886 1.78911 13.7534 0.534967 11.1438 0.439026C10.7094 0.439026 10.3464 0.631677 10.057 1.01774C9.76612 1.3071 9.62183 1.88582 9.62183 2.36859V42.8948C9.62183 43.9571 10.2021 44.8259 10.9988 44.8259C13.6084 44.9219 22.5984 46.0793 30.1394 56.1147C30.2115 56.2115 30.2837 56.3074 30.3566 56.3074C30.4287 56.3074 30.5009 56.4041 30.646 56.4041C30.7189 56.4041 30.8632 56.4041 30.9368 56.3074C31.009 56.3074 31.0811 56.2115 31.1541 56.1147C38.6927 46.176 47.6828 44.9219 50.2931 44.8259C51.0906 44.8259 51.6709 43.9571 51.6709 42.8948V2.36859C51.6709 1.88582 51.5258 1.3071 51.2364 1.01774C50.9448 0.631677 50.5825 0.439026 50.1465 0.439026ZM29.9206 53.9879C22.3083 44.918 13.6813 42.2256 11.0709 42.1281V3.13612C13.6084 3.23206 22.5263 2.95191 29.9206 12.6013V53.9879ZM50.2202 42.1273C47.6106 42.2248 38.9813 44.9173 31.3697 53.9879V12.6013C38.837 2.95268 47.682 3.23283 50.2202 3.13612V42.1273Z" fill="#222F42"/>
</svg>