<svg xmlns="http://www.w3.org/2000/svg" width="25" height="25" viewBox="0 0 25 25" fill="none">
  <path d="M24.3104 19.4201H24.3403L19.7703 14.8491C19.5903 14.6691 19.3703 14.5261 19.1403 14.4301C18.9003 14.3331 18.6503 14.2841 18.3903 14.2861C17.8703 14.2851 17.3703 14.4871 16.9903 14.8491L15.6902 16.1541C15.5902 16.2571 15.4703 16.3391 15.3403 16.3941C15.2103 16.4501 15.0603 16.4791 14.9203 16.4791C14.7803 16.4791 14.6403 16.4501 14.5003 16.3941C14.3703 16.3391 14.2503 16.2571 14.1503 16.1541L8.51031 10.5101C8.41031 10.4121 8.33032 10.2951 8.27032 10.1651C8.21032 10.0361 8.18035 9.89613 8.18035 9.75513C8.18035 9.61513 8.21032 9.47611 8.27032 9.34711C8.32032 9.21911 8.40031 9.10312 8.51031 9.00712L9.82025 7.69614C10.1802 7.32414 10.3803 6.82813 10.3803 6.31113C10.3803 5.79413 10.1802 5.29712 9.82025 4.92612L5.51031 0.586126C5.15031 0.218126 4.66032 0.00812741 4.14032 0.000127412C3.88032 -0.00287259 3.63032 0.0471142 3.39032 0.149114C3.16032 0.250114 2.94032 0.39914 2.77032 0.58814L2.71026 0.646124C1.85026 1.50112 1.17025 2.51813 0.700251 3.63913C0.240251 4.75913 0.00030031 5.96111 0.00030031 7.17512C-0.00969969 8.38912 0.230242 9.59212 0.690242 10.7141C1.16024 11.8351 1.84026 12.8521 2.71026 13.7031L11.0203 22.0171C12.7603 23.7451 15.1103 24.7181 17.5503 24.7281C18.7703 24.7361 19.9703 24.5001 21.0903 24.0351C22.2103 23.5691 23.2303 22.8831 24.0803 22.0171L24.1403 21.9561C24.4703 21.6221 24.6602 21.1831 24.6902 20.7181C24.7202 20.2531 24.5804 19.7931 24.3104 19.4201ZM3.72027 1.69114L3.78033 1.62913C3.82033 1.58413 3.87035 1.54911 3.93035 1.52411C3.98035 1.50011 4.04029 1.48713 4.11029 1.48713C4.17029 1.48713 4.23034 1.50011 4.29034 1.52411C4.34034 1.54911 4.39024 1.58413 4.44024 1.62913L8.77032 5.96811C8.82032 6.01011 8.8603 6.06114 8.88031 6.11814C8.90031 6.17414 8.92034 6.23512 8.92034 6.29712C8.92034 6.35912 8.90031 6.42014 8.88031 6.47614C8.8603 6.53314 8.82032 6.58413 8.77032 6.62613L7.47027 7.93113C7.23027 8.17113 7.04034 8.45614 6.92034 8.76914C6.79034 9.08314 6.73028 9.41813 6.73028 9.75513C6.74028 10.4351 7.00027 11.0881 7.47027 11.5801L13.1103 17.2251C13.6003 17.7021 14.2503 17.9701 14.9203 17.9701C15.6003 17.9701 16.2503 17.7021 16.7303 17.2251L18.0403 15.9191C18.0803 15.8751 18.1302 15.8391 18.1902 15.8151C18.2502 15.7901 18.3103 15.7781 18.3703 15.7781C18.4303 15.7781 18.4903 15.7901 18.5503 15.8151C18.6003 15.8391 18.6503 15.8751 18.7003 15.9191L23.0403 20.2591L23.0503 20.2701C23.1003 20.3041 23.1303 20.3481 23.1603 20.3991C23.1903 20.4491 23.2103 20.5051 23.2103 20.5631C23.2103 20.6281 23.2004 20.6941 23.1804 20.7541C23.1604 20.8151 23.1202 20.8701 23.0702 20.9161L23.0103 20.9781C22.2903 21.6991 21.4403 22.2711 20.5003 22.6601C19.5603 23.0491 18.5503 23.2481 17.5403 23.2441C16.5103 23.2471 15.5004 23.0481 14.5604 22.6591C13.6104 22.2701 12.7503 21.6991 12.0303 20.9781L3.72027 12.6631C2.26027 11.2071 1.45025 9.23312 1.45025 7.17612C1.45025 5.11912 2.26027 3.14714 3.72027 1.69114Z" fill="#D5B76E"/>
</svg>