<svg xmlns="http://www.w3.org/2000/svg" width="41" height="41" viewBox="0 0 41 41" fill="none">
  <circle opacity="0.6" cx="20.5" cy="20.5" r="20.5" fill="#222F42"/>
  <path d="M20.8077 28C20.2297 28 15.119 27.9886 13.66 27.5787C13.1187 27.4266 12.6252 27.128 12.2289 26.7131C11.8327 26.2981 11.5476 25.7813 11.4023 25.2145C11.0039 23.6602 11 20.6287 11 20.5005C11 20.3723 11.0044 17.3408 11.4023 15.7865C11.548 15.2198 11.8333 14.7031 12.2296 14.2881C12.6259 13.8731 13.1193 13.5744 13.6605 13.4218C15.119 13.0119 20.2297 13 20.8077 13C21.3857 13 26.4964 13.0114 27.9559 13.4213C28.497 13.5738 28.9903 13.8724 29.3866 14.2873C29.7828 14.7022 30.068 15.2189 30.2136 15.7855V15.786C30.6109 17.3403 30.6154 20.3713 30.6154 20.4995C30.6154 20.6277 30.6109 23.6592 30.2136 25.2135C30.068 25.7803 29.7827 26.2972 29.3863 26.7122C28.9899 27.1272 28.4963 27.4259 27.9549 27.5782C26.4964 27.9881 21.3857 28 20.8077 28Z" fill="#D5B76E"/>
  <path d="M18.5751 24.5385C18.4021 24.5385 18.2363 24.4673 18.1141 24.3406C17.9918 24.2139 17.9231 24.042 17.9231 23.8628V17.1382C17.9227 17.0194 17.9526 16.9026 18.0097 16.7997C18.0668 16.6967 18.1492 16.6113 18.2484 16.5519C18.3477 16.4925 18.4603 16.4613 18.5749 16.4615C18.6895 16.4618 18.802 16.4933 18.901 16.5531L24.5202 19.9157C24.6193 19.975 24.7016 20.0603 24.7588 20.163C24.8161 20.2657 24.8462 20.3822 24.8462 20.5008C24.8462 20.6194 24.8161 20.7359 24.7588 20.8386C24.7016 20.9413 24.6193 21.0266 24.5202 21.0859L18.901 24.4486C18.8017 24.5073 18.6894 24.5383 18.5751 24.5385Z" fill="white"/>
</svg>