<?xml version="1.0" encoding="UTF-8"?>
<svg version="1.1" xmlns="http://www.w3.org/2000/svg" width="512" height="512">
<path d="M0 0 C1.0621875 0.36222656 2.124375 0.72445312 3.21875 1.09765625 C22.96393594 8.60388029 40.09148238 24.86299562 49 44 C54.49500408 56.5021226 56.30031426 68.24890403 56.29052734 81.80883789 C56.29652512 83.17187869 56.30333349 84.53491613 56.31088257 85.89794922 C56.32842826 89.57401957 56.33323323 93.2499966 56.33451414 96.92610478 C56.33594344 99.23223967 56.34022777 101.53835142 56.34550858 103.84448051 C56.36397494 111.91708739 56.37218394 119.98962856 56.37060547 128.06225586 C56.36940677 135.54216153 56.3904644 143.0217774 56.4220928 150.50160986 C56.44840716 156.95893754 56.45896639 163.4161715 56.45769465 169.87355226 C56.45718921 173.7143443 56.46263657 177.55487875 56.48405075 181.39561653 C56.67976708 219.09633344 56.67976708 219.09633344 48.125 234.5 C47.77332764 235.16104736 47.42165527 235.82209473 47.05932617 236.50317383 C46.06299128 238.34981139 45.03770856 240.1763916 44 242 C43.53980469 242.83917969 43.07960938 243.67835938 42.60546875 244.54296875 C33.79856374 259.15019186 17.47687071 272.37093809 1 277 C0.01 277 -0.98 277 -2 277 C-2 286.57 -2 296.14 -2 306 C0.42214844 305.97679687 2.84429687 305.95359375 5.33984375 305.9296875 C7.71296669 305.91404336 10.08608365 305.90192581 12.45922852 305.89013672 C14.09532283 305.88014383 15.73139959 305.86654493 17.36743164 305.84912109 C40.37794709 305.6103791 40.37794709 305.6103791 47.3125 312.125 C48.11300781 312.84945313 48.91351563 313.57390625 49.73828125 314.3203125 C56.20047503 321.97672862 56.6527206 328.82161179 56.5625 338.6875 C56.58634766 339.89728516 56.61019531 341.10707031 56.63476562 342.35351562 C56.63283203 343.51947266 56.63089844 344.68542969 56.62890625 345.88671875 C56.6299939 347.46779419 56.6299939 347.46779419 56.63110352 349.08081055 C55.76975044 353.0650267 54.12559279 354.43366744 51 357 C47.93118286 357.6292057 47.93118286 357.6292057 44.43408203 357.63491821 C43.46516368 357.64661814 43.46516368 357.64661814 42.47667122 357.65855443 C40.31979868 357.6784428 38.16469699 357.66272522 36.0078125 357.64697266 C34.45854668 357.6537503 32.90928891 357.66265426 31.36004639 357.67352295 C27.15746028 357.69630589 22.9554883 357.6874844 18.75289154 357.67162752 C14.35363619 357.6589632 9.95443321 357.67071011 5.55517578 357.67855835 C-1.83245275 357.68765338 -9.2198313 357.67567092 -16.60742188 357.65185547 C-25.1469342 357.62464435 -33.68584965 357.63345863 -42.22534752 357.6609875 C-49.55885106 357.68368181 -56.89217497 357.68687711 -64.22570229 357.67379415 C-68.60497445 357.66600137 -72.98396611 357.66495316 -77.36322021 357.68147659 C-81.48059765 357.69592693 -85.59720603 357.68589013 -89.71450043 357.65700531 C-91.22497023 357.65039739 -92.73550482 357.65228728 -94.24594879 357.66331863 C-96.30953153 357.67699958 -98.37065574 357.6598346 -100.43408203 357.63491821 C-101.58812531 357.63303308 -102.74216858 357.63114796 -103.93118286 357.6292057 C-107.95282792 356.80463979 -109.45840781 355.15481544 -112 352 C-112.63110352 349.08081055 -112.63110352 349.08081055 -112.62890625 345.88671875 C-112.63083984 344.72076172 -112.63277344 343.55480469 -112.63476562 342.35351562 C-112.61091797 341.14373047 -112.58707031 339.93394531 -112.5625 338.6875 C-112.57345703 337.48931641 -112.58441406 336.29113281 -112.59570312 335.05664062 C-112.52740803 326.7929337 -111.34422396 321.3138962 -106.2890625 314.79296875 C-98.48201757 307.26081977 -91.44268913 305.8272735 -80.7578125 305.90234375 C-79.98944061 305.9037587 -79.22106873 305.90517365 -78.42941284 305.90663147 C-75.99456761 305.91219317 -73.55981706 305.9247384 -71.125 305.9375 C-69.46614717 305.94251996 -67.80729288 305.94708199 -66.1484375 305.95117188 C-62.09889322 305.96129574 -58.04955159 305.9808783 -54 306 C-54 296.43 -54 286.86 -54 277 C-56.97 276.34 -59.94 275.68 -63 275 C-73.23731309 270.46649509 -81.19615859 263.8815468 -89 256 C-89.81339844 255.20851563 -90.62679687 254.41703125 -91.46484375 253.6015625 C-104.07579664 240.62413748 -112.07084042 221.13529512 -112.14717102 203.03323364 C-112.15790398 201.27595192 -112.15790398 201.27595192 -112.16885376 199.48316956 C-112.17154266 198.2114238 -112.17423157 196.93967804 -112.17700195 195.62939453 C-112.18327444 194.26532318 -112.18992192 192.90125352 -112.19691467 191.53718567 C-112.21787646 187.06907319 -112.22831451 182.60096071 -112.23828125 178.1328125 C-112.24233273 176.58723814 -112.24644977 175.04166395 -112.25063133 173.49608994 C-112.26967126 166.22707644 -112.28390084 158.95807297 -112.2922433 151.68903935 C-112.30199026 143.33688456 -112.32824796 134.98499657 -112.36874419 126.63293564 C-112.39906601 120.1536352 -112.41372755 113.67441051 -112.41702431 107.19504058 C-112.4193579 103.33687775 -112.42809352 99.47900027 -112.45348549 95.62091446 C-112.6457474 64.81518027 -112.6457474 64.81518027 -108 52 C-107.41820732 50.3457048 -107.41820732 50.3457048 -106.82466125 48.6579895 C-99.54630104 28.96304378 -82.96844821 11.83005259 -64 3 C-43.87464827 -5.84560914 -20.83929371 -7.15764029 0 0 Z M-36 282 C-36 289.92 -36 297.84 -36 306 C-30.72 306 -25.44 306 -20 306 C-20 298.08 -20 290.16 -20 282 C-25.28 282 -30.56 282 -36 282 Z " fill="#010101" transform="translate(284,155)"/>
<path d="M0 0 C1.18703018 -0.00392761 1.18703018 -0.00392761 2.39804077 -0.00793457 C17.25857767 -0.01317104 31.53392041 1.33418596 46.125 4.3125 C46.85831543 4.46203125 47.59163086 4.6115625 48.34716797 4.765625 C52.68994645 5.69969535 56.90531157 6.93996422 61.125 8.3125 C61.9588623 8.57514648 62.79272461 8.83779297 63.65185547 9.10839844 C100.66876367 20.86908017 135.18714522 42.15380257 160.125 72.3125 C160.94097656 73.22902344 161.75695312 74.14554687 162.59765625 75.08984375 C191.24817374 107.44216396 210.62977398 153.59374578 211.2109375 196.99609375 C211.03010948 206.84820763 211.03010948 206.84820763 215.625 215.1875 C216.2540625 215.72117188 216.883125 216.25484375 217.53125 216.8046875 C220.16007438 219.29176155 220.0999897 221.59620497 220.22265625 225.109375 C220.20525391 226.57117188 220.20525391 226.57117188 220.1875 228.0625 C220.17847656 229.04734375 220.16945313 230.0321875 220.16015625 231.046875 C220.14275391 232.16835938 220.14275391 232.16835938 220.125 233.3125 C221.0428125 233.27769531 221.960625 233.24289063 222.90625 233.20703125 C232.18051291 233.00245192 238.84482083 233.05853743 245.875 239.4375 C251.72408513 245.14461704 253.57202635 252.57445966 253.67822266 260.49232483 C253.67169678 261.50089035 253.6651709 262.50945587 253.65844727 263.54858398 C253.66706284 264.63598877 253.67567841 265.72339355 253.68455505 266.84375 C253.70713994 270.41561112 253.70048938 273.98668289 253.69140625 277.55859375 C253.69664514 280.0552646 253.70292259 282.55193347 253.71018982 285.04859924 C253.72190796 290.94032805 253.71235122 296.83177699 253.69578546 302.72348601 C253.6848518 307.40705639 253.69696704 312.09017292 253.72192383 316.77368164 C253.75606095 323.25511884 253.76556536 329.73609109 253.7551403 336.2176075 C253.75432274 338.67946377 253.76114867 341.14133536 253.77591133 343.60314751 C253.79342197 347.0516363 253.77875824 350.49859297 253.75610352 353.94702148 C253.76779572 354.95356277 253.77948792 355.96010406 253.79153442 356.99714661 C253.68382341 365.09668884 251.30145026 371.4934153 246.09765625 377.75 C245.46730469 378.265625 244.83695312 378.78125 244.1875 379.3125 C243.55972656 379.84875 242.93195313 380.385 242.28515625 380.9375 C237.25206158 384.14120583 232.62121171 384.54827758 226.75 384.4375 C225.50476563 384.41945313 224.25953125 384.40140625 222.9765625 384.3828125 C221.56503906 384.34800781 221.56503906 384.34800781 220.125 384.3125 C220.15980469 385.10914063 220.19460938 385.90578125 220.23046875 386.7265625 C220.51236355 397.76073023 220.51236355 397.76073023 217.125 402.3125 C212.23361817 407.20388183 208.66925353 410.4139435 201.53686523 410.47363281 C200.60837265 410.48324036 199.67988007 410.4928479 198.72325134 410.50274658 C197.21862083 410.5091214 197.21862083 410.5091214 195.68359375 410.515625 C194.64614517 410.52132507 193.60869659 410.52702515 192.53981018 410.53289795 C190.33994568 410.5423509 188.14006699 410.5488831 185.94018555 410.55273438 C182.59983977 410.56239204 179.26012197 410.59339317 175.91992188 410.625 C173.77864947 410.63153515 171.63737268 410.6367836 169.49609375 410.640625 C168.01271767 410.6591452 168.01271767 410.6591452 166.49937439 410.67803955 C158.39855994 410.65246368 149.7707969 409.74897916 143.6875 403.875 C143.07003906 403.29878906 142.45257813 402.72257812 141.81640625 402.12890625 C136.51921965 396.44024165 134.88147607 391.26531255 134.85084534 383.47015381 C134.84560866 382.80646388 134.84037198 382.14277396 134.83497661 381.45897222 C134.82004653 379.24830227 134.81927302 377.03786522 134.81860352 374.82714844 C134.81097726 373.23659376 134.80254896 371.64604275 134.79338074 370.05549622 C134.77147359 365.74332695 134.76264182 361.43122859 134.75755429 357.11900997 C134.75390595 354.42164971 134.74766337 351.72430787 134.7405529 349.02695465 C134.7160706 339.60731697 134.70300935 330.18773427 134.69946289 320.76806641 C134.69582958 312.00317314 134.66594579 303.23863046 134.62405831 294.47384429 C134.5893062 286.93646228 134.57391359 279.39919617 134.57321686 271.86173463 C134.57242566 267.36545775 134.56375961 262.86953814 134.53521919 258.37334442 C134.50895424 254.14111132 134.50687986 249.90952954 134.52287483 245.67725182 C134.52468271 244.1301525 134.51805861 242.583015 134.50205612 241.03599739 C134.4053148 231.0704759 135.16876577 222.91780388 142.0088892 215.18189621 C146.65159386 210.53073452 151.74132094 208.55838532 158.125 207.3125 C158.785 207.3125 159.445 207.3125 160.125 207.3125 C154.80645114 170.60645445 143.73167406 137.06527364 118.125 109.3125 C117.64756348 108.78591797 117.17012695 108.25933594 116.67822266 107.71679688 C89.19800021 77.69194048 49.83444509 60.35103022 9.38818359 58.16455078 C-32.48972766 56.65360837 -73.78813232 70.35033945 -104.99731445 98.68896484 C-132.57503248 124.4309445 -154.46491644 161.68438883 -155.9921875 200.2734375 C-155.99877265 202.62433711 -155.96853679 204.96368717 -155.875 207.3125 C-154.93140625 207.51552734 -154.93140625 207.51552734 -153.96875 207.72265625 C-146.25761205 209.6620539 -141.09327239 212.79173641 -136.44332981 219.32359219 C-132.08760487 227.06344152 -132.17267265 234.63979371 -132.24389648 243.26782227 C-132.23874966 244.86059361 -132.23146264 246.45335925 -132.22221375 248.04611206 C-132.20379 252.34579087 -132.2165801 256.64484499 -132.23630404 260.94449735 C-132.25276406 265.45795418 -132.24386759 269.97137374 -132.23878479 274.48484802 C-132.23427248 282.06120715 -132.25008116 289.63731869 -132.27807617 297.21362305 C-132.31013576 305.95701982 -132.31010503 314.69997052 -132.2928614 323.44339901 C-132.27696665 331.87643021 -132.28374806 340.30929879 -132.30079842 348.74232292 C-132.30764811 352.32147521 -132.30665798 355.90049633 -132.29925346 359.47964668 C-132.29156018 363.69797096 -132.30381525 367.91579094 -132.33110237 372.13402939 C-132.33795509 373.67668474 -132.33811778 375.21938747 -132.33088684 376.76204109 C-132.2917517 386.20297681 -132.86533712 393.79804522 -138.55078125 401.6171875 C-145.0331297 407.83652898 -151.71268639 410.39867141 -160.75366211 410.47363281 C-161.6949144 410.48324036 -162.63616669 410.4928479 -163.60594177 410.50274658 C-164.61125443 410.50699646 -165.61656708 410.51124634 -166.65234375 410.515625 C-167.69644913 410.52132507 -168.7405545 410.52702515 -169.81629944 410.53289795 C-172.02099601 410.54232822 -174.22570656 410.54887408 -176.43041992 410.55273438 C-179.7969621 410.56245513 -183.16289744 410.59350383 -186.52929688 410.625 C-188.67447555 410.63152916 -190.81965858 410.63677997 -192.96484375 410.640625 C-193.96813217 410.6529718 -194.97142059 410.6653186 -196.00511169 410.67803955 C-202.48393208 410.65745136 -207.0339551 409.95632415 -211.95703125 405.375 C-212.52808594 404.694375 -213.09914062 404.01375 -213.6875 403.3125 C-214.27144531 402.631875 -214.85539062 401.95125 -215.45703125 401.25 C-218.10549288 397.63116538 -217.98414674 394.46314694 -217.9375 390.125 C-217.92847656 389.03832031 -217.91945312 387.95164062 -217.91015625 386.83203125 C-217.89855469 386.00058594 -217.88695312 385.16914063 -217.875 384.3125 C-218.7928125 384.34730469 -219.710625 384.38210938 -220.65625 384.41796875 C-229.93051291 384.62254808 -236.59482083 384.56646257 -243.625 378.1875 C-249.47408513 372.48038296 -251.32202635 365.05054034 -251.42822266 357.13267517 C-251.42169678 356.12410965 -251.4151709 355.11554413 -251.40844727 354.07641602 C-251.41706284 352.98901123 -251.42567841 351.90160645 -251.43455505 350.78125 C-251.45713994 347.20938888 -251.45048938 343.63831711 -251.44140625 340.06640625 C-251.44664514 337.5697354 -251.45292259 335.07306653 -251.46018982 332.57640076 C-251.47190796 326.68467195 -251.46235122 320.79322301 -251.44578546 314.90151399 C-251.4348518 310.21794361 -251.44696704 305.53482708 -251.47192383 300.85131836 C-251.50606095 294.36988116 -251.51556536 287.88890891 -251.5051403 281.4073925 C-251.50432274 278.94553623 -251.51114867 276.48366464 -251.52591133 274.02185249 C-251.54342197 270.5733637 -251.52875824 267.12640703 -251.50610352 263.67797852 C-251.52364182 262.16816658 -251.52364182 262.16816658 -251.54153442 260.62785339 C-251.43382341 252.52831116 -249.05145026 246.1315847 -243.84765625 239.875 C-243.21730469 239.359375 -242.58695313 238.84375 -241.9375 238.3125 C-240.99583984 237.508125 -240.99583984 237.508125 -240.03515625 236.6875 C-235.00206158 233.48379417 -230.37121171 233.07672242 -224.5 233.1875 C-223.25476563 233.20554688 -222.00953125 233.22359375 -220.7265625 233.2421875 C-219.78554687 233.26539063 -218.84453125 233.28859375 -217.875 233.3125 C-217.90980469 232.59964844 -217.94460937 231.88679687 -217.98046875 231.15234375 C-218.15442155 224.99772814 -217.9856245 220.67564568 -214.875 215.3125 C-214.03324219 214.68601563 -213.19148438 214.05953125 -212.32421875 213.4140625 C-208.49889133 208.56986796 -209.04792588 203.57400295 -208.875 197.5625 C-207.90987873 178.30013151 -204.52019774 159.45647432 -197.875 141.3125 C-197.60349121 140.56258789 -197.33198242 139.81267578 -197.05224609 139.04003906 C-187.78853524 113.82187535 -174.79149003 91.3192472 -156.875 71.3125 C-156.37291016 70.74869629 -155.87082031 70.18489258 -155.35351562 69.60400391 C-149.53173631 63.09376449 -143.62876706 56.87146655 -136.875 51.3125 C-136.00746094 50.55710938 -135.13992187 49.80171875 -134.24609375 49.0234375 C-121.89947426 38.40304311 -108.27265292 29.87871963 -93.875 22.3125 C-93.22370117 21.96977051 -92.57240234 21.62704102 -91.90136719 21.27392578 C-71.07653562 10.500505 -48.97708914 4.76102058 -25.875 1.3125 C-25.15280273 1.20123779 -24.43060547 1.08997559 -23.68652344 0.9753418 C-15.84827005 -0.06957123 -7.89462779 0.02499499 0 0 Z M-135.875 72.3125 C-136.57625 72.95058594 -137.2775 73.58867188 -138 74.24609375 C-168.09944388 102.40161522 -187.56062675 147.55904277 -190.875 188.3125 C-190.98059626 191.64758186 -190.97081153 194.9762226 -190.9375 198.3125 C-190.93298828 199.18261719 -190.92847656 200.05273438 -190.92382812 200.94921875 C-190.9121736 203.07034293 -190.89424357 205.1914311 -190.875 207.3125 C-185.595 207.3125 -180.315 207.3125 -174.875 207.3125 C-174.66875 204.858125 -174.4625 202.40375 -174.25 199.875 C-171.78774548 175.77392675 -164.36997301 152.55644664 -152.875 131.3125 C-152.00875 129.70568359 -152.00875 129.70568359 -151.125 128.06640625 C-146.97173234 120.67320526 -142.11901094 113.96666514 -136.875 107.3125 C-136.11832031 106.34957031 -135.36164063 105.38664062 -134.58203125 104.39453125 C-106.77338362 69.69355099 -64.0974497 46.6029829 -19.95761108 41.50482178 C-13.05921637 40.86777939 -6.10850402 40.96810637 0.8125 41 C1.65360321 41.00215515 2.49470642 41.0043103 3.36129761 41.00653076 C15.50898503 41.05651471 27.28508974 41.35051021 39.125 44.3125 C39.93533691 44.50585938 40.74567383 44.69921875 41.58056641 44.8984375 C73.51305868 52.68479874 101.03956487 68.29698124 124.67626953 90.92675781 C125.9720043 92.16615629 127.2801282 93.39257232 128.58984375 94.6171875 C157.63226242 122.48565954 172.80627965 162.71444653 176.73046875 202.06640625 C176.92623447 205.19499544 176.92623447 205.19499544 178.125 207.3125 C183.075 207.3125 188.025 207.3125 193.125 207.3125 C195.155424 159.48473469 174.83768375 113.3707074 143.5 78 C142.04997887 76.42978311 140.59191185 74.86694909 139.125 73.3125 C138.44308594 72.57773438 137.76117188 71.84296875 137.05859375 71.0859375 C130.66114454 64.41750978 123.49196394 58.85327444 116.125 53.3125 C115.31546875 52.69632813 114.5059375 52.08015625 113.671875 51.4453125 C84.42196385 30.07037743 47.48445273 16.36176902 11.125 15.3125 C10.42938965 15.29203613 9.7337793 15.27157227 9.01708984 15.25048828 C-46.13766991 13.86330767 -96.31598768 34.1270645 -135.875 72.3125 Z M-199.875 225.3125 C-199.875 280.4225 -199.875 335.5325 -199.875 392.3125 C-185.355 392.3125 -170.835 392.3125 -155.875 392.3125 C-150.36359488 386.80109488 -149.75401513 385.47398606 -149.73455811 378.25956726 C-149.72884796 376.99357697 -149.72313782 375.72758667 -149.71725464 374.42323303 C-149.71600929 373.01742564 -149.71488419 371.61161813 -149.71386719 370.20581055 C-149.70923859 368.72743608 -149.70421387 367.2490628 -149.69882202 365.77069092 C-149.68569984 361.75199928 -149.67925339 357.73332435 -149.67481136 353.71461463 C-149.67188029 351.20374626 -149.6677754 348.69288245 -149.66330719 346.18201637 C-149.6496326 338.32568053 -149.63996581 330.46935512 -149.6361053 322.6130082 C-149.63162479 313.54480137 -149.61407711 304.47674529 -149.5851047 295.4085843 C-149.56348611 288.39871845 -149.55340092 281.38889502 -149.55206418 274.37899619 C-149.55101626 270.19252816 -149.54511125 266.00620184 -149.52724457 261.81976891 C-149.51076082 257.88073191 -149.50860977 253.94194311 -149.51738358 250.00288391 C-149.5181538 248.55893095 -149.51381314 247.11496462 -149.50392532 245.6710453 C-149.49119728 243.69619875 -149.49887745 241.72125238 -149.50750732 239.74638367 C-149.50604076 238.64228496 -149.5045742 237.53818624 -149.5030632 236.40063 C-149.93816713 232.78803371 -150.98273238 230.40791833 -152.875 227.3125 C-165.92225141 218.6143324 -184.19415535 225.3125 -199.875 225.3125 Z M158.125 225.3125 C152.61359488 230.82390512 152.00401513 232.15101394 151.98455811 239.36543274 C151.97884796 240.63142303 151.97313782 241.89741333 151.96725464 243.20176697 C151.96600929 244.60757436 151.96488419 246.01338187 151.96386719 247.41918945 C151.95923859 248.89756392 151.95421387 250.3759372 151.94882202 251.85430908 C151.93569984 255.87300072 151.92925339 259.89167565 151.92481136 263.91038537 C151.92188029 266.42125374 151.9177754 268.93211755 151.91330719 271.44298363 C151.8996326 279.29931947 151.88996581 287.15564488 151.8861053 295.0119918 C151.88162479 304.08019863 151.86407711 313.14825471 151.8351047 322.2164157 C151.81348611 329.22628155 151.80340092 336.23610498 151.80206418 343.24600381 C151.80101626 347.43247184 151.79511125 351.61879816 151.77724457 355.80523109 C151.76076082 359.74426809 151.75860977 363.68305689 151.76738358 367.62211609 C151.7681538 369.06606905 151.76381314 370.51003538 151.75392532 371.9539547 C151.74119728 373.92880125 151.74887745 375.90374762 151.75750732 377.87861633 C151.75604076 378.98271504 151.7545742 380.08681376 151.7530632 381.22437 C152.18816713 384.83696629 153.23273238 387.21708167 155.125 390.3125 C168.17225141 399.0106676 186.44415535 392.3125 202.125 392.3125 C202.125 337.2025 202.125 282.0925 202.125 225.3125 C187.605 225.3125 173.085 225.3125 158.125 225.3125 Z " fill="#000000" transform="translate(254.875,1.6875)"/>
<path d="M0 0 C2.40354172 1.89696566 4.68473886 3.85239496 6.92578125 5.9375 C7.79203125 6.72125 8.65828125 7.505 9.55078125 8.3125 C20.64598921 20.57562458 29.06426006 34.56317476 28.95361328 51.64160156 C28.94959503 52.4474469 28.94557678 53.25329224 28.94143677 54.08355713 C28.93368729 55.00125885 28.93368729 55.00125885 28.92578125 55.9375 C27.64936768 55.96255615 26.3729541 55.9876123 25.05786133 56.01342773 C20.31476081 56.10771694 15.57179939 56.20788497 10.82885742 56.30981445 C8.77745827 56.35308198 6.726025 56.39476275 4.67456055 56.43481445 C1.72304003 56.49271544 -1.22831007 56.5563526 -4.1796875 56.62109375 C-5.09445358 56.63780624 -6.00921967 56.65451874 -6.95170593 56.67173767 C-11.1034598 56.76796804 -15.02560723 56.90420315 -19.07421875 57.9375 C-20.27176692 61.53014452 -20.40516833 64.16467474 -20.07421875 67.9375 C-18.76459952 70.32597083 -18.76459952 70.32597083 -16.07421875 71.9375 C-12.66894791 72.55672999 -9.29392361 72.54247122 -5.83984375 72.546875 C-4.84668152 72.56341125 -3.85351929 72.57994751 -2.83026123 72.59698486 C0.33848211 72.64552769 3.50674531 72.66685012 6.67578125 72.6875 C8.82554507 72.71565437 10.97528646 72.74558104 13.125 72.77734375 C18.39188757 72.85128863 23.65850761 72.90082511 28.92578125 72.9375 C28.92578125 78.2175 28.92578125 83.4975 28.92578125 88.9375 C27.64936768 88.95208252 26.3729541 88.96666504 25.05786133 88.98168945 C20.31457746 89.0397354 15.57176518 89.11696828 10.82885742 89.19995117 C8.77750309 89.23317083 6.726058 89.26121197 4.67456055 89.28393555 C1.72275176 89.3175357 -1.22822761 89.36985476 -4.1796875 89.42578125 C-5.55183662 89.43536613 -5.55183662 89.43536613 -6.95170593 89.44514465 C-12.26477083 89.56735948 -16.1248775 89.98815875 -20.07421875 93.9375 C-20.68022126 98.02569229 -20.68022126 98.02569229 -20.07421875 101.9375 C-14.97098567 106.36264144 -10.67191991 106.53797379 -4.08203125 106.546875 C-3.136091 106.56341125 -2.19015076 106.57994751 -1.21554565 106.59698486 C1.78996337 106.64536315 4.79496677 106.66681338 7.80078125 106.6875 C9.84507738 106.71566816 11.88935006 106.74559677 13.93359375 106.77734375 C18.93094795 106.85111956 23.92802312 106.90075644 28.92578125 106.9375 C28.92578125 112.2175 28.92578125 117.4975 28.92578125 122.9375 C26.90457153 122.97508423 26.90457153 122.97508423 24.8425293 123.01342773 C19.84975447 123.10750223 14.85711876 123.20772294 9.86450195 123.30981445 C7.70242565 123.35316313 5.54031512 123.39483825 3.37817383 123.43481445 C0.27284423 123.49251844 -2.83231311 123.55621272 -5.9375 123.62109375 C-7.39075432 123.64616249 -7.39075432 123.64616249 -8.87336731 123.67173767 C-9.77407455 123.69168289 -10.6747818 123.71162811 -11.6027832 123.73217773 C-12.39554153 123.74772202 -13.18829987 123.7632663 -14.00508118 123.77928162 C-16.27161649 123.86831226 -16.27161649 123.86831226 -19.07421875 124.9375 C-20.56506707 129.41004497 -20.56506707 133.46495503 -19.07421875 137.9375 C-14.14630974 139.19521338 -9.23273045 139.16158872 -4.1796875 139.25390625 C-3.23233231 139.27468735 -2.28497711 139.29546844 -1.30891418 139.31687927 C1.70674635 139.38207778 4.72249135 139.44112132 7.73828125 139.5 C9.78711799 139.54321348 11.83594629 139.58682866 13.88476562 139.63085938 C18.89835172 139.73772866 23.91202248 139.83907931 28.92578125 139.9375 C28.92578125 145.5475 28.92578125 151.1575 28.92578125 156.9375 C-15.29421875 156.9375 -59.51421875 156.9375 -105.07421875 156.9375 C-105.07421875 151.3275 -105.07421875 145.7175 -105.07421875 139.9375 C-103.79780518 139.91244385 -102.5213916 139.8873877 -101.20629883 139.86157227 C-96.46319831 139.76728306 -91.72023689 139.66711503 -86.97729492 139.56518555 C-84.92589577 139.52191802 -82.8744625 139.48023725 -80.82299805 139.44018555 C-77.87147753 139.38228456 -74.92012743 139.3186474 -71.96875 139.25390625 C-70.59660088 139.22883751 -70.59660088 139.22883751 -69.19673157 139.20326233 C-65.0449777 139.10703196 -61.12283027 138.97079685 -57.07421875 137.9375 C-55.58337043 133.46495503 -55.58337043 129.41004497 -57.07421875 124.9375 C-59.86193806 124.00826023 -61.65656123 123.78882662 -64.5456543 123.73217773 C-65.44636154 123.71223251 -66.34706879 123.69228729 -67.27507019 123.67173767 C-68.2439064 123.65502518 -69.21274261 123.63831268 -70.2109375 123.62109375 C-71.20551468 123.60031265 -72.20009186 123.57953156 -73.22480774 123.55812073 C-76.40370742 123.49270588 -79.58269009 123.4337776 -82.76171875 123.375 C-84.91602423 123.33180712 -87.07032129 123.28819258 -89.22460938 123.24414062 C-94.50772733 123.13703269 -99.7909288 123.03574234 -105.07421875 122.9375 C-105.07421875 117.6575 -105.07421875 112.3775 -105.07421875 106.9375 C-103.80304199 106.9281543 -102.53186523 106.91880859 -101.22216797 106.90917969 C-96.49183513 106.8692135 -91.76214813 106.80343586 -87.03222656 106.72998047 C-84.9877148 106.70180934 -82.94309491 106.68057565 -80.8984375 106.66650391 C-77.95386553 106.64502113 -75.01058834 106.5983431 -72.06640625 106.546875 C-70.70199905 106.54503204 -70.70199905 106.54503204 -69.31002808 106.54315186 C-63.63629152 106.4131272 -60.41908356 105.67616563 -56.07421875 101.9375 C-55.14552271 99.98647554 -55.14552271 99.98647554 -55.32421875 97.9375 C-55.30875 97.2775 -55.29328125 96.6175 -55.27734375 95.9375 C-56.55477263 92.73140399 -59.03539274 91.29543322 -62.07421875 89.9375 C-65.40581751 89.34973374 -68.68912845 89.33268682 -72.06640625 89.328125 C-73.0123465 89.31158875 -73.95828674 89.29505249 -74.93289185 89.27801514 C-77.93840087 89.22963685 -80.94340427 89.20818662 -83.94921875 89.1875 C-85.99351488 89.15933184 -88.03778756 89.12940323 -90.08203125 89.09765625 C-95.07938545 89.02388044 -100.07646062 88.97424356 -105.07421875 88.9375 C-105.07421875 83.6575 -105.07421875 78.3775 -105.07421875 72.9375 C-103.73198242 72.9281543 -102.38974609 72.91880859 -101.00683594 72.90917969 C-96.02684339 72.86930722 -91.0474704 72.80355566 -86.06787109 72.72998047 C-83.91267862 72.70175501 -81.75738232 72.68054835 -79.60205078 72.66650391 C-76.50369045 72.64509653 -73.40658048 72.5984568 -70.30859375 72.546875 C-69.34491882 72.54564636 -68.3812439 72.54441772 -67.3883667 72.54315186 C-62.08630702 72.46828352 -62.08630702 72.46828352 -57.45410156 70.12207031 C-55.46992979 66.98081607 -55.74348168 64.57560777 -56.07421875 60.9375 C-56.40421875 59.9475 -56.73421875 58.9575 -57.07421875 57.9375 C-62.00212776 56.67978662 -66.91570705 56.71341128 -71.96875 56.62109375 C-72.91610519 56.60031265 -73.86346039 56.57953156 -74.83952332 56.55812073 C-77.85518385 56.49292222 -80.87092885 56.43387868 -83.88671875 56.375 C-85.93555549 56.33178652 -87.98438379 56.28817134 -90.03320312 56.24414062 C-95.04678922 56.13727134 -100.06045998 56.03592069 -105.07421875 55.9375 C-105.09134585 54.51924862 -105.10346341 53.10093629 -105.11352539 51.68261719 C-105.12082169 50.89280457 -105.12811798 50.10299194 -105.13563538 49.28924561 C-104.68395371 31.99359696 -95.0731255 17.53699793 -83.07421875 5.9375 C-60.53055616 -15.18160255 -25.41180257 -17.04883324 0 0 Z " fill="#7E8D93" transform="translate(294.07421875,179.0625)"/>
<path d="M0 0 C44.22 0 88.44 0 134 0 C134 18.92631727 127.16849885 35.31568694 114.0546875 49.03515625 C100.02380662 62.47063075 83.4054255 67.66026933 64.30249023 67.40283203 C52.33066807 66.99308389 42.15939295 64.59836862 32 58 C31.07316406 57.40058594 30.14632812 56.80117188 29.19140625 56.18359375 C14.27871618 45.94533913 4.5237659 30.7357483 0.3125 13.125 C-0.12295215 8.77047854 0 4.3762399 0 0 Z " fill="#FEDB00" transform="translate(189,352)"/>
<path d="M0 0 C0.7017334 0.19255371 1.4034668 0.38510742 2.12646484 0.58349609 C6.81419257 1.88570312 11.41704484 3.36853874 16 5 C16.63244629 5.22413574 17.26489258 5.44827148 17.91650391 5.67919922 C39.24193381 13.3820119 55.83583084 26.36572534 72 42 C72.88945312 42.85980469 73.77890625 43.71960938 74.6953125 44.60546875 C80.8956273 50.70577847 80.8956273 50.70577847 81.3125 55.875 C81.26300878 58.90496257 81.11180871 59.83228694 79.375 62.4375 C76.4340868 64.37231132 74.52349544 64.92809193 71 65 C65.68848648 62.90334993 61.90001709 58.03297222 58 54 C48.94674335 44.75568436 39.26229992 37.36264738 28 31 C27.0925 30.47792969 26.185 29.95585938 25.25 29.41796875 C-2.05220323 14.71976559 -38.90022754 9.20400432 -69 18 C-69.79873535 18.23106445 -70.5974707 18.46212891 -71.42041016 18.70019531 C-89.51019763 24.03948658 -105.09193746 31.45871268 -120 43 C-121.01320312 43.77730469 -122.02640625 44.55460937 -123.0703125 45.35546875 C-128.68571945 49.80036171 -133.46129078 54.47352762 -138 60 C-140.17741838 62.49762697 -141.33543333 63.7614376 -144.4375 64.875 C-148.23383288 65.06018697 -150.64087428 63.84359527 -153.8125 61.875 C-155.39857153 59.37067654 -155.66072094 57.09836078 -155.52734375 54.1640625 C-154.45664266 49.77022248 -151.14495124 47.073848 -148 44 C-147.16597656 43.13117188 -146.33195313 42.26234375 -145.47265625 41.3671875 C-108.85648585 3.64780393 -51.37341236 -14.70363019 0 0 Z " fill="#000000" transform="translate(293,88)"/>
<path d="M0 0 C13.33636187 12.79417958 13.33636187 12.79417958 14.66015625 19.89453125 C13.76782338 24.19395326 12.55631607 25.69084456 8.97265625 28.20703125 C5.0148387 28.84310907 2.92593764 28.77900009 -0.52734375 26.70703125 C-2.53605472 24.69832028 -4.37062809 22.67326562 -6.21484375 20.51953125 C-22.53038473 1.56108406 -46.85795554 -11.05482779 -71.87036133 -13.01586914 C-102.70063876 -14.23935577 -128.82963043 -5.34668215 -151.71484375 15.67578125 C-154.80715425 18.72740345 -157.62464547 21.6212883 -160.08984375 25.20703125 C-162.60454474 27.80285163 -164.50822484 28.17985135 -168.05859375 28.3984375 C-171.46253493 28.06749877 -172.89093808 26.79661388 -175.02734375 24.20703125 C-176.10380385 20.50669966 -176.59805694 18.34845762 -174.84765625 14.84765625 C-172.75221429 11.80791641 -170.41282812 9.09033295 -167.90234375 6.39453125 C-167.4122583 5.86754639 -166.92217285 5.34056152 -166.41723633 4.79760742 C-148.0821471 -14.69887287 -123.6420468 -27.39082295 -97.02734375 -30.79296875 C-96.13144531 -30.91671875 -95.23554688 -31.04046875 -94.3125 -31.16796875 C-60.00428109 -35.01741828 -25.1731275 -23.51496863 0 0 Z " fill="#000000" transform="translate(337.02734375,148.79296875)"/>
<path d="M0 0 C1.17302673 -0.00554901 2.34605347 -0.01109802 3.55462646 -0.01681519 C7.42672749 -0.0286128 11.29765879 -0.00433403 15.16967773 0.02148438 C17.86197812 0.02566196 20.55426474 0.023233 23.24656677 0.0213623 C28.88636438 0.02141581 34.52582623 0.04113431 40.16552734 0.07324219 C46.67992017 0.11015024 53.19387366 0.11891466 59.70835739 0.11194468 C65.98429628 0.10563373 72.26008501 0.11640367 78.53599358 0.13591003 C81.20298896 0.14407118 83.86977302 0.146064 86.53680611 0.1452179 C90.26176119 0.1470137 93.98609048 0.16837795 97.7109375 0.1953125 C99.36699257 0.1909166 99.36699257 0.1909166 101.0565033 0.18643188 C107.66053127 0.26018298 111.48622657 0.81068946 116.29077148 5.61523438 C116.29077148 9.57523437 116.29077148 13.53523438 116.29077148 17.61523438 C72.07077148 17.61523438 27.85077148 17.61523438 -17.70922852 17.61523438 C-17.70922852 5.61523438 -17.70922852 5.61523438 -15.4410553 2.40368652 C-10.77722153 -0.53239153 -5.32182946 -0.06405075 0 0 Z " fill="#01A8F3" transform="translate(206.709228515625,477.384765625)"/>
<path d="M0 0 C0 38.61 0 77.22 0 117 C-4.29 117 -8.58 117 -13 117 C-17.50012814 111.37483982 -17.50012814 111.37483982 -17.50120544 107.45289612 C-17.51103958 106.57120758 -17.52087372 105.68951904 -17.53100586 104.78111267 C-17.52133789 103.82668777 -17.51166992 102.87226288 -17.50170898 101.88891602 C-17.50981346 100.36609009 -17.50981346 100.36609009 -17.51808167 98.8125 C-17.5305803 95.4593381 -17.5140685 92.10703293 -17.49609375 88.75390625 C-17.49624872 86.42129979 -17.49773741 84.08869308 -17.50050354 81.75608826 C-17.50188809 76.86779393 -17.48932062 71.9797928 -17.46655273 67.09155273 C-17.43818407 60.8290937 -17.44090061 54.56712245 -17.45364285 48.30462742 C-17.46060223 43.48760318 -17.45280742 38.67069144 -17.44038582 33.85368156 C-17.43587276 31.54483408 -17.43553324 29.23597451 -17.43945122 26.92712593 C-17.44236548 23.69799228 -17.42584471 20.46952759 -17.40405273 17.24047852 C-17.40855438 16.28807785 -17.41305603 15.33567719 -17.41769409 14.35441589 C-17.35965219 9.17112928 -16.94749505 5.46334322 -14 1 C-9.81537205 -1.09231398 -4.67855628 0 0 0 Z " fill="#FA9500" transform="translate(38,252)"/>
<path d="M0 0 C3.96 0 7.92 0 12 0 C16.18043933 4.18043933 17.11346976 5.76245039 17.15390015 11.31332397 C17.16250061 12.19370834 17.17110107 13.07409271 17.17996216 13.9811554 C17.18422211 14.94434189 17.18848206 15.90752838 17.19287109 16.89990234 C17.20104858 17.91643387 17.20922607 18.93296539 17.21765137 19.9803009 C17.24249271 23.34884042 17.25901617 26.71733791 17.2734375 30.0859375 C17.27876118 31.23536457 17.28408485 32.38479164 17.28956985 33.56904984 C17.31629298 39.65019311 17.33567262 45.73131589 17.35009766 51.8125 C17.36676451 58.09986654 17.41156232 64.38671086 17.4624691 70.67387962 C17.49608201 75.50369893 17.50766845 80.3333932 17.51332474 85.16331863 C17.52005114 87.481411 17.53530898 89.79949475 17.55921555 92.1174736 C17.59074776 95.35918901 17.5909216 98.59948082 17.58349609 101.84130859 C17.59990143 102.80044662 17.61630676 103.75958466 17.63320923 104.74778748 C17.59371713 108.95419811 17.32403712 111.43137544 15.21353149 115.13491821 C12 117 12 117 0 117 C0 78.39 0 39.78 0 0 Z " fill="#FA9500" transform="translate(474,252)"/>
<path d="M0 0 C44.22 0 88.44 0 134 0 C134 18.92631727 127.16849885 35.31568694 114.0546875 49.03515625 C105.96519958 56.78136332 94.31410591 64.42180448 83 66 C81.515 65.505 81.515 65.505 80 65 C80.53367187 64.67128906 81.06734375 64.34257812 81.6171875 64.00390625 C93.4230253 56.46696135 101.05322815 47.96784719 108 36 C108.64775391 34.91912109 108.64775391 34.91912109 109.30859375 33.81640625 C114.97745905 23.55950989 116.11336987 12.52619163 117 1 C78.39 1 39.78 1 0 1 C0 0.67 0 0.34 0 0 Z " fill="#EBB406" transform="translate(189,352)"/>
<path d="M0 0 C5.40619332 0.55394199 9.85273927 1.8665754 14.8125 4.0625 C15.51028564 4.36978027 16.20807129 4.67706055 16.92700195 4.99365234 C23.0465063 7.80759157 28.06436418 11.40779809 33 16 C33.86625 16.78375 34.7325 17.5675 35.625 18.375 C46.92659368 30.86623512 55.10605709 44.96516058 55.1875 62.3125 C55.0946875 64.1378125 55.0946875 64.1378125 55 66 C49.39 66 43.78 66 38 66 C37.84144531 64.62328125 37.68289063 63.2465625 37.51953125 61.828125 C36.2539814 51.56093184 34.92433486 42.24321871 30 33 C29.50757813 32.02160156 29.01515625 31.04320312 28.5078125 30.03515625 C22.09326069 18.11145588 13.6863602 9.45173059 2.23828125 2.42578125 C1.49964844 1.95527344 0.76101563 1.48476562 0 1 C0 0.67 0 0.34 0 0 Z " fill="#535B5F" transform="translate(268,169)"/>
<path d="M0 0 C5.61 0 11.22 0 17 0 C17 5.61 17 11.22 17 17 C-27.22 17 -71.44 17 -117 17 C-117 16.67 -117 16.34 -117 16 C-78.39 16 -39.78 16 0 16 C0 10.72 0 5.44 0 0 Z " fill="#565F63" transform="translate(306,319)"/>
<path d="M0 0 C15.69006217 -0.0700961 31.38008204 -0.12299107 47.07026196 -0.15543652 C54.3555697 -0.17090225 61.64078012 -0.19198607 68.92602539 -0.22631836 C75.27620758 -0.25622982 81.62631928 -0.27557714 87.97656995 -0.28226548 C91.33868308 -0.28617482 94.70059457 -0.29535592 98.06264305 -0.31719017 C101.81686821 -0.33891567 105.57067343 -0.34196889 109.32495117 -0.34057617 C110.99514565 -0.35675491 110.99514565 -0.35675491 112.69908142 -0.3732605 C113.72406738 -0.36913651 114.74905334 -0.36501251 115.80509949 -0.36076355 C116.69278613 -0.36352893 117.58047277 -0.36629431 118.49505901 -0.36914349 C122.5194312 0.22391271 125.16669046 2.16669046 128 5 C128.27783543 9.01194366 128.0856495 12.97447362 128 17 C122.39 17 116.78 17 111 17 C110.67 11.72 110.34 6.44 110 1 C73.7 1 37.4 1 0 1 C0 0.67 0 0.34 0 0 Z " fill="#026BA5" transform="translate(195,478)"/>
<path d="M0 0 C5.61 0 11.22 0 17 0 C17 5.28 17 10.56 17 16 C11.39 16 5.78 16 0 16 C0 10.72 0 5.44 0 0 Z " fill="#545C60" transform="translate(306,286)"/>
<path d="M0 0 C5.61 0 11.22 0 17 0 C17 5.28 17 10.56 17 16 C11.39 16 5.78 16 0 16 C0 10.72 0 5.44 0 0 Z " fill="#545C60" transform="translate(306,252)"/>
</svg>
