<svg xmlns="http://www.w3.org/2000/svg" width="36" height="35" viewBox="0 0 36 35" fill="none">
  <path d="M24.3042 14.3611H23.4387V13.2001C23.439 11.8029 22.8936 10.4875 21.9027 9.49694C20.9119 8.5061 19.597 7.96066 18.1993 7.96066C15.3099 7.96066 12.9595 10.3111 12.9595 13.2004V14.3611H12.0878C11.7703 14.3611 11.5118 14.6193 11.5118 14.937V25.0866C11.5118 25.4043 11.7703 25.6625 12.0878 25.6625H24.3042C24.6216 25.6625 24.8801 25.4043 24.8801 25.0866V14.937C24.8801 14.6196 24.6216 14.3611 24.3042 14.3611ZM16.5051 12.7465C16.5051 11.8123 17.2651 11.0523 18.1993 11.0523C19.1331 11.0523 19.8931 11.8123 19.8931 12.7465V14.3611H16.5051V12.7465ZM18.1993 9.11252C20.4534 9.11252 22.2872 10.9463 22.2872 13.2004V14.3611H21.045V12.7468C21.045 11.1774 19.7686 9.90046 18.1993 9.90046C16.6299 9.90046 15.3532 11.1774 15.3532 12.7468V14.3611H14.1111V13.2004C14.1111 10.9463 15.9451 9.11252 18.1993 9.11252ZM23.7283 15.5127V24.5106H12.6637V15.5127H23.7283Z" fill="#C6A148"/>
  <path d="M18.4599 19.9333C18.4248 19.7974 18.4801 19.6555 18.6027 19.5882C18.8546 19.4497 19.005 19.1924 19.005 18.8992C19.005 18.4529 18.6448 18.0893 18.202 18.0893C17.748 18.0893 17.3927 18.4449 17.3927 18.8998C17.3927 19.1904 17.542 19.4486 17.7922 19.5911C17.9085 19.6572 17.968 19.7909 17.9404 19.9217L17.4651 22.1396H19.147L18.4872 20.0023C18.4758 19.9806 18.4664 19.957 18.4599 19.9333Z" fill="#C6A148"/>
  <path d="M33.7741 13.7407L32.5268 12.278C32.0178 11.6801 31.7157 10.9509 31.653 10.1678L31.4994 8.25162C31.2965 5.70541 29.3015 3.71004 26.7558 3.50714L24.8391 3.35411C24.0566 3.29199 23.3267 2.98963 22.7292 2.4801L21.2656 1.23307C20.7164 0.764578 20.0809 0.421473 19.3773 0.214299C18.8957 0.0718135 18.3999 0 17.9029 0C17.7427 0 17.5812 0.00769474 17.4221 0.0227982C16.3584 0.123393 15.3675 0.541731 14.5565 1.23336L13.0929 2.48039C12.495 2.98992 11.7655 3.29199 10.9829 3.35439L9.06652 3.50742C6.52087 3.71032 4.52522 5.70569 4.32203 8.25191L4.16929 10.1681C4.10688 10.9506 3.80453 11.6804 3.29528 12.278L2.04825 13.7413C0.391713 15.6854 0.391713 18.5072 2.04825 20.4509L3.29528 21.9146C3.73043 22.4241 4.01797 23.0559 4.12654 23.7395L4.13623 23.7942C4.15048 23.8712 4.1633 23.9473 4.16929 24.0259L4.32203 25.9406C4.32659 25.9686 4.3303 25.9962 4.33315 26.0241C4.57252 28.5242 6.56333 30.4851 9.06652 30.6845L10.9832 30.8381C11.7666 30.9011 12.4961 31.2032 13.0929 31.7121L14.5562 32.9592C15.4912 33.7557 16.6826 34.1945 17.9109 34.1945C19.1394 34.1945 20.3309 33.7557 21.2653 32.9592L22.7289 31.7121C23.3256 31.2032 24.0551 30.9006 24.8385 30.8381L26.7552 30.6845C29.3012 30.4819 31.2962 28.4868 31.4991 25.9409L31.6527 24.0245C31.7154 23.2414 32.0175 22.5116 32.5265 21.9148L33.7741 20.4512C35.43 18.5069 35.43 15.6848 33.7741 13.7407ZM32.6593 19.5006L31.4122 20.9642C30.7018 21.7974 30.2803 22.8151 30.1931 23.9068L30.0401 25.8238C29.8945 27.6482 28.4642 29.0787 26.6393 29.2252L24.7223 29.3777C23.6308 29.4652 22.6132 29.8866 21.7794 30.5971L20.3163 31.8438C19.6458 32.4149 18.7917 32.7292 17.9114 32.7292C17.0309 32.7292 16.1771 32.4146 15.5066 31.8438L14.0432 30.5965C13.2094 29.8866 12.1915 29.4646 11.0998 29.3777L9.18364 29.2252C7.53822 29.0933 6.16751 27.8642 5.85033 26.2364L5.83694 26.1709C5.81728 26.0757 5.79305 25.9574 5.78222 25.8241L5.63005 23.9165C5.54199 22.8154 5.12024 21.7974 4.41009 20.9648L3.16306 19.5011C1.97558 18.1076 1.97558 16.0849 3.16306 14.6914L4.41009 13.2281C5.12024 12.3945 5.54199 11.3766 5.6292 10.2846L5.78222 8.36789C5.92785 6.54265 7.3584 5.11238 9.18392 4.96733L11.0998 4.81402C12.1915 4.72739 13.2091 4.30534 14.0432 3.59491L15.5066 2.34788C15.9899 1.93638 16.5792 1.65426 17.2104 1.53286C18.1802 1.34706 19.1952 1.56392 20.0145 2.13101L20.0698 2.16778C20.1536 2.22334 20.2368 2.28034 20.3152 2.34702L21.7794 3.59491C22.6132 4.30534 23.6308 4.72682 24.7223 4.81373L26.639 4.96705C28.4636 5.1121 29.8942 6.54208 30.0401 8.36789L30.1931 10.2843C30.2803 11.3763 30.7018 12.3942 31.4122 13.2278L32.6593 14.6911C33.8465 16.0843 33.8465 18.1071 32.6593 19.5006Z" fill="#C6A148"/>
</svg>