<svg xmlns="http://www.w3.org/2000/svg" width="57" height="64" viewBox="0 0 57 64" fill="none">
  <path d="M23.0729 45.0361C22.9937 45.0361 22.9233 44.9834 22.902 44.9059L19.1685 31.4172C19.1582 31.38 19.1604 31.3404 19.1746 31.3045L28.6657 7.33818C28.6782 7.30634 28.6997 7.27888 28.7277 7.25899L38.8674 0.0329707C38.907 0.00491932 38.9561 -0.00608813 39.004 0.00326234C39.0517 0.0124945 39.0936 0.0407826 39.1198 0.0817353L43.2146 6.46479C43.2377 6.50089 43.2471 6.5441 43.2409 6.58659L38.4236 39.2242C38.4201 39.2484 38.4115 39.2716 38.3986 39.2923L35.3877 44.1097C35.3575 44.158 35.3061 44.1887 35.2493 44.1927L23.0854 45.0357C23.0811 45.0361 23.077 45.0361 23.0729 45.0361ZM19.5266 31.3799L23.2055 44.6715L35.1343 43.8447L38.0774 39.1355L42.8796 6.60044L38.9216 0.430307L28.9765 7.51773L19.5266 31.3799Z" fill="white"/>
  <path d="M34.1529 40.5197C34.1366 40.5197 34.1203 40.5175 34.1044 40.5129L28.3837 38.8871C28.3614 38.8808 28.3405 38.87 28.3221 38.8556L19.2897 31.7268C19.2128 31.666 19.1996 31.5544 19.2603 31.4775C19.3211 31.4005 19.4328 31.3873 19.5097 31.4481L28.5146 38.5551L34.1478 40.1561L38.2309 38.7529C38.3237 38.7207 38.4247 38.7704 38.4565 38.8631C38.4883 38.9557 38.4391 39.0568 38.3462 39.0886L34.2106 40.5102C34.1921 40.5166 34.1724 40.5197 34.1529 40.5197Z" fill="white"/>
  <path d="M23.0731 45.0363C23.017 45.0363 22.9626 45.0097 22.9285 44.9621C22.8807 44.8951 22.8852 44.804 22.9393 44.7421L28.2728 38.6293L35.2783 14.5597L32.1382 11.3671L19.4899 31.4647C19.4377 31.5478 19.3279 31.5726 19.2451 31.5205C19.1622 31.4683 19.1372 31.3587 19.1894 31.2757L31.8822 11.1072L28.7178 7.8896C28.649 7.81976 28.6499 7.70732 28.7199 7.63855C28.7897 7.56979 28.902 7.57061 28.9709 7.64068L32.0767 10.7983L38.8202 0.0832527C38.8634 0.0146036 38.9473 -0.0159333 39.0246 0.00868569C39.1016 0.0333047 39.1524 0.107161 39.1477 0.188002L38.466 12.0508C38.4658 12.056 38.4652 12.0611 38.4645 12.0663L34.3287 40.3682C34.3196 40.4304 34.2783 40.4832 34.2201 40.507L23.1401 45.0232C23.1182 45.0322 23.0956 45.0363 23.0731 45.0363ZM32.3325 11.0583L35.6044 14.3849C35.6495 14.4307 35.6662 14.4973 35.6483 14.559L28.6029 38.7662C28.5956 38.7909 28.5832 38.8137 28.5661 38.8333L23.6984 44.4121L33.9921 40.2163L38.112 12.0224L38.7538 0.855436L32.3325 11.0583Z" fill="white"/>
  <path d="M35.478 14.6866C35.4196 14.6866 35.3624 14.6579 35.3285 14.6051C35.2755 14.5226 35.2994 14.4128 35.3819 14.3597L38.1673 12.5696L42.9249 6.45147C42.985 6.37395 43.0967 6.3601 43.174 6.42034C43.2514 6.48047 43.2653 6.59208 43.2053 6.66949L38.429 12.8117C38.4166 12.8275 38.4017 12.8412 38.3847 12.852L35.5737 14.6586C35.544 14.6775 35.5109 14.6866 35.478 14.6866Z" fill="white"/>
  <path d="M52.4178 30.7381C52.27 30.7381 52.1168 30.7456 51.9625 30.7608L51.7073 30.7857L51.6462 30.5367C51.5587 30.1789 51.4802 29.8075 51.4042 29.4483C51.2451 28.6957 51.0807 27.9174 50.8288 27.2583L50.737 27.0177L50.9625 26.8935C52.859 25.8483 53.0753 23.7027 52.6841 22.1826C52.2294 20.4152 50.8241 18.6319 48.7096 18.6319C48.1535 18.6319 47.5786 18.7602 46.9973 19.0135C46.9942 19.0146 46.9916 19.016 46.9886 19.0172C46.9059 19.0534 46.8231 19.0921 46.74 19.1333L46.5309 19.2372L46.5201 19.2242C46.347 19.3167 46.1973 19.4145 46.0773 19.5021L46.0781 19.503L45.8479 19.6899C44.2995 20.9464 44.1681 23.0926 44.7249 24.662C45.2303 26.087 46.4993 27.6097 48.5454 27.6095C49.0331 27.6095 49.5442 27.5208 50.064 27.3455L50.3812 27.2386L50.4484 27.5665C50.6444 28.5229 50.9036 29.4234 51.1523 30.2639L51.2284 30.521L50.9801 30.6219C48.7298 31.5375 47.6289 33.0357 47.6141 35.2021C47.5937 38.19 49.9103 39.1948 51.2929 39.5279L51.5744 39.5956L51.4633 40.106C51.272 40.9827 51.0741 41.8894 50.924 42.8212L50.8625 43.2039L50.5095 43.0436C49.8689 42.7527 49.2331 42.6051 48.6197 42.6051C46.4083 42.6051 44.95 44.4732 44.5307 46.2089C44.1714 47.6959 44.4398 49.6194 46.2697 50.5583L46.5347 50.6943L46.3971 50.9583C46.0135 51.6944 45.3901 52.1653 44.7874 52.6209C44.496 52.8412 44.2208 53.0491 43.971 53.2851L43.7056 53.536L43.5154 53.2242C42.8471 52.1293 41.6364 51.5014 40.1937 51.5014C38.6145 51.5014 37.0374 52.2499 36.1757 53.4083C35.4593 54.3717 35.2771 55.5347 35.6489 56.7719L35.7282 57.0358L35.4704 57.1336C34.8793 57.3579 34.189 57.476 33.5214 57.59C33.2497 57.6365 32.9688 57.6846 32.7023 57.7387L32.5691 57.7658L32.4619 57.6824C32.021 57.34 31.8473 56.9518 31.6938 56.6092C31.5779 56.3502 31.4684 56.1058 31.2482 55.8803C30.5032 55.117 29.3552 54.6793 28.0987 54.6793C26.2172 54.6793 24.1444 55.688 23.8228 57.6159L23.7791 57.878L23.5139 57.8627C22.5077 57.8046 21.5432 57.6119 20.4784 57.2561L20.2121 57.1672L20.287 56.8967C20.6633 55.5375 20.4587 54.2891 19.6959 53.2863C18.8369 52.1573 17.345 51.4559 15.8023 51.4559C14.478 51.4559 13.3552 51.9671 12.6409 52.8955L12.4299 53.1696L12.1917 52.9188C11.978 52.6937 11.7391 52.4783 11.508 52.2701C11.0122 51.8231 10.4993 51.3609 10.138 50.7323L10.0145 50.5176L10.2042 50.3583C11.5083 49.2636 11.9166 47.3635 11.2445 45.5178C10.5824 43.6992 9.10017 42.5241 7.46834 42.5241C6.99052 42.5241 6.49802 42.6214 6.00457 42.8131L5.70181 42.9307L5.61292 42.6184C5.55078 42.4002 5.48272 42.1813 5.41715 41.9695C5.19369 41.2496 4.96277 40.5053 4.89234 39.6016L4.86938 39.3062L5.16493 39.2836C7.37649 39.1148 8.35876 36.9268 8.33568 34.9653C8.31284 33.0228 7.276 30.8787 5.05355 30.7616L4.76392 30.7463L4.77339 30.4565C4.80345 29.5323 5.00916 28.7827 5.20825 28.0578C5.2647 27.8517 5.32128 27.6458 5.37371 27.4358L5.45467 27.1124L5.76608 27.231C6.34036 27.4498 6.90636 27.5607 7.44833 27.5605C9.61421 27.5605 11.0389 25.8201 11.4899 24.0952C11.8685 22.6471 11.6781 20.6008 9.89473 19.5997L9.63516 19.454L9.7824 19.1953C10.2829 18.3158 11.008 17.549 11.9994 16.8511L12.2513 16.6738L12.4184 16.9326C13.1305 18.036 14.3076 18.6435 15.7331 18.6435C17.3829 18.6435 19.0191 17.8256 19.9012 16.56C20.3012 15.986 20.6815 15.117 20.5496 13.9858C20.321 13.1354 19.6467 11.9167 19.5751 11.7884C18.8998 10.7662 17.7458 10.1851 16.3631 10.1851C14.7056 10.1851 13.0306 11.0313 12.1946 12.2906C11.6918 13.0481 11.2445 14.3121 11.969 16.0314L12.0696 16.2698L11.8467 16.4012C11.2566 16.7494 10.806 17.2388 10.3291 17.757C9.93461 18.1856 9.52674 18.6287 9.02987 18.9895L8.90831 19.0779L8.76521 19.0316C8.30739 18.8837 7.84212 18.8087 7.38205 18.8087C6.09299 18.8087 4.85991 19.4041 3.99908 20.4421C3.10581 21.5192 2.73913 22.9098 2.99289 24.2576C3.13469 25.0106 3.59795 25.4891 4.13436 26.0433C4.41227 26.3302 4.6993 26.6269 4.95389 26.9793L5.05769 27.123L4.98005 27.2823C4.72664 27.8018 4.59975 28.4918 4.47725 29.1592C4.3912 29.6272 4.30243 30.1112 4.16892 30.5521L4.10205 30.7727L3.87148 30.7618C3.8052 30.7588 3.7401 30.7572 3.6756 30.7572C2.03891 30.7572 1.13748 31.7235 0.669479 32.5343C-0.208282 34.0546 -0.224616 36.2328 0.630538 37.7136C1.08185 38.4952 1.96801 39.4267 3.62707 39.4267C3.62731 39.4267 3.62754 39.4267 3.62778 39.4267C3.77881 39.4267 3.9354 39.4187 4.09282 39.403L4.38777 39.3734L4.41677 39.6685C4.53951 40.9211 4.88536 41.957 5.22896 42.9108L5.31903 43.1607L5.08018 43.2769C3.16925 44.2088 2.87785 46.2272 3.2424 47.8051C3.65346 49.5849 5.05603 51.5006 7.16368 51.5006C7.16403 51.5006 7.16403 51.5006 7.16451 51.5006C7.82377 51.5005 8.50328 51.305 9.18362 50.9194L9.37714 50.8097L9.53633 50.9651C9.76619 51.1897 10.0089 51.4124 10.2438 51.6278C10.9311 52.2586 11.6418 52.9109 12.181 53.7371L12.276 53.8827L12.1949 54.0366C11.4081 55.532 11.7589 56.8164 12.1917 57.6307C12.8984 58.9599 14.3293 59.9577 15.7525 60.1137C15.9228 60.1324 16.0914 60.1419 16.2532 60.1419C17.9854 60.1417 19.0667 59.0565 20.1118 57.8473L20.2412 57.6977L20.4288 57.7598C20.9067 57.9181 21.4611 58.024 21.9972 58.1265C22.5014 58.2229 23.0229 58.3225 23.499 58.4678L23.7309 58.5385L23.7071 58.7799C23.5927 59.9415 23.8937 60.9546 24.5779 61.7095C25.3744 62.5886 26.6426 63.0927 28.0572 63.0927C29.4997 63.0927 30.8394 62.5473 31.6411 61.6336C32.342 60.8347 32.628 59.7695 32.4684 58.5529L32.4275 58.2409L32.7414 58.2191C33.5415 58.1636 34.2139 57.9931 34.9259 57.8126C35.1627 57.7526 35.4072 57.6906 35.6543 57.634L35.8918 57.5796L35.9907 57.8022C36.5945 59.1597 37.9195 59.9383 39.6264 59.9382C41.3253 59.9379 42.9541 59.141 43.7765 57.9077C44.4871 56.8414 44.5534 55.5355 43.9682 54.1309L43.869 53.8929L44.0913 53.7622C44.6942 53.4072 45.1755 52.9344 45.6849 52.4339C46.1342 51.9925 46.5988 51.536 47.1546 51.1671L47.276 51.0863L47.4139 51.1334C47.9208 51.3066 48.4183 51.3942 48.8929 51.3942C48.8932 51.3942 48.8934 51.3942 48.8937 51.3942C50.9551 51.394 52.2038 49.8058 52.6849 48.3195C53.2103 46.6965 53.0184 44.5362 51.4053 43.369L51.2237 43.2376L51.3009 43.0274C51.5379 42.3815 51.6655 41.5909 51.7891 40.8264C51.8528 40.4327 51.9185 40.0256 51.999 39.6372L52.0493 39.3942L52.2972 39.4014C52.3362 39.4026 52.3743 39.4031 52.4127 39.4031C54.8022 39.4029 56.0523 37.1824 56.0521 34.9891C56.0521 32.8732 54.9283 30.7381 52.4178 30.7381ZM48.1266 23.5672C47.5111 24.2288 46.5319 24.6083 45.4401 24.6083L45.2311 24.6076L45.1537 24.4312C44.6923 23.3791 44.708 22.3255 45.1993 21.3844C45.7724 20.2866 46.9705 19.4381 48.3259 19.1699L48.4833 19.1387L48.5951 19.2535C49.7024 20.3891 49.0572 22.5668 48.1266 23.5672ZM17.8156 11.4129L17.9371 11.1339L18.2126 11.2633C18.937 11.6034 19.5417 12.4059 19.8301 13.41C20.1349 14.4704 20.0214 15.5263 19.5191 16.3067L19.3947 16.4998L19.1768 16.4273C18.6019 16.2362 18.1365 15.773 17.831 15.0881C17.3499 14.0083 17.3434 12.4971 17.8156 11.4129ZM7.02508 19.5325L7.06568 19.2757L7.32548 19.2829C8.77054 19.3228 10.0415 19.9834 10.7256 21.0499C11.3521 22.0264 11.4152 23.2262 10.9034 24.4284L10.8255 24.6114L10.6267 24.6084C9.45182 24.5908 8.48742 24.1734 7.83762 23.4016C7.06508 22.4838 6.77664 21.1098 7.02508 19.5325ZM3.49829 35.6066C3.49806 35.6066 3.49794 35.6066 3.4977 35.6066C1.82491 35.6063 0.726647 34.9161 0.631958 33.8051C0.528275 32.5904 1.56594 31.6985 3.47864 31.3585C3.75928 31.3085 4.06086 31.2832 4.37511 31.2832C5.76016 31.2832 7.22475 31.7871 7.37412 32.9127C7.44324 33.4326 7.28452 33.9301 6.91548 34.3512C6.24733 35.1138 4.90607 35.6066 3.49829 35.6066ZM8.89375 47.1909C8.15258 47.9937 7.08627 48.4544 5.968 48.4544C5.96776 48.4544 5.96776 48.4544 5.96753 48.4544C5.16102 48.4542 4.38268 48.2112 3.71714 47.7515L3.62754 47.6897L3.59937 47.5845C3.323 46.5521 3.52611 45.5204 4.17153 44.6796C4.91661 43.7087 6.14957 43.1055 7.38927 43.1055C8.32503 43.1055 9.17486 43.4625 9.78193 44.1104L9.85271 44.1859L9.86099 44.289C9.94929 45.3889 9.60581 46.4195 8.89375 47.1909ZM17.8394 57.0322C17.2017 58.2602 16.1259 58.9644 14.8882 58.9644C14.7198 58.9644 14.5468 58.9513 14.3741 58.9252C13.4886 58.792 12.5915 57.7385 12.363 57.0717C11.9595 55.8951 12.199 54.4777 12.9882 53.3728C13.7071 52.3663 14.7525 51.7889 15.8561 51.7889C16.4107 51.7889 16.9682 51.9327 17.5131 52.2161L17.5771 52.2493L17.6187 52.3084C18.5388 53.6165 18.6274 55.5149 17.8394 57.0322ZM31.605 60.6121C30.907 61.9547 29.4741 62.8221 27.9544 62.8221H27.9542C27.1326 62.8221 26.3224 62.5626 25.6112 62.0715C24.4232 61.2513 23.8939 59.635 24.2942 58.0496C24.6859 56.498 25.8773 55.4297 27.4037 55.2616C27.642 55.2352 27.8776 55.222 28.104 55.222C29.4685 55.222 30.6366 55.7256 31.2286 56.5691C32.1336 57.858 32.2706 59.3316 31.605 60.6121ZM43.8214 56.6782C43.6716 57.4344 42.768 58.7404 41.9375 58.9217C41.696 58.9744 41.4542 59.0011 41.2187 59.0011H41.2185C39.9225 59.001 38.7687 58.1904 38.1319 56.8331C37.3902 55.2522 37.5662 53.3786 38.5698 52.1711L38.6221 52.1081L38.6995 52.081C39.1165 51.935 39.544 51.861 39.97 51.861C41.1107 51.861 42.2007 52.3915 42.9605 53.3167C43.7424 54.2687 44.056 55.494 43.8214 56.6782ZM51.9616 44.7162C52.4077 45.3073 52.8552 46.3062 52.4549 47.7077L52.4206 47.8276L52.3108 47.8869C51.6355 48.2513 50.8839 48.4438 50.1377 48.4438C50.1375 48.4438 50.1373 48.4438 50.1373 48.4438C48.9994 48.4437 47.9268 47.998 47.1945 47.2209C46.4722 46.4545 46.1265 45.4428 46.1944 44.2952L46.2012 44.1808L46.2832 44.1008C46.8979 43.5016 47.7598 43.1716 48.7098 43.1716C49.997 43.1717 51.243 43.7635 51.9616 44.7162ZM55.4247 33.6745C55.3727 34.8718 54.26 35.6156 52.5207 35.6156C52.5205 35.6156 52.5202 35.6156 52.52 35.6156C51.1969 35.6153 49.9026 35.165 49.2223 34.4683C48.8559 34.0927 48.6679 33.6476 48.6793 33.1811C48.7097 31.9172 50.0942 31.5425 51.297 31.3574C51.5072 31.325 51.7342 31.3085 51.9717 31.3085C52.919 31.3085 54.1879 31.5765 54.9078 32.3283C55.273 32.7098 55.4469 33.1627 55.4247 33.6745Z" fill="#D5B76E"/>
</svg>