<svg xmlns="http://www.w3.org/2000/svg" width="20" height="21" viewBox="0 0 20 21" fill="none">
  <path d="M9.36652 10.8882C12.4004 10.8882 15.1245 12.6938 16.3069 15.488C16.4983 15.9418 17.0522 16.1693 17.5093 15.9759C17.9752 15.7788 18.194 15.2397 17.9972 14.7731C17.0101 12.4417 15.1139 10.6065 12.7609 9.69329C14.0502 8.66141 14.8102 7.09843 14.8102 5.44447C14.8102 2.44247 12.3681 0 9.36652 0C6.36489 0 3.92281 2.44247 3.92281 5.44447C3.92281 7.10146 4.68477 8.66634 5.97747 9.69784C2.3875 11.0952 0 14.5566 0 18.4195C0 18.9252 0.41131 19.3369 0.917393 19.3369H13.5911C14.0968 19.3369 14.5085 18.9252 14.5085 18.4195C14.5085 17.9138 14.0968 17.5021 13.5911 17.5021H1.89051C2.34656 13.7768 5.59042 10.8882 9.36652 10.8882ZM9.36652 1.83479C11.3567 1.83479 12.9758 3.45387 12.9758 5.44447C12.9758 7.43468 11.3567 9.05339 9.36652 9.05339C7.3763 9.05339 5.75759 7.4343 5.75759 5.44447C5.75759 3.45425 7.3763 1.83479 9.36652 1.83479Z" fill="#B7BDC6"/>
  <path d="M19.732 16.868C19.3856 16.5215 18.7813 16.5215 18.4348 16.868L17.2771 18.0253L17.1971 17.9453C16.8502 17.5985 16.2456 17.5992 15.8995 17.9453C15.542 18.3028 15.542 18.8851 15.8995 19.2429L16.6281 19.9716C16.8013 20.1448 17.0318 20.2403 17.2771 20.2403C17.5223 20.2403 17.7524 20.1448 17.9257 19.9716L19.732 18.1652C20.0895 17.8077 20.0895 17.2258 19.732 16.868Z" fill="#B7BDC6"/>
</svg>