<svg xmlns="http://www.w3.org/2000/svg" width="10" height="10" viewBox="0 0 10 10" fill="none">
  <path d="M5 0C6.32608 0 7.59785 0.526784 8.53553 1.46447C9.47322 2.40215 10 3.67392 10 5C10 6.32608 9.47322 7.59785 8.53553 8.53553C7.59785 9.47322 6.32608 10 5 10C3.67392 10 2.40215 9.47322 1.46447 8.53553C0.526784 7.59785 0 6.32608 0 5C0 3.67392 0.526784 2.40215 1.46447 1.46447C2.40215 0.526784 3.67392 0 5 0ZM5.265 2.13714C4.68357 2.13714 4.22786 2.30214 3.89 2.63214C3.54429 2.96214 3.37929 3.41786 3.37929 3.99929H4.275C4.275 3.66929 4.33786 3.41 4.47143 3.22929C4.62071 3.00929 4.86429 2.90714 5.21 2.90714C5.47714 2.90714 5.68929 2.97786 5.83857 3.12714C5.98 3.27643 6.05857 3.48071 6.05857 3.74C6.05857 3.93643 5.98786 4.125 5.84643 4.29786L5.75214 4.40786C5.24143 4.86357 4.935 5.19357 4.83286 5.40571C4.72286 5.61786 4.67571 5.87714 4.67571 6.17571V6.28571H5.57929V6.17571C5.57929 5.98714 5.61857 5.82214 5.69714 5.665C5.76786 5.52357 5.87 5.39 6.01143 5.27214C6.38857 4.94214 6.61643 4.73 6.68714 4.65143C6.87571 4.4 6.97786 4.07786 6.97786 3.685C6.97786 3.20571 6.82071 2.82857 6.50643 2.55357C6.19214 2.27071 5.77571 2.13714 5.265 2.13714ZM5.12357 6.67071C4.96337 6.66638 4.80798 6.72571 4.69143 6.83571C4.63389 6.88991 4.58868 6.95585 4.55885 7.02906C4.52903 7.10226 4.51529 7.18102 4.51857 7.26C4.51857 7.43286 4.57357 7.57429 4.69143 7.68429C4.8071 7.79656 4.96238 7.85867 5.12357 7.85714C5.29643 7.85714 5.43786 7.80214 5.55571 7.69214C5.61448 7.63683 5.66093 7.56976 5.69207 7.49531C5.72321 7.42085 5.73832 7.34068 5.73643 7.26C5.73794 7.18125 5.72339 7.10301 5.69367 7.03007C5.66395 6.95712 5.61968 6.89099 5.56357 6.83571C5.44399 6.72551 5.28613 6.66631 5.12357 6.67071Z" fill="#B09C6A"/>
</svg>