<svg width="24" height="21" viewBox="0 0 24 21" fill="none" xmlns="http://www.w3.org/2000/svg">
<path d="M23.5813 17.3655L21.4768 14.9447C22.4797 13.1346 22.8937 11.0831 22.6746 9.00348C22.1423 3.95479 17.61 0 12.3563 0H10.6789C4.79347 0 0.10352 4.34697 0.00174974 9.89631C-0.0482978 12.6265 0.976752 15.2024 2.88811 17.1493C4.80059 19.0965 7.35659 20.1688 10.0853 20.1688H22.304C22.9759 20.1688 23.5661 19.789 23.8442 19.1779C24.1233 18.5676 24.0225 17.8731 23.5813 17.3655ZM10.6789 1.78091H12.3563C16.7111 1.78091 20.4655 5.03555 20.9036 9.19044C21.1049 11.0968 20.6653 12.9539 19.6325 14.5611C19.4201 14.8913 19.4518 15.3295 19.7096 15.6267L22.11 18.3871H10.0846C7.83694 18.3871 5.73239 17.5042 4.15858 15.9008C2.58474 14.2974 1.74066 12.1763 1.78183 9.9282C1.86574 5.35962 5.77379 1.78091 10.6789 1.78091Z" fill="#909090"/>
<path d="M14.9794 7.72539L13.31 7.48259L12.5601 5.96309C12.334 5.50605 11.8777 5.22119 11.3683 5.22119C10.8581 5.22119 10.4011 5.50525 10.1757 5.96309L9.4259 7.48259L7.75009 7.72619C7.24544 7.79918 6.83363 8.14514 6.67573 8.62995C6.51783 9.11476 6.64637 9.63845 7.01213 9.99472L8.22456 11.177L7.93814 12.8465C7.85245 13.3487 8.05478 13.847 8.46739 14.147C8.87999 14.4461 9.41638 14.4858 9.86787 14.2485L11.3675 13.4598L12.8672 14.2485C13.0639 14.3517 13.2758 14.4017 13.4869 14.4017C13.7614 14.4017 14.0344 14.316 14.2676 14.147C14.6802 13.847 14.8826 13.3487 14.7969 12.8457L14.5104 11.1762L15.7181 9.99869C16.0839 9.64242 16.2132 9.11873 16.0553 8.63154C15.8975 8.14673 15.4857 7.79918 14.9794 7.72539ZM13.2441 10.4161C13.0759 10.5803 12.9989 10.8168 13.0386 11.0485L13.3544 12.8917L11.7 12.0205C11.4913 11.9118 11.2438 11.9118 11.0351 12.0205L9.3807 12.8917L9.69651 11.0484C9.73618 10.8167 9.65918 10.5803 9.491 10.416L8.15238 9.11077L10.0028 8.84178C10.2352 8.80766 10.436 8.66166 10.5408 8.45139L11.3684 6.77478L12.1952 8.45139C12.2991 8.66248 12.5007 8.80766 12.7331 8.84178L14.5835 9.11077L13.2441 10.4161Z" fill="#909090"/>
</svg>
