<svg width="24" height="22" viewBox="0 0 24 22" fill="none" xmlns="http://www.w3.org/2000/svg">
<path d="M19.6646 0H3.38297C1.5176 0 0 1.51282 0 3.37233V21.334C0.000180908 21.4841 0.0521375 21.6315 0.146318 21.7491C0.274039 21.9086 0.464896 22 0.669937 22C0.822912 22 0.967132 21.9496 1.08704 21.8541L5.33569 18.4667H19.6646C21.53 18.4667 23.0476 16.9538 23.0476 15.0943V3.37233C23.0476 1.51282 21.53 0 19.6646 0ZM21.7089 15.0943C21.7089 16.218 20.7918 17.1322 19.6646 17.1322H4.86573L1.33872 19.9464V3.37233C1.33872 2.24868 2.25577 1.3345 3.38297 1.3345H19.6646C20.7918 1.3345 21.7089 2.24868 21.7089 3.37233V15.0943Z" fill="#AFAFAF"/>
<path d="M14.3615 14.8298C14.1774 14.8298 13.9939 14.7846 13.8308 14.6992L11.3623 13.401L8.89499 14.6987C8.73094 14.7846 8.54747 14.8298 8.36338 14.8298C8.12049 14.8298 7.88829 14.7544 7.69194 14.6117C7.33773 14.3553 7.16321 13.9266 7.23755 13.4939L7.70855 10.7467L5.71212 8.80055C5.39872 8.49529 5.28788 8.04659 5.42317 7.62979C5.55883 7.2123 5.9126 6.91438 6.34651 6.85197L9.10438 6.45149L10.3379 3.95114C10.5315 3.55847 10.9242 3.31445 11.3625 3.31445C11.7829 3.31445 12.1612 3.53895 12.3624 3.90384C12.3778 3.92994 12.3916 3.95706 12.4037 3.98512L13.6207 6.45105L16.3793 6.85168C16.3928 6.85365 16.4062 6.85598 16.4195 6.85865C16.8346 6.93343 17.1703 7.22563 17.3015 7.62961C17.437 8.04637 17.3262 8.49514 17.0125 8.80073L15.0162 10.7468L15.4873 13.4945C15.5605 13.9193 15.3821 14.358 15.0327 14.6118C14.8366 14.7543 14.6044 14.8298 14.3615 14.8298ZM9.17383 10.8397L8.7851 13.107L10.8305 12.0312C10.9953 11.9451 11.1785 11.9002 11.3624 11.9002C11.5463 11.9002 11.7296 11.9452 11.8926 12.0303L13.9397 13.1069L13.5491 10.8289C13.4857 10.4566 13.6091 10.0784 13.8791 9.81641L15.5332 8.20397L13.2452 7.8717C12.8737 7.81772 12.5524 7.58461 12.3856 7.24814C12.3816 7.24008 12.3777 7.23198 12.374 7.2238L11.3625 5.17402L10.3398 7.24683C10.1787 7.57151 9.87563 7.7994 9.52271 7.86454C9.50847 7.8675 9.49409 7.87002 9.47953 7.87214L7.192 8.20433L8.84692 9.81758C9.11569 10.0785 9.23909 10.4566 9.17591 10.828C9.17525 10.8319 9.17456 10.8358 9.17383 10.8397Z" fill="#AFAFAF"/>
</svg>
