<svg xmlns="http://www.w3.org/2000/svg" width="51" height="52" viewBox="0 0 51 52" fill="none">
  <path d="M50.8592 27.4365L50.8531 27.328L50.8509 27.2868C50.8503 27.2763 50.847 27.2423 50.8459 27.2301C50.8342 27.0854 50.8141 26.9423 50.7897 26.8026C50.7401 26.5232 50.6683 26.2555 50.5815 25.999C50.4062 25.4864 50.1741 25.0195 49.9137 24.5842C49.6521 24.1485 49.3604 23.745 49.0477 23.3632C48.7343 22.9803 48.4015 22.623 48.0353 22.279C47.6747 21.9401 47.2751 21.6139 46.8576 21.3284C46.6489 21.1854 46.4369 21.0507 46.2237 20.9244L46.064 20.8314L45.9065 20.7424C45.9004 20.7385 45.8598 20.7173 45.8436 20.709L45.7818 20.6773C45.7412 20.6572 45.7039 20.6405 45.6683 20.6238C45.6238 20.6032 45.5831 20.586 45.5436 20.5687L45.5581 20.5571L45.6054 20.5209C45.6572 20.4802 45.7089 20.4391 45.7601 20.3962C46.1725 20.0573 46.5816 19.6549 46.9333 19.169C47.2862 18.6865 47.5711 18.1171 47.7437 17.5244C47.9184 16.9317 47.9852 16.3251 47.9752 15.7518C47.9702 15.4657 47.9479 15.1825 47.9129 14.9142C47.8767 14.6304 47.8221 14.351 47.7531 14.0788C47.6162 13.534 47.4203 13.0208 47.1932 12.5422C46.7385 11.5838 46.1653 10.7624 45.5904 10.0155C45.3027 9.64202 45.0132 9.28639 44.7344 8.94523L44.3276 8.44545L44.1384 8.20724L43.953 7.96459C43.8222 7.7915 43.6764 7.59838 43.5095 7.39413C43.3403 7.18876 43.1516 6.97115 42.9134 6.7463C42.7937 6.63444 42.6629 6.5209 42.5132 6.40904L42.4565 6.36729L42.3852 6.31776L42.2895 6.2532L42.221 6.20979L42.1698 6.17807C42.1353 6.15636 42.1014 6.13688 42.0663 6.11685C41.7914 5.956 41.5109 5.8241 41.2315 5.71335C40.6722 5.49296 40.1167 5.35827 39.5735 5.27646C39.0303 5.19465 38.4983 5.16404 37.9757 5.16793C37.4531 5.17183 36.9388 5.21413 36.4302 5.28481C35.922 5.35605 35.4195 5.4579 34.918 5.59314C34.6676 5.66215 34.4171 5.73951 34.1656 5.82689L33.9769 5.89534L33.8778 5.93319L33.7821 5.97048L33.688 6.00832C33.6413 6.0278 33.6001 6.04561 33.56 6.06398C33.5205 6.08179 33.4832 6.09904 33.4482 6.11629C33.4476 6.09236 33.4471 6.06843 33.4459 6.04283L33.4381 5.91705L33.4331 5.85082L33.4259 5.77179L33.4187 5.70946L33.4098 5.64267L33.3936 5.52579C33.3814 5.44788 33.368 5.36996 33.353 5.2926C33.2322 4.67094 33.0024 4.05873 32.6807 3.51109C32.3601 2.96233 31.9516 2.48092 31.5019 2.07853C31.0506 1.67559 30.558 1.3489 30.0482 1.08899C29.5384 0.829083 29.0114 0.633734 28.4782 0.491814L28.378 0.466213L28.2728 0.440055L28.1726 0.41668L28.0752 0.394975C27.9272 0.363252 27.7847 0.338207 27.6462 0.317615C27.3701 0.27643 27.1124 0.251943 26.8692 0.234133C26.3833 0.198514 25.9526 0.18293 25.5585 0.15232L25.4155 0.140632L25.2652 0.126719L24.9213 0.0938823C24.6903 0.0727335 24.4571 0.0538114 24.22 0.0387846C23.7447 0.00873099 23.26 -0.0118622 22.7268 0.00761697C22.5927 0.0131825 22.4552 0.0209743 22.3105 0.0343315L22.1992 0.0454627L22.079 0.0599335L21.9777 0.073847L21.8814 0.088874C21.6276 0.128946 21.3861 0.175696 21.1434 0.228011C20.9008 0.280883 20.6592 0.33932 20.411 0.408889C20.1611 0.479014 19.9096 0.556374 19.6213 0.66991L19.51 0.715547L19.4521 0.740592L19.3881 0.769532L19.3369 0.793464L19.279 0.821848L19.1799 0.871937C19.0491 0.939836 18.9223 1.01107 18.7987 1.08621C18.5522 1.23648 18.3212 1.39899 18.103 1.57041C17.6678 1.9138 17.2849 2.29169 16.9421 2.68907C16.5987 3.08644 16.2948 3.50385 16.0238 3.93629C15.4822 4.80117 15.0648 5.72281 14.7726 6.69287C14.6992 6.93553 14.6352 7.18097 14.5795 7.4303C14.5517 7.55441 14.5261 7.67964 14.5027 7.80597L14.4949 7.84883C14.3174 7.72026 14.1287 7.59003 13.9267 7.46425C13.4809 7.18598 12.9622 6.92718 12.3967 6.76857C12.1151 6.68842 11.824 6.63221 11.5341 6.60383C11.2441 6.57489 10.9547 6.57155 10.6742 6.58991C10.6041 6.59437 10.5345 6.60049 10.4649 6.60717L10.352 6.61941L10.2674 6.6311C10.2329 6.63499 10.2284 6.63666 10.2078 6.63945L10.1566 6.64724L10.0542 6.66394C9.98576 6.67562 9.91786 6.68898 9.85052 6.70289C9.57948 6.75966 9.31178 6.83646 9.05299 6.93108C8.53484 7.1203 8.05621 7.383 7.62934 7.6813C7.20135 7.97961 6.8229 8.31243 6.48006 8.65415C6.13667 8.99587 5.82612 9.34705 5.5317 9.69323L5.30853 9.95926C5.23339 10.0505 5.15937 10.1424 5.08702 10.2347C4.94176 10.4195 4.80151 10.606 4.66627 10.7941C4.39468 11.1698 4.14145 11.5499 3.89712 11.9272L3.53648 12.4916L3.18864 13.0403C3.08067 13.2078 2.956 13.3831 2.82243 13.5796C2.68997 13.7755 2.54861 13.9953 2.42561 14.2436C2.30261 14.4912 2.20243 14.7662 2.14177 15.0433C2.12674 15.1129 2.11338 15.1825 2.10225 15.2515L2.08778 15.3561L2.0811 15.4112L2.0761 15.458C2.06441 15.5782 2.05495 15.6995 2.04827 15.8203C2.02211 16.3045 2.03881 16.7903 2.09891 17.269C2.21857 18.2273 2.50742 19.1518 2.9176 19.9988C3.3261 20.8487 3.85037 21.6245 4.43753 22.333L4.49263 22.3987L4.55329 22.4699C4.59392 22.5161 4.63399 22.5606 4.67295 22.6035L4.8978 22.845C5.03805 22.9975 5.16271 23.1456 5.23228 23.2663C5.26734 23.3259 5.28515 23.3749 5.29072 23.4016C5.29239 23.4082 5.2935 23.4138 5.29406 23.4183C5.29406 23.4205 5.29462 23.4227 5.29462 23.4244C5.29462 23.4327 5.29517 23.4116 5.29462 23.4244C5.29295 23.4455 5.29128 23.4583 5.28849 23.4678C5.28237 23.4856 5.28182 23.4923 5.259 23.5151C5.23729 23.5368 5.19054 23.5674 5.12542 23.5952C4.99408 23.6526 4.8043 23.696 4.60115 23.731C4.39579 23.7672 4.17428 23.7956 3.92718 23.8496L3.83256 23.8719L3.77969 23.8852L3.73517 23.898C3.67728 23.9147 3.61996 23.932 3.56264 23.9509C3.44799 23.9871 3.3339 24.0277 3.22147 24.0711C2.99551 24.1585 2.77401 24.262 2.56029 24.3816C2.13231 24.6204 1.73382 24.9271 1.39878 25.2933C1.06262 25.6584 0.788799 26.0775 0.585102 26.5205C0.380292 26.9635 0.23726 27.4276 0.147099 27.8946C0.101462 28.1294 0.0675125 28.3593 0.0430243 28.5992C0.0196493 28.8274 0.00517863 29.0667 0.00128279 29.301C-0.00706544 29.7724 0.0257716 30.2427 0.0869919 30.6996C0.145429 31.1571 0.228354 31.6001 0.302932 32.0303C0.339664 32.2457 0.374171 32.4588 0.404224 32.6681L0.416468 32.7533L0.430939 32.8434C0.440957 32.9035 0.452088 32.9631 0.463775 33.0226C0.48715 33.1417 0.512751 33.2597 0.541692 33.376C0.655784 33.8424 0.814957 34.2793 0.945746 34.6856C1.01253 34.8893 1.06763 35.0774 1.11939 35.2822L1.27689 35.9217C1.33422 36.1443 1.40156 36.3931 1.51454 36.6552C1.6264 36.9179 1.78836 37.1728 1.95866 37.3837C2.00152 37.4366 2.04437 37.4878 2.08778 37.5368L2.15513 37.6119L2.21801 37.6798C2.30317 37.7705 2.3911 37.8585 2.48071 37.9442C2.66047 38.1156 2.84803 38.2759 3.04171 38.4261C3.42962 38.7278 3.84314 38.9894 4.27112 39.2192C5.12821 39.6778 6.04762 39.9995 6.98986 40.2054C7.46237 40.3078 7.93766 40.3796 8.42186 40.4242C8.47084 40.4292 8.54653 40.4353 8.61053 40.4386C8.6762 40.4431 8.74076 40.4459 8.80421 40.4481C8.9311 40.4531 9.05243 40.4548 9.1693 40.4559C9.25056 40.4564 9.33015 40.4564 9.40695 40.457C9.4025 40.4642 9.39804 40.4703 9.39359 40.4781C9.37523 40.5076 9.35519 40.5399 9.33349 40.5766C9.32291 40.5945 9.31122 40.6145 9.29675 40.6429L9.27115 40.6891L9.18377 40.8521C9.12589 40.9618 9.06857 41.0736 9.01347 41.1889C8.90272 41.4204 8.79864 41.6636 8.7057 41.9385C8.6595 42.076 8.61665 42.2229 8.58103 42.3854C8.57213 42.4283 8.56434 42.4639 8.55487 42.5196C8.54319 42.5914 8.54541 42.5685 8.5354 42.6387C8.52538 42.7032 8.51647 42.7689 8.50868 42.8357C8.47584 43.1 8.45692 43.3733 8.45692 43.6555C8.45581 44.217 8.54486 44.8237 8.75134 45.3997C8.85485 45.6869 8.98453 45.9629 9.13146 46.2184C9.27839 46.4738 9.43923 46.7093 9.60508 46.9235C9.77038 47.1378 9.93845 47.3326 10.1004 47.5135C10.2713 47.7038 10.4555 47.8919 10.6453 48.0689C11.0259 48.4262 11.4384 48.7496 11.863 49.0312C12.2865 49.3156 12.7195 49.5588 13.1436 49.7781C13.5677 49.9979 13.9846 50.191 14.3892 50.3775L14.988 50.6524C15.0954 50.7014 15.1672 50.7342 15.2546 50.7771C15.3392 50.8183 15.4271 50.8622 15.5179 50.9095C15.8813 51.0971 16.2965 51.3275 16.7996 51.5423C17.0506 51.6486 17.3244 51.7488 17.6177 51.8267C17.9105 51.9052 18.2216 51.9608 18.5371 51.9853C18.6946 51.997 18.8532 52.002 19.0102 51.9992L19.0692 51.9976L19.1371 51.9948L19.2334 51.9898L19.3486 51.9814L19.451 51.972C19.7237 51.9469 19.9942 51.9069 20.2596 51.8529C21.3227 51.6353 22.3033 51.2134 23.1737 50.6724C24.0464 50.1304 24.8194 49.4775 25.5001 48.7306C25.6704 48.5431 25.8329 48.3522 25.9988 48.1418C26.1051 48.0049 26.183 47.8886 26.2526 47.7828L26.2659 47.7611C26.2999 47.8385 26.3355 47.9192 26.3744 48.0049C26.4284 48.1229 26.488 48.2487 26.5664 48.3923C26.6065 48.4641 26.6483 48.5375 26.7084 48.6293L26.7423 48.6789L26.7724 48.7217L26.833 48.8069C26.9148 48.9199 27.0022 49.0306 27.0935 49.1397C27.2755 49.3579 27.4781 49.5638 27.6974 49.7536C28.1354 50.1348 28.6457 50.4448 29.1811 50.6563C29.7176 50.8683 30.2725 50.9847 30.8101 51.0303C31.0789 51.0537 31.345 51.0581 31.606 51.0503C31.7362 51.0459 31.8659 51.0386 31.9934 51.0281C32.0585 51.0225 32.1191 51.0169 32.1876 51.0103L32.2861 50.9991L32.3679 50.9886L32.4686 50.9752L32.5627 50.9624C32.625 50.9524 32.6874 50.9435 32.7497 50.9323C32.8744 50.9118 32.9974 50.8867 33.1209 50.8605C33.3664 50.8066 33.6096 50.7442 33.8478 50.6719C34.3247 50.5288 34.7828 50.3485 35.2191 50.1471C36.0929 49.7441 36.8787 49.2605 37.6295 48.7902C38.3803 48.3188 39.0999 47.8585 39.8385 47.4684L40.0132 47.376L40.0895 47.2892C40.3989 46.9347 40.6583 46.5518 40.877 46.1538C41.0968 45.7564 41.2727 45.3429 41.414 44.9233C41.6951 44.0823 41.8354 43.2152 41.8626 42.3576C41.8749 41.9285 41.8604 41.5016 41.8214 41.0798C41.8114 40.974 41.7997 40.8688 41.7864 40.7642C41.7736 40.6612 41.7574 40.5483 41.7424 40.4514C41.7107 40.231 41.66 40.0123 41.6005 39.8064C41.4803 39.3929 41.3244 39.0144 41.202 38.6415C41.0835 38.2865 40.9966 37.9358 40.9944 37.5718C41.1074 37.48 41.2604 37.4472 41.4307 37.4466C41.62 37.4461 41.8231 37.4828 42.0262 37.5312C42.4353 37.6281 42.8483 37.7755 43.2935 37.8907C43.5178 37.9481 43.7504 38.0009 44.0154 38.0182C44.0827 38.0226 44.1495 38.0221 44.2068 38.0232C44.2664 38.0232 44.3259 38.0227 44.3855 38.0204C44.5051 38.0165 44.6253 38.0087 44.7455 37.997C45.2258 37.9486 45.7139 37.8284 46.172 37.6208C46.63 37.4138 47.053 37.1222 47.4181 36.781C47.7849 36.4404 48.0932 36.0502 48.3575 35.6445C48.8879 34.8303 49.2497 33.9565 49.553 33.0911C49.7038 32.6581 49.843 32.2251 49.9693 31.7949L50.3416 30.5232C50.4669 30.0963 50.5977 29.6522 50.6973 29.1735C50.7969 28.6971 50.8687 28.1834 50.8642 27.6436C50.8642 27.5723 50.8626 27.5044 50.8592 27.4365ZM44.2558 13.9942C44.4194 14.3053 44.5496 14.6153 44.6431 14.9214C44.6893 15.0745 44.7261 15.2264 44.7533 15.3789C44.7834 15.5464 44.8023 15.7023 44.8123 15.8564C44.8324 16.1637 44.8134 16.4442 44.7539 16.7013C44.6943 16.9584 44.5936 17.1961 44.4417 17.4354C44.2908 17.6741 44.0833 17.9118 43.8278 18.1461L43.7298 18.234L43.7009 18.2602L43.6592 18.2947C43.5946 18.3464 43.505 18.4132 43.4076 18.4884C43.3097 18.5635 43.2022 18.6475 43.0859 18.746C42.9702 18.8457 42.8455 18.9581 42.7119 19.1039C42.5789 19.2508 42.4314 19.43 42.2934 19.6977C42.2261 19.8308 42.162 19.9899 42.1186 20.173C42.0964 20.2643 42.0808 20.3623 42.0719 20.463C42.0613 20.5993 42.0685 20.5242 42.0658 20.566C42.0652 20.5815 42.0635 20.6634 42.0652 20.7084C42.0702 20.8776 42.0964 21.0496 42.1442 21.2188C42.1921 21.3874 42.2622 21.5488 42.3435 21.6896C42.5088 21.9746 42.7075 22.1733 42.8867 22.3202C43.067 22.4666 43.234 22.5667 43.387 22.6486C43.5401 22.7298 43.6814 22.7916 43.8139 22.845C43.9452 22.8984 44.0677 22.9424 44.1812 22.9819L44.484 23.0854L44.5958 23.125L44.6559 23.1472L44.7906 23.2118L44.9209 23.2763C45.0934 23.3637 45.2604 23.4544 45.4218 23.5502C45.7451 23.7422 46.0479 23.952 46.3478 24.1963C46.9389 24.6794 47.4977 25.2571 47.9318 25.8654C48.1494 26.1693 48.3358 26.4837 48.4722 26.796C48.5406 26.9518 48.5974 27.1071 48.6386 27.2584C48.6598 27.3341 48.6764 27.4093 48.6904 27.4827C48.6926 27.4978 48.6926 27.4911 48.6954 27.5083L48.7015 27.549L48.7098 27.6052C48.7154 27.6469 48.7204 27.6892 48.7243 27.7321C48.7622 28.1016 48.7393 28.5046 48.6842 28.9314C48.3019 28.7116 47.9145 28.5012 47.5233 28.2959C47.1226 28.0849 46.7163 27.8857 46.3072 27.6881C45.8982 27.4933 45.4846 27.3058 45.0678 27.1227C44.6509 26.9429 44.2302 26.7681 43.8067 26.5995C43.382 26.4331 42.954 26.275 42.5227 26.1214C42.0903 25.9734 41.655 25.8303 41.2159 25.6962C40.7768 25.5643 40.3343 25.4391 39.8885 25.3217C39.4428 25.2048 38.9964 25.0812 38.5478 24.9577C38.0981 24.8341 37.6462 24.7111 37.1882 24.6104C36.7301 24.5108 36.266 24.4362 35.7979 24.4039C35.3299 24.37 34.8579 24.3761 34.3865 24.4156C33.4448 24.4963 32.5026 24.6794 31.5926 24.9922C31.1886 25.1302 30.7923 25.2955 30.4061 25.4903C30.1311 24.9838 29.3097 24.8391 29.1589 24.2169C29.0169 23.6298 29.3497 23.0053 29.1589 22.495C29.0987 22.3324 29.0075 22.2178 28.8973 22.1248C29.0347 22.0169 29.1705 21.9089 29.3041 21.8009C29.9881 21.2494 30.6309 20.6973 31.257 20.1419C31.5698 19.8636 31.8715 19.5798 32.1609 19.282C32.4508 18.9848 32.7263 18.6726 32.9996 18.3537C33.2723 18.0342 33.545 17.7097 33.8322 17.397C34.1194 17.0836 34.421 16.7837 34.7382 16.5009C35.0549 16.2182 35.3799 15.9422 35.7117 15.6728C36.0422 15.4023 36.3784 15.1363 36.7223 14.8786C37.063 14.6165 37.4119 14.3632 37.7659 14.1144C38.1187 13.864 38.4783 13.6213 38.8439 13.3859C39.2085 13.1483 39.5791 12.919 39.9553 12.6958C40.331 12.471 40.7128 12.2567 41.099 12.0463C41.4853 11.8376 41.8765 11.6345 42.2739 11.4408C42.2967 11.4297 42.3195 11.4185 42.3424 11.4074C42.5527 11.6484 42.7553 11.8827 42.9485 12.1176C43.4716 12.7481 43.928 13.3709 44.2558 13.9942ZM44.7455 20.207C44.7066 20.1819 44.6871 20.1619 44.6988 20.1669C44.7044 20.1697 44.7216 20.1819 44.7455 20.207ZM26.3895 28.3682C26.0823 28.3387 25.9398 28.1244 25.6565 28.0165C25.302 28.2313 25.2107 28.6821 24.7182 28.691C24.131 28.701 23.9518 28.1461 23.8677 27.5184C23.1743 27.4983 22.596 27.3319 22.6066 26.7264C22.6138 26.3229 22.9561 26.1515 23.1053 25.8175C22.8715 25.4063 22.4853 24.8152 22.9589 24.3805C23.206 24.1535 23.5834 24.2971 23.9262 24.1167C24.1861 23.9804 24.1883 23.5986 24.3664 23.4127C24.5373 23.234 24.8873 23.0743 25.2753 23.2368C25.5836 23.3659 25.6125 23.6654 25.9203 23.7355C26.2459 23.8095 26.4674 23.5891 26.8291 23.6771C27.0434 23.8335 27.2649 23.8707 27.3568 24.1173C27.4575 24.3867 27.2816 24.7161 27.3568 25.0261C27.4497 25.4085 28.0224 25.4491 28.0608 25.8476C28.1788 26.6401 27.5899 26.7258 27.1809 26.9913C27.3161 27.7944 27.0785 28.4344 26.3895 28.3682ZM33.4537 7.56944C33.4537 7.57055 33.4521 7.56499 33.4504 7.5533C33.4526 7.56276 33.4532 7.56833 33.4537 7.56944ZM24.5729 3.37028L24.8857 3.41091L25.0638 3.43373L25.2497 3.45543C25.7327 3.50831 26.1824 3.53725 26.5742 3.57899C26.7701 3.59958 26.951 3.62351 27.1096 3.65245C27.1892 3.66692 27.2627 3.68251 27.33 3.6992L27.3935 3.71534C27.4252 3.72313 27.4363 3.72647 27.4536 3.73148L27.5677 3.76432C27.8827 3.85893 28.1821 3.9836 28.4526 4.13275C28.7225 4.28302 28.9652 4.45555 29.165 4.64589C29.3664 4.83623 29.5262 5.04271 29.6447 5.25865C29.7638 5.47459 29.8423 5.70055 29.8846 5.94487C29.8896 5.97548 29.8941 6.0061 29.8979 6.03726L29.9035 6.08346C29.9035 6.08401 29.9041 6.08791 29.9052 6.09904C29.9074 6.11685 29.908 6.12575 29.9069 6.11907C29.9063 6.1174 29.9063 6.11518 29.9069 6.12241L29.9074 6.13855L29.9085 6.17751C29.9091 6.20645 29.9096 6.24152 29.9091 6.27992C29.9085 6.43464 29.8974 6.64056 29.8885 6.87542C29.8796 7.11251 29.869 7.37687 29.8874 7.70802C29.8974 7.87387 29.9146 8.05865 29.9575 8.27793C30.0031 8.49721 30.0694 8.75711 30.2335 9.07156C30.3159 9.22795 30.4256 9.39659 30.5725 9.56133C30.7189 9.72606 30.9031 9.88245 31.104 10.0038C31.3049 10.1268 31.5192 10.2125 31.7162 10.2659C31.7791 10.2815 31.7796 10.2843 31.896 10.3071C31.8804 10.3043 31.9622 10.321 32.069 10.3333C32.1375 10.3405 32.1943 10.3444 32.2488 10.3455C32.3067 10.3477 32.3551 10.3466 32.4063 10.3455C32.5032 10.3422 32.5894 10.3338 32.6684 10.3232C32.7447 10.3127 32.8182 10.2999 32.881 10.2865C33.0107 10.2592 33.1176 10.2286 33.2155 10.1975C33.4103 10.1351 33.5639 10.0717 33.7047 10.0099C33.9836 9.88579 34.209 9.76614 34.4171 9.65538L34.7076 9.49788C34.7978 9.44946 34.8818 9.40493 34.9514 9.37043C34.9854 9.35373 35.0154 9.33926 35.0371 9.32925L35.0599 9.31923L35.1189 9.29585L35.1774 9.27303L35.233 9.25189L35.3549 9.20736C35.5202 9.14948 35.6911 9.09661 35.8653 9.0493C36.5632 8.85507 37.3117 8.7471 38.028 8.72984C38.3859 8.7215 38.7359 8.73875 39.0654 8.78327C39.3938 8.82835 39.7015 8.89903 39.9642 8.99587C40.095 9.04429 40.2164 9.09828 40.3227 9.15727C40.4162 9.20736 40.4496 9.22851 40.5403 9.30754C40.6249 9.38212 40.7317 9.49287 40.8464 9.62477C40.9621 9.75834 41.0868 9.91306 41.2265 10.0878C41.4302 10.3427 41.6322 10.5826 41.8303 10.8136C41.4591 10.8892 41.0896 10.9755 40.7217 11.0696C40.2792 11.1814 39.8407 11.31 39.4038 11.4458C38.9675 11.5838 38.5339 11.7335 38.1031 11.8927C37.6729 12.0541 37.2455 12.2255 36.8214 12.4064C36.3973 12.5895 35.9788 12.7849 35.5631 12.9885C35.1495 13.1973 34.7399 13.4143 34.3348 13.6436C33.9313 13.8746 33.5333 14.1156 33.1393 14.366L31.9516 15.1218C31.5542 15.3761 31.1563 15.6361 30.774 15.9165C30.3911 16.1976 30.026 16.502 29.6915 16.8376C29.3553 17.1727 29.0498 17.5367 28.7709 17.9223C28.2144 18.6943 27.7435 19.5319 27.3913 20.4246C27.2182 20.8609 27.0757 21.3117 26.9661 21.7742C26.8002 21.8037 26.6293 21.8132 26.4396 21.7703C25.8568 21.6379 25.8018 21.0707 25.2174 20.8259C24.9925 20.7318 24.7755 20.6951 24.5718 20.6984C24.574 20.3845 24.5718 20.0762 24.564 19.7723C24.544 18.9158 24.4933 18.0915 24.426 17.2801C24.3915 16.8744 24.3453 16.4737 24.279 16.0752C24.2145 15.6772 24.1277 15.2821 24.0336 14.8847C23.939 14.4879 23.8399 14.0877 23.7575 13.6842C23.6752 13.2802 23.6106 12.8728 23.5694 12.4626C23.5277 12.0524 23.496 11.6406 23.4732 11.2271C23.4487 10.8136 23.4303 10.3989 23.4236 9.98263C23.4119 9.56633 23.4108 9.14837 23.4164 8.72984C23.4203 8.31076 23.4336 7.89057 23.457 7.47037C23.4776 7.04962 23.5093 6.62832 23.5483 6.20645C23.5856 5.78403 23.6362 5.36273 23.6913 4.94031C23.7486 4.51844 23.8132 4.09602 23.8895 3.67471C23.9112 3.54949 23.9351 3.42427 23.959 3.29904C24.1605 3.32075 24.3653 3.34468 24.5729 3.37028ZM15.2752 8.40983C15.3019 8.41762 15.3175 8.42485 15.3247 8.42931C15.3431 8.44044 15.3164 8.4332 15.2752 8.40983ZM6.57802 11.4987C6.64814 11.4235 6.71882 11.3484 6.79062 11.2755L7.01212 11.0523C7.61542 10.4496 8.21816 9.90972 8.84317 9.54797C9.4665 9.18398 10.1049 9.00978 10.7616 9.01925C11.4038 9.03316 11.9075 9.22684 12.4824 9.64536C12.626 9.74999 12.773 9.86687 12.9288 9.99432L13.4269 10.4128C13.5265 10.4947 13.6423 10.587 13.7825 10.6828C13.9233 10.7779 14.087 10.8798 14.3101 10.9733C14.422 11.0195 14.5506 11.064 14.702 11.0963C14.8528 11.1286 15.0292 11.1492 15.2251 11.1391C15.4205 11.1291 15.6331 11.0852 15.8278 11.0056C16.0232 10.9271 16.1963 10.818 16.3349 10.7034C16.474 10.5887 16.5803 10.4702 16.6666 10.3583C16.7528 10.2459 16.8185 10.1401 16.8742 10.0405C16.9298 9.94089 16.9732 9.84683 17.0111 9.75779L17.0383 9.691C17.0478 9.66651 17.0678 9.61141 17.0751 9.58804C17.0951 9.5296 17.1107 9.4745 17.1257 9.42107C17.1825 9.20736 17.2053 9.03761 17.2231 8.90348C17.2404 8.76936 17.2526 8.67029 17.2643 8.59571C17.2704 8.55898 17.276 8.52782 17.2816 8.50277L17.3088 8.38311C17.33 8.29295 17.3528 8.20335 17.3778 8.1143C17.4268 7.93509 17.483 7.757 17.5448 7.58001C17.7919 6.87208 18.1342 6.18697 18.5505 5.57255C18.9657 4.95923 19.4616 4.41381 19.9908 4.02757C20.1227 3.93128 20.2563 3.84502 20.3888 3.771C20.5179 3.6992 20.6693 3.62629 20.7505 3.60181C20.8741 3.5584 21.0455 3.50942 21.2214 3.46712C21.3989 3.42427 21.587 3.38531 21.7762 3.3508C21.9655 3.3163 22.158 3.28624 22.3406 3.26398L22.4079 3.25563L22.4708 3.24951L22.5676 3.24283C22.6428 3.23894 22.7257 3.23671 22.8114 3.23615C22.9723 3.2356 23.1431 3.24116 23.3201 3.25118C23.0875 3.71479 22.8765 4.18952 22.6801 4.67149C22.5114 5.08167 22.3589 5.49852 22.2131 5.91872C22.0695 6.33947 21.9371 6.76523 21.8135 7.19433C21.6922 7.62398 21.5814 8.05697 21.479 8.49387C21.3794 8.93076 21.292 9.37099 21.213 9.814C21.1395 10.2576 21.0739 10.7034 21.0221 11.1519C20.972 11.6005 20.9314 12.0508 20.9025 12.5032L20.8106 13.8662C20.7806 14.3226 20.7539 14.7823 20.7522 15.2431C20.7511 15.7028 20.7772 16.1625 20.8457 16.6167C20.9136 17.0703 21.021 17.5183 21.1607 17.9569C21.4418 18.834 21.8219 19.6822 22.3116 20.473C22.5554 20.8682 22.8292 21.2494 23.1337 21.61C23.157 21.6373 23.181 21.6646 23.2043 21.6913C23.0808 22.0057 22.9622 22.3374 22.6611 22.4955C22.0111 22.8367 21.2959 22.5656 20.8279 22.9953C20.8257 22.9975 20.8234 22.9997 20.8206 23.002C20.6938 22.9046 20.5663 22.8072 20.44 22.7126C19.7053 22.1616 18.9774 21.6507 18.2466 21.1581C17.8804 20.9132 17.5109 20.6789 17.1307 20.4624C16.7512 20.2448 16.3594 20.0456 15.9614 19.8508C15.5635 19.6571 15.1605 19.4651 14.7643 19.2575C14.368 19.0505 13.9801 18.8273 13.6044 18.5852C13.2282 18.3431 12.8559 18.0932 12.4886 17.8355C12.119 17.5795 11.7522 17.3179 11.391 17.0475C11.0259 16.7809 10.6664 16.5059 10.3097 16.226C9.95125 15.9477 9.59729 15.6617 9.24778 15.3689C8.8966 15.0778 8.55098 14.779 8.2087 14.4751C7.86531 14.1723 7.5286 13.8607 7.19356 13.5457C6.85963 13.2295 6.52959 12.9079 6.20513 12.5795C6.10328 12.4782 6.0031 12.3763 5.90459 12.2734C5.9903 12.1688 6.07657 12.0647 6.16394 11.9634C6.29974 11.8048 6.43777 11.6495 6.57802 11.4987ZM1.0526 29.3015C1.05149 29.0956 1.05817 28.8947 1.07542 28.6843C1.091 28.4851 1.11605 28.278 1.15278 28.0799C1.22513 27.6814 1.33644 27.2941 1.50062 26.9368C1.66369 26.5789 1.87518 26.25 2.13787 25.9673C2.39945 25.6851 2.70722 25.4452 3.05117 25.2593C3.22259 25.1658 3.40179 25.084 3.58768 25.0144C3.68062 24.9794 3.77468 24.9477 3.87041 24.9182C3.91827 24.9037 3.96613 24.8903 4.01455 24.8764L4.04962 24.867L4.07689 24.8608L4.14367 24.8464C4.32733 24.8091 4.54383 24.7835 4.77313 24.7473C5.00354 24.7095 5.25009 24.6694 5.52781 24.5609C5.66583 24.5052 5.81554 24.429 5.95913 24.3048C6.10272 24.1835 6.23184 24.0032 6.29696 23.8123C6.33091 23.7177 6.34983 23.6214 6.35985 23.5335C6.36152 23.519 6.36541 23.47 6.36541 23.4511C6.36653 23.4255 6.36653 23.3999 6.36541 23.3749C6.3643 23.3242 6.35929 23.2747 6.35206 23.2268C6.322 23.0354 6.25522 22.8779 6.18454 22.7443C6.03983 22.4788 5.87621 22.289 5.72594 22.1115L5.50944 21.861C5.47549 21.8215 5.44266 21.7826 5.4126 21.7453L5.31966 21.6267C4.80596 20.9605 4.3713 20.2415 4.05296 19.4846C3.73572 18.7277 3.53815 17.9329 3.49362 17.1354C3.47081 16.7369 3.48416 16.3384 3.53258 15.9444C3.54483 15.8459 3.55874 15.7474 3.57544 15.65C3.57599 15.6477 3.57933 15.626 3.58156 15.6149L3.58712 15.5887L3.59992 15.5303C3.60939 15.4913 3.61996 15.4529 3.63165 15.4157C3.67784 15.2648 3.74129 15.1274 3.82533 14.9866C3.90937 14.8458 4.01678 14.6999 4.14367 14.5408C4.27001 14.381 4.41471 14.2079 4.5622 14.0165L4.96736 13.4789L5.36196 12.9585C5.40982 12.8962 5.45768 12.8344 5.5061 12.7726C5.78326 13.2635 6.07823 13.7427 6.38656 14.2157C6.64369 14.6131 6.91473 15.0027 7.19022 15.3889C7.46794 15.7741 7.75456 16.1531 8.0473 16.5282C8.34227 16.9016 8.64504 17.2701 8.95448 17.6335C9.26559 17.9958 9.58616 18.3509 9.9123 18.7015C10.2423 19.0482 10.5785 19.3905 10.9235 19.725C11.2703 20.0578 11.6237 20.3851 11.9843 20.7051L13.0674 21.6746C13.4302 21.9991 13.797 22.3241 14.1788 22.6302C14.5617 22.9352 14.9607 23.2196 15.3826 23.4672C15.8034 23.716 16.2453 23.9303 16.7011 24.1139C17.6133 24.479 18.5677 24.7512 19.5506 24.8976C19.9335 24.9555 20.3203 24.9927 20.711 25.0078C20.8373 25.2616 20.9815 25.5025 21.1039 25.7179C20.8735 26.235 20.3982 26.5466 20.2246 27.0603C19.8278 27.1844 19.4404 27.3119 19.0614 27.4432C18.1932 27.7426 17.3611 28.0554 16.5419 28.3771C16.1328 28.5385 15.7305 28.7094 15.3359 28.8969C14.9407 29.0839 14.5534 29.2904 14.1654 29.5041C13.7781 29.7184 13.3885 29.9366 12.9906 30.1408C12.5926 30.344 12.1852 30.5315 11.7695 30.6968C11.3532 30.8627 10.933 31.0196 10.5084 31.1688C10.0843 31.3196 9.65684 31.4643 9.22496 31.599C8.79475 31.7392 8.35953 31.8689 7.92208 31.9936C7.48463 32.1205 7.0444 32.2379 6.60028 32.3481C6.15671 32.4599 5.71036 32.5629 5.26122 32.6592C4.81209 32.7577 4.36017 32.844 3.90658 32.9275C3.45244 33.0087 2.99607 33.0838 2.53747 33.149C2.28424 33.1868 2.0299 33.2208 1.775 33.2508C1.75218 33.1846 1.73048 33.1183 1.71044 33.0527C1.68095 32.9564 1.65312 32.8607 1.62974 32.7644C1.61806 32.7165 1.60637 32.6681 1.59579 32.6197L1.58077 32.5473L1.56574 32.4694C1.52233 32.2451 1.47447 32.0247 1.4266 31.8077C1.33143 31.3736 1.23626 30.9528 1.16669 30.5382C1.09935 30.1219 1.05594 29.7117 1.0526 29.3015ZM10.1321 40.506C10.1249 40.5065 10.1043 40.5032 10.0637 40.4848C10.0626 40.4843 10.0609 40.4837 10.0603 40.4831C10.111 40.4921 10.1427 40.5037 10.1321 40.506ZM13.4597 46.5646C13.1442 46.3675 12.852 46.1583 12.5787 45.924C12.4413 45.8065 12.3116 45.6846 12.1808 45.5544C12.0411 45.4142 11.9148 45.2806 11.804 45.1515C11.5814 44.8921 11.4228 44.6584 11.3142 44.4107C11.2035 44.1642 11.1378 43.8898 11.1117 43.5714C11.0989 43.4128 11.0972 43.2447 11.105 43.0711L11.1172 42.8657C11.1233 42.8117 11.135 42.745 11.1528 42.6715C11.1879 42.5246 11.2436 42.3565 11.3081 42.184C11.341 42.0977 11.376 42.0098 11.4139 41.9207L11.4717 41.7866L11.4834 41.7593C11.4812 41.7632 11.4823 41.7593 11.4851 41.7526C11.4901 41.7409 11.4973 41.7254 11.5068 41.7076C11.5447 41.6335 11.6048 41.5289 11.6682 41.4087C11.7317 41.2879 11.8007 41.1499 11.8658 40.9879C11.9303 40.8254 11.9932 40.6373 12.03 40.4125C12.0667 40.1887 12.0745 39.9205 12.0155 39.6478C12.001 39.5804 11.9827 39.5125 11.961 39.4469C11.9498 39.4135 11.9381 39.3812 11.9259 39.3489C11.9086 39.306 11.9103 39.3088 11.8752 39.2304C11.8725 39.2265 11.8647 39.207 11.8257 39.1335C11.7923 39.0729 11.774 39.0456 11.7445 39.0011C11.6899 38.9204 11.6265 38.8452 11.5591 38.7773C11.4239 38.641 11.2742 38.5397 11.1384 38.4707C11.0003 38.4 10.8762 38.3582 10.7638 38.3276C10.5395 38.2698 10.362 38.2547 10.2039 38.2475C10.0459 38.2408 9.90784 38.2458 9.77872 38.2525C9.5216 38.2664 9.29898 38.2903 9.09139 38.3087C8.98787 38.3182 8.88992 38.3254 8.79586 38.3315L8.65895 38.3382C8.61276 38.3404 8.57881 38.341 8.51814 38.341C8.12244 38.3432 7.7195 38.3221 7.32323 38.2753C6.5296 38.1824 5.74653 37.9859 5.01578 37.6787C4.65013 37.5262 4.29951 37.342 3.9717 37.1299C3.80807 37.0242 3.64946 36.9101 3.49863 36.7904C3.4235 36.7303 3.34948 36.6675 3.27824 36.604L3.22425 36.555L3.17695 36.5105C3.14467 36.4799 3.11461 36.4493 3.08567 36.4187C2.96936 36.2951 2.88309 36.181 2.80907 36.0441C2.73449 35.9078 2.66993 35.733 2.6037 35.5338L2.39945 34.9021C2.32932 34.6834 2.24473 34.4529 2.16069 34.2431C2.09724 34.0851 2.03491 33.932 1.97536 33.7829C2.6371 33.8747 3.30162 33.9331 3.96947 33.971C4.44477 33.9994 4.92061 34.0116 5.39758 34.0177C5.87454 34.0216 6.35206 34.0138 6.83069 33.9977C7.30876 33.9793 7.7874 33.9515 8.26658 33.9142C8.74522 33.8752 9.22329 33.8235 9.70192 33.7634C10.1794 33.6983 10.6564 33.6248 11.1328 33.5391C11.6081 33.4512 12.0828 33.3532 12.5565 33.2447L13.984 32.9197C14.4621 32.8106 14.9429 32.6965 15.4166 32.5585C15.8902 32.4193 16.356 32.2529 16.804 32.047C17.2532 31.8416 17.6845 31.5979 18.0986 31.3251C18.925 30.7786 19.6959 30.1386 20.3743 29.4023C20.5902 29.1685 20.795 28.9236 20.9898 28.6699C21.4106 28.8491 21.9577 28.9231 22.5487 28.9403C22.6433 29.651 22.8031 30.3128 23.1537 30.7257C23.0379 30.9678 22.925 31.2077 22.8159 31.4465C22.4257 32.2952 22.069 33.1267 21.7256 33.9554C21.5547 34.37 21.3944 34.7852 21.2525 35.2082C21.1095 35.6306 20.9854 36.0603 20.8663 36.4955C20.7477 36.9313 20.6309 37.3709 20.4967 37.8067C20.3632 38.2425 20.2107 38.6738 20.037 39.0957C19.8634 39.5187 19.6808 39.9383 19.4894 40.3551C19.2996 40.7731 19.1031 41.1894 18.8967 41.6024C18.6946 42.0176 18.4831 42.4288 18.2655 42.8385C18.0496 43.2492 17.8253 43.6571 17.5932 44.0606C17.3628 44.4664 17.1241 44.8676 16.8786 45.2661C16.6348 45.6663 16.3805 46.0609 16.1228 46.4544C15.8824 46.8178 15.637 47.1801 15.3843 47.5374C15.0721 47.3977 14.7693 47.2591 14.4799 47.1189C14.1159 46.9413 13.7759 46.7593 13.4597 46.5646ZM25.9036 47.017C25.9053 47.0192 25.9075 47.0226 25.9092 47.0254C25.9042 47.0204 25.9003 47.0165 25.8969 47.0131C25.8697 46.9825 25.8825 46.9875 25.9036 47.017ZM34.401 48.1824C34.0236 48.3199 33.6485 48.434 33.2745 48.518C33.087 48.5598 32.8994 48.5932 32.7119 48.6199C32.6184 48.6321 32.5249 48.6444 32.4308 48.6533C32.384 48.6588 32.3373 48.6622 32.2906 48.6661L32.1564 48.675L32.0741 48.68L32.0078 48.6828L31.872 48.6856C31.7802 48.6872 31.6889 48.6861 31.5993 48.6822C31.4201 48.675 31.2442 48.6594 31.0762 48.6338C30.7389 48.5826 30.4272 48.4913 30.1512 48.36C29.8751 48.2297 29.6314 48.06 29.4165 47.8491C29.3097 47.7439 29.2089 47.6281 29.1143 47.5023C29.067 47.44 29.0214 47.3749 28.978 47.307L28.9451 47.2558L28.9296 47.2296C28.9229 47.2196 28.9323 47.233 28.9179 47.2101C28.9184 47.209 28.9062 47.1862 28.8945 47.1612C28.87 47.1089 28.8383 47.0343 28.8054 46.9502L28.6964 46.667C28.6179 46.461 28.5305 46.2295 28.4058 45.9651C28.3424 45.8327 28.2689 45.6913 28.1704 45.5361C28.0714 45.3813 27.9495 45.2105 27.7614 45.029C27.6667 44.9389 27.5543 44.8465 27.4196 44.7613C27.2855 44.6762 27.1258 44.5988 26.9527 44.5443C26.8664 44.5165 26.7768 44.4953 26.6867 44.4803C26.6778 44.4769 26.5381 44.4608 26.5464 44.4619C26.5431 44.4614 26.5158 44.4586 26.4485 44.4547C26.3889 44.4519 26.3566 44.4525 26.3132 44.4525C26.2726 44.453 26.2314 44.4552 26.1897 44.4586C26.1073 44.4647 26.0255 44.4758 25.9453 44.492C25.7851 44.5237 25.6342 44.5738 25.5007 44.6333C25.3671 44.6923 25.248 44.7602 25.1456 44.8292C24.9385 44.9684 24.7877 45.1103 24.6608 45.2416C24.4121 45.5049 24.2534 45.7359 24.1137 45.9334L23.9284 46.1989C23.8739 46.2763 23.8254 46.3403 23.7943 46.3753C23.683 46.5072 23.5555 46.6486 23.4247 46.7833C23.1632 47.0526 22.881 47.3064 22.586 47.5391C22.2916 47.7723 21.9833 47.9849 21.6655 48.1707C21.0299 48.5414 20.3598 48.8108 19.6914 48.9316C19.5244 48.9622 19.3575 48.9855 19.1916 48.9983L19.1293 49.0028L19.0798 49.0061L19.0386 49.0078C19.0219 49.0089 19.0141 49.0089 19.0113 49.0089L18.9729 49.0095C18.9095 49.01 18.8477 49.0061 18.7859 49.0006C18.5394 48.9777 18.2883 48.906 17.9784 48.774C17.67 48.6438 17.3138 48.4451 16.8931 48.2309C16.7885 48.1769 16.6788 48.1229 16.5658 48.0678C16.4545 48.0138 16.326 47.9559 16.2325 47.9142L16.1184 47.8635C16.3916 47.6231 16.6599 47.3777 16.9248 47.1278C17.2777 46.7961 17.6194 46.4527 17.9578 46.1048C18.2945 45.7553 18.6234 45.3975 18.9467 45.034C19.2684 44.6689 19.5834 44.2972 19.8923 43.9182C20.1995 43.5386 20.4973 43.1507 20.79 42.7572C21.0778 42.3609 21.3599 41.9591 21.6321 41.5495C21.902 41.1388 22.1653 40.7219 22.4191 40.2984L23.1876 39.0233C23.4448 38.5953 23.6997 38.1635 23.9329 37.7188C24.1649 37.2741 24.3725 36.8155 24.5389 36.3419C24.7065 35.8682 24.8345 35.3807 24.9285 34.8854C25.115 33.8942 25.1951 32.8785 25.1395 31.8605C25.12 31.5044 25.0832 31.1482 25.0281 30.7931C25.3281 30.5065 25.5502 30.1191 25.9403 29.8826C26.4774 30.0868 26.7473 30.4942 27.3295 30.5493C27.6456 30.5794 27.9111 30.531 28.1292 30.4191C28.1988 30.5899 28.2712 30.7552 28.3424 30.92C28.5216 31.3251 28.7058 31.7131 28.8956 32.0893C29.2735 32.8429 29.6664 33.5525 30.0699 34.2431C30.2719 34.5876 30.4829 34.9227 30.7105 35.2466C30.937 35.5705 31.1825 35.8827 31.4357 36.1933C31.6889 36.5033 31.9477 36.8133 32.1926 37.1344C32.4375 37.4555 32.6684 37.7883 32.8794 38.1328C33.0909 38.4768 33.294 38.8269 33.4899 39.1825C33.6875 39.5376 33.8795 39.8965 34.0615 40.2611C34.249 40.624 34.4266 40.9929 34.5986 41.3658C34.7728 41.7376 34.938 42.1155 35.095 42.4973C35.2542 42.8785 35.4039 43.2648 35.5458 43.6549C35.6899 44.0445 35.8218 44.4396 35.9499 44.8376C36.0756 45.2361 36.1936 45.6379 36.301 46.0442C36.4046 46.4237 36.4947 46.8105 36.5704 47.194C36.222 47.3699 35.8792 47.5424 35.5386 47.7016C35.1545 47.8808 34.7772 48.0439 34.401 48.1824ZM48.2384 31.3619C48.1539 31.7871 48.0687 32.2067 47.9702 32.618C47.8717 33.0299 47.7615 33.4339 47.6312 33.8241C47.5021 34.2153 47.353 34.5938 47.1738 34.9488C46.8165 35.6573 46.3356 36.2756 45.6822 36.6697C45.3577 36.8689 44.9938 37.0147 44.6042 37.1043C44.5068 37.1272 44.4083 37.1461 44.3087 37.1622C44.2586 37.1706 44.2085 37.1778 44.1578 37.185C44.105 37.1912 44.0615 37.1973 44.0192 37.2006C43.8434 37.2145 43.6375 37.1995 43.4293 37.175C43.0097 37.1244 42.5706 37.0381 42.1097 36.9953C41.8788 36.9763 41.6395 36.9658 41.389 37.0047C41.2643 37.0248 41.1363 37.0598 41.0133 37.1216C40.8909 37.1828 40.7768 37.2763 40.6978 37.3899L40.6722 37.426L40.661 37.4761C40.6171 37.6865 40.602 37.9086 40.6071 38.1251C40.6132 38.3421 40.6382 38.5547 40.6705 38.7629C40.7373 39.1786 40.8302 39.5749 40.8792 39.955C40.9054 40.1459 40.9193 40.3279 40.9187 40.5126C40.9198 40.6173 40.9187 40.7069 40.917 40.8065C40.9154 40.9045 40.9115 41.0019 40.907 41.0987C40.8903 41.4872 40.8514 41.8728 40.7885 42.2513C40.7245 42.6298 40.6427 43.0026 40.533 43.3638C40.4245 43.725 40.2893 44.0746 40.1318 44.409C39.8457 45.0162 39.4745 45.5711 39.032 46.018C38.3029 46.318 37.6106 46.6647 36.9411 47.0042C37.014 46.2212 37.0134 45.4398 36.9761 44.655C36.9567 44.2198 36.9188 43.7846 36.8732 43.3488C36.8259 42.9142 36.7658 42.4795 36.6956 42.0459C36.6233 41.6129 36.5409 41.1805 36.4474 40.7497C36.3522 40.319 36.2443 39.8904 36.1274 39.4636C36.005 39.0378 35.8747 38.6148 35.7311 38.1941C35.5853 37.775 35.43 37.3581 35.2642 36.9441L34.7666 35.6957C34.5997 35.2778 34.4282 34.8587 34.2346 34.4496C34.0398 34.0411 33.8211 33.6448 33.5673 33.2719C33.314 32.8991 33.0274 32.5484 32.7163 32.2201C32.093 31.5645 31.3945 30.9773 30.622 30.4875C30.2369 30.2427 29.8317 30.0228 29.4071 29.8336C29.2 29.7429 28.9908 29.6577 28.7737 29.5837C28.9162 29.134 28.9301 28.5624 28.8255 27.938C29.298 27.6313 29.8963 27.451 30.2413 27.0175C30.3209 27.0358 30.4005 27.0542 30.4801 27.0726C30.9276 27.1716 31.3633 27.2607 31.7936 27.3403C32.6534 27.5017 33.4899 27.6341 34.3242 27.7477C34.7405 27.8039 35.1562 27.8473 35.5747 27.8706C35.9927 27.8951 36.414 27.8974 36.8387 27.8912C37.2639 27.8846 37.693 27.8734 38.1226 27.8779C38.5523 27.8818 38.983 27.9024 39.411 27.9441C39.839 27.9859 40.2676 28.0348 40.6967 28.091C41.1258 28.1456 41.556 28.204 41.9851 28.2708C42.4153 28.3326 42.846 28.4027 43.2763 28.4767C43.7076 28.5491 44.1389 28.6276 44.5691 28.7122C45.9037 28.9732 47.2411 29.2782 48.5696 29.6338C48.544 29.7752 48.5162 29.9187 48.4878 30.0634L48.2384 31.3619Z" fill="#222F42"/>
</svg>