<svg width="54" height="46" viewBox="0 0 54 46" fill="none" xmlns="http://www.w3.org/2000/svg">
<path d="M52.2139 18.5177L50.0953 18.2152C49.6762 18.1557 49.2412 18.1189 48.8029 18.1056L48.4412 18.0947L48.4271 17.7331C48.0391 7.78933 39.9366 0 29.981 0C19.801 0 11.519 8.28207 11.519 18.462C11.519 19.083 11.5515 19.7161 11.6156 20.3436L11.6525 20.7051L11.2943 20.7656C8.827 21.1822 6.57976 22.3461 4.79554 24.1311L0.499792 28.4258C0.177483 28.748 0 29.1765 0 29.6323C0 30.088 0.177483 30.5164 0.499792 30.8387C0.822101 31.1611 1.25061 31.3386 1.70634 31.3386C2.16207 31.3386 2.5905 31.1611 2.91281 30.8388L7.20848 26.5442C8.84252 24.909 11.0166 24.0084 13.3303 24.0084H16.4657C17.5723 24.0084 18.6541 24.2168 19.6813 24.6278L23.0638 25.9807C23.2654 26.0617 23.4785 26.1027 23.6978 26.1027H27.8866C29.8328 26.1027 31.4161 27.686 31.4161 29.6322V30.0201H22.6505C21.7094 30.0201 20.9439 30.7856 20.9439 31.7266C20.9439 32.6676 21.7094 33.4332 22.6505 33.4332H33.1226C33.6001 33.4332 34.0589 33.2316 34.3815 32.8802L42.3444 24.1937C43.8326 22.5696 45.8636 21.6199 48.0634 21.5196L48.8846 21.4821L37.4133 36.7766C36.1604 38.4475 34.1649 39.4451 32.0754 39.4451H20.9592C19.701 39.4451 18.4656 39.7873 17.3867 40.4349L13.3948 42.8311C12.5879 43.315 12.3252 44.3654 12.8094 45.1726C13.1207 45.6906 13.6686 46 14.2749 46C14.5828 46 14.8854 45.9157 15.1501 45.7561L19.1428 43.3597C19.6942 43.0315 20.3219 42.8583 20.9592 42.8583H32.0754C35.2325 42.8583 38.2484 41.3504 40.1428 38.8246L53.3377 21.2314C53.6976 20.7518 53.7786 20.1088 53.5492 19.5532C53.3194 18.9997 52.8077 18.6026 52.2139 18.5177ZM44.7623 18.6949C42.8758 19.3205 41.1695 20.4244 39.828 21.8875L34.5609 27.6342L34.3314 27.0623C33.2653 24.4061 30.7356 22.6896 27.8865 22.6896H24.0261L20.9492 21.4586C19.5183 20.8857 18.0098 20.5952 16.4657 20.5952H15.08L15.0392 20.2534C14.9681 19.66 14.9322 19.0573 14.9322 18.462C14.9322 10.164 21.6831 3.41314 29.981 3.41314C33.9704 3.41314 37.7313 4.96403 40.5712 7.78003C43.409 10.5942 44.992 14.3385 45.0283 18.3231L45.0308 18.6058L44.7623 18.6949Z" fill="#D5B76E"/>
<path d="M32.8381 10.719L35.1837 10.7326L35.9662 7.98999L24.1718 7.99014L23.3793 10.8756H27.0227C28.1413 10.8756 28.9643 11.1291 29.4692 11.6289C29.6341 11.7921 29.7729 11.9763 29.8845 12.1799H24.1485L23.3757 14.9033H29.9969C29.958 14.9913 29.9144 15.0753 29.866 15.1546C29.6252 15.5462 29.2802 15.8382 28.8116 16.0473C28.3323 16.2607 27.7304 16.3689 27.0225 16.3689H23.6863L23.7074 18.4527L29.9673 26.05L33.5317 26.0502V25.4851L28.258 19.0255C29.3844 18.907 30.3258 18.6298 31.0614 18.1996C31.917 17.6998 32.5511 17.0396 32.9463 16.2375C33.1515 15.8204 33.3043 15.3727 33.4017 14.9033H35.1843L35.957 12.1799H33.385C33.2703 11.6579 33.0868 11.1677 32.8381 10.719Z" fill="#D5B76E"/>
</svg>
