<svg xmlns="http://www.w3.org/2000/svg" width="18" height="18" viewBox="0 0 18 18" fill="none">
  <path d="M17.8369 17.1218L13.1381 12.429C14.4188 10.9656 15.0804 9.06194 14.9832 7.11997C14.8861 5.178 14.0378 3.3498 12.6175 2.02146C11.1972 0.693128 9.31606 -0.0313472 7.37143 0.00104099C5.42679 0.0334292 3.57087 0.820145 2.19562 2.19504C0.820361 3.56994 0.0334379 5.42537 0.00104126 7.3695C-0.0313554 9.31363 0.69331 11.1942 2.02199 12.6142C3.35068 14.0341 5.17935 14.8822 7.12183 14.9793C9.0643 15.0764 10.9685 14.415 12.4323 13.1347L17.1263 17.8322C17.1715 17.8831 17.2267 17.9242 17.2885 17.9531C17.3502 17.9819 17.4172 17.9978 17.4853 17.9998C17.5534 18.0018 17.6212 17.9899 17.6845 17.9647C17.7479 17.9396 17.8054 17.9018 17.8536 17.8536C17.9017 17.8054 17.9396 17.7479 17.9647 17.6846C17.9899 17.6213 18.0018 17.5535 17.9998 17.4854C17.9978 17.4173 17.9819 17.3504 17.953 17.2887C17.9242 17.2269 17.8831 17.1718 17.8321 17.1265L17.8369 17.1218ZM1.05726 7.52219C1.05748 6.02566 1.57671 4.5755 2.5265 3.41879C3.47628 2.26208 4.79785 1.47038 6.26604 1.17858C7.73423 0.886779 9.25821 1.11293 10.5783 1.8185C11.8984 2.52407 12.933 3.66541 13.5057 5.04806C14.0785 6.43071 14.154 7.96913 13.7194 9.4012C13.2848 10.8333 12.367 12.0704 11.1224 12.9018C9.8777 13.7332 8.38319 14.1074 6.89348 13.9608C5.40377 13.8141 4.01101 13.1555 2.95251 12.0974C2.35152 11.4966 1.87482 10.7833 1.54963 9.99826C1.22444 9.21324 1.05713 8.37187 1.05726 7.52219Z" fill="#3F4651"/>
</svg>