<svg width="23" height="20" viewBox="0 0 23 20" fill="none" xmlns="http://www.w3.org/2000/svg">
<path d="M21.4699 5.00659C20.842 4.38901 20.0115 4.04887 19.1312 4.04887H19.0465V3.54006C19.0465 2.5977 18.6722 1.70946 17.9925 1.03902C17.5414 0.594103 16.9816 0.275156 16.3736 0.116764L16.3636 0.114641C16.3344 0.109979 15.6413 0 15.1087 0L15.0123 0.00187315H3.59125C2.6347 0.00187315 1.73361 0.371106 1.05399 1.04151C0.37433 1.71196 0 2.6002 0 3.54256V10.4381C0 11.3819 0.374963 12.2696 1.05551 12.9374C1.55429 13.431 2.17762 13.7647 2.86276 13.9058L2.86432 16.7811C2.85521 16.9781 2.92687 17.1652 3.06622 17.308C3.20489 17.4504 3.39164 17.5288 3.59205 17.5288C3.78137 17.5288 3.96069 17.4577 4.09683 17.3288L5.89589 15.6308C6.09703 15.8671 6.3307 16.0741 6.59189 16.2474C7.13815 16.6095 7.77265 16.8009 8.42686 16.8009H15.0643L16.279 17.585L18.624 19.8006C18.7606 19.9292 18.9399 20 19.129 20H19.1291C19.3296 20 19.5163 19.9218 19.6545 19.7798C19.7919 19.6389 19.8653 19.447 19.8563 19.2528L19.858 16.718C20.467 16.5829 21.0228 16.2802 21.4698 15.8393C22.096 15.2216 22.4409 14.4029 22.4409 13.534V7.31357C22.441 6.4436 22.0962 5.62438 21.4699 5.00659ZM7.64334 13.9765H15.4538C16.3869 13.9765 17.2729 13.6203 17.9489 12.9735L17.9858 12.9415L17.9909 12.9368C18.6706 12.2663 19.0449 11.3781 19.0449 10.4358V5.48905H19.1301C19.622 5.48905 20.086 5.67932 20.4364 6.02483C20.7867 6.37046 20.9796 6.82807 20.9796 7.31344V13.5338C20.9796 14.0182 20.7867 14.4752 20.4364 14.8207C20.0869 15.1654 19.6228 15.3569 19.1301 15.3599C18.7293 15.3599 18.4032 15.6815 18.4032 16.0767L18.4017 17.6014L16.2728 15.5917C16.1346 15.4433 15.939 15.3583 15.7354 15.3583H8.42733C8.06017 15.3583 7.70525 15.2523 7.4014 15.052C7.22664 14.9357 7.07505 14.7944 6.94976 14.6311L7.64334 13.9765ZM3.5899 12.5344C3.02119 12.5344 2.48746 12.3151 2.08675 11.9167C1.68297 11.5184 1.46056 10.9918 1.46056 10.434V3.5384C1.46056 2.98059 1.68297 2.45405 2.08675 2.05572C2.49063 1.65739 3.02499 1.43801 3.5915 1.43801H15.4489C16.0154 1.43801 16.5498 1.65739 16.9537 2.05568C17.3575 2.45397 17.5799 2.98051 17.5799 3.53835V10.4339C17.5799 10.9917 17.3575 11.5183 16.9515 11.9188L16.9256 11.9458C16.5254 12.3254 16.0017 12.5343 15.4506 12.5343H7.35046C7.14688 12.5343 6.95123 12.6193 6.81302 12.7677L4.31674 15.1253V13.2545C4.31674 12.8611 3.99116 12.5381 3.5899 12.5344Z" fill="#D5B76E"/>
<path d="M7.57278 10.6221C7.97534 10.6221 8.30287 10.299 8.30287 9.90191C8.30287 9.50483 7.97534 9.18176 7.57278 9.18176H4.54284C4.14027 9.18176 3.81274 9.50483 3.81274 9.90191C3.81274 10.299 4.14027 10.6221 4.54284 10.6221H7.57278Z" fill="#D5B76E"/>
<path d="M4.54284 7.70825H11.502C11.9047 7.70825 12.2322 7.38518 12.2322 6.9881C12.2322 6.59101 11.9047 6.26794 11.502 6.26794H4.54284C4.14027 6.26794 3.81274 6.59101 3.81274 6.9881C3.81274 7.38518 4.14027 7.70825 4.54284 7.70825Z" fill="#D5B76E"/>
<path d="M4.54284 4.79479H14.502C14.9047 4.79479 15.2322 4.47172 15.2322 4.07464C15.2322 3.67756 14.9047 3.35449 14.502 3.35449H4.54284C4.14027 3.35449 3.81274 3.67756 3.81274 4.07464C3.81274 4.47172 4.14027 4.79479 4.54284 4.79479Z" fill="#D5B76E"/>
</svg>
