<svg width="12" height="12" viewBox="0 0 12 12" fill="none" xmlns="http://www.w3.org/2000/svg">
<path fill-rule="evenodd" clip-rule="evenodd" d="M6.52932 0.358237L7.94171 3.59142C7.95595 3.62598 7.97884 3.65588 8.00795 3.67797C8.03707 3.70007 8.07134 3.71353 8.10716 3.71696L11.4826 4.12329C11.5937 4.13606 11.699 4.18213 11.7857 4.25595C11.8724 4.32978 11.937 4.42823 11.9715 4.53949C12.0061 4.65074 12.0093 4.77007 11.9806 4.88315C11.9519 4.99623 11.8927 5.09825 11.81 5.17697L9.30758 7.58118C9.28037 7.606 9.2601 7.63807 9.2489 7.67397C9.2377 7.70988 9.236 7.74828 9.24398 7.78511L9.91765 11.2694C9.94049 11.3838 9.93123 11.5028 9.89098 11.6119C9.85073 11.7209 9.7812 11.8155 9.69077 11.8842C9.60034 11.9529 9.49285 11.9928 9.38125 11.9991C9.26965 12.0054 9.15869 11.9778 9.06173 11.9197L6.1027 10.1726C6.07155 10.1537 6.03619 10.1437 6.00018 10.1437C5.96417 10.1437 5.9288 10.1537 5.89765 10.1726L2.93795 11.9197C2.84098 11.9776 2.73007 12.0051 2.61855 11.9987C2.50702 11.9924 2.39963 11.9525 2.30926 11.8838C2.21889 11.8151 2.14939 11.7206 2.1091 11.6116C2.06882 11.5026 2.05947 11.3838 2.08217 11.2694L2.75584 7.78511C2.76381 7.74828 2.76211 7.70988 2.75092 7.67397C2.73972 7.63807 2.71945 7.606 2.69224 7.58118L0.19036 5.1767C0.107533 5.09803 0.04819 4.996 0.0194666 4.88289C-0.00925683 4.76978 -0.00613715 4.65039 0.0284505 4.53908C0.0630381 4.42778 0.127621 4.3293 0.214432 4.25549C0.301244 4.18167 0.406587 4.13567 0.517794 4.12301L3.89372 3.71668C3.92954 3.71326 3.96381 3.69979 3.99293 3.67769C4.02205 3.6556 4.04493 3.6257 4.05917 3.59114L5.47103 0.358237C5.51684 0.251518 5.59117 0.160927 5.68504 0.0973701C5.77892 0.0338135 5.88836 0 6.00018 0C6.11199 0 6.22143 0.0338135 6.31531 0.0973701C6.40919 0.160927 6.48351 0.251518 6.52932 0.358237Z" fill="#F5BA22"/>
</svg>
