<svg xmlns="http://www.w3.org/2000/svg" width="54" height="54" viewBox="0 0 54 54" fill="none">
  <circle cx="27" cy="27" r="27" fill="white"/>
  <path d="M32.1256 27.1172C32.1135 27.4822 31.9677 27.8301 31.716 28.0947L24.5665 35.5421C24.2924 35.8272 23.9163 35.9919 23.5209 35.9997C23.1255 36.0076 22.7431 35.858 22.4579 35.5839C22.1728 35.3099 22.0082 34.9338 22.0003 34.5384C21.9924 34.1429 22.142 33.7606 22.4161 33.4754L28.5695 27.0613L22.4161 20.6473C22.142 20.3621 21.9924 19.9798 22.0003 19.5843C22.0082 19.1889 22.1728 18.8128 22.4579 18.5387C22.7431 18.2647 23.1255 18.1151 23.5209 18.123C23.9163 18.1308 24.2924 18.2955 24.5665 18.5806L31.716 26.028C31.8538 26.1728 31.9612 26.3438 32.0315 26.531C32.1019 26.7181 32.1339 26.9174 32.1256 27.1172Z" fill="#222F42"/>
</svg>