<svg xmlns="http://www.w3.org/2000/svg" width="24" height="20" viewBox="0 0 24 20" fill="none">
  <path d="M12.5779 19.7437C12.5887 19.732 12.5987 19.72 12.6089 19.7076L12.6127 19.703C12.6144 19.7011 12.6159 19.6991 12.6174 19.6969L23.8053 5.93856C23.9263 5.79606 24 5.60983 24 5.40575C24 5.39618 23.9994 5.38661 23.9989 5.37682C23.9989 5.37355 23.9987 5.37029 23.9985 5.36703C23.9938 5.26216 23.9694 5.16274 23.9295 5.0718C23.9284 5.0694 23.9274 5.06723 23.9263 5.06483C23.9174 5.04569 23.9081 5.02698 23.8981 5.0087C23.8958 5.00457 23.8938 5.00044 23.8915 4.99652C23.8866 4.98738 23.8811 4.97846 23.8758 4.96976C23.8718 4.96345 23.8677 4.95736 23.8637 4.95127C23.8595 4.94474 23.8556 4.93821 23.851 4.9319L20.8775 0.36137C20.7308 0.135542 20.4837 0 20.2187 0H15.7308C15.7265 0 15.7227 0 15.7187 0H8.28121C8.27526 0 8.26932 0 8.26338 0H3.7809C3.51617 0 3.26884 0.135542 3.12193 0.36137L0.133397 4.9554C0.113441 4.98608 0.0958284 5.01762 0.0805429 5.05047C0.0796937 5.05156 0.079262 5.05265 0.0786251 5.05396C0.0639765 5.08572 0.0510279 5.11814 0.040413 5.15121C0.0393515 5.15382 0.0387224 5.15621 0.0378733 5.15882C0.033415 5.17253 0.0298025 5.18623 0.0264057 5.19994C0.0251319 5.2032 0.02449 5.20647 0.0238531 5.20973C0.0196071 5.22561 0.0162129 5.24171 0.0132407 5.25781C0.0130284 5.2602 0.0126028 5.2626 0.0121782 5.26477C0.00984291 5.27848 0.00771671 5.29219 0.00623063 5.30589C0.00580603 5.31046 0.00496575 5.31525 0.00475345 5.32003C0.00326736 5.33352 0.00220774 5.34679 0.00135854 5.36028C0.00114624 5.36311 0.000930938 5.36572 0.000930938 5.36855C8.17445e-05 5.38465 -0.000136566 5.40075 7.57322e-05 5.41707C0.000288031 5.42076 0.000296013 5.42424 0.000296013 5.42773C0.00072061 5.44143 0.00134662 5.45514 0.00240811 5.46885C0.00283271 5.47189 0.00283872 5.47515 0.00326332 5.47842C0.0062355 5.51236 0.0113272 5.5463 0.0183331 5.5798C0.0187577 5.58154 0.0191913 5.58328 0.0196159 5.58481C0.03108 5.6368 0.0474159 5.68793 0.0692827 5.73732C0.0692827 5.73797 0.0695059 5.73862 0.0699305 5.73928C0.0841545 5.77147 0.100705 5.80324 0.118962 5.83391C0.120873 5.83652 0.122356 5.83914 0.124055 5.84175C0.131061 5.8535 0.138707 5.86481 0.146562 5.87634C0.14911 5.87982 0.151025 5.88308 0.153572 5.88656C0.163126 5.89983 0.172682 5.91267 0.183297 5.92529L0.183505 5.92594C0.183929 5.92616 0.183935 5.92638 0.18436 5.9266L11.3818 19.6967C11.3833 19.6989 11.3852 19.7009 11.3867 19.703L11.3905 19.7074C11.4005 19.7196 11.4107 19.7317 11.4213 19.7433C11.423 19.745 11.4247 19.747 11.4264 19.7487C11.4372 19.7605 11.4485 19.7716 11.4597 19.7827C11.4627 19.7853 11.465 19.7877 11.468 19.7905C11.4814 19.8027 11.4946 19.8144 11.5088 19.826C11.5096 19.8266 11.5105 19.827 11.5111 19.8277C11.5126 19.829 11.5143 19.8299 11.5156 19.8312C11.516 19.8316 11.5164 19.8318 11.5171 19.8323C11.5277 19.8405 11.5383 19.8484 11.5491 19.856C11.5504 19.8568 11.5519 19.8579 11.5531 19.8588C11.5555 19.8603 11.5576 19.8618 11.5599 19.8634C11.5674 19.8688 11.5752 19.8738 11.5831 19.8788C11.5856 19.8806 11.5882 19.8821 11.5909 19.8836C11.5956 19.8867 11.6007 19.8897 11.6056 19.8927C11.6069 19.8932 11.6079 19.8938 11.6088 19.8945C11.612 19.8962 11.6149 19.898 11.6179 19.8997C11.6217 19.9017 11.6253 19.9038 11.6292 19.9058C11.6366 19.9099 11.6442 19.9136 11.6517 19.9175C11.6548 19.9191 11.6576 19.9206 11.6606 19.9219C11.6631 19.9232 11.6652 19.9243 11.6678 19.9254C11.675 19.9291 11.6824 19.9321 11.6899 19.9354C11.6954 19.9378 11.7011 19.9404 11.7069 19.9426C11.7077 19.9428 11.7083 19.9432 11.709 19.9434C11.7107 19.9441 11.7126 19.945 11.7141 19.9456C11.7202 19.948 11.7266 19.9502 11.7328 19.9526C11.7368 19.9539 11.7406 19.9556 11.7446 19.9569C11.7495 19.9587 11.7551 19.9604 11.7601 19.9619C11.7644 19.9632 11.7684 19.9645 11.7727 19.9658C11.789 19.9708 11.8054 19.9754 11.8217 19.9793C11.8238 19.9798 11.826 19.9802 11.8277 19.9804C11.8408 19.9835 11.8538 19.9861 11.8667 19.9885C11.8678 19.9885 11.8688 19.9887 11.8701 19.9889C11.872 19.9891 11.8741 19.9893 11.8756 19.9898C11.8786 19.9902 11.8811 19.9906 11.8839 19.9911C11.893 19.9924 11.902 19.9935 11.9109 19.9946C11.9111 19.9946 11.9113 19.9946 11.9117 19.9948C11.9196 19.9956 11.9279 19.9963 11.9357 19.9972C11.9389 19.9974 11.9421 19.9976 11.9453 19.9978C11.9629 19.9989 11.9807 20 11.9986 20H11.999C12.0166 20 12.0344 19.9991 12.0521 19.9978C12.0555 19.9976 12.0584 19.9974 12.0616 19.9972C12.0697 19.9965 12.0775 19.9956 12.0854 19.9948C12.086 19.9948 12.0864 19.9946 12.0869 19.9946C12.0958 19.9935 12.1045 19.9924 12.1134 19.9911C12.116 19.9906 12.1187 19.9902 12.1213 19.9898C12.1232 19.9896 12.1251 19.9893 12.1266 19.9889C12.128 19.9887 12.1295 19.9885 12.1308 19.9883C12.1438 19.9861 12.1563 19.9835 12.169 19.9806C12.1699 19.9804 12.1711 19.9804 12.1718 19.9802C12.1733 19.98 12.1743 19.9798 12.1756 19.9793C12.1924 19.9754 12.2087 19.9706 12.2253 19.9656C12.2291 19.9645 12.2329 19.9632 12.237 19.9619C12.2423 19.9602 12.2478 19.9584 12.2531 19.9567C12.2571 19.9554 12.261 19.9537 12.265 19.9521C12.2718 19.9497 12.2784 19.9474 12.2852 19.9447C12.2858 19.9445 12.2862 19.9443 12.2868 19.9441C12.2883 19.9437 12.2896 19.943 12.2911 19.9423C12.2966 19.9402 12.3023 19.9376 12.3079 19.9352C12.3153 19.9319 12.3227 19.9289 12.3299 19.9252C12.3325 19.9241 12.335 19.9228 12.3376 19.9217C12.3404 19.9204 12.3427 19.9191 12.3454 19.9178C12.3533 19.9138 12.3609 19.9097 12.3686 19.9056C12.3724 19.9036 12.3758 19.9014 12.3796 19.8995C12.3832 19.8975 12.3866 19.8956 12.3902 19.8936C12.3907 19.8934 12.3913 19.8932 12.3917 19.893C12.3968 19.8899 12.4019 19.8869 12.4068 19.8838C12.4093 19.8821 12.4119 19.8806 12.4144 19.879C12.4225 19.874 12.4306 19.8688 12.4384 19.8634C12.4406 19.8621 12.4425 19.8605 12.4444 19.8592C12.4459 19.8582 12.4473 19.8573 12.4488 19.8562C12.4597 19.8486 12.4705 19.8405 12.4807 19.8325C12.4811 19.832 12.4817 19.8318 12.4822 19.8314C12.4841 19.8301 12.4858 19.8288 12.4873 19.8273C12.4879 19.827 12.4881 19.8266 12.4887 19.8262C12.5028 19.8146 12.5166 19.8027 12.5299 19.7903C12.5325 19.7879 12.535 19.7855 12.5378 19.7831C12.5495 19.7718 12.5605 19.7605 12.5718 19.7485C12.5747 19.747 12.5766 19.7455 12.5779 19.7437ZM6.22806 6.21748L9.50448 14.8518L2.48354 6.21748H6.22806ZM15.165 1.62344L16.1314 4.59425H7.86871L8.8351 1.62344H15.165ZM21.5167 6.21748L14.4956 14.8518L17.7722 6.21748H21.5167ZM16.0723 6.21748L12 16.9491L7.92731 6.21748H16.0723ZM21.7278 4.59425H17.8011L16.8349 1.62344H19.795L21.7278 4.59425ZM4.20507 1.62344H7.16537L6.19899 4.59425H2.27253L4.20507 1.62344Z" fill="#B7BDC6"/>
</svg>