<svg xmlns="http://www.w3.org/2000/svg" width="13" height="13" viewBox="0 0 13 13" fill="none">
  <path d="M6.41301 11.1929C6.21234 11.1929 6.04907 11.3561 6.04907 11.5568V12.6361C6.04907 12.8367 6.21234 13 6.41301 13C6.61368 13 6.77694 12.8367 6.77694 12.6361V11.5568C6.77694 11.3562 6.61368 11.1929 6.41301 11.1929Z" fill="#222F42"/>
  <path d="M2.07616 8.59035C2.01275 8.59035 1.95012 8.60725 1.89514 8.63918L0.960434 9.1792C0.876549 9.22774 0.816631 9.3061 0.791664 9.39982C0.766729 9.49349 0.779762 9.59122 0.828385 9.67499C0.893221 9.78667 1.01383 9.85605 1.14316 9.85605C1.20655 9.85605 1.26917 9.83915 1.32417 9.80723L2.25884 9.2672C2.34275 9.21867 2.40268 9.14031 2.42761 9.04658C2.45255 8.95289 2.43953 8.85517 2.39089 8.77141C2.32611 8.65972 2.20548 8.59035 2.07616 8.59035Z" fill="#222F42"/>
  <path d="M3.7327 2.2588C3.79734 2.37047 3.9178 2.43984 4.04705 2.43984C4.11052 2.43984 4.17328 2.42288 4.22852 2.39082C4.31229 2.34221 4.37221 2.26382 4.39721 2.1701C4.42223 2.07633 4.40926 1.97861 4.36077 1.89506L3.82075 0.960376C3.75611 0.848704 3.63567 0.779327 3.50643 0.779327C3.44297 0.779327 3.38023 0.796278 3.32497 0.828327C3.24118 0.87695 3.18126 0.955344 3.15625 1.04905C3.13123 1.14282 3.1442 1.24054 3.19269 1.32408L3.7327 2.2588Z" fill="#222F42"/>
  <path d="M4.07677 10.5223C4.02192 10.4909 3.95973 10.4743 3.89692 10.4743C3.7674 10.4743 3.64694 10.5439 3.58264 10.6558L3.04251 11.5906C2.9433 11.7637 3.00325 11.9853 3.17623 12.0847C3.23105 12.1162 3.29327 12.1328 3.35614 12.1328C3.48564 12.1328 3.6061 12.0632 3.67041 11.9513L4.21053 11.0165C4.30976 10.8435 4.24979 10.6218 4.07677 10.5223Z" fill="#222F42"/>
  <path d="M6.49996 2.79618C5.51122 2.79618 4.58111 3.18144 3.88093 3.88105C3.18139 4.58059 2.79614 5.5107 2.79614 6.50002C2.79614 7.48877 3.1814 8.41888 3.88099 9.11905C4.58055 9.81859 5.51065 10.2039 6.49996 10.2039C7.48927 10.2039 8.41937 9.81859 9.11895 9.11902C9.8185 8.41944 10.2038 7.48934 10.2038 6.50002C10.2038 5.51128 9.81852 4.58116 9.11891 3.88098C8.41937 3.18146 7.48927 2.79618 6.49996 2.79618ZM6.49994 3.48526C7.30532 3.48526 8.06242 3.79882 8.63176 4.36816C9.20114 4.93752 9.51471 5.69462 9.51471 6.5C9.51471 7.30536 9.20114 8.06246 8.63176 8.63184C8.0624 9.2012 7.30531 9.51475 6.49994 9.51475C5.69458 9.51475 4.93749 9.2012 4.36811 8.63184C3.79875 8.06248 3.48519 7.30536 3.48519 6.5C3.48519 5.69462 3.79875 4.93752 4.36811 4.36816C4.93749 3.79882 5.69458 3.48526 6.49994 3.48526Z" fill="#222F42"/>
  <path d="M9.26729 10.7412C9.20267 10.6295 9.08221 10.5602 8.95296 10.5602C8.88952 10.5602 8.82678 10.5771 8.77149 10.6092C8.68769 10.6578 8.62777 10.7362 8.60277 10.8299C8.57777 10.9237 8.59073 11.0214 8.63923 11.105L9.17928 12.0396C9.24392 12.1513 9.36436 12.2207 9.4936 12.2207C9.55709 12.2207 9.61985 12.2037 9.6751 12.1717C9.75887 12.1231 9.81878 12.0447 9.84378 11.951C9.8688 11.8572 9.85583 11.7595 9.80734 11.6759L9.26729 10.7412Z" fill="#222F42"/>
  <path d="M8.9233 2.47762C8.97814 2.50906 9.04035 2.52569 9.10322 2.52569C9.23273 2.52569 9.35318 2.4561 9.4175 2.34419L9.95763 1.40936C10.0568 1.23636 9.99684 1.01473 9.82387 0.91526C9.76905 0.883833 9.70684 0.86721 9.64397 0.86721C9.51446 0.86721 9.39399 0.936801 9.32968 1.04869L8.78955 1.98354C8.69038 2.15657 8.75035 2.37819 8.9233 2.47762Z" fill="#222F42"/>
  <path d="M6.58684 1.80708C6.78751 1.80708 6.95077 1.64384 6.95077 1.44316V0.363918C6.95077 0.163246 6.78751 0 6.58684 0C6.38616 0 6.2229 0.163246 6.2229 0.363918V1.44316C6.2229 1.64384 6.38616 1.80708 6.58684 1.80708Z" fill="#222F42"/>
  <path d="M1.8071 6.41312C1.8071 6.21245 1.64384 6.0492 1.44316 6.0492H0.363934C0.163262 6.0492 0 6.21245 0 6.41312C0 6.61381 0.163262 6.77707 0.363934 6.77707H1.44316C1.64384 6.77707 1.8071 6.61379 1.8071 6.41312Z" fill="#222F42"/>
  <path d="M12.636 6.22293H11.5568C11.3561 6.22293 11.1929 6.38618 11.1929 6.58685C11.1929 6.78754 11.3561 6.9508 11.5568 6.9508H12.636C12.8367 6.9508 13 6.78754 13 6.58685C13 6.38618 12.8367 6.22293 12.636 6.22293Z" fill="#222F42"/>
  <path d="M2.34427 3.58257L1.40947 3.04246C1.35478 3.01108 1.29265 2.99451 1.22976 2.99451C1.10027 2.99451 0.979797 3.0641 0.915354 3.17619C0.816108 3.34931 0.876026 3.57103 1.04878 3.67038L1.98362 4.21049C2.0383 4.24185 2.10044 4.25842 2.1633 4.25842C2.29283 4.25842 2.41329 4.18883 2.4777 4.07677C2.57698 3.90362 2.51706 3.68192 2.34427 3.58257Z" fill="#222F42"/>
  <path d="M11.9512 9.3296L11.0164 8.78948C10.9617 8.75811 10.8996 8.74152 10.8367 8.74152C10.7072 8.74152 10.5868 8.81111 10.5223 8.9232C10.423 9.09635 10.4829 9.31807 10.6557 9.4174L11.5906 9.95755C11.6453 9.98889 11.7074 10.0055 11.7703 10.0055C11.8998 10.0055 12.0203 9.93589 12.0847 9.82381C12.1839 9.65063 12.124 9.42893 11.9512 9.3296Z" fill="#222F42"/>
  <path d="M10.9239 4.40965C10.9873 4.40965 11.0499 4.39275 11.1049 4.36083L12.0396 3.82081C12.1235 3.77226 12.1834 3.69391 12.2084 3.60019C12.2333 3.5065 12.2203 3.40876 12.1716 3.32499C12.1068 3.21332 11.9862 3.14394 11.8569 3.14394C11.7935 3.14394 11.7309 3.16085 11.6759 3.19276L10.7412 3.73278C10.6573 3.78132 10.5973 3.85968 10.5724 3.9534C10.5475 4.04709 10.5605 4.14481 10.6091 4.22858C10.674 4.34026 10.7946 4.40965 10.9239 4.40965Z" fill="#222F42"/>
</svg>