<svg xmlns="http://www.w3.org/2000/svg" width="57" height="52" viewBox="0 0 57 52" fill="none">
  <path fill-rule="evenodd" clip-rule="evenodd" d="M56.9046 9.10605L55.9433 8.14824H56.6544C56.8313 8.14824 56.9785 8.00519 56.9785 7.82482C56.9785 7.64514 56.8355 7.5014 56.6544 7.5014H55.9433L56.8963 6.54843C57.0235 6.42127 57.0235 6.22086 56.8963 6.0944C56.7691 5.96793 56.5694 5.96724 56.443 6.0944L55.4893 7.04807V4.58857C55.4893 4.41235 55.3462 4.26515 55.1659 4.26515C54.9855 4.26515 54.8425 4.4082 54.8425 4.58857V7.04807L53.8888 6.09854C53.7616 5.97139 53.5619 5.97139 53.4355 6.09854C53.309 6.2257 53.3083 6.42611 53.4355 6.55257L54.3884 7.50624H53.6773C53.5004 7.50624 53.3532 7.64929 53.3532 7.82897C53.3532 8.00934 53.497 8.15308 53.6773 8.15308H54.3884L53.4355 9.10605C53.3083 9.23321 53.3083 9.43362 53.4355 9.56008C53.497 9.62159 53.5785 9.65407 53.6642 9.65407C53.7499 9.65407 53.828 9.62159 53.893 9.56008L54.8466 8.60711V11.0659C54.8466 11.2421 54.9897 11.3893 55.17 11.3893C55.3497 11.3893 55.4934 11.2456 55.4934 11.0659V8.60711L56.4471 9.56008C56.5079 9.62159 56.5902 9.65407 56.6758 9.65407C56.7615 9.65407 56.8389 9.62159 56.9046 9.56008C57.0317 9.43293 57.0317 9.23252 56.9046 9.10605Z" fill="#222F42"/>
  <path fill-rule="evenodd" clip-rule="evenodd" d="M45.2348 43.6987C45.2079 43.6862 42.4747 42.4824 42.3918 39.8183C42.3918 39.6276 42.2363 39.4797 42.0463 39.4797H42.0456H42.0449C41.8583 39.4797 41.707 39.6338 41.7001 39.8197C41.7001 39.8239 41.6994 39.8287 41.6994 39.8335C41.6164 42.4831 38.8833 43.6869 38.8563 43.6994C38.7285 43.7539 38.6462 43.879 38.6462 44.0179C38.6469 44.1555 38.7292 44.2812 38.8563 44.3351C38.884 44.3476 41.6164 45.5403 41.6994 48.2134C41.6994 48.4041 41.8548 48.5527 42.0449 48.5527H42.0456H42.0463C42.2329 48.5527 42.3835 48.3986 42.3911 48.2141C42.3911 48.2085 42.3918 48.2044 42.3918 48.1996C42.4747 45.5514 45.2072 44.3476 45.2348 44.3351C45.362 44.2805 45.4442 44.1555 45.4442 44.0172C45.4442 43.879 45.3613 43.7533 45.2348 43.6987ZM42.0463 46.5763C41.4948 45.2563 40.4091 44.4291 39.7271 44.0159C40.4071 43.6026 41.4886 42.7754 42.0414 41.4486C42.5922 42.7726 43.68 43.6026 44.3627 44.0166C43.682 44.4291 42.5984 45.2563 42.0463 46.5763Z" fill="#222F42"/>
  <path fill-rule="evenodd" clip-rule="evenodd" d="M4.70085 7.22844C4.7285 7.24019 7.46096 8.44402 7.54457 11.1067C7.54457 11.2974 7.69937 11.446 7.89011 11.446H7.8908C8.07117 11.446 8.21837 11.3023 8.23427 11.126C8.23565 11.115 8.23634 11.1039 8.23703 11.0929C8.31927 8.44402 11.0524 7.24019 11.0801 7.22844C11.2072 7.17384 11.2895 7.04876 11.2895 6.91055C11.2895 6.77234 11.2072 6.64725 11.0801 6.59335C11.0524 6.58091 8.31927 5.37639 8.23703 2.71234C8.23703 2.64738 8.21905 2.58725 8.18795 2.53681C8.12783 2.43522 8.01726 2.36681 7.89011 2.36681C7.69937 2.36681 7.54457 2.5216 7.54457 2.71234V2.72547C7.54457 2.72754 7.54457 2.72892 7.54457 2.731C7.45888 5.37777 4.72781 6.58091 4.70085 6.59335C4.5737 6.64795 4.49146 6.77303 4.49146 6.91055C4.49146 7.04807 4.57439 7.17315 4.70085 7.22844ZM7.88734 4.34325C8.43812 5.66733 9.52586 6.4966 10.2086 6.91055C9.52793 7.32311 8.44366 8.14963 7.8915 9.47094C7.34003 8.15032 6.25436 7.32311 5.57228 6.91055C6.25228 6.4966 7.33311 5.6694 7.88734 4.34325Z" fill="#222F42"/>
  <path fill-rule="evenodd" clip-rule="evenodd" d="M49.4247 1.64604C49.1033 1.04689 48.6272 0.639849 48.0978 0.370334C47.4876 0.0593552 46.7779 0.0448424 45.7979 0.0448424C39.7788 0.0448424 33.5696 0.0448424 27.5117 0.0448424C26.6354 0.0448424 25.7219 -0.0560529 24.885 0.0448424C23.5927 0.200332 22.6957 0.868591 22.2838 1.8962C21.8809 2.9017 22.0585 4.58029 22.0585 6.02323C22.0585 8.9181 22.0793 11.8987 22.0336 14.703C17.7919 14.703 13.6517 14.703 9.4024 14.703C7.2836 14.703 5.10604 14.6187 3.09781 14.703C1.16076 14.7852 0.0218947 15.9414 0.0218947 17.9544C0.0218947 27.3854 0.0218947 36.8571 0.0218947 46.371C0.0218947 47.4332 -0.0845219 48.5997 0.171863 49.3723C0.448979 50.2071 0.965187 50.7143 1.62308 51.0737C2.39016 51.4931 3.23671 51.424 4.44953 51.424C10.7783 51.424 17.0953 51.424 23.3847 51.424C24.5222 51.424 25.4199 51.4641 26.1614 51.0481C26.8386 50.6694 27.3507 50.0965 27.5877 49.2976C27.8441 48.4324 27.6879 47.2797 27.6879 46.2459C27.6872 42.9419 27.6665 39.9925 27.7121 36.7908C33.005 36.7452 38.0753 36.7652 43.3716 36.7652C44.9818 36.7652 47.1414 37.0036 48.2236 36.39C48.7564 36.0873 49.1966 35.6249 49.4751 35.0403C49.7709 34.4156 49.7501 33.5918 49.7501 32.6886C49.7501 23.0248 49.7488 13.551 49.7501 3.94797C49.7501 3.03231 49.7432 2.24312 49.4247 1.64604ZM26.3362 49.2714C25.8801 50.1746 25.1877 50.2478 23.7592 50.2472C17.3261 50.2472 10.6968 50.2485 4.1738 50.2472C3.56152 50.2472 2.93679 50.2969 2.4724 50.1732C1.8539 50.0067 1.45031 49.5361 1.27133 48.9217C1.13104 48.438 1.19739 47.7248 1.19739 47.0206C1.19739 37.7755 1.19739 28.5595 1.19739 19.3552C1.19739 18.7049 1.13243 18.0222 1.22227 17.4292C1.36878 16.459 2.08541 15.9911 2.84834 15.9289C4.56771 15.7873 6.58976 15.9034 8.40104 15.9034C12.0222 15.9034 15.7906 15.9034 19.4574 15.9034C20.3841 15.9034 21.3074 15.875 22.2085 15.9034C23.129 15.9324 24.0246 15.8557 24.885 15.9289C25.735 16.0008 26.3645 16.5682 26.511 17.4044C26.6057 17.9399 26.5359 18.5847 26.5359 19.1804C26.5359 23.116 26.5359 27.856 26.5359 31.6368C26.5359 36.4273 26.5359 41.2903 26.5359 45.8948C26.5359 47.0538 26.7101 48.534 26.3362 49.2714ZM27.6872 19.7056C27.6872 18.3401 27.8047 17.092 27.3617 16.2793C27.2913 16.1515 27.1703 16.0271 27.162 15.8785C27.1434 15.5571 27.5297 14.8343 27.6624 14.553C28.2671 13.2663 29.0203 12.2691 30.0127 11.4515C31.3934 10.3154 32.9912 9.48754 35.1418 9.30026C35.3214 9.28436 35.5439 9.30717 35.6918 9.30026C38.577 9.16274 40.8264 10.4944 42.2956 11.9014C43.0959 12.6685 43.7158 13.5814 44.1961 14.6035C44.8291 15.9497 45.1532 17.7506 44.9466 19.6061C44.7171 21.6668 43.6252 23.521 42.4712 24.7338C40.7124 26.5803 37.7298 28.093 34.0906 27.3349C31.5219 26.7994 29.6996 25.4414 28.388 23.5576C28.1344 23.1941 27.7992 22.7442 27.7114 22.3075C27.5753 21.6198 27.6865 20.6178 27.6872 19.7056ZM48.5491 33.9885C48.4316 34.7998 47.9285 35.4259 47.0737 35.5393C46.3162 35.6401 45.4649 35.5648 44.6466 35.5648C39.0587 35.5648 33.1674 35.5849 27.7114 35.5393C27.6534 32.0045 27.7031 28.3605 27.6872 24.7835C27.8192 24.6419 27.9042 24.8948 27.9367 24.9342C29.1419 26.3709 30.8005 27.6238 32.8647 28.2354C34.0222 28.5789 35.2309 28.7406 36.7167 28.6611C38.0491 28.5892 39.1651 28.2368 40.1934 27.7606C42.1146 26.8712 43.7241 25.4442 44.7959 23.5832C45.8622 21.7304 46.5305 19.1742 45.9714 16.4037C45.4814 13.9767 44.3557 12.2152 42.7946 10.8012C41.2604 9.41152 39.333 8.34521 36.6918 8.14964C33.8197 7.93748 31.6249 8.85798 29.9118 10.0501C28.1627 11.2684 26.9575 12.9062 26.1593 15.0534C25.4586 14.6539 24.2948 14.7168 23.2333 14.6781C23.1877 11.9145 23.2078 8.73289 23.2078 5.79864C23.2078 4.80904 23.1069 3.77037 23.2333 2.87198C23.3556 1.99848 23.9472 1.32469 24.809 1.24591C25.7032 1.16436 26.65 1.24591 27.5863 1.24591C33.081 1.24591 38.7049 1.24591 44.2458 1.24591C45.176 1.24591 46.1082 1.16367 46.9963 1.24591C47.764 1.31778 48.397 1.95632 48.547 2.72202C48.6534 3.26796 48.5726 3.98183 48.5726 4.67289C48.5726 13.8101 48.5726 22.9052 48.5726 32.0632C48.5746 32.7183 48.6355 33.397 48.5491 33.9885Z" fill="#222F42"/>
  <path fill-rule="evenodd" clip-rule="evenodd" d="M27.6623 3.24724C27.126 3.32464 26.6167 3.62663 26.3361 3.94798C26.1164 4.20022 25.746 4.89957 25.8358 5.62381C25.9837 6.81797 27.3741 7.94371 28.8122 7.32452C29.4915 7.03289 30.0195 6.34251 30.0886 5.49872C30.195 4.18087 29.0334 3.04821 27.6623 3.24724ZM27.0113 5.44759C26.9781 4.96592 27.2435 4.53953 27.7376 4.44762C28.2911 4.34396 28.73 4.58306 28.8633 5.02327C29.2946 6.44755 27.0984 6.70878 27.0113 5.44759Z" fill="#222F42"/>
  <path fill-rule="evenodd" clip-rule="evenodd" d="M43.5465 3.24722C42.9391 3.33498 42.4491 3.65011 42.1699 3.99702C41.9971 4.21333 41.6875 4.75304 41.6944 5.37293C41.7083 6.44684 42.57 7.34591 43.496 7.47445C44.8671 7.66311 46.1331 6.55534 45.9472 5.04813C45.8222 4.04056 44.8333 3.06063 43.5465 3.24722ZM43.8706 6.29826C42.7068 6.33558 42.5548 4.63694 43.6211 4.44759C44.2611 4.33357 44.7821 4.72471 44.7966 5.32317C44.8111 5.94237 44.2942 6.28513 43.8706 6.29826Z" fill="#222F42"/>
  <path fill-rule="evenodd" clip-rule="evenodd" d="M29.7132 20.982C29.5294 21.2826 29.2599 21.5183 29.2882 21.9073C29.3276 22.4519 29.841 22.4326 30.3884 22.4326C31.1831 22.4326 31.7594 22.4326 32.5396 22.4326C32.8997 22.4326 33.3655 22.3552 33.5907 22.4574C33.6599 22.4892 33.8105 22.7221 33.8907 22.8576C34.3482 23.6392 34.7234 24.3523 35.1664 25.0842C35.3364 25.3654 35.5617 25.7434 35.9169 25.7345C36.25 25.7262 36.4545 25.3316 36.6176 25.0586C37.0046 24.4104 37.2886 23.9418 37.668 23.3074C37.7772 23.1243 38.026 22.5397 38.2188 22.4567C38.478 22.3448 39.0377 22.4319 39.4192 22.4319C39.8366 22.4319 40.2885 22.4319 40.6444 22.4319C41.4212 22.4319 42.5089 22.5853 42.5207 21.8569C42.5262 21.5404 42.2477 21.2833 42.0708 20.9813C41.6928 20.3372 41.4544 19.8943 41.095 19.2799C40.9347 19.0049 40.6175 18.6587 40.6196 18.4043C40.6237 18.1245 40.9665 17.7734 41.095 17.5543C41.4972 16.8674 41.69 16.5371 42.0957 15.8536C42.283 15.5378 42.5386 15.2178 42.5207 14.9283C42.4744 14.1571 41.1434 14.3782 40.2941 14.3782C39.97 14.3782 39.6072 14.3782 39.243 14.3782C38.8967 14.3782 38.4013 14.4521 38.1919 14.3526C38.0136 14.2676 37.8346 13.7797 37.6922 13.5275C37.364 12.947 37.0509 12.4308 36.6922 11.8517C36.4891 11.5248 36.2576 10.9982 35.7406 11.1261C35.4359 11.2021 35.2728 11.5932 35.0904 11.9014C34.7504 12.4771 34.4352 12.9753 34.0904 13.5773C33.9542 13.8164 33.7241 14.3208 33.5396 14.3782C33.3212 14.4459 32.8658 14.3782 32.5155 14.3782C32.1713 14.3782 31.7961 14.3782 31.4643 14.3782C30.8776 14.3782 29.8708 14.2441 29.5135 14.5033C29.0297 14.8537 29.4699 15.4625 29.6883 15.8287C30.1105 16.5357 30.5549 17.2344 30.9654 17.9545C31.219 18.403 31.1997 18.4465 30.9654 18.8549C30.5038 19.6552 30.2045 20.1776 29.7132 20.982ZM35.9162 23.908C35.6999 23.7414 35.5796 23.4719 35.4407 23.2328C35.3011 22.9916 35.1463 22.7442 35.0399 22.483C35.5043 22.3856 36.2368 22.4312 36.742 22.4574C36.534 23.0082 36.2189 23.4519 35.9162 23.908ZM40.8442 21.2073C40.312 21.304 39.5145 21.2584 38.943 21.2322C39.0197 20.973 39.1932 20.7173 39.3432 20.4568C39.4952 20.1907 39.6762 19.9261 39.8186 19.6814C39.8255 19.6538 39.8684 19.6642 39.8691 19.631C40.2706 20.0795 40.5283 20.6724 40.8442 21.2073ZM40.8442 15.6042C40.5553 16.1494 40.2491 16.6767 39.9181 17.1798C39.6832 17.0132 39.5373 16.7092 39.3929 16.4549C39.2374 16.1812 39.104 15.9186 38.943 15.6546C38.9182 15.6546 38.9237 15.6242 38.9182 15.6048C39.5028 15.5627 40.2595 15.5627 40.8442 15.6042ZM35.8906 12.927C36.2417 13.3361 36.5146 13.8212 36.742 14.3526C36.2382 14.3789 35.5022 14.4259 35.0399 14.3271C35.306 13.8426 35.5423 13.3292 35.8906 12.927ZM34.2397 15.629C34.2583 15.6055 34.2853 15.591 34.315 15.5793C35.373 15.5793 36.4324 15.5793 37.4911 15.5793C37.9375 16.2192 38.3287 16.9469 38.7682 17.6808C38.8746 17.8598 39.1656 18.226 39.1676 18.4057C39.1704 18.5944 38.8705 18.9482 38.7682 19.1313C38.3612 19.8507 37.9382 20.5867 37.4911 21.2322C36.4815 21.2743 35.3004 21.2743 34.2901 21.2322C33.8817 20.5667 33.4311 19.9033 33.0137 19.1562C32.919 18.9855 32.644 18.6048 32.6385 18.4306C32.6329 18.2357 32.899 17.8978 33.0137 17.7057C33.4332 17.0029 33.8333 16.3035 34.2397 15.629ZM30.964 15.6539C30.9391 15.6539 30.944 15.6235 30.9385 15.6042C31.5231 15.5627 32.2798 15.5627 32.8644 15.6042C32.5811 16.1542 32.2667 16.6746 31.9384 17.1798C31.7014 17.0105 31.5659 16.7147 31.4132 16.4549C31.2612 16.1922 31.1237 15.9151 30.964 15.6539ZM31.8893 19.631C32.2909 20.0795 32.5493 20.6717 32.8644 21.2073C32.3323 21.2888 31.4699 21.2909 30.9385 21.2073C31.257 20.6842 31.5397 20.1237 31.8893 19.631Z" fill="#222F42"/>
  <path fill-rule="evenodd" clip-rule="evenodd" d="M5.5996 22.1326C6.92229 22.3054 8.19593 21.2432 8.05149 19.8307C7.9347 18.6877 6.96445 17.7471 5.72468 17.9047C5.00459 17.9959 4.44899 18.3366 4.12419 18.8549C4.03366 19 3.86641 19.3407 3.82426 19.6558C3.6349 21.0656 4.63695 22.0068 5.5996 22.1326ZM5.72468 19.1057C6.2022 19.0138 6.6908 19.2813 6.82625 19.6558C7.06121 20.3123 6.55466 20.9689 5.94998 20.9813C4.83046 21.0048 4.64178 19.3144 5.72468 19.1057Z" fill="#222F42"/>
  <path fill-rule="evenodd" clip-rule="evenodd" d="M21.608 17.9054C20.5085 18.0457 19.8029 18.7222 19.6827 19.756C19.4325 21.9128 22.0213 22.8582 23.3343 21.5072C23.7178 21.1133 24.0592 20.3953 23.9092 19.631C23.7213 18.6648 22.7945 17.754 21.608 17.9054ZM21.3088 20.8569C20.9349 20.6441 20.7525 20.0919 20.9093 19.6565C21.174 18.9109 22.3419 18.8874 22.684 19.6068C23.0323 20.4982 22.0883 21.3013 21.3088 20.8569Z" fill="#222F42"/>
  <path fill-rule="evenodd" clip-rule="evenodd" d="M18.2322 39.092C17.8251 38.7223 17.3214 38.4293 17.0311 38.0409C16.9122 37.8826 16.7312 37.5599 16.7809 37.365C16.8224 37.2061 17.1976 36.9884 17.3068 36.8896C17.5107 36.7057 17.642 36.544 17.832 36.3885C18.0428 36.4749 18.1651 36.6449 18.3821 36.7638C19.1969 37.2116 20.6302 37.0561 21.2093 37.6649C21.42 37.8868 21.5313 38.2821 21.8596 38.3408C22.2894 38.4175 22.5755 38.1017 22.5845 37.79C22.5914 37.5606 22.4387 37.3933 22.335 37.2399C22.0233 36.7831 21.5859 36.3512 21.0089 36.1646C20.1119 35.8744 18.8244 36.0589 18.5072 35.2884C18.7394 34.92 18.7802 34.3589 18.9833 33.9629C20.4042 34.3541 21.3185 33.0141 22.5596 33.3873C22.7248 33.4363 22.9217 33.6119 23.1608 33.6374C23.5672 33.681 23.6605 33.4854 23.8097 33.2622C23.8097 33.1288 23.8097 32.9947 23.8097 32.8614C23.2403 32.1786 22.2265 31.9574 21.259 32.2615C20.5299 32.4903 19.7808 33.079 18.9833 32.6865C18.9688 32.1337 18.8064 31.7287 18.7076 31.2609C19.4505 31.0259 19.8472 30.6002 20.3088 30.0107C20.6232 29.6078 20.946 29.1676 21.3592 29.0349C21.9211 28.8539 22.6529 29.0149 22.5845 28.3093C22.561 28.0592 22.3212 27.8829 22.1353 27.7834C21.174 27.7751 20.5832 28.017 20.1084 28.4337C19.4526 29.0087 19.1575 29.9955 18.1575 30.1842C17.8486 29.802 17.4976 29.4606 17.1817 29.084C17.445 28.6804 17.7387 28.2893 17.8576 27.7081C17.991 27.0543 17.9592 26.2983 18.2833 25.8816C18.5169 25.5789 18.9557 25.4946 19.0829 25.1567C19.2017 24.8416 19.0642 24.4276 18.7076 24.3557C18.255 24.2645 17.8652 24.6619 17.6565 24.8561C17.4444 25.0551 17.2294 25.3661 17.1057 25.6066C16.7885 26.2306 16.841 27.0799 16.6303 27.7578C16.566 27.9672 16.3352 28.3515 16.1051 28.3833C15.8867 28.413 15.6787 28.225 15.4555 28.158C15.1673 28.0716 14.9095 28.0854 14.7299 27.9583C14.8715 27.2513 14.7112 26.583 14.5046 26.082C14.3152 25.6204 14.0118 25.1843 14.13 24.5064C14.1777 24.2265 14.4735 23.9694 14.4548 23.6308C14.4403 23.3558 14.1659 23.0365 13.7796 23.0807C13.374 23.127 13.1307 23.7317 13.0291 24.1063C12.9524 24.3896 12.8999 24.7268 12.9283 25.0067C13.0388 26.0869 13.9317 26.9445 13.4541 27.9334C12.9559 27.9859 12.5371 28.1179 12.0782 28.2084C11.8011 27.5644 11.4957 27.1573 10.9781 26.7323C10.5482 26.3806 9.89518 26.0945 9.7777 25.3322C9.70237 24.8499 9.75282 24.5057 9.40245 24.382C8.48057 24.0558 8.53863 25.2438 8.67615 25.7828C8.97607 26.9521 10.1094 27.3301 10.7023 28.1089C10.8191 28.2609 11.0057 28.5781 10.9532 28.7841C10.9117 28.9437 10.6277 29.0494 10.5026 29.1593C10.3409 29.3017 10.0866 29.7295 9.8779 29.735C9.74037 29.7377 9.51094 29.4641 9.32712 29.3597C8.76805 29.0412 7.84686 29.0294 7.07564 28.8587C6.81165 28.7046 6.61676 28.5927 6.42534 28.3584C6.23253 28.1207 6.15238 27.8256 5.82551 27.7827C5.43091 27.7316 5.18418 28.0101 5.14963 28.2831C5.11853 28.5277 5.27127 28.7288 5.37493 28.8843C5.69766 29.3618 6.18554 29.7951 6.75014 29.9845C7.24287 30.1489 7.7978 30.1109 8.4011 30.2595C8.65057 30.321 9.1813 30.5463 9.20204 30.86C9.21379 31.0404 9.02029 31.2678 8.95187 31.4848C8.86549 31.7563 8.87723 32.0217 8.75146 32.1855C7.78604 31.9263 6.97474 32.4827 6.14961 32.7363C5.98721 32.786 5.78887 32.8365 5.6244 32.8365C5.14895 32.8358 4.82554 32.4771 4.44891 32.4854C4.04049 32.4951 3.79862 32.9346 3.94858 33.3112C4.09094 33.6651 4.84281 33.9401 5.27404 33.9864C6.76604 34.1467 7.46263 33.001 8.7259 33.4612C8.77704 33.9684 8.9028 34.401 9.00093 34.862C8.50612 35.0576 8.13849 35.3132 7.77568 35.712C7.31958 36.213 6.96921 36.9241 6.30026 37.1128C6.04525 37.1846 5.70319 37.1162 5.45026 37.2379C4.96306 37.4707 5.14066 38.2413 5.55046 38.3387C7.57528 38.5467 7.95535 36.9877 8.87654 36.2628C9.00853 36.1584 9.34853 35.9248 9.5524 35.9615C9.73346 35.9953 9.89794 36.3678 10.0279 36.5122C10.2207 36.7272 10.4176 36.8322 10.5531 37.0375C10.2994 37.4397 10.0023 37.819 9.8779 38.3885C9.73761 39.0326 9.79289 39.792 9.42801 40.2647C9.24073 40.5066 8.76736 40.6738 8.65196 40.915C8.43427 41.3725 8.79569 41.7934 9.17785 41.7899C9.37895 41.7885 9.52891 41.6662 9.67818 41.5653C10.1495 41.246 10.513 40.8839 10.7293 40.34C10.9884 39.6849 10.8585 38.9793 11.1287 38.289C11.211 38.0796 11.4929 37.7492 11.6546 37.7382C11.8467 37.7251 12.0921 37.9179 12.3049 37.9884C12.562 38.074 12.7831 38.0644 13.005 38.1888C12.6311 39.3159 13.4866 40.1486 13.6055 41.1147C13.6221 41.2488 13.6269 41.4236 13.6055 41.5646C13.5592 41.8742 13.2593 42.1769 13.28 42.5155C13.298 42.812 13.6013 43.0718 13.8805 43.0663C14.3719 43.0552 14.6566 42.2743 14.7305 41.9647C15.1065 40.3974 13.8045 39.5529 14.2295 38.2378C14.7112 38.1356 15.2205 38.0609 15.6559 37.9123C15.9116 38.848 16.7098 39.2993 17.3815 39.8632C17.7788 40.197 17.9965 40.6766 17.982 41.3891C18.1499 41.8839 18.8921 41.8818 19.0822 41.4893C19.2314 41.1804 19.1271 40.6752 19.0822 40.4637C18.9723 39.9524 18.624 39.4486 18.2322 39.092ZM12.2786 36.7154C11.1073 36.2075 10.0424 35.0292 9.90208 33.4384C9.77769 32.0286 10.3299 31.0528 10.9788 30.3618C11.2414 30.0812 11.5447 29.831 11.9283 29.6113C12.2952 29.4005 12.7852 29.2195 13.2296 29.1614C14.2731 29.0253 15.1445 29.2499 15.7803 29.6113C16.8411 30.2132 17.6966 31.3168 17.832 32.7632C17.9578 34.1087 17.3283 35.2794 16.6068 35.9649C15.5474 36.9704 13.7727 37.3629 12.2786 36.7154Z" fill="#222F42"/>
  <path fill-rule="evenodd" clip-rule="evenodd" d="M43.4201 29.386C42.9032 29.4779 42.4457 29.7813 42.1955 30.0867C41.9931 30.3348 41.6876 30.8103 41.6952 31.4875C41.7097 32.6741 42.6385 33.4888 43.6212 33.5891C44.7331 33.701 45.8077 32.9346 45.948 31.7626C46.0344 31.0335 45.7441 30.368 45.3716 29.9865C44.9826 29.5878 44.2901 29.2333 43.4201 29.386ZM42.9204 31.7881C42.7428 31.1987 43.0918 30.6361 43.6709 30.5373C44.297 30.4309 44.7815 30.8663 44.7967 31.4378C44.8278 32.5898 43.1879 32.6748 42.9204 31.7881Z" fill="#222F42"/>
  <path fill-rule="evenodd" clip-rule="evenodd" d="M5.80002 44.02C5.09306 44.058 4.4642 44.4816 4.17395 44.8956C4.07997 45.0282 3.86713 45.4457 3.82359 45.7711C3.62111 47.2818 4.73094 48.2652 5.9251 48.2721C7.08471 48.279 8.17382 47.241 8.05081 45.9467C7.94231 44.8016 7.00247 43.9543 5.80002 44.02ZM6.30105 47.0213C4.99839 47.5202 4.46488 45.447 5.72469 45.2204C7.01076 44.9896 7.18906 46.6806 6.30105 47.0213Z" fill="#222F42"/>
  <path fill-rule="evenodd" clip-rule="evenodd" d="M21.6586 44.02C20.8369 44.0676 20.2882 44.5016 19.9827 44.9951C19.8058 45.2791 19.6061 45.8644 19.6821 46.4207C19.8273 47.4774 20.7726 48.2894 21.8327 48.2714C22.9585 48.2527 23.937 47.2901 23.9342 46.1208C23.9322 44.861 22.9052 43.9467 21.6586 44.02ZM21.4091 47.0212C20.6095 46.7117 20.6987 45.3772 21.6081 45.2203C22.2819 45.1049 22.7525 45.5057 22.7594 46.1215C22.767 46.7897 22.1057 47.2915 21.4091 47.0212Z" fill="#222F42"/>
</svg>