<svg width="205" height="182" viewBox="0 0 205 182" fill="none" xmlns="http://www.w3.org/2000/svg">
<path d="M155.74 163.622C146.3 170.518 135.525 175.581 124.168 178.511C112.81 181.453 100.832 182.127 89.1338 180.498C83.2862 179.678 77.4966 178.312 71.9174 176.32C69.1248 175.331 66.3794 174.207 63.6953 172.948C61.0187 171.672 58.4047 170.265 55.8657 168.731C45.6939 162.614 36.8385 154.336 29.951 144.702C23.0777 135.052 18.1553 124.048 15.563 112.549C14.2628 106.801 13.5358 100.932 13.3874 95.0579C13.2168 89.1834 13.6174 83.3008 14.5629 77.5112C16.435 65.928 20.542 54.7186 26.6115 44.6682C29.6489 39.6453 33.1719 34.9115 37.1117 30.5456C41.0582 26.185 45.4424 22.2118 50.1691 18.6921C59.6119 11.6473 70.4621 6.37381 81.9752 3.54201C93.4708 0.667754 105.559 0.0930398 117.302 1.90545C129.045 3.69226 140.446 7.79948 150.632 13.959C160.832 20.1003 169.726 28.3734 176.722 37.9899C183.681 47.6321 188.799 58.6318 191.458 70.2144C194.17 81.7815 194.42 93.8795 192.347 105.501C190.282 117.127 185.954 128.307 179.654 138.203C173.366 148.099 165.221 156.779 155.74 163.622ZM155.542 163.349C160.234 159.901 164.606 156.016 168.526 151.716C172.424 147.401 175.931 142.727 178.854 137.712C184.74 127.71 188.594 116.57 190.155 105.154C190.945 99.4474 191.151 93.6773 190.855 87.947C190.7 85.0815 190.405 82.2262 189.971 79.3944C189.553 76.5599 188.995 73.7483 188.3 70.9717C186.899 65.422 184.99 60.0036 182.564 54.8244C180.138 49.6459 177.198 44.7113 173.813 40.1028C170.433 35.4916 166.635 31.187 162.436 27.3081C158.24 23.4273 153.659 19.9655 148.798 16.9532C139.067 10.9378 128.127 6.87037 116.807 5.03438C105.49 3.20917 93.8033 3.54807 82.5997 6.13934C77.0009 7.44037 71.5236 9.28108 66.2613 11.6237C61.0018 13.9738 55.9702 16.8481 51.2536 20.1825C41.8452 26.8716 33.6696 35.3892 27.586 45.2645C21.4693 55.1114 17.394 66.2231 15.6399 77.681C14.7699 83.4106 14.482 89.2252 14.7699 95.0033C15.0781 100.781 15.9548 106.521 17.3852 112.111C20.2325 123.299 25.3423 133.852 32.2176 143.052C35.6314 147.672 39.5064 151.936 43.7132 155.832C47.9335 159.716 52.5362 163.177 57.4093 166.203C59.85 167.711 62.3661 169.098 64.9449 170.358C67.5164 171.635 70.1505 172.788 72.8373 173.809C78.2155 175.835 83.7785 177.413 89.4609 178.409C100.822 180.418 112.62 180.178 123.96 177.655C129.637 176.417 135.167 174.515 140.475 172.133C145.778 169.724 150.817 166.756 155.542 163.349Z" fill="#D4B66E"/>
<path d="M183.99 175.123C185.335 175.123 186.426 174.034 186.426 172.69C186.426 171.347 185.335 170.257 183.99 170.257C182.645 170.257 181.555 171.347 181.555 172.69C181.555 174.034 182.645 175.123 183.99 175.123Z" fill="#D4B66E"/>
<path d="M182.947 158.923L169.095 158.287C169.095 158.287 162.242 157.682 161.629 150.072L161.333 136.679L160.57 151.148C160.57 151.148 159.912 157.383 152.53 158.156L139.125 158.413L153.941 159.435C153.941 159.435 159.27 160.201 160.357 166.098L160.84 180.56L161.577 166.624C161.577 166.624 161.878 160.385 169.481 159.239L182.947 158.923Z" fill="#D4B66E"/>
<path d="M204.739 145.614L198.149 145.312C198.149 145.312 194.889 145.024 194.597 141.403L194.454 135.031L194.092 141.915C194.092 141.915 193.78 144.882 190.267 145.25L183.889 145.372L190.937 145.858C190.937 145.858 193.474 146.222 193.99 149.028L194.22 155.909L194.572 149.279C194.572 149.279 194.715 146.31 198.332 145.765L204.739 145.614Z" fill="#222F42"/>
<path d="M20.7487 11.5698C22.0936 11.5698 23.1839 10.4806 23.1839 9.1369C23.1839 7.79323 22.0936 6.70396 20.7487 6.70396C19.4038 6.70396 18.3135 7.79323 18.3135 9.1369C18.3135 10.4806 19.4038 11.5698 20.7487 11.5698Z" fill="#D4B66E"/>
<path d="M21.793 22.9045L35.6442 23.5405C35.6442 23.5405 42.4973 24.1449 43.111 31.755L43.407 45.1486L44.1698 30.679C44.1698 30.679 44.8273 24.4447 52.2098 23.6712L65.6146 23.4138L50.799 22.3924C50.799 22.3924 45.47 21.6264 44.3829 15.7296L43.8993 1.26741L43.1636 15.2041C43.1636 15.2041 42.8621 21.4431 35.2591 22.5885L21.793 22.9045Z" fill="#D4B66E"/>
<path d="M0 36.2125L6.58943 36.5151C6.58943 36.5151 9.85009 36.8028 10.1421 40.4235L10.2844 46.7959L10.6465 39.9115C10.6465 39.9115 10.9588 36.9449 14.4717 36.5771L20.85 36.4544L13.8013 35.9693C13.8013 35.9693 11.2649 35.6048 10.749 32.7993L10.5184 25.9182L10.167 32.5487C10.167 32.5487 10.0241 35.5172 6.40667 36.0623L0 36.2125Z" fill="#222F42"/>
<path fill-rule="evenodd" clip-rule="evenodd" d="M102.869 29.828C103.074 29.828 103.279 29.828 103.484 29.828C104.953 30.2787 104.468 32.8302 104.468 34.7444C104.468 38.5302 104.468 42.6422 104.468 46.236C104.153 46.7865 103.761 47.2742 102.93 47.1577C101.706 46.9859 101.823 45.4949 101.823 43.9007C101.823 40.7166 101.823 38.1179 101.823 35.1136C101.823 33.064 101.386 30.1271 102.869 29.828Z" fill="#D4B66E"/>
<path fill-rule="evenodd" clip-rule="evenodd" d="M81.8955 42.7944C83.1977 42.4724 83.6556 43.7667 84.1095 44.5765C84.8479 45.8917 85.5533 47.1543 86.3235 48.5092C86.6809 49.1372 87.2757 49.9868 87.124 50.7219C86.9965 51.3404 86.1569 51.7736 85.5237 51.6436C84.7684 51.4879 84.3833 50.5824 84.0488 49.9841C83.3825 48.7983 82.5213 47.1523 81.8334 45.9281C81.2858 44.9525 80.2372 43.2041 81.8955 42.7944Z" fill="#D4B66E"/>
<path fill-rule="evenodd" clip-rule="evenodd" d="M123.658 42.7944C124.397 42.5937 125.267 43.0046 125.38 43.7774C125.487 44.493 124.852 45.3931 124.519 45.9894C123.778 47.318 123.079 48.5241 122.305 49.9221C121.965 50.5373 121.529 51.4778 120.952 51.6429C120.085 51.8915 119.335 51.2252 119.23 50.7212C119.074 49.9625 119.59 49.247 120.029 48.4473C120.744 47.1456 121.502 45.889 122.243 44.5759C122.624 43.9034 122.927 42.9932 123.658 42.7944Z" fill="#D4B66E"/>
<path fill-rule="evenodd" clip-rule="evenodd" d="M59.9371 53.6709C60.6574 53.5368 61.4349 54.1311 62.0884 54.5313C65.1872 56.4252 67.9212 58.1312 71.0078 60.0615C72.0781 60.7312 74.1404 61.4899 74.2065 62.642C74.2442 63.2915 73.7654 63.9579 73.1611 64.0556C72.3634 64.1842 71.7497 63.5738 71.1299 63.1952C67.4923 60.9738 64.0927 58.9282 60.3667 56.62C59.755 56.2406 58.9822 55.7946 58.8911 55.2064C58.7623 54.377 59.1474 53.8178 59.9371 53.6709Z" fill="#D4B66E"/>
<path fill-rule="evenodd" clip-rule="evenodd" d="M145.924 53.6709C146.636 53.557 147.531 53.9768 147.462 55.0225C147.386 56.1928 145.11 57.1468 144.263 57.665C141.128 59.5865 138.336 61.3241 135.284 63.1958C134.643 63.5893 133.91 64.1384 133.254 64.0562C132.601 63.974 132.131 63.3488 132.147 62.7047C132.171 61.5963 134.258 60.713 135.222 60.1235C137.758 58.5705 139.902 57.2479 142.234 55.8222C143.382 55.1202 144.487 54.1661 145.739 53.6716C145.789 53.6514 145.871 53.6797 145.924 53.6709Z" fill="#D4B66E"/>
<path fill-rule="evenodd" clip-rule="evenodd" d="M85.5228 147.813C85.1741 147.813 84.8268 147.813 84.4782 147.813C82.1873 147.324 80.8453 145.625 79.311 144.188C77.0768 142.093 75.0563 140.254 72.7911 138.166C71.764 137.219 70.3518 136.073 69.7159 134.97C67.5511 131.214 71.0896 128.402 72.7304 126.49C73.1363 126.016 74.5033 124.701 74.6369 124.093C74.7832 123.43 74.6369 122.439 74.6369 121.512C74.6369 115.31 74.6369 109.316 74.6369 103.26C74.6369 99.6751 75.0779 97.1411 76.3586 94.5963C81.5561 84.2676 86.85 73.6384 92.0441 63.3178C93.2182 60.9839 94.5225 57.1475 98.3166 58.0948C99.9169 58.4937 101.205 59.7981 101.394 61.5357C101.564 63.1197 101.401 64.8378 101.394 66.3908C101.384 67.9862 101.162 69.4719 100.902 70.8147C99.2499 79.304 97.8357 86.9418 96.2273 95.456C99.111 95.991 101.102 97.6734 101.394 100.495C101.637 102.861 101.394 105.48 101.394 107.931C101.394 113.17 101.394 117.59 101.394 122.802C101.394 125.137 101.569 128.1 100.963 129.868C100.399 131.514 99.1697 132.9 98.0091 134.354C95.1315 137.962 92.5074 141.186 89.7053 144.677C88.5717 146.094 87.6363 147.546 85.5228 147.813ZM94.8118 63.8103C89.4855 74.395 84.3237 84.6402 79.0055 95.2108C78.4148 96.3818 77.8166 97.5804 77.5279 98.9596C77.2285 100.402 77.2825 102.016 77.2825 103.999C77.2825 109.806 77.2825 116.431 77.2825 122.372C77.2825 123.296 77.4275 124.3 77.2825 125.014C77.1739 125.552 76.3336 126.311 75.8669 126.858C75.4245 127.378 74.8385 128.122 74.3921 128.64C73.6226 129.527 71.7458 131.019 71.7458 132.511C71.7458 134.17 73.744 135.366 74.6982 136.26C77.0208 138.436 79.1404 140.355 81.3423 142.406C82.2062 143.211 83.5644 145.079 84.9705 145.171C85.9477 145.234 86.5492 144.419 87.1845 143.634C89.8847 140.295 92.3341 137.168 94.9345 133.925C95.9556 132.654 97.2106 131.398 98.0097 129.992C99.1596 127.971 98.7495 124.015 98.7495 120.837C98.7495 115.128 98.7495 109.283 98.7495 103.569C98.7495 102.303 98.8831 100.965 98.6248 100.189C98.1264 98.6847 96.311 97.6397 94.5663 98.2225C92.2107 99.0094 92.2525 101.81 91.798 104.675C91.1822 108.549 90.808 111.227 90.199 115.183C89.9535 116.78 89.9164 119.344 88.4773 119.546C87.4192 119.694 87.0105 118.791 87.1238 117.703C87.6087 113.04 88.4476 108.874 89.153 104.369C89.4363 102.57 89.5475 100.584 90.0763 99.1449C90.5301 97.9072 91.4587 96.9417 92.413 96.3185C92.7718 96.084 93.2971 95.9513 93.459 95.642C93.6701 95.2411 93.6889 94.2851 93.8285 93.5527C95.3108 85.8004 96.748 78.2395 98.2566 70.5081C98.496 69.2799 98.7489 67.8913 98.7489 66.0222C98.7489 63.7207 99.2985 60.2967 97.0879 60.676C95.9151 60.8781 95.3264 62.7875 94.8118 63.8103Z" fill="#222F42"/>
<path fill-rule="evenodd" clip-rule="evenodd" d="M121.875 147.813C121.505 147.813 121.137 147.813 120.766 147.813C120.165 147.688 119.319 147.406 118.737 147.014C117.637 146.271 116.452 144.489 115.477 143.265C113.267 140.487 111.347 138.083 109.203 135.4C108.128 134.052 106.942 132.779 106.128 131.405C104.224 128.195 104.897 121.235 104.897 116.289C104.897 113.612 104.897 110.92 104.897 108.116C104.897 105.606 104.562 102.245 105.02 100.005C105.552 97.4126 107.401 96.0665 110.126 95.3341C108.605 86.968 106.86 78.8674 105.328 70.4468C105.089 69.1296 104.959 67.5348 104.959 65.8383C104.959 64.1923 104.702 62.4392 105.02 61.0445C105.547 58.7484 108.453 57.1516 110.925 58.4634C112.639 59.3723 113.386 61.5943 114.309 63.3178C114.93 64.4753 115.468 65.682 116.031 66.8207C120.605 76.0612 125.487 85.4299 129.993 94.5344C131.243 97.0589 131.716 99.6623 131.716 103.26C131.716 109.426 131.716 115.354 131.716 121.512C131.716 122.448 131.554 123.502 131.716 124.154C131.841 124.656 132.615 125.301 132.945 125.69C133.421 126.248 133.873 126.742 134.238 127.165C135.604 128.751 137.513 130.19 137.251 133.003C137.009 135.608 134.757 137.001 133.253 138.41C131.188 140.345 129.008 142.335 126.918 144.31C125.449 145.698 124.092 147.336 121.875 147.813ZM116.278 99.2675C116.735 100.573 116.872 102.345 117.138 104.061C117.798 108.305 118.378 112.124 119.045 116.351C119.283 117.865 119.594 119.574 117.937 119.546C116.38 119.52 116.433 116.652 116.215 115.244C115.641 111.52 115.115 108.51 114.554 104.859C114.324 103.358 114.201 100.862 113.633 99.7593C112.457 97.4854 109.019 97.6498 107.912 99.7593C107.472 100.595 107.604 101.934 107.604 103.507C107.604 109.387 107.604 115.3 107.604 120.898C107.604 123.203 107.338 125.475 107.604 127.842C107.813 129.698 108.958 130.871 109.88 132.022C113.041 135.962 116.007 139.585 119.229 143.635C119.779 144.327 120.28 145.12 121.198 145.171C122.1 145.222 122.69 144.624 123.35 144.004C126.213 141.309 128.873 138.847 131.715 136.261C132.634 135.425 134.45 134.128 134.605 132.697C134.72 131.65 134.074 131.094 133.499 130.423C132.385 129.124 131.567 128.115 130.484 126.858C130.057 126.361 129.176 125.572 129.07 124.952C128.817 123.491 129.07 121.576 129.07 119.791C129.07 114.481 129.07 109.255 129.07 104.121C129.07 100.114 128.739 97.8553 127.47 95.3341C122.297 85.0566 116.862 74.5601 111.724 64.1789C111.084 62.8852 110.44 60.5493 108.833 60.6147C107.384 60.6733 107.603 62.2539 107.603 63.749C107.603 66.3113 107.76 68.9167 108.095 70.6927C109.669 79.0251 111.454 88.0514 112.892 95.7646C114.469 96.5044 115.691 97.5898 116.278 99.2675Z" fill="#222F42"/>
<path fill-rule="evenodd" clip-rule="evenodd" d="M51.4487 79.6645C51.4487 79.4806 51.4487 79.2959 51.4487 79.1113C51.9687 77.528 54.5131 78.1411 56.5525 78.1896C59.0619 78.2496 61.9705 78.3675 64.4273 78.4356C66.3958 78.4901 68.9099 78.1162 68.916 79.9097C68.9241 81.7632 66.1645 81.1279 64.3653 81.0774C61.6711 81.0026 59.0167 80.8705 56.4297 80.8314C54.356 80.8004 51.8203 81.1522 51.4487 79.6645Z" fill="#D4B66E"/>
<path fill-rule="evenodd" clip-rule="evenodd" d="M154.905 79.1727C154.905 79.3155 154.905 79.4597 154.905 79.6025C154.515 81.1946 151.928 80.8011 149.922 80.8314C147.362 80.8705 144.52 81.0066 141.987 81.0774C140.024 81.1319 137.541 81.7451 137.435 79.9711C137.327 78.1304 139.635 78.5184 141.433 78.4349C144.338 78.2995 146.929 78.2651 149.676 78.189C151.598 78.1364 154.594 77.5273 154.905 79.1727Z" fill="#D4B66E"/>
</svg>
