<svg xmlns="http://www.w3.org/2000/svg" width="21" height="21" viewBox="0 0 21 21" fill="none">
  <path d="M21 20.2472C20.9969 18.0094 20.2763 15.8313 18.9433 14.031C17.6103 12.2308 15.7349 10.9029 13.5911 10.2413C14.5948 9.57896 15.3578 8.61181 15.767 7.48316C16.1762 6.35452 16.2099 5.12442 15.8631 3.97517C15.5163 2.82592 14.8075 1.81866 13.8416 1.10266C12.8757 0.386653 11.7042 0 10.5007 0C9.29712 0 8.12562 0.386653 7.15973 1.10266C6.19384 1.81866 5.48498 2.82592 5.13817 3.97517C4.79137 5.12442 4.82507 6.35452 5.2343 7.48316C5.64353 8.61181 6.40651 9.57896 7.41018 10.2413C5.26641 10.9029 3.39101 12.2308 2.05803 14.031C0.72505 15.8313 0.00437215 18.0094 0.00130587 20.2472C-0.000435291 20.2756 -0.000435291 20.304 0.00130587 20.3324C0.0120085 20.5179 0.0953739 20.6917 0.233435 20.8165C0.371497 20.9413 0.553194 21.007 0.739369 20.9994C0.925543 20.9918 1.10128 20.9116 1.22871 20.7761C1.35613 20.6405 1.42504 20.4604 1.42058 20.2747V19.5485C1.59222 17.2655 2.62284 15.1315 4.30587 13.5743C5.98889 12.0171 8.19995 11.1517 10.4958 11.1517C12.7917 11.1517 15.0028 12.0171 16.6858 13.5743C18.3688 15.1315 19.3994 17.2655 19.5711 19.5485L19.5931 20.2637C19.5931 20.4492 19.667 20.6271 19.7985 20.7583C19.9301 20.8894 20.1085 20.9631 20.2945 20.9631C20.4805 20.9631 20.6589 20.8894 20.7904 20.7583C20.922 20.6271 20.9959 20.4492 20.9959 20.2637C20.9959 20.2637 20.9959 20.2637 20.9959 20.2555C20.9959 20.2472 21 20.25 21 20.2472ZM10.4993 9.77455C9.52757 9.7748 8.58584 9.43904 7.83455 8.82451C7.08326 8.20997 6.56889 7.35467 6.3791 6.40435C6.18931 5.45402 6.33582 4.46747 6.79369 3.6128C7.25156 2.75813 7.99245 2.08821 8.89011 1.71721C9.78778 1.3462 10.7867 1.29706 11.7166 1.57815C12.6465 1.85924 13.4499 2.45318 13.9899 3.25876C14.53 4.06433 14.7732 5.0317 14.6781 5.99604C14.583 6.96038 14.1556 7.86202 13.4686 8.54732C12.6809 9.33245 11.613 9.77382 10.4993 9.77455Z" fill="#D5B76E"/>
</svg>