<svg xmlns="http://www.w3.org/2000/svg" width="57" height="58" viewBox="0 0 57 58" fill="none">
  <path fill-rule="evenodd" clip-rule="evenodd" d="M56.5886 52.2189C56.5616 52.2065 53.8285 51.0027 53.7456 48.3386C53.7456 48.1479 53.5901 48 53.4 48H53.3993H53.3987C53.2121 48 53.0607 48.1541 53.0538 48.34C53.0538 48.3441 53.0531 48.349 53.0531 48.3538C52.9702 51.0034 50.237 52.2072 50.2101 52.2196C50.0822 52.2742 50 52.3993 50 52.5382C50.0007 52.6757 50.0829 52.8015 50.2101 52.8554C50.2377 52.8679 52.9702 54.0606 53.0531 56.7337C53.0531 56.9244 53.2086 57.073 53.3987 57.073H53.3993H53.4C53.5866 57.073 53.7373 56.9189 53.7449 56.7344C53.7449 56.7288 53.7456 56.7247 53.7456 56.7198C53.8285 54.0717 56.561 52.8679 56.5886 52.8554C56.7158 52.8008 56.798 52.6757 56.798 52.5375C56.798 52.3993 56.7151 52.2735 56.5886 52.2189ZM53.4 55.0965C52.8486 53.7766 51.7629 52.9494 51.0808 52.5361C51.7608 52.1229 52.8423 51.2957 53.3952 49.9688C53.946 51.2929 55.0337 52.1229 55.7165 52.5368C55.0358 52.9494 53.9522 53.7766 53.4 55.0965Z" fill="#222F42"/>
  <path fill-rule="evenodd" clip-rule="evenodd" d="M0.209399 4.86163C0.237041 4.87338 2.9695 6.07721 3.05312 8.73988C3.05312 8.93061 3.20792 9.07919 3.39865 9.07919H3.39935C3.57971 9.07919 3.72692 8.93545 3.74281 8.75923C3.74419 8.74817 3.74488 8.73712 3.74557 8.72606C3.82781 6.07721 6.56096 4.87338 6.5886 4.86163C6.71575 4.80704 6.798 4.68196 6.798 4.54374C6.798 4.40553 6.71575 4.28045 6.5886 4.22655C6.56096 4.21411 3.82781 3.00958 3.74557 0.345532C3.74557 0.280572 3.7276 0.220448 3.6965 0.170001C3.63638 0.0684142 3.52581 0 3.39865 0C3.20792 0 3.05312 0.154798 3.05312 0.345532V0.358663C3.05312 0.360736 3.05312 0.362118 3.05312 0.364191C2.96743 3.01096 0.23635 4.21411 0.209399 4.22655C0.0822428 4.28114 0 4.40622 0 4.54374C0 4.68127 0.0829339 4.80635 0.209399 4.86163ZM3.39589 1.97644C3.94667 3.30052 5.03441 4.1298 5.71718 4.54374C5.03648 4.95631 3.9522 5.78282 3.40004 7.10413C2.84857 5.78351 1.7629 4.95631 1.08082 4.54374C1.76083 4.1298 2.84165 3.30259 3.39589 1.97644Z" fill="#222F42"/>
  <path d="M4.40528 34.1282L2.99609 34.4552C4.10148 39.2066 6.51768 43.5527 9.98719 47.0225C13.4567 50.4923 17.8002 52.9082 22.5545 54.0136L22.8815 52.6044C13.7751 50.4862 6.5202 43.2346 4.40528 34.1282Z" fill="#222F42"/>
  <path d="M34.1289 52.601L34.4559 54.0102C39.2073 52.9048 43.5534 50.4886 47.0232 47.0191C50.493 43.5496 52.9089 39.2061 54.0143 34.4518L52.6051 34.1248C50.4869 43.2342 43.2353 50.4861 34.1289 52.601Z" fill="#222F42"/>
  <path d="M52.6017 22.8772L54.0109 22.5503C52.9055 17.7988 50.4893 13.4528 47.0198 9.98295C43.5503 6.51314 39.2068 4.09724 34.4525 2.99185L34.1255 4.40103C43.2348 6.51922 50.4868 13.7738 52.6017 22.8772Z" fill="#222F42"/>
  <path d="M22.8781 4.40445L22.5511 2.99527C17.7997 4.10066 13.4536 6.51686 9.98377 9.98637C6.51397 13.4559 4.09807 17.7994 2.99268 22.5537L4.40186 22.8807C6.52004 13.7743 13.7746 6.51938 22.8781 4.40445Z" fill="#222F42"/>
  <path d="M56.459 27.8027L37.8062 23.141L42.2219 15.7824C42.3927 15.4988 42.3493 15.1342 42.112 14.8969C41.8776 14.6625 41.513 14.6191 41.2265 14.787L33.8679 19.2027L29.2062 0.546902C29.1252 0.225708 28.8358 0 28.5059 0C28.1732 0 27.8838 0.225708 27.8057 0.546902L23.1439 19.1997L15.7853 14.784C15.5018 14.6133 15.1372 14.6567 14.8999 14.894C14.6655 15.1284 14.6221 15.4929 14.7899 15.7794L19.2056 23.138L0.546902 27.8026C0.225708 27.8836 0 28.173 0 28.5029C0 28.8357 0.225708 29.125 0.546902 29.2032L19.1997 33.8649L14.784 41.2235C14.6133 41.507 14.6567 41.8717 14.894 42.1089C15.0329 42.2478 15.2181 42.3202 15.4061 42.3202C15.5335 42.3202 15.6608 42.2854 15.7765 42.216L23.1351 37.8003L27.7969 56.4531C27.8779 56.7743 28.1672 57 28.4971 57C28.8299 57 29.1193 56.7743 29.1974 56.4531L33.8591 37.8003L41.2177 42.216C41.3335 42.2854 41.4608 42.3202 41.5881 42.3202C41.7762 42.3202 41.9614 42.2478 42.1003 42.1089C42.3347 41.8745 42.3781 41.5099 42.2102 41.2235L37.7945 33.8649L56.4473 29.2032C56.7685 29.1221 56.9942 28.8328 56.9942 28.5029C57.0029 28.1701 56.7802 27.8808 56.459 27.8027ZM31.5215 30.9857C31.4404 31.0841 31.3565 31.1767 31.2668 31.2664C31.1771 31.3561 31.0816 31.4401 30.9861 31.5211C30.2887 32.0969 29.4206 32.4094 28.5033 32.4094C27.8609 32.4094 27.2417 32.2532 26.689 31.9638C26.3447 31.7815 26.0235 31.5471 25.7399 31.2664C25.6502 31.1767 25.5663 31.0812 25.4853 30.9857C24.9094 30.2884 24.5969 29.4202 24.5969 28.5029C24.5969 27.8605 24.7532 27.2413 25.0426 26.6886C25.2249 26.3443 25.4593 26.0231 25.7399 25.7395C26.0235 25.456 26.3418 25.2216 26.689 25.0422C27.2417 24.7528 27.8609 24.5965 28.5033 24.5965C29.4206 24.5965 30.2888 24.9091 30.9861 25.4849C31.0845 25.5659 31.1771 25.6498 31.2668 25.7395C31.5504 26.0231 31.7848 26.3414 31.9642 26.6886C32.2536 27.2413 32.4098 27.8605 32.4098 28.5029C32.4098 29.4202 32.0973 30.2884 31.5215 30.9857ZM39.4878 17.5184L36.3337 22.7733L34.6525 22.3537L34.2329 20.6725L39.4878 17.5184ZM28.5035 3.70657L33.2578 22.7238L31.7415 24.2401C31.73 24.2344 31.7213 24.2257 31.7126 24.217C31.7068 24.2141 31.701 24.2083 31.6952 24.2054C31.6547 24.1765 31.6142 24.1447 31.5737 24.1157C31.5563 24.1041 31.539 24.0926 31.5216 24.081C31.4985 24.0636 31.4753 24.0463 31.4493 24.0318C31.4377 24.0231 31.4232 24.0144 31.4088 24.0058C31.3972 23.9971 31.3827 23.9884 31.3711 23.9826C31.3654 23.9797 31.3625 23.9768 31.3596 23.9739C31.348 23.9681 31.3364 23.9624 31.3277 23.9537C31.267 23.9161 31.2062 23.8784 31.1454 23.8437C31.1426 23.8408 31.1397 23.8379 31.1339 23.8379C31.1252 23.8321 31.1165 23.8292 31.1107 23.8263C31.0644 23.8003 31.0152 23.7743 30.9689 23.7482C30.9602 23.7424 30.9516 23.7395 30.9429 23.7366C30.8908 23.7106 30.8416 23.6846 30.7924 23.6614H30.7895C30.749 23.6441 30.7114 23.6238 30.6709 23.6064C30.6651 23.6035 30.6622 23.6035 30.6593 23.6006C30.6333 23.5891 30.6072 23.5775 30.5841 23.5659C30.5725 23.5601 30.5638 23.5572 30.5551 23.5543C30.5146 23.537 30.477 23.5225 30.4365 23.508C30.4191 23.5023 30.4047 23.4965 30.3873 23.4907C30.3584 23.4791 30.3294 23.4675 30.3005 23.4589C30.286 23.4531 30.2716 23.4473 30.2542 23.4415C30.2368 23.4357 30.2166 23.4299 30.1992 23.4241C30.1963 23.4241 30.1934 23.4241 30.1934 23.4212C30.1876 23.4183 30.1819 23.4183 30.1761 23.4154C30.1066 23.3923 30.0372 23.372 29.9648 23.3518C29.9388 23.346 29.9127 23.3373 29.8867 23.3315C29.8346 23.3171 29.7825 23.3055 29.7304 23.291C29.7102 23.2852 29.6899 23.2794 29.6726 23.2766C29.6494 23.2708 29.6263 23.2679 29.606 23.2621C29.6002 23.2621 29.5944 23.2592 29.5886 23.2592C29.5771 23.2563 29.5684 23.2534 29.5597 23.2534C29.5192 23.2447 29.4816 23.2389 29.444 23.2332C29.4208 23.2274 29.3977 23.2245 29.3745 23.2216C29.3166 23.2129 29.2588 23.2042 29.198 23.1955C29.1806 23.1926 29.1662 23.1897 29.1488 23.1897C29.1112 23.184 29.0765 23.1811 29.0388 23.1782C29.0157 23.1753 28.9925 23.1724 28.9665 23.1724C28.9578 23.1724 28.9491 23.1724 28.9405 23.1695C28.9144 23.1666 28.8884 23.1637 28.8652 23.1637C28.8305 23.1608 28.7958 23.1579 28.7639 23.1579H28.7437H28.7032H28.6945C28.6714 23.1579 28.6482 23.155 28.6222 23.155H28.5122H28.4022C28.3791 23.155 28.353 23.155 28.327 23.1579H28.3183H28.2778H28.2604C28.2257 23.1579 28.191 23.1608 28.1563 23.1637C28.1302 23.1637 28.1042 23.1666 28.0781 23.1695C28.0695 23.1695 28.0608 23.1695 28.055 23.1724C28.0319 23.1753 28.0058 23.1753 27.9798 23.1782C27.945 23.1811 27.9103 23.184 27.8756 23.1897C27.8467 23.1926 27.8206 23.1955 27.7946 23.2013C27.7454 23.2071 27.6962 23.2129 27.6499 23.2216C27.6238 23.2274 27.5978 23.2303 27.5747 23.236C27.5399 23.2418 27.5023 23.2476 27.4647 23.2563C27.456 23.2563 27.4473 23.2592 27.4387 23.2621C27.4271 23.265 27.4184 23.2679 27.4068 23.2679C27.3837 23.2737 27.3576 23.2766 27.3345 23.2823C27.3113 23.2881 27.2911 23.2939 27.2679 23.2997L27.1638 23.3257C27.129 23.3344 27.0972 23.3431 27.0625 23.3547C27.0191 23.3663 26.9757 23.3778 26.9352 23.3923C26.9236 23.3952 26.912 23.3981 26.9004 23.4039C26.8715 23.4126 26.8426 23.4212 26.8165 23.4328C26.7442 23.456 26.6718 23.482 26.5966 23.5109H26.5937C26.559 23.5225 26.5271 23.537 26.4924 23.5515C26.4722 23.5601 26.4519 23.5688 26.4317 23.5775C26.4201 23.5833 26.4114 23.5862 26.4027 23.592C26.3969 23.5949 26.3911 23.5978 26.3854 23.6006C26.3767 23.6035 26.368 23.6064 26.3622 23.6122C26.3391 23.6238 26.3159 23.6325 26.2928 23.6441C26.258 23.6614 26.2204 23.6759 26.1828 23.6932C26.1539 23.7048 26.1278 23.7222 26.1018 23.7338C26.067 23.7511 26.0323 23.7685 25.9976 23.7858H25.9947C25.9571 23.8061 25.9195 23.8264 25.879 23.8495C25.8674 23.8553 25.8529 23.864 25.8413 23.8727C25.824 23.8813 25.8066 23.89 25.7922 23.9016C25.7835 23.9074 25.7748 23.9132 25.7661 23.9161C25.7285 23.9392 25.6909 23.9624 25.6561 23.9855C25.6533 23.9884 25.6504 23.9913 25.6446 23.9913C25.633 23.9971 25.6214 24.0058 25.6098 24.0144C25.5983 24.0231 25.5838 24.0318 25.5722 24.0405C25.5317 24.0665 25.497 24.0926 25.4565 24.1186C25.4536 24.1215 25.4507 24.1215 25.4478 24.1244C25.4275 24.1389 25.4073 24.1533 25.3841 24.1678C25.361 24.1852 25.3378 24.1996 25.3176 24.217C25.3118 24.2228 25.3031 24.2286 25.2944 24.2344C25.2858 24.2401 25.2771 24.2459 25.2713 24.2517L23.755 22.7354L28.5035 3.70657ZM22.7712 20.6689L22.3516 22.3501L20.6704 22.7697L17.5163 17.5148L22.7712 20.6689ZM22.7249 23.7477L24.2412 25.264C24.2354 25.2727 24.2296 25.2814 24.2238 25.2872C24.218 25.293 24.2122 25.3017 24.2064 25.3103C24.1891 25.3335 24.1746 25.3538 24.1572 25.3769C24.1428 25.3972 24.1283 25.4174 24.1138 25.4406C24.1109 25.4435 24.1109 25.4463 24.108 25.4492C24.082 25.4869 24.056 25.5245 24.0299 25.565C24.0212 25.5766 24.0126 25.591 24.0039 25.6026C23.9981 25.6142 23.9894 25.6258 23.9807 25.6373C23.9778 25.6402 23.9749 25.6431 23.9749 25.6489C23.9518 25.6865 23.9286 25.7241 23.9055 25.7589C23.8997 25.7675 23.8939 25.7762 23.891 25.7849C23.8823 25.8023 23.8737 25.8167 23.8621 25.8341C23.8563 25.8457 23.8476 25.8601 23.8389 25.8717C23.8158 25.9093 23.7955 25.947 23.7753 25.9875V25.9904C23.7579 26.0251 23.7405 26.0598 23.7232 26.0945C23.7087 26.1206 23.6942 26.1495 23.6827 26.1756C23.6653 26.2103 23.6479 26.2479 23.6335 26.2855C23.6219 26.3087 23.6103 26.3318 23.6017 26.355C23.5988 26.3636 23.5959 26.3723 23.5901 26.3781C23.5872 26.3839 23.5843 26.3897 23.5814 26.3955C23.5756 26.4071 23.5727 26.4157 23.5698 26.4244C23.5611 26.4447 23.5525 26.4649 23.5438 26.4852C23.5293 26.5199 23.5177 26.5517 23.5033 26.5865V26.5894C23.4743 26.6617 23.4512 26.734 23.4251 26.8093C23.4165 26.8382 23.4078 26.8643 23.3962 26.8932C23.3933 26.9048 23.3904 26.9163 23.3846 26.9279C23.3731 26.9713 23.3586 27.0147 23.347 27.0552C23.3383 27.09 23.3296 27.1218 23.321 27.1536C23.3123 27.1883 23.3036 27.2231 23.2949 27.2578C23.2891 27.2809 23.2833 27.3012 23.2776 27.3215C23.2718 27.3446 23.266 27.3678 23.2631 27.3938C23.2602 27.4054 23.2573 27.4141 23.2573 27.4256C23.2573 27.4343 23.2544 27.443 23.2515 27.4517C23.2457 27.4864 23.2399 27.524 23.2313 27.5616C23.2255 27.5877 23.2226 27.6137 23.2168 27.6398C23.2081 27.6861 23.2023 27.7353 23.1965 27.7844C23.1936 27.8134 23.1879 27.8423 23.185 27.8684C23.1792 27.9031 23.1763 27.9378 23.1734 27.9725C23.1705 27.9957 23.1676 28.0217 23.1676 28.0478C23.1676 28.0564 23.1676 28.0651 23.1647 28.0709C23.1618 28.097 23.1589 28.123 23.1589 28.149C23.156 28.1838 23.1531 28.2185 23.1531 28.2532V28.2706V28.3111V28.3198C23.1531 28.3429 23.1502 28.369 23.1502 28.395V28.505V28.6149C23.1502 28.6381 23.1502 28.6612 23.1531 28.6873V28.6959V28.7365V28.7567C23.1531 28.7914 23.156 28.8262 23.1589 28.858C23.1589 28.884 23.1618 28.9101 23.1647 28.9332C23.1647 28.9419 23.1647 28.9506 23.1676 28.9593C23.1705 28.9824 23.1705 29.0056 23.1734 29.0316C23.1763 29.0692 23.1821 29.1039 23.185 29.1416C23.1879 29.1589 23.1908 29.1763 23.1908 29.1936C23.1965 29.2515 23.2052 29.3094 23.2139 29.3673C23.2168 29.3904 23.2226 29.4136 23.2255 29.4367C23.2313 29.4743 23.237 29.512 23.2457 29.5525C23.2486 29.564 23.2515 29.5727 23.2515 29.5814C23.2515 29.5872 23.2544 29.593 23.2544 29.5988C23.2602 29.6219 23.2631 29.6451 23.2689 29.6653C23.2747 29.6856 23.2805 29.7058 23.2833 29.7232C23.2949 29.7753 23.3094 29.8274 23.3239 29.8795C23.3296 29.9055 23.3383 29.9315 23.3441 29.9576C23.3644 30.027 23.3846 30.0994 23.4078 30.1688C23.4107 30.1746 23.4107 30.1804 23.4136 30.1862C23.4136 30.1891 23.4136 30.192 23.4165 30.192C23.4222 30.2093 23.428 30.2296 23.4338 30.247C23.4396 30.2614 23.4454 30.2759 23.4512 30.2933C23.4628 30.3222 23.4743 30.3511 23.483 30.3801C23.4888 30.3974 23.4946 30.4119 23.5004 30.4293C23.5148 30.4698 23.5322 30.5074 23.5467 30.5479C23.5525 30.5595 23.5554 30.571 23.5611 30.5826C23.5698 30.6058 23.5785 30.626 23.5901 30.6463C23.6103 30.6926 23.6306 30.7389 23.6537 30.7852V30.7881C23.6769 30.8402 23.7029 30.8894 23.729 30.9385C23.7348 30.9472 23.7376 30.9559 23.7405 30.9646C23.7637 31.0109 23.7926 31.0601 23.8187 31.1064C23.8245 31.1151 23.8274 31.1237 23.8331 31.1295C23.836 31.1324 23.8389 31.1353 23.8389 31.1411C23.8737 31.2019 23.9084 31.2626 23.9489 31.3234C23.9547 31.335 23.9605 31.3465 23.9691 31.3552C23.972 31.361 23.9749 31.3639 23.9778 31.3668C23.9865 31.3784 23.9952 31.3928 24.001 31.4044C24.0097 31.416 24.0183 31.4305 24.027 31.4449C24.0444 31.4681 24.0588 31.4941 24.0762 31.5173C24.0878 31.5346 24.0994 31.552 24.1109 31.5694C24.1399 31.6099 24.1688 31.6504 24.2006 31.6909C24.2035 31.6967 24.2093 31.7025 24.2122 31.7054C24.218 31.7169 24.2267 31.7256 24.2354 31.7343L22.7191 33.2506L3.70772 28.5021L22.7249 23.7477ZM17.5192 39.4863L20.6733 34.2314L22.3545 34.651L22.774 36.3322L17.5192 39.4863ZM28.5034 53.2982L23.7491 34.2809L25.2654 32.7646C25.2741 32.7704 25.2828 32.7762 25.2886 32.7819C25.2944 32.7877 25.303 32.7935 25.3117 32.7993C25.3349 32.8167 25.3551 32.8311 25.3783 32.8485C25.3985 32.863 25.4188 32.8774 25.4419 32.8919C25.4448 32.8948 25.4477 32.8948 25.4506 32.8977C25.4882 32.9237 25.5259 32.9498 25.5664 32.9758C25.5779 32.9845 25.5924 32.9932 25.604 33.0019C25.6156 33.0077 25.6271 33.0163 25.6387 33.025C25.6416 33.0279 25.6445 33.0308 25.6503 33.0308C25.6879 33.0539 25.7255 33.0771 25.7602 33.1002C25.7689 33.106 25.7776 33.1118 25.7863 33.1147C25.8037 33.1234 25.8181 33.135 25.8355 33.1437C25.8471 33.1494 25.8615 33.1581 25.8731 33.1668C25.9107 33.1899 25.9483 33.2102 25.9888 33.2305H25.9917C26.0265 33.2478 26.0641 33.2681 26.0988 33.2854C26.1248 33.297 26.1509 33.3115 26.1769 33.326C26.2146 33.3433 26.2522 33.3607 26.2898 33.378C26.3129 33.3896 26.3332 33.3983 26.3534 33.407C26.3592 33.4099 26.3679 33.4128 26.3766 33.4186C26.3824 33.4214 26.3911 33.4243 26.3969 33.4272C26.4084 33.433 26.4171 33.4359 26.4258 33.4388L26.4866 33.4649C26.5213 33.4793 26.5531 33.4909 26.5878 33.5054H26.5907C26.6631 33.5343 26.7354 33.5574 26.8106 33.5835C26.8396 33.5922 26.8656 33.6009 26.8946 33.6124C26.9061 33.6153 26.9177 33.6182 26.9293 33.624C26.9727 33.6356 27.0161 33.65 27.0566 33.6616C27.0913 33.6703 27.1232 33.679 27.155 33.6877C27.1897 33.6963 27.2244 33.705 27.2592 33.7137C27.2823 33.7195 27.3026 33.7253 27.3228 33.7311C27.346 33.7369 27.3691 33.7426 27.3952 33.7455C27.4067 33.7484 27.4154 33.7513 27.427 33.7513C27.4357 33.7513 27.4444 33.7542 27.453 33.7571C27.4878 33.7629 27.5254 33.7687 27.563 33.7774C27.589 33.7832 27.6151 33.7889 27.6411 33.7918C27.6874 33.8005 27.7366 33.8063 27.7858 33.8121C27.8147 33.815 27.8437 33.8208 27.8697 33.8237C27.9045 33.8295 27.9392 33.8323 27.9739 33.8352C27.997 33.8381 28.0231 33.841 28.0491 33.841C28.0578 33.841 28.0665 33.841 28.0723 33.8439C28.0983 33.8468 28.1244 33.8497 28.1504 33.8497C28.1851 33.8526 28.2199 33.8555 28.2546 33.8555H28.2719H28.3125H28.3211C28.3443 33.8555 28.3703 33.8584 28.3964 33.8584H28.5063H28.6163C28.6394 33.8584 28.6626 33.8584 28.6886 33.8555H28.6973H28.7378H28.7581C28.7928 33.8555 28.8275 33.8526 28.8594 33.8497C28.8854 33.8497 28.9114 33.8468 28.9346 33.8439C28.9433 33.8439 28.952 33.8439 28.9606 33.841C28.9838 33.8381 29.0069 33.8381 29.033 33.8352C29.0706 33.8323 29.1053 33.8266 29.1429 33.8237C29.1603 33.8208 29.1777 33.8179 29.195 33.8179C29.2529 33.8121 29.3108 33.8034 29.3686 33.7947C29.3918 33.7918 29.4149 33.786 29.4381 33.7832C29.4757 33.7774 29.5133 33.7716 29.5538 33.7629C29.5654 33.76 29.5741 33.7571 29.5828 33.7571C29.5886 33.7571 29.5944 33.7542 29.6001 33.7542C29.6233 33.7484 29.6464 33.7455 29.6667 33.7397C29.6869 33.734 29.7072 33.7282 29.7246 33.7253C29.7767 33.7137 29.8287 33.6992 29.8808 33.6848C29.9069 33.679 29.9329 33.6703 29.959 33.6645C30.0284 33.6443 30.1008 33.624 30.1702 33.6009C30.176 33.598 30.1818 33.598 30.1876 33.5951C30.1905 33.5951 30.1933 33.5951 30.1933 33.5922C30.2107 33.5864 30.231 33.5806 30.2483 33.5748C30.2628 33.569 30.2773 33.5632 30.2946 33.5574C30.3236 33.5459 30.3525 33.5343 30.3814 33.5256C30.3988 33.5198 30.4133 33.514 30.4306 33.5083C30.4711 33.4938 30.5088 33.4764 30.5493 33.462C30.5608 33.4562 30.5724 33.4533 30.584 33.4475C30.6071 33.4388 30.6274 33.4301 30.6477 33.4186C30.694 33.3983 30.7403 33.378 30.7866 33.3549H30.7894C30.8415 33.3317 30.8907 33.3057 30.9399 33.2797C30.9486 33.2739 30.9573 33.271 30.966 33.2681C31.0123 33.2449 31.0615 33.216 31.1078 33.19C31.1164 33.1842 31.1251 33.1813 31.1309 33.1784C31.1338 33.1755 31.1367 33.1726 31.1425 33.1726C31.2032 33.1379 31.264 33.1031 31.3248 33.0626C31.3363 33.0568 31.3479 33.0511 31.3566 33.0424C31.3624 33.0395 31.3653 33.0366 31.3682 33.0337C31.3798 33.025 31.3942 33.0163 31.4058 33.0105C31.4174 33.0019 31.4318 32.9932 31.4463 32.9845C31.4695 32.9671 31.4926 32.9527 31.5186 32.9353C31.536 32.9237 31.5534 32.9122 31.5707 32.9006C31.6112 32.8716 31.6518 32.8427 31.6923 32.8109C31.6981 32.808 31.7038 32.8022 31.7096 32.7993C31.7212 32.7935 31.7299 32.7848 31.7386 32.7762L33.2549 34.2925L28.5034 53.2982ZM34.2358 36.3358L34.6554 34.6546L36.3366 34.235L39.4907 39.49L34.2358 36.3358ZM34.2821 33.257L32.7658 31.7407C32.7716 31.7291 32.7803 31.7204 32.789 31.7117C32.7919 31.706 32.7976 31.7002 32.8005 31.6973C32.8295 31.6568 32.8613 31.6162 32.8902 31.5757C32.9018 31.5584 32.9134 31.541 32.925 31.5237C32.9423 31.5005 32.9597 31.4774 32.9742 31.4513C32.9828 31.4397 32.9915 31.4253 33.0002 31.4108C33.0089 31.3992 33.0176 31.3848 33.0233 31.3732C33.0262 31.3674 33.0291 31.3645 33.032 31.3616C33.0378 31.35 33.0436 31.3385 33.0523 31.3298C33.0899 31.269 33.1275 31.2082 33.1622 31.1475C33.1651 31.1446 33.168 31.1417 33.168 31.1359C33.1738 31.1272 33.1767 31.1185 33.1825 31.1128C33.2085 31.0665 33.2346 31.0173 33.2606 30.971C33.2664 30.9623 33.2693 30.9536 33.2722 30.9449C33.2982 30.8928 33.3243 30.8436 33.3474 30.7945V30.7916C33.3706 30.7453 33.3908 30.699 33.4111 30.6527C33.4198 30.6295 33.4285 30.6093 33.44 30.589C33.4458 30.5774 33.4487 30.5659 33.4545 30.5543C33.4719 30.5138 33.4863 30.4761 33.5008 30.4356C33.5066 30.4183 33.5124 30.4038 33.5182 30.3864C33.5297 30.3575 33.5413 30.3286 33.55 30.2996C33.5558 30.2852 33.5616 30.2707 33.5674 30.2533C33.5731 30.236 33.5789 30.2157 33.5847 30.1984C33.5847 30.1955 33.5847 30.1926 33.5876 30.1926C33.5905 30.1868 33.5905 30.181 33.5934 30.1752C33.6166 30.1058 33.6368 30.0363 33.6571 29.964C33.6628 29.9379 33.6715 29.9119 33.6773 29.8858C33.6918 29.8337 33.7034 29.7817 33.7178 29.7296C33.7236 29.7093 33.7294 29.6891 33.7323 29.6717C33.7381 29.6486 33.741 29.6254 33.7468 29.6051C33.7468 29.5994 33.7497 29.5936 33.7497 29.5878C33.7526 29.5762 33.7554 29.5675 33.7554 29.5588C33.7612 29.5212 33.7699 29.4836 33.7757 29.4431C33.7815 29.42 33.7844 29.3968 33.7873 29.3737C33.796 29.3158 33.8046 29.2579 33.8104 29.2C33.8133 29.1827 33.8162 29.1653 33.8162 29.1479C33.822 29.1103 33.8249 29.0756 33.8278 29.038C33.8307 29.0148 33.8336 28.9917 33.8336 28.9656C33.8336 28.957 33.8336 28.9483 33.8365 28.9396C33.8394 28.9136 33.8423 28.8875 33.8423 28.8644C33.8451 28.8296 33.848 28.7949 33.848 28.7631V28.7428V28.7023V28.6936C33.848 28.6705 33.8509 28.6473 33.8509 28.6213V28.5113V28.4014C33.8509 28.3782 33.8509 28.3522 33.848 28.3261V28.3175V28.2769V28.2596C33.848 28.2249 33.8451 28.1901 33.8423 28.1554C33.8423 28.1294 33.8394 28.1033 33.8365 28.0773C33.8365 28.0686 33.8365 28.0599 33.8336 28.0541C33.8307 28.031 33.8307 28.0049 33.8278 27.9789C33.8249 27.9442 33.822 27.9095 33.8162 27.8747C33.8133 27.8458 33.8104 27.8169 33.8046 27.7908C33.7989 27.7445 33.7931 27.6953 33.7844 27.6461C33.7786 27.6201 33.7757 27.5941 33.7699 27.568C33.7641 27.5333 33.7583 27.4957 33.7497 27.458C33.7497 27.4494 33.7468 27.4407 33.7439 27.432C33.741 27.4204 33.7381 27.4118 33.7381 27.4002C33.7323 27.377 33.7294 27.351 33.7236 27.3278C33.7178 27.3047 33.712 27.2844 33.7063 27.2642C33.6976 27.2294 33.6889 27.1947 33.6802 27.16C33.6715 27.1253 33.6628 27.0935 33.6542 27.0616C33.6426 27.0182 33.631 26.9748 33.6166 26.9343C33.6137 26.9227 33.6108 26.9111 33.605 26.8996C33.5963 26.8706 33.5876 26.8417 33.576 26.8157C33.5529 26.7433 33.5268 26.671 33.4979 26.5957V26.5928C33.4863 26.5581 33.4719 26.5263 33.4574 26.4916C33.4487 26.4713 33.44 26.451 33.4314 26.4308C33.4256 26.4192 33.4227 26.4105 33.4198 26.4019C33.4169 26.3961 33.414 26.3903 33.4111 26.3845C33.4082 26.3758 33.4053 26.3671 33.3995 26.3613C33.3879 26.3382 33.3793 26.315 33.3677 26.2919C33.3503 26.2572 33.3359 26.2196 33.3185 26.1819C33.3069 26.153 33.2896 26.127 33.278 26.1009C33.2606 26.0662 33.2433 26.0315 33.2259 25.9967V25.9938C33.2056 25.9562 33.1854 25.9186 33.1622 25.8781C33.1565 25.8665 33.1478 25.8521 33.1391 25.8405C33.1304 25.8231 33.1217 25.8087 33.1102 25.7913C33.1044 25.7826 33.0986 25.7739 33.0957 25.7653C33.0725 25.7276 33.0494 25.69 33.0262 25.6553C33.0233 25.6524 33.0205 25.6495 33.0205 25.6437C33.0147 25.6321 33.006 25.6206 32.9973 25.609C32.9886 25.5974 32.9799 25.5829 32.9713 25.5714C32.9452 25.5309 32.9192 25.4961 32.8931 25.4556C32.8902 25.4527 32.8902 25.4498 32.8873 25.4469C32.8729 25.4267 32.8584 25.4064 32.8439 25.3833C32.8266 25.3601 32.8121 25.337 32.7947 25.3167C32.789 25.3109 32.7832 25.3023 32.7774 25.2936C32.7716 25.2849 32.7658 25.2762 32.76 25.2704L34.2763 23.7541L53.2995 28.5027L34.2821 33.257Z" fill="#222F42"/>
  <path d="M29.2355 28.5027C29.2355 29.4779 27.7712 29.4779 27.7712 28.5027C27.7712 27.5276 29.2355 27.5276 29.2355 28.5027Z" fill="#222F42"/>
</svg>