<svg xmlns="http://www.w3.org/2000/svg" width="38" height="35" viewBox="0 0 38 35" fill="none">
  <path d="M31.0397 22.6871L27.5432 26.0231L25.9701 24.8227C25.638 24.5692 25.1635 24.6332 24.91 24.9653C24.6565 25.2971 24.7202 25.7719 25.0524 26.0251L27.139 27.6173C27.4346 27.8431 27.8504 27.8202 28.1199 27.5636L32.0841 23.7821C32.3865 23.4937 32.3976 23.015 32.1095 22.7126C31.8208 22.4102 31.3421 22.399 31.0397 22.6871Z" fill="#C6A148"/>
  <path d="M18.7548 17.5052H5.82198C5.3887 17.5052 5.03601 17.8579 5.03601 18.2912C5.03601 18.7247 5.38841 19.0771 5.82198 19.0771H18.7548C19.1883 19.0771 19.5407 18.7247 19.5407 18.2912C19.5407 17.8582 19.188 17.5052 18.7548 17.5052Z" fill="#C6A148"/>
  <path d="M15.8967 20.7316H5.82198C5.3887 20.7316 5.03601 21.0843 5.03601 21.5175C5.03601 21.9508 5.38841 22.3035 5.82198 22.3035H15.8967C16.3303 22.3035 16.6827 21.9508 16.6827 21.5175C16.6827 21.0843 16.33 20.7316 15.8967 20.7316Z" fill="#C6A148"/>
  <path d="M10.1805 23.9581H5.82198C5.3887 23.9581 5.03601 24.3105 5.03601 24.744C5.03601 25.1773 5.38841 25.53 5.82198 25.53H10.1805C10.6141 25.53 10.9665 25.1773 10.9665 24.744C10.9665 24.3108 10.6138 23.9581 10.1805 23.9581Z" fill="#C6A148"/>
  <path d="M5.66147 14.9995H12.8164C13.1611 14.9995 13.4414 14.7191 13.4414 14.3741C13.4414 14.0292 13.1611 13.7488 12.8164 13.7488H6.33398C6.63836 11.757 8.39407 10.2294 10.4313 10.2294C12.1007 10.2294 13.6 11.2231 14.2505 12.7605C14.3809 13.0694 14.7576 13.2246 15.0702 13.0932C15.3875 12.9591 15.5367 12.5916 15.4026 12.2735C14.8576 10.9853 13.8307 9.96071 12.5523 9.41482C13.2219 8.81434 13.6121 7.95492 13.6121 7.04891C13.6121 5.29491 12.1853 3.86787 10.4316 3.86787C8.67788 3.86787 7.25113 5.29491 7.25113 7.04891C7.25113 7.95663 7.6424 8.8172 8.31376 9.41768C6.33855 10.2625 5.03641 12.2086 5.03641 14.3739C5.03612 14.7188 5.31679 14.9995 5.66147 14.9995ZM10.4313 5.11857C11.4957 5.11857 12.3614 5.98456 12.3614 7.04891C12.3614 8.11326 11.4954 8.97897 10.4313 8.97897C9.36725 8.97897 8.50125 8.11326 8.50125 7.04891C8.50125 5.98456 9.36696 5.11857 10.4313 5.11857Z" fill="#C6A148"/>
  <path d="M36.9346 23.163L36.2973 22.4153C36.0909 22.1729 35.9663 21.8717 35.9409 21.5544L35.8626 20.5747C35.7445 19.0936 34.5684 17.9178 33.0877 17.7998L32.1082 17.7218C31.7907 17.6963 31.4894 17.5717 31.2474 17.3651L30.4994 16.7277C30.1682 16.4453 29.7906 16.2481 29.3945 16.1312V1.86375C29.3945 0.835986 28.5559 0 27.5256 0H2.67721C1.64945 0 0.813752 0.836272 0.813752 1.86375V6.41952C0.813752 6.42323 0.811462 6.42638 0.811462 6.43066C0.811462 6.43466 0.813752 6.43781 0.813752 6.44181V27.8608C0.813752 28.8883 1.64945 29.724 2.67721 29.724H21.2175C21.357 31.1821 22.5219 32.3345 23.9867 32.4511L24.9662 32.5294C25.2834 32.5549 25.5847 32.6795 25.827 32.8861L26.5747 33.5232C27.7056 34.4866 29.3688 34.4866 30.4994 33.5232L31.2474 32.8861C31.4894 32.6795 31.7904 32.5549 32.1082 32.5294L33.0877 32.4511C34.5684 32.3331 35.7445 31.1573 35.8626 29.6762L35.9409 28.6968C35.9663 28.3792 36.0909 28.0783 36.2973 27.8359L36.9346 27.088C37.8978 25.957 37.8978 24.2936 36.9346 23.163ZM2.67664 28.5802C2.27965 28.5802 1.95641 28.2569 1.95641 27.8602V7.80597V7.00199V5.85876V5.0908V1.86375C1.95641 1.46619 2.27965 1.14323 2.67664 1.14323H27.525C27.9248 1.14323 28.2507 1.46619 28.2507 1.86375V5.0908V5.85876V7.00199V7.80597V16.0195C27.6496 16.0764 27.0623 16.3116 26.5741 16.7277L25.8265 17.3651C25.5841 17.5717 25.2831 17.6963 24.9656 17.7218L23.9861 17.7998C22.5051 17.9178 21.329 19.0936 21.211 20.5747L21.1329 21.5544C21.1075 21.8714 20.9829 22.1729 20.7765 22.4153L20.1392 23.163C19.1757 24.2936 19.1757 25.957 20.1392 27.0874L20.7765 27.8353C20.9574 28.0474 21.0709 28.3058 21.1146 28.5799H2.67664V28.5802ZM35.7831 26.1065L35.1458 26.8542C34.7328 27.3386 34.4833 27.9411 34.4327 28.5756L34.3544 29.5553C34.2955 30.2959 33.7073 30.8835 32.9671 30.9429L31.9876 31.0207C31.3534 31.0715 30.7506 31.321 30.2662 31.7337L29.5182 32.3711C28.9526 32.853 28.1215 32.853 27.5562 32.3711L26.8082 31.7337C26.3238 31.321 25.7213 31.0715 25.0868 31.0207L24.1076 30.9429C23.4242 30.8883 22.8769 30.3819 22.7486 29.7231C22.7377 29.6674 22.7243 29.6125 22.7197 29.555L22.642 28.5799L22.6417 28.5753C22.5908 27.9405 22.3413 27.3383 21.9283 26.8539L21.2913 26.1062C20.8094 25.5409 20.8094 24.7092 21.2913 24.1439L21.9283 23.3962C22.3413 22.9115 22.5908 22.309 22.6417 21.6745L22.7197 20.6953C22.7789 19.9545 23.3668 19.3669 24.1073 19.3077L25.0865 19.2297C25.7213 19.1788 26.3235 18.9293 26.8079 18.5166L27.5559 17.8795C27.7611 17.7049 28.0014 17.5954 28.2512 17.5474C28.6422 17.472 29.0538 17.556 29.3945 17.7918C29.4362 17.8204 29.4791 17.8458 29.5182 17.8795L30.2662 18.5166C30.7506 18.9293 31.3537 19.1788 31.9876 19.2297L32.9671 19.3077C33.7076 19.3669 34.2955 19.9548 34.3544 20.6953L34.4327 21.6745C34.4833 22.3093 34.7328 22.9115 35.1458 23.3962L35.7831 24.1439C36.265 24.7095 36.265 25.5412 35.7831 26.1065Z" fill="#C6A148"/>
</svg>