<svg width="35" height="35" viewBox="0 0 35 35" fill="none" xmlns="http://www.w3.org/2000/svg">
<path d="M34.852 17.426C34.852 7.8021 27.0499 0 17.426 0C7.8021 0 0 7.8021 0 17.426C0 27.0499 7.8021 34.852 17.426 34.852C27.0499 34.852 34.852 27.0499 34.852 17.426ZM1.58418 17.426C1.58418 8.67657 8.67657 1.58418 17.426 1.58418C26.1755 1.58418 33.2678 8.67657 33.2678 17.426C33.2678 26.1755 26.1755 33.2678 17.426 33.2678C8.67657 33.2678 1.58418 26.1755 1.58418 17.426Z" fill="#707B8E"/>
<path fill-rule="evenodd" clip-rule="evenodd" d="M10 11C11.5711 11 13.1422 11 14.7133 11C15.8521 12.4141 16.8864 13.936 17.9817 15.3949C19.3187 13.9842 20.5123 12.4257 21.8349 11C22.5688 11 23.3028 11 24.0367 11C24.0785 11.1506 23.9144 11.2563 23.8303 11.3544C22.3015 13.1382 20.6477 15.0709 19.117 16.8835C21.0274 19.6174 23.1595 22.3122 25 25C23.4748 25 21.9495 25 20.4243 25C19.1523 23.4041 17.9531 21.7332 16.7431 20.0734C15.306 21.6883 13.9527 23.3894 12.5115 25C11.7775 25 11.0436 25 10.3096 25C10.2675 24.8307 10.4627 24.7125 10.5505 24.6101C12.2085 22.6756 13.937 20.5665 15.6078 18.6203C13.7592 16.0589 11.8337 13.5767 10 11ZM14.8165 15.1823C16.5461 17.5015 18.3087 19.8419 20.0459 22.2C20.3331 22.5899 20.8102 23.4879 21.1124 23.5823C21.4662 23.6928 21.9745 23.4982 22.2821 23.5823C20.0551 20.4258 17.4346 16.9116 15.0573 13.6582C14.8699 13.4017 14.219 12.358 13.9564 12.2759C13.5426 12.1467 12.9821 12.3496 12.6491 12.3114C13.3618 13.2355 14.0874 14.2047 14.8165 15.1823Z" fill="#707B8E"/>
</svg>
