<svg width="35" height="35" viewBox="0 0 35 35" fill="none" xmlns="http://www.w3.org/2000/svg">
<path d="M34.852 17.426C34.852 7.8021 27.0499 0 17.426 0C7.8021 0 0 7.8021 0 17.426C0 27.0499 7.8021 34.852 17.426 34.852C27.0499 34.852 34.852 27.0499 34.852 17.426ZM1.58418 17.426C1.58418 8.67657 8.67657 1.58418 17.426 1.58418C26.1755 1.58418 33.2678 8.67657 33.2678 17.426C33.2678 26.1755 26.1755 33.2678 17.426 33.2678C8.67657 33.2678 1.58418 26.1755 1.58418 17.426Z" fill="#707B8E"/>
<path d="M17.5 24C16.9991 24 12.5698 23.9901 11.3053 23.6349C10.8362 23.503 10.4085 23.2443 10.0651 22.8847C9.72165 22.525 9.47457 22.0771 9.34864 21.5859C9.00342 20.2389 9 17.6115 9 17.5004C9 17.3894 9.00385 14.762 9.34864 13.415C9.47494 12.9238 9.72218 12.476 10.0656 12.1164C10.4091 11.7567 10.8367 11.4978 11.3057 11.3655C12.5698 11.0103 16.9991 11 17.5 11C18.0009 11 22.4302 11.0099 23.6951 11.3651C24.1641 11.4973 24.5916 11.7561 24.935 12.1157C25.2784 12.4753 25.5256 12.923 25.6518 13.4141V13.4145C25.9962 14.7616 26 17.3885 26 17.4996C26 17.6106 25.9962 20.238 25.6518 21.585C25.5256 22.0763 25.2784 22.5242 24.9348 22.8839C24.5912 23.2436 24.1634 23.5024 23.6943 23.6345C22.4302 23.9897 18.0009 24 17.5 24Z" fill="#707B8E"/>
<path d="M15.565 21C15.4152 21 15.2715 20.9383 15.1655 20.8285C15.0595 20.7187 15 20.5697 15 20.4144V14.5864C14.9997 14.4835 15.0256 14.3823 15.0751 14.2931C15.1246 14.2038 15.1959 14.1297 15.282 14.0783C15.368 14.0268 15.4656 13.9998 15.5649 14C15.6642 14.0002 15.7617 14.0275 15.8475 14.0793L20.7175 16.9936C20.8034 17.045 20.8747 17.1189 20.9243 17.208C20.9739 17.297 21 17.3979 21 17.5007C21 17.6035 20.9739 17.7045 20.9243 17.7935C20.8747 17.8825 20.8034 17.9564 20.7175 18.0078L15.8475 20.9221C15.7615 20.973 15.6641 20.9998 15.565 21Z" fill="#222F42"/>
</svg>
